<svg id="Слой_1" data-name="Слой 1" xmlns="http://www.w3.org/2000/svg" xmlns:xlink="http://www.w3.org/1999/xlink" viewBox="0 0 1472.52 654.29"><defs><style>.cls-1{fill:url(#Безымянный_градиент_224);}.cls-2{fill:url(#Безымянный_градиент_215);}.cls-3{fill:#383531;}.cls-4{fill:url(#Безымянный_градиент_254);}.cls-5{fill:url(#Безымянный_градиент_249);}.cls-6{fill:#080c0d;}.cls-7{fill:#36322d;}.cls-8{fill:#1f232a;}.cls-9{fill:url(#Безымянный_градиент_234);}.cls-10{fill:url(#Безымянный_градиент_234-2);}.cls-11{fill:url(#Безымянный_градиент_234-3);}.cls-12{fill:url(#Безымянный_градиент_234-4);}.cls-13{fill:url(#Безымянный_градиент_234-5);}.cls-14{fill:url(#Безымянный_градиент_234-6);}.cls-15{fill:url(#Безымянный_градиент_245);}.cls-16{fill:url(#Безымянный_градиент_238);}.cls-17{fill:url(#Безымянный_градиент_245-2);}.cls-18{fill:url(#Безымянный_градиент_238-2);}.cls-19{fill:url(#Безымянный_градиент_234-7);}.cls-20{fill:url(#Безымянный_градиент_254-2);}.cls-21{fill:url(#Безымянный_градиент_249-2);}.cls-22{fill:url(#Безымянный_градиент_234-8);}.cls-23{fill:url(#Безымянный_градиент_234-9);}.cls-24{fill:url(#Безымянный_градиент_234-10);}.cls-25{fill:url(#Безымянный_градиент_234-11);}.cls-26{fill:url(#Безымянный_градиент_234-12);}.cls-27{fill:url(#Безымянный_градиент_234-13);}.cls-28,.cls-29,.cls-30,.cls-31{fill:none;stroke-miterlimit:10;}.cls-28,.cls-30{stroke-width:15px;}.cls-28{stroke:url(#Безымянный_градиент_245-3);}.cls-29,.cls-31{stroke-width:9px;}.cls-29{stroke:url(#Безымянный_градиент_238-3);}.cls-30{stroke:url(#Безымянный_градиент_245-4);}.cls-31{stroke:url(#Безымянный_градиент_238-4);}.cls-32{fill:url(#Безымянный_градиент_234-14);}.cls-33{fill:#31302c;}.cls-34{fill:url(#Безымянный_градиент_215-2);}.cls-35{fill:#36383e;}.cls-36{fill:#515356;}.cls-37{fill:url(#Безымянный_градиент_224-2);}.cls-38{fill:url(#Безымянный_градиент_171);}.cls-39{fill:url(#Безымянный_градиент_181);}.cls-40{fill:#e6e5e3;}.cls-41{fill:#9c9a96;}.cls-42{fill:url(#Безымянный_градиент_215-3);}.cls-43{fill:url(#Безымянный_градиент_215-4);}.cls-44{fill:url(#Безымянный_градиент_215-5);}.cls-45{fill:url(#Безымянный_градиент_203);}.cls-46{fill:url(#Безымянный_градиент_203-2);}.cls-47{fill:url(#Безымянный_градиент_197);}.cls-48{fill:url(#Безымянный_градиент_197-2);}.cls-49{fill:url(#Безымянный_градиент_187);}.cls-50{fill:url(#Безымянный_градиент_181-2);}.cls-51{fill:url(#Безымянный_градиент_171-2);}.cls-52{fill:url(#Безымянный_градиент_161);}.cls-53{fill:#161818;}.cls-54{fill:#23262f;}.cls-55{fill:url(#Безымянный_градиент_161-2);}.cls-56{fill:url(#Безымянный_градиент_161-3);}.cls-57{fill:url(#Безымянный_градиент_130);}.cls-58{fill:url(#Безымянный_градиент_161-4);}.cls-59{fill:url(#Безымянный_градиент_146);}.cls-60{fill:url(#Безымянный_градиент_134);}.cls-61{fill:url(#Безымянный_градиент_130-2);}.cls-62{fill:url(#Безымянный_градиент_121);}.cls-63{fill:url(#Безымянный_градиент_22);}.cls-64{fill:url(#Безымянный_градиент_22-2);}.cls-65{fill:url(#Безымянный_градиент_22-3);}.cls-66{fill:url(#Безымянный_градиент_109);}.cls-67{fill:url(#Безымянный_градиент_110);}.cls-68{fill:#969699;}.cls-69{fill:#cdcccb;}.cls-70{fill:#1e1e1e;}.cls-71{fill:url(#Безымянный_градиент_98);}.cls-72{fill:url(#Безымянный_градиент_98-2);}.cls-73{fill:#c9c8c4;}.cls-74{fill:#5a5853;}.cls-75{fill:#95989f;}.cls-76{fill:url(#Безымянный_градиент_94);}.cls-77{fill:url(#Безымянный_градиент_94-2);}.cls-78{fill:#33363e;}.cls-79{fill:url(#Безымянный_градиент_94-3);}.cls-80{fill:url(#Безымянный_градиент_33);}.cls-81{fill:url(#Безымянный_градиент_33-2);}.cls-82{fill:url(#Безымянный_градиент_33-3);}.cls-83{fill:url(#Безымянный_градиент_94-4);}.cls-84{fill:url(#Безымянный_градиент_94-5);}.cls-85{fill:url(#Безымянный_градиент_94-6);}.cls-86{fill:url(#Безымянный_градиент_33-4);}.cls-87{fill:url(#Безымянный_градиент_33-5);}.cls-88{fill:url(#Безымянный_градиент_33-6);}</style><linearGradient id="Безымянный_градиент_224" x1="1418.44" y1="711.32" x2="1486.26" y2="711.32" gradientUnits="userSpaceOnUse"><stop offset="0" stop-color="#b3b3b5"/><stop offset="0.04" stop-color="#b6b6b7"/><stop offset="0.06" stop-color="#bebebf"/><stop offset="0.08" stop-color="#cdcdcc"/><stop offset="0.1" stop-color="#e0dfdd"/><stop offset="0.46" stop-color="#e3e2e0"/><stop offset="0.49" stop-color="#dddcda"/><stop offset="0.62" stop-color="#cfcdca"/><stop offset="0.76" stop-color="#c7c5c1"/><stop offset="0.96" stop-color="#c4c2be"/></linearGradient><linearGradient id="Безымянный_градиент_215" x1="1451.76" y1="649.14" x2="1456.58" y2="792.6" gradientUnits="userSpaceOnUse"><stop offset="0.14" stop-color="#63605a"/><stop offset="0.31" stop-color="#615e58"/><stop offset="0.37" stop-color="#5a5751"/><stop offset="0.41" stop-color="#4f4c46"/><stop offset="0.44" stop-color="#403d37"/><stop offset="0.53" stop-color="#3c3934"/><stop offset="0.61" stop-color="#312f29"/><stop offset="0.69" stop-color="#1f1c18"/><stop offset="0.75" stop-color="#0a0805"/></linearGradient><linearGradient id="Безымянный_градиент_254" x1="1227.3" y1="844.03" x2="1402.5" y2="780.6" gradientUnits="userSpaceOnUse"><stop offset="0.34" stop-color="#1a1a1a"/><stop offset="0.53" stop-color="#1e1d1c"/><stop offset="0.7" stop-color="#292823"/><stop offset="0.75" stop-color="#2d2c26"/></linearGradient><linearGradient id="Безымянный_градиент_249" x1="1257.39" y1="312.96" x2="1331.11" y2="286.27" gradientUnits="userSpaceOnUse"><stop offset="0.34"/><stop offset="0.47" stop-color="#040403"/><stop offset="0.58" stop-color="#0f0e0c"/><stop offset="0.69" stop-color="#21201c"/><stop offset="0.75" stop-color="#2d2c26"/></linearGradient><linearGradient id="Безымянный_градиент_234" x1="1362.99" y1="815.08" x2="1359.87" y2="863.43" gradientUnits="userSpaceOnUse"><stop offset="0.06" stop-color="#a8a6a4"/><stop offset="0.44" stop-color="#514f4b"/><stop offset="0.55" stop-color="#4d4c47"/><stop offset="0.64" stop-color="#43413c"/><stop offset="0.73" stop-color="#31302a"/><stop offset="0.75" stop-color="#2d2c26"/></linearGradient><linearGradient id="Безымянный_градиент_234-2" x1="1372.79" y1="800.39" x2="1371.6" y2="818.81" xlink:href="#Безымянный_градиент_234"/><linearGradient id="Безымянный_градиент_234-3" x1="1371.57" y1="758.65" x2="1369.82" y2="785.83" xlink:href="#Безымянный_градиент_234"/><linearGradient id="Безымянный_градиент_234-4" x1="1361.29" y1="731.4" x2="1358.61" y2="772.91" xlink:href="#Безымянный_градиент_234"/><linearGradient id="Безымянный_градиент_234-5" x1="1348.82" y1="818.69" x2="1346.57" y2="853.53" xlink:href="#Безымянный_градиент_234"/><linearGradient id="Безымянный_градиент_234-6" x1="1347.94" y1="785.44" x2="1346.38" y2="809.55" xlink:href="#Безымянный_градиент_234"/><linearGradient id="Безымянный_градиент_245" x1="1496.87" y1="694.89" x2="1473.8" y2="873.46" gradientTransform="matrix(0.84, 0.02, -0.04, 0.97, 152.69, 9.83)" gradientUnits="userSpaceOnUse"><stop offset="0.06"/><stop offset="0.44" stop-color="#1f2329"/><stop offset="0.52" stop-color="#23262c"/><stop offset="0.58" stop-color="#2e3135"/><stop offset="0.65" stop-color="#404245"/><stop offset="0.72" stop-color="#5a5a5b"/><stop offset="0.75" stop-color="#6b6a69"/></linearGradient><linearGradient id="Безымянный_градиент_238" x1="1474.29" y1="661.68" x2="1450.47" y2="849.9" gradientTransform="matrix(0.86, 0.05, -0.06, 0.9, 152.17, 50.02)" gradientUnits="userSpaceOnUse"><stop offset="0.06" stop-color="#2f2d28"/><stop offset="0.44" stop-color="#67645e"/><stop offset="0.53" stop-color="#6a6862"/><stop offset="0.62" stop-color="#75726d"/><stop offset="0.7" stop-color="#87847f"/><stop offset="0.75" stop-color="#95938e"/></linearGradient><linearGradient id="Безымянный_градиент_245-2" x1="1356.14" y1="687.55" x2="1333.34" y2="864.08" gradientTransform="matrix(1.04, 0.06, -0.07, 1.07, 22.51, -110.97)" xlink:href="#Безымянный_градиент_245"/><linearGradient id="Безымянный_градиент_238-2" x1="1391.13" y1="710.41" x2="1367.38" y2="898.11" gradientTransform="matrix(1, 0, 0, 1, 0, 0)" xlink:href="#Безымянный_градиент_238"/><linearGradient id="Безымянный_градиент_234-7" x1="1380.85" y1="666.31" x2="1366.51" y2="888.8" gradientTransform="translate(36.66 -31.39) rotate(2.33)" xlink:href="#Безымянный_градиент_234"/><linearGradient id="Безымянный_градиент_254-2" x1="665.07" y1="986.81" x2="925.05" y2="892.69" xlink:href="#Безымянный_градиент_254"/><linearGradient id="Безымянный_градиент_249-2" x1="697.21" y1="414.98" x2="814.74" y2="372.43" xlink:href="#Безымянный_градиент_249"/><linearGradient id="Безымянный_градиент_234-8" x1="863.28" y1="941.25" x2="859.09" y2="1006.28" xlink:href="#Безымянный_градиент_234"/><linearGradient id="Безымянный_градиент_234-9" x1="880.62" y1="921.58" x2="879.06" y2="945.78" xlink:href="#Безымянный_градиент_234"/><linearGradient id="Безымянный_градиент_234-10" x1="878.43" y1="864.51" x2="876.03" y2="901.8" xlink:href="#Безымянный_градиент_234"/><linearGradient id="Безымянный_градиент_234-11" x1="860.47" y1="827.78" x2="856.83" y2="884.26" xlink:href="#Безымянный_градиент_234"/><linearGradient id="Безымянный_градиент_234-12" x1="839.16" y1="945.99" x2="836.12" y2="993.05" xlink:href="#Безымянный_градиент_234"/><linearGradient id="Безымянный_градиент_234-13" x1="837.75" y1="901.07" x2="835.65" y2="933.67" xlink:href="#Безымянный_градиент_234"/><linearGradient id="Безымянный_градиент_245-3" x1="916.64" y1="803.48" x2="886.5" y2="1036.73" gradientTransform="matrix(0.06, 0.84, -0.96, 0.05, 1707.14, 113.87)" xlink:href="#Безымянный_градиент_245"/><linearGradient id="Безымянный_градиент_238-3" x1="921.06" y1="798.26" x2="889.52" y2="1047.51" gradientTransform="matrix(0.05, 0.86, -0.9, 0.05, 1659.63, 91.21)" xlink:href="#Безымянный_градиент_238"/><linearGradient id="Безымянный_градиент_245-4" x1="899.41" y1="799.85" x2="869.28" y2="1033.1" gradientTransform="matrix(0.07, 1.04, -1.07, 0.06, 1807.97, -56.88)" xlink:href="#Безымянный_градиент_245"/><linearGradient id="Безымянный_градиент_238-4" x1="906.76" y1="801.75" x2="875.23" y2="1051" gradientTransform="translate(1761.21 -19.54) rotate(86.5)" xlink:href="#Безымянный_градиент_238"/><linearGradient id="Безымянный_градиент_234-14" x1="899.15" y1="767.92" x2="879.72" y2="1069.31" gradientTransform="translate(36.66 -31.39) rotate(2.33)" xlink:href="#Безымянный_градиент_234"/><linearGradient id="Безымянный_градиент_215-2" x1="461.37" y1="572.9" x2="539.78" y2="572.9" xlink:href="#Безымянный_градиент_215"/><linearGradient id="Безымянный_градиент_224-2" x1="1015.33" y1="411.09" x2="1026.18" y2="848.7" xlink:href="#Безымянный_градиент_224"/><linearGradient id="Безымянный_градиент_171" x1="1295.06" y1="717.03" x2="1616.54" y2="809.46" gradientUnits="userSpaceOnUse"><stop offset="0.14" stop-color="#9f9d9c"/><stop offset="0.21" stop-color="#9d9b9a"/><stop offset="0.24" stop-color="#979593"/><stop offset="0.26" stop-color="#8b8988"/><stop offset="0.27" stop-color="#7b7977"/><stop offset="0.29" stop-color="#666461"/><stop offset="0.3" stop-color="#4d4a46"/><stop offset="0.31" stop-color="#36332e"/><stop offset="0.34" stop-color="#383530"/><stop offset="0.35" stop-color="#403d38"/><stop offset="0.37" stop-color="#4d4a46"/><stop offset="0.38" stop-color="#5f5d5a"/><stop offset="0.39" stop-color="#777573"/><stop offset="0.4" stop-color="#949392"/><stop offset="0.4" stop-color="#9e9d9c"/><stop offset="0.5" stop-color="#1e1d19"/><stop offset="0.97" stop-color="#727271"/></linearGradient><linearGradient id="Безымянный_градиент_181" x1="1330.61" y1="740.78" x2="1423.03" y2="740.78" gradientUnits="userSpaceOnUse"><stop offset="0.08" stop-color="#1f1f1a"/><stop offset="0.16" stop-color="#32322c"/><stop offset="0.28" stop-color="#494741"/><stop offset="0.4" stop-color="#56554e"/><stop offset="0.5" stop-color="#5b5952"/><stop offset="0.97" stop-color="#3d3b36"/></linearGradient><linearGradient id="Безымянный_градиент_215-3" x1="1261.45" y1="624.66" x2="1265.78" y2="649.57" xlink:href="#Безымянный_градиент_215"/><linearGradient id="Безымянный_градиент_215-4" x1="1093.95" y1="557.68" x2="1108.44" y2="640.97" xlink:href="#Безымянный_градиент_215"/><linearGradient id="Безымянный_градиент_215-5" x1="1149.02" y1="772.31" x2="1173.07" y2="910.61" xlink:href="#Безымянный_градиент_215"/><linearGradient id="Безымянный_градиент_203" x1="1140.7" y1="314.46" x2="1146.29" y2="346.55" gradientUnits="userSpaceOnUse"><stop offset="0.14" stop-color="#63605a"/><stop offset="0.75" stop-color="#615e58"/><stop offset="0.97" stop-color="#5a5851"/><stop offset="0.97" stop-color="#5a5851"/></linearGradient><linearGradient id="Безымянный_градиент_203-2" x1="1443.04" y1="674.88" x2="1448.57" y2="706.68" xlink:href="#Безымянный_градиент_203"/><linearGradient id="Безымянный_градиент_197" x1="1155.87" y1="710.98" x2="1160.7" y2="738.71" gradientUnits="userSpaceOnUse"><stop offset="0.35" stop-color="#bdbcb6"/><stop offset="0.52" stop-color="#d4d3d0"/><stop offset="0.64" stop-color="#dfdedc"/></linearGradient><linearGradient id="Безымянный_градиент_197-2" x1="1439.75" y1="662.42" x2="1442.83" y2="680.11" xlink:href="#Безымянный_градиент_197"/><linearGradient id="Безымянный_градиент_187" x1="970.09" y1="484.29" x2="1301.07" y2="489.79" gradientUnits="userSpaceOnUse"><stop offset="0.03" stop-color="#acaaa7"/><stop offset="0.97" stop-color="#898886"/></linearGradient><linearGradient id="Безымянный_градиент_181-2" x1="747.22" y1="871.14" x2="1334.05" y2="880.89" xlink:href="#Безымянный_градиент_181"/><linearGradient id="Безымянный_градиент_171-2" x1="837.26" y1="805.65" x2="1054.86" y2="809.27" xlink:href="#Безымянный_градиент_171"/><linearGradient id="Безымянный_градиент_161" x1="715.48" y1="1003.37" x2="899.53" y2="630.86" gradientUnits="userSpaceOnUse"><stop offset="0.14" stop-color="#0d1112"/><stop offset="0.27" stop-color="#0f1314"/><stop offset="0.32" stop-color="#161919"/><stop offset="0.35" stop-color="#212323"/><stop offset="0.38" stop-color="#323231"/><stop offset="0.4" stop-color="#444240"/><stop offset="0.97" stop-color="#727271"/></linearGradient><linearGradient id="Безымянный_градиент_161-2" x1="342.25" y1="830.71" x2="902.42" y2="724.62" xlink:href="#Безымянный_градиент_161"/><linearGradient id="Безымянный_градиент_161-3" x1="233.84" y1="973.28" x2="1176.44" y2="963.77" xlink:href="#Безымянный_градиент_161"/><linearGradient id="Безымянный_градиент_130" x1="711.37" y1="903.49" x2="711.37" y2="903.49" gradientUnits="userSpaceOnUse"><stop offset="0.01" stop-color="#0d1112"/><stop offset="0.67" stop-color="#444240"/><stop offset="0.85" stop-color="#727271"/></linearGradient><linearGradient id="Безымянный_градиент_161-4" x1="200.31" y1="916.37" x2="1276.25" y2="905.52" xlink:href="#Безымянный_градиент_161"/><linearGradient id="Безымянный_градиент_146" x1="527.82" y1="875.36" x2="839.56" y2="884.63" gradientUnits="userSpaceOnUse"><stop offset="0.01" stop-color="#5c5f60"/><stop offset="0.18" stop-color="#999894"/><stop offset="0.19" stop-color="#9a9995"/><stop offset="0.28" stop-color="#acaba7"/><stop offset="0.38" stop-color="#b9b7b4"/><stop offset="0.53" stop-color="#c0bebb"/><stop offset="0.85" stop-color="#c2c0bd"/></linearGradient><linearGradient id="Безымянный_градиент_134" x1="535.13" y1="859.66" x2="844.55" y2="868.86" gradientUnits="userSpaceOnUse"><stop offset="0.01" stop-color="#797f89"/><stop offset="0.18" stop-color="#dedcda"/><stop offset="0.85" stop-color="#dedddb"/></linearGradient><linearGradient id="Безымянный_градиент_130-2" x1="75.65" y1="806.66" x2="957.66" y2="832.87" xlink:href="#Безымянный_градиент_130"/><linearGradient id="Безымянный_градиент_121" x1="36.1" y1="805.91" x2="969.18" y2="833.64" gradientUnits="userSpaceOnUse"><stop offset="0.01" stop-color="#666b75"/><stop offset="0.43" stop-color="#272b35"/><stop offset="0.85" stop-color="#dcd9d5"/></linearGradient><linearGradient id="Безымянный_градиент_22" x1="591.88" y1="795.09" x2="690.13" y2="817.39" gradientUnits="userSpaceOnUse"><stop offset="0.04" stop-color="#9c421d"/><stop offset="0.53" stop-color="#8d3615"/><stop offset="0.98" stop-color="#ec8426"/></linearGradient><linearGradient id="Безымянный_градиент_22-2" x1="429.75" y1="863.69" x2="553.2" y2="891.71" xlink:href="#Безымянный_градиент_22"/><linearGradient id="Безымянный_градиент_22-3" x1="29.95" y1="820.09" x2="112.42" y2="838.81" xlink:href="#Безымянный_градиент_22"/><linearGradient id="Безымянный_градиент_109" x1="582.85" y1="567.98" x2="565.97" y2="893.47" gradientUnits="userSpaceOnUse"><stop offset="0.12" stop-color="#acadaf"/><stop offset="0.22" stop-color="#a9aaac"/><stop offset="0.28" stop-color="#a1a2a4"/><stop offset="0.31" stop-color="#99999b"/><stop offset="0.33" stop-color="#98989c"/><stop offset="0.48" stop-color="#95979d"/><stop offset="0.96" stop-color="#d8d6d4"/></linearGradient><linearGradient id="Безымянный_градиент_110" x1="175.17" y1="753.61" x2="210.73" y2="700.56" gradientUnits="userSpaceOnUse"><stop offset="0.24" stop-color="#1b1b19"/><stop offset="0.99" stop-color="#32353c"/></linearGradient><linearGradient id="Безымянный_градиент_98" x1="166.17" y1="630.29" x2="151.71" y2="796.65" gradientUnits="userSpaceOnUse"><stop offset="0.12" stop-color="#63615c"/><stop offset="0.85" stop-color="#3d3b36"/></linearGradient><linearGradient id="Безымянный_градиент_98-2" x1="598.69" y1="665.87" x2="584.11" y2="833.53" xlink:href="#Безымянный_градиент_98"/><linearGradient id="Безымянный_градиент_94" x1="75.83" y1="638.51" x2="76" y2="658.77" gradientUnits="userSpaceOnUse"><stop offset="0.43" stop-color="#1b1b19"/><stop offset="0.61" stop-color="#32353c"/></linearGradient><linearGradient id="Безымянный_градиент_94-2" x1="554.42" y1="658.58" x2="556.37" y2="896.13" gradientTransform="translate(-463.21)" xlink:href="#Безымянный_градиент_94"/><linearGradient id="Безымянный_градиент_94-3" x1="592.52" y1="662.57" x2="523.15" y2="755.18" gradientTransform="translate(-463.21)" xlink:href="#Безымянный_градиент_94"/><linearGradient id="Безымянный_градиент_33" x1="528.2" y1="658.04" x2="609.27" y2="795.54" gradientTransform="translate(-463.21)" gradientUnits="userSpaceOnUse"><stop offset="0" stop-color="#fff"/><stop offset="1" stop-color="#5d5e60"/></linearGradient><linearGradient id="Безымянный_градиент_33-2" x1="474.05" y1="613.87" x2="695.39" y2="870.77" xlink:href="#Безымянный_градиент_33"/><linearGradient id="Безымянный_градиент_33-3" x1="622.56" y1="658.2" x2="440.91" y2="806.69" xlink:href="#Безымянный_градиент_33"/><linearGradient id="Безымянный_градиент_94-4" x1="502.63" y1="678.99" x2="504.87" y2="952.02" xlink:href="#Безымянный_градиент_94"/><linearGradient id="Безымянный_градиент_94-5" x1="486.44" y1="654.15" x2="486.84" y2="703.17" xlink:href="#Безымянный_градиент_94"/><linearGradient id="Безымянный_градиент_94-6" x1="552.05" y1="677.98" x2="462.04" y2="798.13" xlink:href="#Безымянный_градиент_94"/><linearGradient id="Безымянный_градиент_33-4" x1="470.52" y1="673.7" x2="573.59" y2="848.5" gradientTransform="matrix(1, 0, 0, 1, 0, 0)" xlink:href="#Безымянный_градиент_33"/><linearGradient id="Безымянный_градиент_33-5" x1="395.24" y1="608.79" x2="695.42" y2="957.19" gradientTransform="matrix(1, 0, 0, 1, 0, 0)" xlink:href="#Безымянный_градиент_33"/><linearGradient id="Безымянный_градиент_33-6" x1="592.25" y1="673.07" x2="374.35" y2="851.18" gradientTransform="matrix(1, 0, 0, 1, 0, 0)" xlink:href="#Безымянный_градиент_33"/></defs><path d="M229.21,980.69s19.24,17.83,92.37,16.83S365.33,964,365.33,964L250.86,952.31Z" transform="translate(-13.74 -422.85)"/><path d="M1421.65,765.05c.18-1.6,10.63,2,11,0s4-53.79,4-53.79l29.33-10.1-6.43-14.07S1400.13,663,1395.71,661s-20.72,0-20.72,0l13.54,69.9Z" transform="translate(-13.74 -422.85)"/><path d="M976.49,972.4l-21.5-6L840.05,759.47,947.7,747.34s93.58,65.13,92.58,77.19S976.49,972.4,976.49,972.4Z" transform="translate(-13.74 -422.85)"/><path class="cls-1" d="M1484.11,706s4.83-4.42,0-6.43-20-2.25-20-2.25l-44.84,14s-2,4.54.49,4.85,5,2.33,5.13,6.75,18.29,1.61,19.09,1.61S1484.11,706,1484.11,706Z" transform="translate(-13.74 -422.85)"/><path class="cls-2" d="M1424.84,722.86,1484.11,706l-16.37,31.29-1.51,3.51s-16.61,14.12-19.55,18.69-3.15,7-6.47,9-14.6,8.74-14.6,8.74l.24-20.8S1425,726.07,1424.84,722.86Z" transform="translate(-13.74 -422.85)"/><path class="cls-3" d="M1425.61,756.41s37.91-16,42.13-19.14c0,0-.9,2.94-1.51,3.51s-38.72,17.54-38.72,18.69-1.11,17.74-1.11,17.74Z" transform="translate(-13.74 -422.85)"/><path class="cls-4" d="M1394.45,895s-10.9,19.77-38.65,20.66c-19.3.62-52.82-6.79-63.72-10.39-5.34-1.77-10-6-13.06-11.82-6.31-12-15.41-34.47-11.33-58.9l52.19-134.75,46.54-27.2,20.51,50.9-5.82,115.74Z" transform="translate(-13.74 -422.85)"/><line class="cls-5" x1="1278.26" y1="332.64" x2="1324.29" y2="261.51"/><path class="cls-6" d="M1354,870.7c3.37,2.6,36.94,5,36.94,5l7.49-93.83-7.6-64.67-31.24,10.94s-13.41,19.1-16.25,32.78-12.23,67.28-7.65,78.3S1354,870.7,1354,870.7Z" transform="translate(-13.74 -422.85)"/><path class="cls-7" d="M1349.47,824.56s5.71-5.69,8.27-10-1.92-5.16,0-6.37,6-7.62,5.3-7.82,2.06-14.43.09-14.78-3.6-4.46-3.22-8,2-10.8,0-8.31-1.54,9.8-5.23,8.31-5.68-8.82-5.68-8.82l-7.06,20.29s-4,27.17-3.91,29.57,2.78,13.37,2.78,13.37Z" transform="translate(-13.74 -422.85)"/><path class="cls-8" d="M1346.24,782.94c.92-.07.42-1.79,3.23-.6s6.06,9.22,5,16.35-5.69,17.25-9.69,13.24S1346.24,782.94,1346.24,782.94Z" transform="translate(-13.74 -422.85)"/><path class="cls-9" d="M1350.54,819.36s3-6.25,5.57-4.46,8.71,11.67,11,18.88,5.05,28.39,5.05,28.39l-4,1.79s-6.23-28.77-10.76-35.24S1350.54,822.7,1350.54,819.36Z" transform="translate(-13.74 -422.85)"/><path class="cls-10" d="M1355.94,804.53c-.07-.08-.7-4.57,1.39-5s8.88,1.58,13.59,3.8,17.24,9.39,17.41,11.27.7,5.45-1.21,5.22S1358,807.09,1355.94,804.53Z" transform="translate(-13.74 -422.85)"/><path class="cls-11" d="M1355.8,784.79c-.39-.66.31-3.79,2.92-4.9s18.81-13.38,22.39-17.84,4.26-2.23,4.44,0-2.12,6.35-4.44,10.08c-2.47,4-9,13.63-13.85,13.48S1355.8,784.79,1355.8,784.79Z" transform="translate(-13.74 -422.85)"/><path class="cls-12" d="M1356.63,772.54s7.32-3.8,8.89-10.94,5.11-27.65,5.11-27.65,0-2.9-2.54-1.78-18.89,39.41-18.89,39.41A15.38,15.38,0,0,0,1356.63,772.54Z" transform="translate(-13.74 -422.85)"/><path class="cls-13" d="M1344.9,821.59c0-.42,2.61-5.11,4.3-1.78s2.73,10,2.21,16.5-2.21,17.39-2.21,17.39-4.71-10.48-4.3-11.6S1344.9,821.59,1344.9,821.59Z" transform="translate(-13.74 -422.85)"/><path class="cls-14" d="M1345.83,785.61s4.81-3.05,3.37,12.34-4.33,11-4.33,11Z" transform="translate(-13.74 -422.85)"/><path class="cls-15" d="M1363.73,883.76a18,18,0,0,1-2.07-.13c-10.67-1.29-19.57-12.34-25.05-31.12-4.88-16.71-6.67-38.16-5-60.4s6.53-42.89,13.77-58.14c8.14-17.12,18.49-25.85,29.16-24.55s19.57,12.34,25,31.11c4.89,16.71,6.67,38.17,5,60.41s-6.54,42.89-13.78,58.13C1383.21,875.09,1373.66,883.76,1363.73,883.76Zm8.78-157.18c-5,0-10.63,5.9-15.61,16.37C1350.7,756,1346.48,774,1345,793.73c-3,40,7,71.38,17.9,72.7s25.27-27.11,28.23-67.11-7-71.38-17.91-72.7A6,6,0,0,0,1372.51,726.58Z" transform="translate(-13.74 -422.85)"/><path class="cls-16" d="M1368.25,886.7a16.62,16.62,0,0,1-2.62-.21c-20.43-3.21-32.84-43.1-28.26-90.81,2.12-22.17,7.66-42.53,15.59-57.33,8.47-15.82,18.77-23.64,29-22s18.75,12.39,24,30.36c4.9,16.82,6.42,38.29,4.29,60.46h0C1405.84,852.8,1387.71,886.7,1368.25,886.7Zm11.1-160.21c-6.6,0-13.54,6.21-19.7,17.72-7.21,13.46-12.27,32.19-14.24,52.73-3.89,40.54,5.82,76.84,21.21,79.26a10,10,0,0,0,1.64.13c14.89,0,30.17-31.35,33.92-70.46h0c2-20.54.61-40.28-3.84-55.58-4.12-14.15-10.28-22.56-17.36-23.68A11.18,11.18,0,0,0,1379.35,726.49Z" transform="translate(-13.74 -422.85)"/><path class="cls-17" d="M1369.23,899a21.87,21.87,0,0,1-3.41-.27c-12.45-2-22.82-14.37-29.19-35-5.83-18.83-7.74-42.75-5.38-67.37s8.74-47.23,18-63.69c10.07-18,22.47-26.83,34.93-24.87,24.52,3.86,39.71,48.8,34.57,102.32h0c-2.36,24.61-8.74,47.23-18,63.7S1380.52,899,1369.23,899Zm11.62-174.12c-6.79,0-14.23,6.4-20.67,17.91-7.92,14.15-13.44,33.94-15.53,55.73s-.48,42.71,4.53,58.89c4.4,14.23,11.07,23,18.29,24.17s15.35-5.34,22.31-17.78c7.92-14.15,13.44-34,15.53-55.74,4.49-46.83-8.17-80.75-22.82-83.05A10,10,0,0,0,1380.85,724.9Z" transform="translate(-13.74 -422.85)"/><path class="cls-18" d="M1375.64,899q-.77,0-1.53-.06c-23.37-1.83-39.68-44.89-37.14-98s22.84-93.31,46.2-91.49c11.61.91,21.83,12,28.78,31.32,6.58,18.24,10.68,43.29,9.5,68.06C1419,860.77,1398.36,899,1375.64,899Zm6-179.26c-17.84,0-34.47,36.9-36.62,81.81-2.19,45.75,11.35,85.61,29.55,87,.34,0,.68,0,1,0,17.83,0,34.47-36.91,36.62-81.81h0c1.1-23.08-1.61-45-7.63-61.71-5.65-15.67-13.43-24.66-21.93-25.32C1382.34,719.75,1382,719.74,1381.67,719.74Z" transform="translate(-13.74 -422.85)"/><path class="cls-19" d="M1366.06,912.22c-14.59-.76-22.16-16-29.6-39.22-6.82-21.28-9.07-48.34-6.36-76.21,5.9-60.55,23.43-110.63,52.08-107,40.85,5.15,48.34,59.88,42.44,120.44h0c-2.71,27.86-11.25,53.44-21.95,72.1C1391.67,901.5,1380.43,913,1366.06,912.22Zm19.69-198c-8.2,0-17,7.87-24.37,21.86-8.77,16.66-14.49,39.59-16.13,64.58s1,48.73,7.55,66.87c5.72,16,13.9,25.63,22.44,26.46s17.87-7.12,25.59-21.8c8.77-16.66,14.5-39.6,16.13-64.58s-1-48.73-7.55-66.88c-5.72-16-13.9-25.62-22.44-26.45C1386.56,714.29,1386.16,714.27,1385.75,714.27Z" transform="translate(-13.74 -422.85)"/><path class="cls-20" d="M918.35,1049.16s-18.86,26.72-66.88,27.92c-33.38.84-69.41-7-88.26-11.91a39,39,0,0,1-22.59-16C729.69,1033,714,1002.62,721,969.6l68.32-184.25,80.53-36.77,35.49,68.79L895.26,973.79Z" transform="translate(-13.74 -422.85)"/><line class="cls-21" x1="727.35" y1="437.72" x2="806.99" y2="341.58"/><path class="cls-6" d="M848.33,1016.27c5.83,3.52,63.92,6.83,63.92,6.83l13-126.81-13.15-87.4-54,14.78S834.8,849.48,829.89,868s-21.16,90.93-13.24,105.81S848.33,1016.27,848.33,1016.27Z" transform="translate(-13.74 -422.85)"/><path class="cls-7" d="M840.52,953.92s9.89-7.7,14.31-13.49-3.32-7,0-8.61,10.47-10.3,9.18-10.58,3.55-19.49.15-20-6.22-6-5.57-10.85,3.45-14.6,0-11.24-2.67,13.25-9,11.24-9.83-11.93-9.83-11.93L827.5,905.92s-7,36.73-6.76,40,4.8,18.07,4.8,18.07Z" transform="translate(-13.74 -422.85)"/><path class="cls-8" d="M834.94,897.66c1.59-.09.72-2.41,5.58-.8S851,909.31,849.2,919s-9.86,23.31-16.77,17.88S834.94,897.66,834.94,897.66Z" transform="translate(-13.74 -422.85)"/><path class="cls-22" d="M842.37,946.89s5.12-8.44,9.64-6,15.07,15.77,19,25.52,8.74,38.37,8.74,38.37l-7,2.41S862,968.28,854.12,959.54,842.37,951.41,842.37,946.89Z" transform="translate(-13.74 -422.85)"/><path class="cls-23" d="M851.71,926.84c-.11-.1-1.2-6.17,2.41-6.78s15.38,2.14,23.51,5.14,29.84,12.68,30.14,15.23,1.21,7.36-2.11,7.06S855.33,930.31,851.71,926.84Z" transform="translate(-13.74 -422.85)"/><path class="cls-24" d="M851.47,900.17c-.66-.9.54-5.12,5.07-6.63s32.54-18.08,38.72-24.11,7.39-3,7.69,0-3.67,8.59-7.69,13.63c-4.27,5.36-15.52,18.42-24,18.22S851.47,900.17,851.47,900.17Z" transform="translate(-13.74 -422.85)"/><path class="cls-25" d="M852.92,883.62s12.66-5.15,15.37-14.79,8.84-37.37,8.84-37.37.07-3.92-4.38-2.41-32.7,53.27-32.7,53.27A33.4,33.4,0,0,0,852.92,883.62Z" transform="translate(-13.74 -422.85)"/><path class="cls-26" d="M832.62,949.9c0-.56,4.51-6.9,7.43-2.4s4.73,13.55,3.83,22.29-3.83,23.51-3.83,23.51-8.14-14.17-7.43-15.67S832.62,949.9,832.62,949.9Z" transform="translate(-13.74 -422.85)"/><path class="cls-27" d="M834.23,901.28s8.33-4.12,5.82,16.67-7.47,14.83-7.47,14.83Z" transform="translate(-13.74 -422.85)"/><ellipse class="cls-28" cx="872.75" cy="916.03" rx="106.57" ry="51.76" transform="translate(-135.1 1275.82) rotate(-84.6)"/><ellipse class="cls-29" cx="882.62" cy="922.62" rx="108.85" ry="56.49" transform="translate(-154.5 1263.28) rotate(-83)"/><ellipse class="cls-30" cx="884.67" cy="925.2" rx="118.28" ry="64.55" transform="translate(-155.26 1267.58) rotate(-83)"/><ellipse class="cls-31" cx="890.99" cy="926.38" rx="121.3" ry="65.23" transform="translate(-101.83 1336.26) rotate(-86.5)"/><path class="cls-32" d="M869.23,1072.39c-25.25-1-38.34-21.61-51.21-53-11.79-28.75-15.7-65.33-11-103,10.2-81.84,40.68-150.38,90.1-144.64s81.67,79.11,71.47,161h0c-4.7,37.66-17.5,74.06-36,99.28C913.53,1057.91,894.09,1073.41,869.23,1072.39ZM903.3,804.86c-14.19,0-29.44,10.63-42.17,29.54-15.17,22.52-25.07,53.51-27.9,87.28s1.82,65.86,13.06,90.38c9.9,21.61,24.05,34.64,38.83,35.76s30.91-9.62,44.28-29.46c15.16-22.52,25.07-53.52,27.89-87.29s-1.81-65.86-13-90.38c-9.9-21.6-24.06-34.64-38.83-35.76C904.71,804.88,904,804.86,903.3,804.86Z" transform="translate(-13.74 -422.85)"/><path class="cls-33" d="M1334.43,796.52l.63,2.93-21.53,70.89L1276,864s-24.51-28.58-24.71-29.79,37.7-31.82,40.75-33.79S1330.27,790,1330.27,790Z" transform="translate(-13.74 -422.85)"/><path class="cls-34" d="M535.36,587.94s4.42-22.91,4.42-25.62-19.44-11.07-25.61-10.24-37.68-.06-37.68-.06-9.64,3.37-10.25,10.91-6.32,23.2-4.52,23.8,40,7.06,40,7.06Z" transform="translate(-13.74 -422.85)"/><path class="cls-35" d="M1430.67,557.21c-.6-1.52-13.92-14.71-13.92-14.71L1263.2,449.61l-34.46-11.32s-91.62-2.55-104.28-4.36-396,4.36-396,4.36l-62.18,8L515.67,544.84l-57,45.21,72.94,19.29,8.13-22.61v-22.6S652.44,463.27,683.51,457.24l8.57-2V458l100.46-4.62-45.41,130.3-42.19,3s-35.74-30.44-70.31-3,0,17.78,0,17.78,511.53,58,514.55,59.46,225.43-39.27,225.43-39.27l62.09-38S1431.27,558.73,1430.67,557.21Zm-781,28s17.08-12.06,38.17,1.5C687.86,586.73,654.51,585.43,649.69,585.23Zm224.83-29.14s-1,4.62-4.62,4.42-27.33,0-27.33,0-3.4.09-2.81-2.42l2.81-12.05s0-2.21,3.62-2.82,28.33,0,28.33,0,1.81.41,1.81,1.81S874.52,556.09,874.52,556.09Zm90.81-3.21c-2.61,2.81-9.84,11.65-9.84,11.65s-43,5.63-49,6.63c0,0-1.4-23.91-3-28.73s-4.62-20.29-21.1-23.1-49.42-.81-49.42-.81a33,33,0,0,0-15.67,15.67,131.05,131.05,0,0,0-7.64,18.69s5.83-55.25,9.24-59.47h57.06s6.84,1.6,6.64-2.21-2.82-20.5-2.82-20.5a7.57,7.57,0,0,0-6.23-4.22c-4.62-.4-29.33,0-29.33,0s1.61-14.06,6.43-15.27c0,0,17.28.61,21.7,3s91.52,92.42,91.52,92.42S968,550.07,965.33,552.88Zm80.93-82L1019.62,543l-3.25-2.15-70.73-73.53s-4.82-4.83,0-4.83S1046.26,460,1046.26,460Zm154.15,68.72c-6.43-1.61-57.06-3.22-57.06-3.22s-7.23-23.1-13.26-25.21-65.62-5.06-65.62-5.06L1076.62,460h93.66s3.61-1.15,5.22,3.27,28.93,71.12,28.93,71.12S1206.84,541.23,1200.41,539.62Zm100.46,8.44-3.61-5.09h-40.75l-46-80.51s31.3-3.61,41.75,0,128.59,89.28,128.59,89.28Z" transform="translate(-13.74 -422.85)"/><path class="cls-36" d="M1063.79,583.72l-7.64-26,23.31-97.25a16.08,16.08,0,0,1,14.06-9.64c10.85-.8,76-4.42,76-4.42s7.64.8,10,6.43,72.33,139.84,72.33,139.84,2.81,6,0,6-93.63,8-93.63,8l3.21,21.9,132.21-9-108.5-181.3L1161,433.13s-82.78,8.41-84.38,8.63S1021.59,626,1021.59,626l30.14-2.41Z" transform="translate(-13.74 -422.85)"/><path class="cls-36" d="M1286.05,595.17l-77.2-143.56s-6-4.82,0-4,25.72.8,33.76,3.61,127.78,67.11,168,105.29c0,0,7.63,2.81,7.43,9.24s-.6,7.23-3.41,8.84-133,24.86-133,24.86l6.78,11.33s153-20.92,151.84-22.13-10.75-33.35-10.75-33.35L1418,547.66l-138.63-88s-31.55-15.3-38.78-17.89-39-9.84-41.79-8.63-8.15,14.38-8.15,14.38Z" transform="translate(-13.74 -422.85)"/><path class="cls-36" d="M994.27,601.5s45.41-94.83,53.84-151.89c0,0-260.39-13.27-380.54,0,0,0-143.26,83.08-197.41,134.36l-8.44-.25S545.41,513.05,667,446l40.58-4.29,186.06-12,178.11,2.72-6.33,41-44.3,146.48-22.6,1.8Z" transform="translate(-13.74 -422.85)"/><path class="cls-37" d="M1443.93,555.37c-1.2-.91-11.45-2.41-11.45-2.41s-157-105.19-187.16-113.93-96.14-12.35-96.14-12.35C891.8,411.61,667,446,667,446s65.7-6.63,169.37-6.63,223,6.63,223,6.63c-2.72,19.29-52.24,156.72-52.24,156.72L780.49,641.33s-181,119.78-185.1,120.95-18.54,62.57-18.54,62.57l212.48,27.08s27.32-57.57,28.93-59,66.91-41.77,76.35-41.59,32.81,8,64.21,30.63,23,56.72,23,56.72L1327.6,782,1352,728.66s45.51-50.93,46.71-50.93S1419.88,692,1419.88,692l50-16.72C1473.47,591.53,1445.14,556.27,1443.93,555.37Zm-281.69,61.4-92.43-22.9c-.4-1.21-32.44,15.17-32.44,15.17l40.08-152.2s0-11.66,13.66-13.26,77.16-5.23,77.16-5.23a13.13,13.13,0,0,1,12.85,6.83c4.43,8,68.52,112.12,82.08,160.74Zm262.4-38.47s.1,2.05-4.37,4.67-34.81,9.19-62.23,11.6-68.42,6.93-68.42,6.93-80-141.85-90.81-158.73c0,0,2.36-1.15,11-1s27.22-.2,37.27,3.82,67.91,35,103.67,58.67S1423,554.49,1423,554.49s1.46.9,1.61,3.91S1424.64,578.3,1424.64,578.3Z" transform="translate(-13.74 -422.85)"/><path class="cls-38" d="M1331.62,796.4l-18.09,2.4L1330.61,757l10.85-28.54,6.63-20.89s14.07-37.77,34-39.58,33.9,14.22,36.24,18.86,6.55,20.72,6.55,20.72L1423,710.4l-5.82-6.83L1407,690.86s-11.25-1.26-12.26,0-21.69,20.4-21.69,20.4l-15.07,24.86Z" transform="translate(-13.74 -422.85)"/><path class="cls-39" d="M1330.61,796.4h3.82s25.52-79,50.83-96.45,34,11.31,34,11.31l3.81-.86s-10-37.17-32.14-21.3S1348.09,743.75,1330.61,796.4Z" transform="translate(-13.74 -422.85)"/><polygon class="cls-40" points="971.18 380.42 1321.69 312.31 1319.13 310.8 967.26 379.52 967.87 380.42 971.18 380.42"/><polygon class="cls-41" points="967.87 380.42 971.18 380.42 976.16 398.36 1316.87 327.33 1315.06 330.34 972.49 401.67 967.87 380.42"/><path class="cls-42" d="M1247,632.64l2.61,13.06s.6,1.21,6,1.21,20.69-1.81,20.69-1.81,3-1.61,3-3.61-1-10.45-1-10.45-1.81-2.41-3-2.41-28.33,1.6-28.33,1.6Z" transform="translate(-13.74 -422.85)"/><path class="cls-43" d="M1037.37,609s3.91-14.17,7.53-16.58,28.33-19.59,28.33-19.59a46.91,46.91,0,0,1,19.29-3.92c11.45,0,62.65,1.81,62.65,1.81s8.17,3.62,8.47,11.45,2.72,31,2.72,31,1.2,7.23-5.13,9.64-98.25,6.33-101.86,7.23-13.87,4.22-16.58,0S1037.37,609,1037.37,609Z" transform="translate(-13.74 -422.85)"/><path class="cls-44" d="M981,834l349.6-76.22s-9.84,35.76-13.46,41.18l-46.82,51.95L995.77,926.84l-11.7-44.29Z" transform="translate(-13.74 -422.85)"/><polygon class="cls-45" points="948.51 352.54 1334.35 284.73 1327.72 305.63 957.74 375.95 948.51 352.54"/><path class="cls-46" d="M1418,685.89l6,21.7,42.19-10.85s3.62-18.08,3.62-22.6Z" transform="translate(-13.74 -422.85)"/><path class="cls-47" d="M955,749.48s10.24,16.58,10.85,20.19l384.56-72.93s5.12-15.07,7.54-17.48Z" transform="translate(-13.74 -422.85)"/><path class="cls-48" d="M1469.85,669.61s-.6-7.63,0-10.24c0,0-59.47,10.85-59.27,11.45s7.23,11.45,7.83,11.65S1469.85,669.61,1469.85,669.61Z" transform="translate(-13.74 -422.85)"/><path class="cls-33" d="M995.77,926.69s-6.4-39.18-11.6-47L981,966.38l11.58-3.45Z" transform="translate(-13.74 -422.85)"/><polygon class="cls-49" points="1301.8 444.29 1256.59 427.89 982.03 503.84 969.07 545.43 1301.8 445.97 1301.8 444.29"/><path class="cls-50" d="M745.12,997.34s6.84.4,9.25,0c0,0,51.83-186.86,105.78-213.68s86.2-6,96.75,10.25,30.74,39,19.59,178.49l342.07-100.13,16.87-74.44-2.71.3-17.18,69L984.29,965.39s.37-75,0-85.29-1-29.71-1-29.71l-1.44-12.86-4-17.7-7.38-24.42S950,770,949.06,768s-48.07-20.5-49.28-20.65S867.54,753.52,866,754s-37.67,19.14-37.67,21.85S791,803.37,791,803.37l-4.28,1.49,2.61,21Z" transform="translate(-13.74 -422.85)"/><path class="cls-51" d="M984.17,879.68S991.36,735,893.61,735c-46.42,0-89.2,36.47-103.23,68.57l37.12-1.76s42.6-47.22,83.59-42.39S983.32,798.61,984.17,879.68Z" transform="translate(-13.74 -422.85)"/><path class="cls-52" d="M734.48,997.52h10.64S776.87,887.61,827.5,805H786.72L770.84,852,701.32,978.83l25.32,16.88Z" transform="translate(-13.74 -422.85)"/><path class="cls-53" d="M549.83,930.61v-43.4l-70.08-73.16-38.52-46.18L150.68,729.69l-34,37s-39,17.47-45.3,25.12-21.06,43.7-21.06,43.7,22.22,65,30.39,64.39,289.05,73.68,295.08,72.71S549.83,930.61,549.83,930.61Z" transform="translate(-13.74 -422.85)"/><path class="cls-53" d="M789.33,806.89c-.15.76,1,5.84,1,5.84l-1.07,10.74L543,842.31l-4.78-10.74,128.58-11.26-8.38-1.8,26.67-2.42a145,145,0,0,0,15.17-.91c7.53-.9,86.19-10.14,86.5-10.14A19.63,19.63,0,0,1,789.33,806.89Z" transform="translate(-13.74 -422.85)"/><polygon class="cls-54" points="129.62 338.25 427.49 364.77 426.28 368.92 120.98 342.9 129.62 338.25"/><polygon class="cls-54" points="127.74 351.84 427.49 378.46 427.49 383.59 125.5 355.1 127.74 351.84"/><polygon class="cls-54" points="126.34 359.46 431.41 387.51 425.98 393.63 124.32 364.68 126.34 359.46"/><path class="cls-55" d="M800.37,819.49s1.16,1.82-1.73,7.65S787.12,847,787.12,847l-231,32.16s-36.61-12.07-41.94-12.07S433.39,852,433.39,852L103,816.49s-1.53,31.58,0,35.46,6,6.73,6,6.73L24,844.22s-5.38-23.77-4.17-30.17,2.86-6.4-.18-10.82-7.43-8.06-5.33-10.59,19.17,1.46,21.58,0,559.27,49,559.52,49.67S800.37,819.49,800.37,819.49Z" transform="translate(-13.74 -422.85)"/><path class="cls-56" d="M737.79,971.9s-.5,21.6-3.31,25.62-172.69,22.9-172.69,22.9-52.75,6-79.27,0S108.87,962.56,95.88,960.75c0,0-16.46-9.19-16.16-15.52s3.47-20.34,8.67-23.06,474.3,40.39,478.52,41S737.79,971.9,737.79,971.9Z" transform="translate(-13.74 -422.85)"/><path class="cls-57" d="M711.37,903.49" transform="translate(-13.74 -422.85)"/><path class="cls-58" d="M775.16,875.91s-35.56,93.58-37.37,96-159.93,16.58-167.07,16.58S88.39,922.17,88.39,922.17s.67-9.19-2.49-13.86-14.47-24.56-14.47-24.56-5.87-5-10.7-6.33-24.56-7.54-28.93-13.71S24,842.31,24,842.31h7.15s7.31,7.36,63.75,12.58,349.9,40.76,351.59,40.76,77.66,7.86,85.29,7.82,227.84-33.13,227.84-33.13Z" transform="translate(-13.74 -422.85)"/><path class="cls-59" d="M528.93,899.87l.07,3.62s34.89-.21,38.21,0c1.27.08,12-.61,24.71-1.81s183.24-25.77,183.24-25.77l8.93-21s-49,3.09-52.93,3.39-171.49,17.63-171.49,17.63l-39.18-3.77Z" transform="translate(-13.74 -422.85)"/><path class="cls-60" d="M527.43,880.21l30.75,2.11s19.88-.31,34-2.11,191.87-25.32,191.87-25.32l5.24-9.64h-8.44L582,870.86s-9.35.91-21.4.91-33.15-.91-33.15-.91Z" transform="translate(-13.74 -422.85)"/><path class="cls-61" d="M798.64,819l-8.26-6.28S643.57,833.18,601.52,834s-63.34-2.41-63.34-2.41,28.8,2,68.71-.62c51.54-3.38,122.42-12.49,182.44-22.69l-.61-2.46S699.88,817,685.05,818.31s-24.68-.44-24.68-.44l-89.65,6.66-131-8S149.21,797,143.36,793.4s-13.76-7.24-18-8-40-4.34-45.26-5.18-22.27-.55-23.16,0-1.75,8.9-1.75,8.9l10,10.34,50.29,7.46S501,843.22,504.13,843.63s73.12,4.82,73.12,4.82l70.84-4.16Z" transform="translate(-13.74 -422.85)"/><path class="cls-62" d="M797.16,816.63S628,844.76,583.78,844.76,72.24,798.54,72.24,798.54s-13.86-7.87-8.9-13.46,4.5-5.63,3.26-5.74L51,778S18.79,788.5,16.38,790.11s-3.21,3.61,0,5.22,502.31,50,545.7,54.55c0,0,17.48,1.31,43.4-1.91S799.78,820,799.78,820,803.79,817,797.16,816.63Z" transform="translate(-13.74 -422.85)"/><path class="cls-63" d="M592.52,792.88l-6.93,27.43s72.64-3.62,87.4-6V786.85S597.05,793.48,592.52,792.88Z" transform="translate(-13.74 -422.85)"/><path class="cls-64" d="M528.93,899.87V865.81s1.21-6.32-6.63-7.23S433.39,852,433.39,852s-2.71,2.11-2.71,5.12v30.14s-1.66,3,4.9,3.92S528.93,899.87,528.93,899.87Z" transform="translate(-13.74 -422.85)"/><path class="cls-65" d="M94.87,850.14c-.23-.9,0-31.94,0-31.94s-.23-5.13-2.64-5.43-56.66-6.33-56.66-6.33-3.92,1.21-3.92,4.52-1.2,27.13,0,27.73.6,3,9.65,5.43S94.87,850.14,94.87,850.14Z" transform="translate(-13.74 -422.85)"/><path class="cls-66" d="M582.28,785.35h10.14s61.89-91.83,414.71-183.85H961.42s-139.1-7-163.41-6-236.22-8.74-236.22-8.74l-100.07-3S294.46,611,183.45,661.88l-36.07,88.36,299.08,23.65Z" transform="translate(-13.74 -422.85)"/><path class="cls-67" d="M150.68,744.62c-.4.6,28.65-4.68,48.74-2.27s32.35,4.74,29.34,2.27-18.49-15.53-18.69-23,4-29.07,3.42-29.53-23.31,3.41-24.52,4-30.74,12.55-33.75,15.12-4.54,18.43-4.54,18.43Z" transform="translate(-13.74 -422.85)"/><path class="cls-68" d="M216.59,690.26s149-64.65,300.59-100.21c0,0-129.39,25.92-303.69,98.85Z" transform="translate(-13.74 -422.85)"/><path class="cls-69" d="M587.1,672.63s150.69-63,204.64-73.24c0,0,1.81-2.11-3.62-2.41s-214.86-7.83-226.33-10.25l235.07,8.44s12.06,3,7.24,3.92-87.54,19.31-212.85,74.3Z" transform="translate(-13.74 -422.85)"/><path class="cls-69" d="M637.5,722.91c1.14,1.86,8.07-1.46,8.07-1.46s144.36-85,314.34-120h3.92a940.61,940.61,0,0,0-113.62,32.25c-87.49,30.88-196.92,78.86-226.52,103.75C573.24,779.92,637.5,722.91,637.5,722.91Z" transform="translate(-13.74 -422.85)"/><path class="cls-70" d="M626.88,735l7.75-7.12s-4.28-11-4.88-11.86-17-21.7-17-21.7l-31.9-25-12.41,3.32,7.34,21.7Z" transform="translate(-13.74 -422.85)"/><path class="cls-70" d="M208,694l5.53-1.91s-5.83-11.19-6.89-12.93-20.34-24.49-20.34-24.49l-15.67-11.46L154,637.39l-.6,27.7Z" transform="translate(-13.74 -422.85)"/><path class="cls-71" d="M133,785.35s5.62,5.12,6.53,0,4.82-27.72,7.83-35.11S179,705.18,208,694l-2.11-7.34S173.93,640.48,149.49,638s-32.16,3.89-31.75,5.27,0,43.45,0,43.45l11.87,96.55Z" transform="translate(-13.74 -422.85)"/><path class="cls-72" d="M570.72,672.63s38.38,13,56.16,51.84V735s-35.26,26.23-44.6,50.34-9.65,39.18-9.65,39.18h-1.91l-4.42-12.36-2.41-139.54Z" transform="translate(-13.74 -422.85)"/><path class="cls-73" d="M576.85,674.24s25.62,4.31,58.17,54.24l3.62-3.71S606.29,670,575.75,668.61l-3.12,4Z" transform="translate(-13.74 -422.85)"/><path class="cls-73" d="M149.49,638c.91.1,17.38,4.32,25.82,11.75s37.37,42.4,38.18,42.4,4.62-3,4.62-3-33-44.2-48.43-49.22-22.3-8.24-22.3-8.24l-4,5.12Z" transform="translate(-13.74 -422.85)"/><polygon class="cls-74" points="554.17 252.19 563.11 251.38 562 245.76 545.93 244.25 521.62 249.77 530.16 261.03 554.17 252.19"/><path class="cls-74" d="M130.61,642.21s14.36-4,18.88-4.24l-2.11-6.33-26,1.51-4.64,4.65s1.13,6.71,1.43,6.83,5.72,1.1,5.72,1.1Z" transform="translate(-13.74 -422.85)"/><path class="cls-75" d="M549.83,672.63a87.61,87.61,0,0,1,25.92-4s-65.9-17.08-115.83-20.9c0,0-26.83.21-36.67,3.62s41,9.63,41,9.63Z" transform="translate(-13.74 -422.85)"/><path class="cls-75" d="M120.06,636.76s16.67-4.72,27.32-5.12c0,0-95.74-.4-118,13,0,0,60.33,1.17,61.15,1.13S120.06,636.76,120.06,636.76Z" transform="translate(-13.74 -422.85)"/><path class="cls-76" d="M29.39,644.6l1.06,5.12s18.89-2.34,19.91-2.38l72-2.74L121,636.76S41.14,640.83,29.39,644.6Z" transform="translate(-13.74 -422.85)"/><path class="cls-77" d="M133,785.35a132.42,132.42,0,0,1-1.73-17.12c0-6.77-.18-126.14-.18-126.14l-9.65,2.41-71.1,2.84L52.29,764s-.25,12.48.49,14.27Z" transform="translate(-13.74 -422.85)"/><path class="cls-78" d="M65.15,679.19" transform="translate(-13.74 -422.85)"/><path class="cls-79" d="M116.1,761.1l-47.75-4.81c-6.29,0-11.44-7.46-11.44-16.58V679.63c0-9.11,5.15-16.58,11.44-16.58H116.1c6.3,0,11.45,7.47,11.45,16.58v64.89C127.55,753.64,122.4,761.1,116.1,761.1Z" transform="translate(-13.74 -422.85)"/><path class="cls-80" d="M70,743.9l45,6.68s10.52.27,10.33-9.62,0-54.55,0-54.55.18-12.84-7.76-14.44-43.75-2.14-43.75-2.14-7-2.94-8.67,9.36,0,52.41,0,52.41S64.73,743.13,70,743.9Z" transform="translate(-13.74 -422.85)"/><path class="cls-81" d="M106.5,705.39v15.78s-5.54,4-8.86,3.74-10.16-1.33-10.16-1.33-2.4-7.22-2.21-10.7,0-7.49,0-7.49,1.12-5.34,3.89-5.08S105.57,698.17,106.5,705.39Z" transform="translate(-13.74 -422.85)"/><path class="cls-82" d="M112.58,750.23s9.61.62,9.61-10.07v-57s-1.14-9.09-9.61-9.89-41.16-2.41-41.16-2.41l2.4-1.07s41,1.73,41.53,1.8,10-.46,10,14.78,0,54.52,0,54.52S126,750.67,112.58,750.23Z" transform="translate(-13.74 -422.85)"/><path class="cls-83" d="M570.72,824.53s-2.81-11.66-2.81-19.29V675l-18.08,4.82L435.58,661l3.34,139.45s-.4,14.07.8,16.08Z" transform="translate(-13.74 -422.85)"/><path class="cls-84" d="M423.25,651.33s109.7,16.48,126.58,21.3v7.23S431.28,660.17,423.25,659Z" transform="translate(-13.74 -422.85)"/><path class="cls-78" d="M459.92,704.88" transform="translate(-13.74 -422.85)"/><path class="cls-85" d="M543.11,797.2l-78-5.42a18.74,18.74,0,0,1-18.69-18.69V705.38a18.74,18.74,0,0,1,18.69-18.69h78a18.74,18.74,0,0,1,18.68,18.69v73.13A18.74,18.74,0,0,1,543.11,797.2Z" transform="translate(-13.74 -422.85)"/><path class="cls-86" d="M467.75,777.81l73.54,7.54s17.18.3,16.88-10.85,0-61.49,0-61.49.3-14.46-12.66-16.27-71.43-2.41-71.43-2.41-11.45-3.32-14.16,10.55,0,59.07,0,59.07S459.24,776.94,467.75,777.81Z" transform="translate(-13.74 -422.85)"/><path class="cls-87" d="M527.43,734.41v17.78s-9,4.52-14.47,4.22-16.58-1.5-16.58-1.5-3.91-8.14-3.61-12.06a67.53,67.53,0,0,0,0-8.44s1.82-6,6.35-5.72S525.92,726.27,527.43,734.41Z" transform="translate(-13.74 -422.85)"/><path class="cls-88" d="M537.35,784.94s15.69.71,15.69-11.35V709.4s-1.85-10.25-15.69-11.15-67.19-2.72-67.19-2.72l3.92-1.2s66.9,1.94,67.79,2,16.38-.51,16.3,16.66,0,61.46,0,61.46S559.33,785.44,537.35,784.94Z" transform="translate(-13.74 -422.85)"/></svg>