<?xml version="1.0" encoding="utf-8"?>
<!-- Generator: Adobe Illustrator 25.0.0, SVG Export Plug-In . SVG Version: 6.00 Build 0)  -->
<svg version="1.1" id="Слой_3" xmlns="http://www.w3.org/2000/svg" xmlns:xlink="http://www.w3.org/1999/xlink" x="0px" y="0px"
	 viewBox="0 0 1500 1500" style="enable-background:new 0 0 1500 1500;" xml:space="preserve">
<style type="text/css">
	.st0{fill:url(#SVGID_1_);}
	.st1{fill:#050F1C;}
	.st2{fill:url(#SVGID_2_);}
	.st3{fill:url(#SVGID_3_);}
	.st4{fill:#080C0D;}
	.st5{fill:#36322D;}
	.st6{fill:#1F232A;}
	.st7{fill:url(#SVGID_4_);}
	.st8{fill:url(#SVGID_5_);}
	.st9{fill:url(#SVGID_6_);}
	.st10{fill:url(#SVGID_7_);}
	.st11{fill:url(#SVGID_8_);}
	.st12{fill:url(#SVGID_9_);}
	.st13{fill:none;stroke:url(#SVGID_10_);stroke-width:15;stroke-miterlimit:10;}
	.st14{fill:none;stroke:url(#SVGID_11_);stroke-width:9;stroke-miterlimit:10;}
	.st15{fill:none;stroke:url(#SVGID_12_);stroke-width:15;stroke-miterlimit:10;}
	.st16{fill:none;stroke:url(#SVGID_13_);stroke-width:9;stroke-miterlimit:10;}
	.st17{fill:url(#SVGID_14_);}
	.st18{fill:url(#SVGID_15_);}
	.st19{fill:url(#SVGID_16_);}
	.st20{fill:url(#SVGID_17_);}
	.st21{fill:url(#SVGID_18_);}
	.st22{fill:url(#SVGID_19_);}
	.st23{fill:url(#SVGID_20_);}
	.st24{fill:url(#SVGID_21_);}
	.st25{fill:url(#SVGID_22_);}
	.st26{fill:none;stroke:url(#SVGID_23_);stroke-width:15;stroke-miterlimit:10;}
	.st27{fill:none;stroke:url(#SVGID_24_);stroke-width:9;stroke-miterlimit:10;}
	.st28{fill:none;stroke:url(#SVGID_25_);stroke-width:15;stroke-miterlimit:10;}
	.st29{fill:none;stroke:url(#SVGID_26_);stroke-width:9;stroke-miterlimit:10;}
	.st30{fill:url(#SVGID_27_);}
	.st31{fill:url(#SVGID_28_);}
	.st32{fill:url(#SVGID_29_);}
	.st33{fill:url(#SVGID_30_);}
	.st34{fill:url(#SVGID_31_);}
	.st35{fill:#080706;}
	.st36{fill:url(#SVGID_32_);}
	.st37{fill:url(#SVGID_33_);}
	.st38{fill:url(#SVGID_34_);}
	.st39{fill:url(#SVGID_35_);}
	.st40{fill:url(#SVGID_36_);}
	.st41{fill:url(#SVGID_37_);}
	.st42{fill:#8BD0FF;}
	.st43{fill:#36383E;}
	.st44{fill:url(#SVGID_38_);}
	.st45{fill:#A0A4B5;}
	.st46{fill:none;stroke:#A0A4B5;stroke-width:2;stroke-miterlimit:10;}
	.st47{fill:none;stroke:#40403E;stroke-width:3;stroke-miterlimit:10;}
	.st48{fill:url(#SVGID_39_);}
	.st49{fill:url(#SVGID_40_);}
	.st50{fill:url(#SVGID_41_);}
	.st51{fill:url(#SVGID_42_);}
	.st52{fill:url(#SVGID_43_);}
	.st53{fill:none;stroke:#527DAD;stroke-miterlimit:10;}
	.st54{fill:none;stroke:#334E72;stroke-miterlimit:10;}
	.st55{fill:url(#SVGID_44_);}
	.st56{fill:url(#SVGID_45_);}
	.st57{fill:url(#SVGID_46_);}
	.st58{fill:#1E1F24;}
	.st59{fill:#767D85;}
	.st60{fill:#696F76;}
	.st61{fill:url(#SVGID_47_);}
	.st62{fill:url(#SVGID_48_);}
	.st63{fill:url(#SVGID_49_);}
	.st64{fill:url(#SVGID_50_);}
	.st65{fill:url(#SVGID_51_);}
	.st66{fill:url(#SVGID_52_);}
	.st67{fill:#202020;}
	.st68{fill:#0D0D0F;}
	.st69{fill:#3E3D3A;}
	.st70{fill:#080808;}
	.st71{fill:#151C25;}
	.st72{fill:#0D233B;}
	.st73{fill:url(#SVGID_53_);}
	.st74{fill:url(#SVGID_54_);}
	.st75{fill:#13283E;}
	.st76{fill:#070B13;}
	.st77{fill:#203F60;}
	.st78{fill:#102437;}
	.st79{fill:none;stroke:#24486A;stroke-miterlimit:10;}
	.st80{fill:url(#SVGID_55_);}
	.st81{fill:url(#SVGID_56_);}
	.st82{fill:url(#SVGID_57_);}
	.st83{fill:url(#SVGID_58_);}
	.st84{fill:url(#SVGID_59_);}
	.st85{fill:url(#SVGID_60_);}
	.st86{fill:url(#SVGID_61_);}
	.st87{fill:#0C0C0C;}
	.st88{fill:#08090A;}
	.st89{fill:none;stroke:#161616;stroke-miterlimit:10;}
	.st90{fill:none;stroke:url(#SVGID_62_);stroke-miterlimit:10;}
	.st91{fill:none;stroke:url(#SVGID_63_);stroke-miterlimit:10;}
	.st92{fill:none;stroke:url(#SVGID_64_);stroke-miterlimit:10;}
	.st93{fill:none;stroke:url(#SVGID_65_);stroke-miterlimit:10;}
	.st94{fill:none;stroke:url(#SVGID_66_);stroke-miterlimit:10;}
	.st95{fill:none;stroke:url(#SVGID_67_);stroke-miterlimit:10;}
	.st96{fill:none;stroke:url(#SVGID_68_);stroke-miterlimit:10;}
	.st97{fill:none;stroke:url(#SVGID_69_);stroke-miterlimit:10;}
	.st98{fill:none;stroke:url(#SVGID_70_);stroke-miterlimit:10;}
	.st99{fill:none;stroke:url(#SVGID_71_);stroke-miterlimit:10;}
	.st100{fill:url(#SVGID_72_);}
	.st101{fill:url(#SVGID_73_);}
	.st102{fill:#191919;}
	.st103{fill:url(#SVGID_74_);}
	.st104{fill:url(#SVGID_75_);}
	.st105{fill:#FFFFFF;}
	.st106{fill:url(#SVGID_76_);}
	.st107{fill:url(#SVGID_77_);}
	.st108{fill:none;stroke:url(#SVGID_78_);stroke-miterlimit:10;}
	.st109{fill:none;stroke:url(#SVGID_79_);stroke-miterlimit:10;}
	.st110{fill:none;stroke:url(#SVGID_80_);stroke-miterlimit:10;}
	.st111{fill:none;stroke:url(#SVGID_81_);stroke-miterlimit:10;}
	.st112{fill:none;stroke:url(#SVGID_82_);stroke-width:2;stroke-miterlimit:10;}
	.st113{fill:none;stroke:url(#SVGID_83_);stroke-width:2;stroke-miterlimit:10;}
	.st114{fill:url(#SVGID_84_);}
	.st115{fill:url(#SVGID_85_);}
	.st116{fill:url(#SVGID_86_);}
	.st117{fill:url(#SVGID_87_);}
	.st118{fill:url(#SVGID_88_);}
	.st119{fill:url(#SVGID_89_);}
	.st120{fill:none;stroke:url(#SVGID_90_);stroke-width:3;stroke-miterlimit:10;}
</style>
<g>
	<linearGradient id="SVGID_1_" gradientUnits="userSpaceOnUse" x1="125.1669" y1="910.4234" x2="302.0642" y2="910.4234">
		<stop  offset="0.3372" style="stop-color:#1A1A1A"/>
		<stop  offset="0.5285" style="stop-color:#1E1D1C"/>
		<stop  offset="0.7027" style="stop-color:#292823"/>
		<stop  offset="0.7494" style="stop-color:#2D2C26"/>
	</linearGradient>
	<path class="st0" d="M126.29,898.88l6.5,13.92c0.59,1.26,1.39,2.4,2.37,3.38c4.4,4.34,17.78,16.03,34.08,18.42
		c28.58,4.2,72.27,4.19,77.96,4.2c0.39,0,0.76-0.02,1.14-0.05c5.2-0.52,42.43-5.12,53.21-31.6c9.38-23.03-117.33-25.52-164.72-25.05
		C128.27,882.18,122.66,891.11,126.29,898.88z"/>
	<path class="st1" d="M891.63,898.88l-25.68-2.14L766.74,739.9c0,0,31.82-30.22,40.01-30.1s551.95-85.15,551.95-85.15l64.1,11.01
		c0,0,14.07,34.48,14.07,38.54c0,4.06-1.41,32.2-1.41,32.2L1398,768.59l-9.32-1.22L891.63,898.88z"/>
	<g>
		<linearGradient id="SVGID_2_" gradientUnits="userSpaceOnUse" x1="1171.2919" y1="818.5703" x2="1366.5908" y2="747.8686">
			<stop  offset="0.3372" style="stop-color:#1A1A1A"/>
			<stop  offset="0.5285" style="stop-color:#1E1D1C"/>
			<stop  offset="0.7027" style="stop-color:#292823"/>
			<stop  offset="0.7494" style="stop-color:#2D2C26"/>
		</linearGradient>
		<path class="st2" d="M1358.7,876.84c0,0-13.55,22.16-48.06,23.16c-24,0.7-49.89-5.84-63.44-9.88c-6.63-1.98-12.4-6.69-16.23-13.24
			c-7.86-13.44-19.17-38.64-14.09-66.03l49.1-152.83l57.88-30.5l25.51,57.06l-7.25,129.75L1358.7,876.84z"/>
		<linearGradient id="SVGID_3_" gradientUnits="userSpaceOnUse" x1="1207.2843" y1="699.5993" x2="1295.7184" y2="667.5846">
			<stop  offset="0.3372" style="stop-color:#000000"/>
			<stop  offset="0.4656" style="stop-color:#040403"/>
			<stop  offset="0.5827" style="stop-color:#0F0E0C"/>
			<stop  offset="0.6949" style="stop-color:#21201C"/>
			<stop  offset="0.7494" style="stop-color:#2D2C26"/>
		</linearGradient>
		<line class="st3" x1="1231.3" y1="720.41" x2="1288.55" y2="640.67"/>
		<path class="st4" d="M1308.38,849.56c4.19,2.92,45.94,5.67,45.94,5.67l9.31-105.18l-9.45-72.5l-38.84,12.26
			c0,0-16.68,21.41-20.21,36.75c-3.52,15.34-15.21,75.43-9.52,87.77S1308.38,849.56,1308.38,849.56z"/>
		<path class="st5" d="M1302.77,797.84c0,0,7.1-6.39,10.28-11.19c3.18-4.81-2.39-5.79,0-7.14c2.39-1.35,7.53-8.54,6.6-8.77
			c-0.92-0.23,2.55-16.17,0.11-16.56s-4.47-5-4-9c0.47-4,2.48-12.11,0-9.32c-2.48,2.79-1.92,10.99-6.5,9.32
			c-4.58-1.67-7.06-9.89-7.06-9.89l-8.78,22.74c0,0-5.04,30.47-4.86,33.16c0.19,2.69,3.45,14.99,3.45,14.99L1302.77,797.84z"/>
		<path class="st6" d="M1298.75,751.18c1.15-0.07,0.52-2,4.02-0.67c3.49,1.33,7.54,10.33,6.24,18.33c-1.3,8-7.09,19.34-12.06,14.83
			C1291.98,779.17,1298.75,751.18,1298.75,751.18z"/>
		<linearGradient id="SVGID_4_" gradientUnits="userSpaceOnUse" x1="1319.3806" y1="787.2598" x2="1315.8934" y2="841.3558">
			<stop  offset="0.0575" style="stop-color:#A8A6A4"/>
			<stop  offset="0.4399" style="stop-color:#514F4B"/>
			<stop  offset="0.5455" style="stop-color:#4D4C47"/>
			<stop  offset="0.6417" style="stop-color:#43413C"/>
			<stop  offset="0.734" style="stop-color:#31302A"/>
			<stop  offset="0.7494" style="stop-color:#2D2C26"/>
		</linearGradient>
		<path class="st7" d="M1304.1,792.01c0,0,3.68-7,6.93-5c3.25,2,10.83,13.08,13.65,21.17c2.82,8.08,6.28,31.83,6.28,31.83l-5.03,2
			c0,0-7.75-32.25-13.38-39.5S1304.1,795.76,1304.1,792.01z"/>
		<linearGradient id="SVGID_5_" gradientUnits="userSpaceOnUse" x1="1331.6898" y1="770.846" x2="1330.3733" y2="791.2691">
			<stop  offset="0.0575" style="stop-color:#A8A6A4"/>
			<stop  offset="0.4399" style="stop-color:#514F4B"/>
			<stop  offset="0.5455" style="stop-color:#4D4C47"/>
			<stop  offset="0.6417" style="stop-color:#43413C"/>
			<stop  offset="0.734" style="stop-color:#31302A"/>
			<stop  offset="0.7494" style="stop-color:#2D2C26"/>
		</linearGradient>
		<path class="st8" d="M1310.81,775.38c-0.08-0.09-0.87-5.12,1.73-5.62c2.6-0.5,11.05,1.77,16.9,4.26
			c5.85,2.49,21.44,10.52,21.66,12.63c0.22,2.11,0.87,6.11-1.52,5.86S1313.41,778.26,1310.81,775.38z"/>
		<linearGradient id="SVGID_6_" gradientUnits="userSpaceOnUse" x1="1330.1492" y1="723.8458" x2="1328.174" y2="754.4868">
			<stop  offset="0.0575" style="stop-color:#A8A6A4"/>
			<stop  offset="0.4399" style="stop-color:#514F4B"/>
			<stop  offset="0.5455" style="stop-color:#4D4C47"/>
			<stop  offset="0.6417" style="stop-color:#43413C"/>
			<stop  offset="0.734" style="stop-color:#31302A"/>
			<stop  offset="0.7494" style="stop-color:#2D2C26"/>
		</linearGradient>
		<path class="st9" d="M1310.64,753.26c-0.48-0.75,0.39-4.25,3.64-5.5c3.25-1.25,23.39-15,27.83-20c4.44-5,5.31-2.5,5.52,0
			c0.22,2.5-2.63,7.12-5.52,11.31c-3.07,4.44-11.16,15.28-17.22,15.11C1318.83,754.01,1310.64,753.26,1310.64,753.26z"/>
		<linearGradient id="SVGID_7_" gradientUnits="userSpaceOnUse" x1="1317.3064" y1="693.3309" x2="1314.2991" y2="739.9838">
			<stop  offset="0.0575" style="stop-color:#A8A6A4"/>
			<stop  offset="0.4399" style="stop-color:#514F4B"/>
			<stop  offset="0.5455" style="stop-color:#4D4C47"/>
			<stop  offset="0.6417" style="stop-color:#43413C"/>
			<stop  offset="0.734" style="stop-color:#31302A"/>
			<stop  offset="0.7494" style="stop-color:#2D2C26"/>
		</linearGradient>
		<path class="st10" d="M1311.68,739.53c0,0,9.1-4.27,11.05-12.27c1.95-8,6.36-31,6.36-31s0.05-3.25-3.15-2s-23.5,44.18-23.5,44.18
			S1306.26,740.04,1311.68,739.53z"/>
		<linearGradient id="SVGID_8_" gradientUnits="userSpaceOnUse" x1="1301.8821" y1="791.2603" x2="1299.3651" y2="830.3058">
			<stop  offset="0.0575" style="stop-color:#A8A6A4"/>
			<stop  offset="0.4399" style="stop-color:#514F4B"/>
			<stop  offset="0.5455" style="stop-color:#4D4C47"/>
			<stop  offset="0.6417" style="stop-color:#43413C"/>
			<stop  offset="0.734" style="stop-color:#31302A"/>
			<stop  offset="0.7494" style="stop-color:#2D2C26"/>
		</linearGradient>
		<path class="st11" d="M1297.09,794.51c-0.02-0.47,3.24-5.73,5.34-1.99c2.1,3.74,3.4,11.24,2.75,18.49
			c-0.65,7.25-2.75,19.5-2.75,19.5s-5.85-11.75-5.34-13C1297.6,816.25,1297.09,794.51,1297.09,794.51z"/>
		<linearGradient id="SVGID_9_" gradientUnits="userSpaceOnUse" x1="1300.8269" y1="753.99" x2="1299.0842" y2="781.0241">
			<stop  offset="0.0575" style="stop-color:#A8A6A4"/>
			<stop  offset="0.4399" style="stop-color:#514F4B"/>
			<stop  offset="0.5455" style="stop-color:#4D4C47"/>
			<stop  offset="0.6417" style="stop-color:#43413C"/>
			<stop  offset="0.734" style="stop-color:#31302A"/>
			<stop  offset="0.7494" style="stop-color:#2D2C26"/>
		</linearGradient>
		<path class="st12" d="M1298.25,754.18c0,0,5.98-3.42,4.18,13.83c-1.8,17.25-5.37,12.3-5.37,12.3L1298.25,754.18z"/>
		
			<linearGradient id="SVGID_10_" gradientUnits="userSpaceOnUse" x1="1446.306" y1="656.2708" x2="1421.0433" y2="851.8284" gradientTransform="matrix(0.8393 0.02 -0.0398 0.9652 152.6891 9.8293)">
			<stop  offset="0.0575" style="stop-color:#000000"/>
			<stop  offset="0.4399" style="stop-color:#1F2329"/>
			<stop  offset="0.5156" style="stop-color:#23262C"/>
			<stop  offset="0.5846" style="stop-color:#2E3135"/>
			<stop  offset="0.651" style="stop-color:#404245"/>
			<stop  offset="0.7154" style="stop-color:#5A5A5B"/>
			<stop  offset="0.7494" style="stop-color:#6B6A69"/>
		</linearGradient>
		
			<ellipse transform="matrix(0.0758 -0.9971 0.9971 0.0758 461.1702 2030.3943)" class="st13" cx="1325.93" cy="766.41" rx="88.31" ry="37.24"/>
		
			<linearGradient id="SVGID_11_" gradientUnits="userSpaceOnUse" x1="1426.3738" y1="621.8247" x2="1400.1085" y2="829.4053" gradientTransform="matrix(0.8647 0.051 -0.0567 0.8955 152.1662 50.0215)">
			<stop  offset="0.0575" style="stop-color:#2F2D28"/>
			<stop  offset="0.4399" style="stop-color:#67645E"/>
			<stop  offset="0.5335" style="stop-color:#6A6862"/>
			<stop  offset="0.6188" style="stop-color:#75726D"/>
			<stop  offset="0.7006" style="stop-color:#87847F"/>
			<stop  offset="0.7494" style="stop-color:#95938E"/>
		</linearGradient>
		
			<ellipse transform="matrix(0.097 -0.9953 0.9953 0.097 435.4649 2023.7361)" class="st14" cx="1333.02" cy="771.88" rx="90.13" ry="40.67"/>
		
			<linearGradient id="SVGID_12_" gradientUnits="userSpaceOnUse" x1="1316.9911" y1="653.1101" x2="1291.7522" y2="848.4835" gradientTransform="matrix(1.0445 0.0623 -0.0671 1.0705 22.5116 -110.973)">
			<stop  offset="0.0575" style="stop-color:#000000"/>
			<stop  offset="0.4399" style="stop-color:#1F2329"/>
			<stop  offset="0.5156" style="stop-color:#23262C"/>
			<stop  offset="0.5846" style="stop-color:#2E3135"/>
			<stop  offset="0.651" style="stop-color:#404245"/>
			<stop  offset="0.7154" style="stop-color:#5A5A5B"/>
			<stop  offset="0.7494" style="stop-color:#6B6A69"/>
		</linearGradient>
		
			<ellipse transform="matrix(0.0958 -0.9954 0.9954 0.0958 436.1882 2028.2233)" class="st15" cx="1334.5" cy="774.02" rx="97.95" ry="46.47"/>
		<linearGradient id="SVGID_13_" gradientUnits="userSpaceOnUse" x1="1352.2047" y1="670.9908" x2="1325.8855" y2="878.9979">
			<stop  offset="0.0575" style="stop-color:#2F2D28"/>
			<stop  offset="0.4399" style="stop-color:#67645E"/>
			<stop  offset="0.5335" style="stop-color:#6A6862"/>
			<stop  offset="0.6188" style="stop-color:#75726D"/>
			<stop  offset="0.7006" style="stop-color:#87847F"/>
			<stop  offset="0.7494" style="stop-color:#95938E"/>
		</linearGradient>
		
			<ellipse transform="matrix(0.0481 -0.9988 0.9988 0.0481 500.5504 2075.2192)" class="st16" cx="1339.05" cy="774.99" rx="100.57" ry="46.9"/>
		
			<linearGradient id="SVGID_14_" gradientUnits="userSpaceOnUse" x1="1339.8995" y1="624.8462" x2="1323.8069" y2="874.4877" gradientTransform="matrix(0.9992 0.0407 -0.0407 0.9992 36.6589 -31.3927)">
			<stop  offset="0.0575" style="stop-color:#A8A6A4"/>
			<stop  offset="0.4399" style="stop-color:#514F4B"/>
			<stop  offset="0.5455" style="stop-color:#4D4C47"/>
			<stop  offset="0.6417" style="stop-color:#43413C"/>
			<stop  offset="0.734" style="stop-color:#31302A"/>
			<stop  offset="0.7494" style="stop-color:#2D2C26"/>
		</linearGradient>
		<path class="st17" d="M1323.4,896.11c-18.14-0.85-27.55-17.92-36.81-43.97c-8.47-23.85-11.28-54.19-7.91-85.43
			c7.33-67.88,29.24-124.73,64.76-119.97c35.5,4.79,58.7,65.62,51.37,133.5l0,0c-3.38,31.24-12.58,61.43-25.88,82.35
			C1355.25,884.09,1341.27,896.95,1323.4,896.11z M1347.89,674.2c-10.2,0-21.16,8.82-30.31,24.5c-10.9,18.68-18.02,44.39-20.05,72.4
			c-2.03,28.01,1.3,54.63,9.38,74.97c7.12,17.92,17.29,28.73,27.91,29.66c10.61,0.94,22.22-7.98,31.82-24.44
			c10.9-18.68,18.02-44.39,20.05-72.4c2.03-28.01-1.3-54.63-9.38-74.97c-7.12-17.92-17.29-28.73-27.91-29.66
			C1348.9,674.22,1348.39,674.2,1347.89,674.2z"/>
	</g>
	<g>
		<linearGradient id="SVGID_15_" gradientUnits="userSpaceOnUse" x1="581.8929" y1="929.7683" x2="835.8472" y2="837.8323">
			<stop  offset="0.3372" style="stop-color:#1A1A1A"/>
			<stop  offset="0.5285" style="stop-color:#1E1D1C"/>
			<stop  offset="0.7027" style="stop-color:#292823"/>
			<stop  offset="0.7494" style="stop-color:#2D2C26"/>
		</linearGradient>
		<path class="st18" d="M829.3,990.67c0,0-18.41,26.1-65.32,27.28c-32.61,0.82-67.8-6.87-86.22-11.64
			c-9.02-2.33-16.86-7.87-22.06-15.59c-10.68-15.83-26.06-45.51-19.15-77.76l66.73-179.98l78.66-35.92l34.67,67.2l-9.85,152.8
			L829.3,990.67z"/>
		<linearGradient id="SVGID_16_" gradientUnits="userSpaceOnUse" x1="626.7114" y1="784.2465" x2="741.5205" y2="742.6835">
			<stop  offset="0.3372" style="stop-color:#000000"/>
			<stop  offset="0.4656" style="stop-color:#040403"/>
			<stop  offset="0.5827" style="stop-color:#0F0E0C"/>
			<stop  offset="0.6949" style="stop-color:#21201C"/>
			<stop  offset="0.7494" style="stop-color:#2D2C26"/>
		</linearGradient>
		<line class="st19" x1="656.15" y1="806.46" x2="733.95" y2="712.55"/>
		<path class="st4" d="M760.9,958.55c5.7,3.44,62.44,6.67,62.44,6.67L836,841.35l-12.85-85.38l-52.79,14.44
			c0,0-22.67,25.21-27.46,43.28c-4.79,18.07-20.68,88.82-12.93,103.36S760.9,958.55,760.9,958.55z"/>
		<path class="st5" d="M753.28,897.64c0,0,9.65-7.52,13.97-13.18c4.32-5.66-3.24-6.82,0-8.41c3.24-1.59,10.23-10.06,8.97-10.33
			c-1.26-0.27,3.47-19.04,0.15-19.5s-6.08-5.89-5.44-10.6c0.64-4.71,3.37-14.26,0-10.98c-3.37,3.28-2.61,12.94-8.84,10.98
			c-6.23-1.96-9.6-11.65-9.6-11.65l-11.94,26.78c0,0-6.85,35.88-6.6,39.05c0.25,3.17,4.69,17.65,4.69,17.65L753.28,897.64z"/>
		<path class="st6" d="M747.82,842.69c1.56-0.08,0.71-2.36,5.46-0.79c4.75,1.57,10.24,12.17,8.48,21.59s-9.63,22.77-16.38,17.47
			C738.62,875.65,747.82,842.69,747.82,842.69z"/>
		<linearGradient id="SVGID_17_" gradientUnits="userSpaceOnUse" x1="775.5141" y1="885.2697" x2="771.4194" y2="948.7897">
			<stop  offset="0.0575" style="stop-color:#A8A6A4"/>
			<stop  offset="0.4399" style="stop-color:#514F4B"/>
			<stop  offset="0.5455" style="stop-color:#4D4C47"/>
			<stop  offset="0.6417" style="stop-color:#43413C"/>
			<stop  offset="0.734" style="stop-color:#31302A"/>
			<stop  offset="0.7494" style="stop-color:#2D2C26"/>
		</linearGradient>
		<path class="st20" d="M755.09,890.77c0,0,5-8.24,9.42-5.89c4.42,2.36,14.72,15.41,18.55,24.93c3.83,9.52,8.54,37.49,8.54,37.49
			l-6.83,2.36c0,0-10.54-37.98-18.19-46.51S755.09,895.19,755.09,890.77z"/>
		<linearGradient id="SVGID_18_" gradientUnits="userSpaceOnUse" x1="792.4462" y1="866.0482" x2="790.9225" y2="889.6856">
			<stop  offset="0.0575" style="stop-color:#A8A6A4"/>
			<stop  offset="0.4399" style="stop-color:#514F4B"/>
			<stop  offset="0.5455" style="stop-color:#4D4C47"/>
			<stop  offset="0.6417" style="stop-color:#43413C"/>
			<stop  offset="0.734" style="stop-color:#31302A"/>
			<stop  offset="0.7494" style="stop-color:#2D2C26"/>
		</linearGradient>
		<path class="st21" d="M764.21,871.19c-0.11-0.1-1.18-6.04,2.36-6.62c3.53-0.59,15.01,2.09,22.96,5.02
			c7.95,2.93,29.14,12.39,29.44,14.87c0.29,2.48,1.18,7.19-2.06,6.9C813.67,891.07,767.74,874.58,764.21,871.19z"/>
		<linearGradient id="SVGID_19_" gradientUnits="userSpaceOnUse" x1="790.3104" y1="810.3034" x2="787.9624" y2="846.7269">
			<stop  offset="0.0575" style="stop-color:#A8A6A4"/>
			<stop  offset="0.4399" style="stop-color:#514F4B"/>
			<stop  offset="0.5455" style="stop-color:#4D4C47"/>
			<stop  offset="0.6417" style="stop-color:#43413C"/>
			<stop  offset="0.734" style="stop-color:#31302A"/>
			<stop  offset="0.7494" style="stop-color:#2D2C26"/>
		</linearGradient>
		<path class="st22" d="M763.98,845.14c-0.65-0.88,0.53-5,4.94-6.48c4.42-1.47,31.79-17.66,37.83-23.55s7.21-2.94,7.51,0
			c0.29,2.94-3.58,8.39-7.51,13.31c-4.17,5.23-15.16,17.99-23.4,17.79C775.1,846.02,763.98,845.14,763.98,845.14z"/>
		<linearGradient id="SVGID_20_" gradientUnits="userSpaceOnUse" x1="772.7648" y1="774.4307" x2="769.2086" y2="829.598">
			<stop  offset="0.0575" style="stop-color:#A8A6A4"/>
			<stop  offset="0.4399" style="stop-color:#514F4B"/>
			<stop  offset="0.5455" style="stop-color:#4D4C47"/>
			<stop  offset="0.6417" style="stop-color:#43413C"/>
			<stop  offset="0.734" style="stop-color:#31302A"/>
			<stop  offset="0.7494" style="stop-color:#2D2C26"/>
		</linearGradient>
		<path class="st23" d="M765.39,828.97c0,0,12.36-5.02,15.01-14.44s8.64-36.5,8.64-36.5s0.07-3.83-4.29-2.36
			s-31.94,52.03-31.94,52.03S758.03,829.57,765.39,828.97z"/>
		<linearGradient id="SVGID_21_" gradientUnits="userSpaceOnUse" x1="751.9467" y1="889.8975" x2="748.9838" y2="935.8599">
			<stop  offset="0.0575" style="stop-color:#A8A6A4"/>
			<stop  offset="0.4399" style="stop-color:#514F4B"/>
			<stop  offset="0.5455" style="stop-color:#4D4C47"/>
			<stop  offset="0.6417" style="stop-color:#43413C"/>
			<stop  offset="0.734" style="stop-color:#31302A"/>
			<stop  offset="0.7494" style="stop-color:#2D2C26"/>
		</linearGradient>
		<path class="st24" d="M745.56,893.72c-0.02-0.55,4.41-6.75,7.26-2.35c2.85,4.4,4.62,13.23,3.74,21.77s-3.74,22.96-3.74,22.96
			s-7.96-13.84-7.26-15.31C746.25,919.33,745.56,893.72,745.56,893.72z"/>
		<linearGradient id="SVGID_22_" gradientUnits="userSpaceOnUse" x1="750.5739" y1="846.0121" x2="748.5206" y2="877.865">
			<stop  offset="0.0575" style="stop-color:#A8A6A4"/>
			<stop  offset="0.4399" style="stop-color:#514F4B"/>
			<stop  offset="0.5455" style="stop-color:#4D4C47"/>
			<stop  offset="0.6417" style="stop-color:#43413C"/>
			<stop  offset="0.734" style="stop-color:#31302A"/>
			<stop  offset="0.7494" style="stop-color:#2D2C26"/>
		</linearGradient>
		<path class="st25" d="M747.14,846.22c0,0,8.13-4.03,5.69,16.29s-7.3,14.49-7.3,14.49L747.14,846.22z"/>
		
			<linearGradient id="SVGID_23_" gradientUnits="userSpaceOnUse" x1="808.8536" y1="750.8438" x2="779.3752" y2="979.0355" gradientTransform="matrix(0.8393 0.02 -0.0398 0.9652 152.6891 9.8293)">
			<stop  offset="0.0575" style="stop-color:#000000"/>
			<stop  offset="0.4399" style="stop-color:#1F2329"/>
			<stop  offset="0.5156" style="stop-color:#23262C"/>
			<stop  offset="0.5846" style="stop-color:#2E3135"/>
			<stop  offset="0.651" style="stop-color:#404245"/>
			<stop  offset="0.7154" style="stop-color:#5A5A5B"/>
			<stop  offset="0.7494" style="stop-color:#6B6A69"/>
		</linearGradient>
		
			<ellipse transform="matrix(0.0941 -0.9956 0.9956 0.0941 -145.9138 1560.89)" class="st26" cx="784.76" cy="860.63" rx="104.1" ry="50.56"/>
		
			<linearGradient id="SVGID_24_" gradientUnits="userSpaceOnUse" x1="815.0107" y1="745.0317" x2="784.178" y2="988.7104" gradientTransform="matrix(0.8647 0.051 -0.0567 0.8955 152.1662 50.0215)">
			<stop  offset="0.0575" style="stop-color:#2F2D28"/>
			<stop  offset="0.4399" style="stop-color:#67645E"/>
			<stop  offset="0.5335" style="stop-color:#6A6862"/>
			<stop  offset="0.6188" style="stop-color:#75726D"/>
			<stop  offset="0.7006" style="stop-color:#87847F"/>
			<stop  offset="0.7494" style="stop-color:#95938E"/>
		</linearGradient>
		
			<ellipse transform="matrix(0.122 -0.9925 0.9925 0.122 -163.078 1549.7998)" class="st27" cx="794.4" cy="867.07" rx="106.33" ry="55.18"/>
		
			<linearGradient id="SVGID_25_" gradientUnits="userSpaceOnUse" x1="811.5663" y1="755.5208" x2="782.0879" y2="983.7125" gradientTransform="matrix(1.0445 0.0623 -0.0671 1.0705 22.5116 -110.973)">
			<stop  offset="0.0575" style="stop-color:#000000"/>
			<stop  offset="0.4399" style="stop-color:#1F2329"/>
			<stop  offset="0.5156" style="stop-color:#23262C"/>
			<stop  offset="0.5846" style="stop-color:#2E3135"/>
			<stop  offset="0.651" style="stop-color:#404245"/>
			<stop  offset="0.7154" style="stop-color:#5A5A5B"/>
			<stop  offset="0.7494" style="stop-color:#6B6A69"/>
		</linearGradient>
		
			<ellipse transform="matrix(0.122 -0.9925 0.9925 0.122 -163.8184 1553.9979)" class="st28" cx="796.4" cy="869.59" rx="115.54" ry="63.05"/>
		<linearGradient id="SVGID_26_" gradientUnits="userSpaceOnUse" x1="817.9976" y1="748.8976" x2="787.1649" y2="992.5764">
			<stop  offset="0.0575" style="stop-color:#2F2D28"/>
			<stop  offset="0.4399" style="stop-color:#67645E"/>
			<stop  offset="0.5335" style="stop-color:#6A6862"/>
			<stop  offset="0.6188" style="stop-color:#75726D"/>
			<stop  offset="0.7006" style="stop-color:#87847F"/>
			<stop  offset="0.7494" style="stop-color:#95938E"/>
		</linearGradient>
		
			<ellipse transform="matrix(0.0611 -0.9981 0.9981 0.0611 -115.5588 1618.6263)" class="st29" cx="802.58" cy="870.74" rx="118.49" ry="63.72"/>
		
			<linearGradient id="SVGID_27_" gradientUnits="userSpaceOnUse" x1="808.3939" y1="719.502" x2="789.4164" y2="1013.8961" gradientTransform="matrix(0.9992 0.0407 -0.0407 0.9992 36.6589 -31.3927)">
			<stop  offset="0.0575" style="stop-color:#A8A6A4"/>
			<stop  offset="0.4399" style="stop-color:#514F4B"/>
			<stop  offset="0.5455" style="stop-color:#4D4C47"/>
			<stop  offset="0.6417" style="stop-color:#43413C"/>
			<stop  offset="0.734" style="stop-color:#31302A"/>
			<stop  offset="0.7494" style="stop-color:#2D2C26"/>
		</linearGradient>
		<path class="st30" d="M781.32,1013.37c-24.66-1-37.45-21.11-50.02-51.78c-11.52-28.09-15.33-63.82-10.74-100.61
			c9.97-79.94,39.74-146.89,88.01-141.28c48.24,5.64,79.78,77.27,69.81,157.21l0,0c-4.59,36.79-17.09,72.35-35.18,96.98
			C824.6,999.22,805.61,1014.36,781.32,1013.37z M814.6,752.03c-13.86,0-28.75,10.39-41.19,28.86c-14.82,22-24.49,52.28-27.25,85.26
			c-2.76,32.98,1.77,64.34,12.75,88.29c9.67,21.1,23.5,33.83,37.93,34.93c14.42,1.1,30.2-9.39,43.25-28.78
			c14.82-22,24.49-52.28,27.25-85.26c2.76-32.98-1.77-64.34-12.75-88.29c-9.67-21.1-23.5-33.83-37.93-34.93
			C815.98,752.06,815.29,752.03,814.6,752.03z"/>
	</g>
	<linearGradient id="SVGID_28_" gradientUnits="userSpaceOnUse" x1="752.289" y1="759.757" x2="1493.114" y2="690.1068">
		<stop  offset="0.0449" style="stop-color:#32608B"/>
		<stop  offset="0.2925" style="stop-color:#34618C"/>
		<stop  offset="0.4984" style="stop-color:#396894"/>
		<stop  offset="0.7382" style="stop-color:#406E9C"/>
		<stop  offset="0.9196" style="stop-color:#5280B1"/>
		<stop  offset="1" style="stop-color:#436E9A"/>
	</linearGradient>
	<path class="st31" d="M697.41,833.47l7.15-6.22l35.31-80.71l84.93-33.52c0,0,35.88,0.89,40.81,0c4.92-0.89,31.31,40.62,31.31,40.62
		s7.95,42.29,3.52,67.89c-4.43,25.61,43.71,19.17,43.71,19.17l342.53-5.76c0,0,23.3-1.1,23.92-1.72
		c0.62-0.62,0.53-125.49,18.47-159.79c17.94-34.3,56.46-40.89,70.71-30.74c14.25,10.16,26.91,31.46,26.38,52.2
		c-0.53,20.75-27.44,70.13-27.44,70.13s-2.29,2.86-0.7,3.56c1.58,0.7,46.61-29.72,54.7-39.93s23.92-47.49,23.92-47.49l16.01-28.85
		c0,0,3.07-31.31,0-45.06c-3.07-13.75-24.1-5.94-24.1-5.94s-78.44-14.6-86.54-16.27c-8.09-1.67-29.9-9.06-45.03-6.24
		c-15.13,2.81-77.04,17.94-80.91,19.7c-3.87,1.76-106.94,20.05-106.94,20.05s-337.7,19.79-345.09,24.14S686.9,672.1,686.9,672.1
		s-36.36,48.61-37.73,53.76s-5,90.71,1.19,97.23c6.19,6.52,15.81,18.32,15.81,18.32L697.41,833.47z"/>
	<linearGradient id="SVGID_29_" gradientUnits="userSpaceOnUse" x1="1308.6353" y1="734.0159" x2="1424.3036" y2="723.1411">
		<stop  offset="0.0449" style="stop-color:#4072A6"/>
		<stop  offset="0.204" style="stop-color:#6CA6E3"/>
		<stop  offset="0.4984" style="stop-color:#4B7CAE"/>
		<stop  offset="0.6686" style="stop-color:#3A6C9E"/>
		<stop  offset="1" style="stop-color:#336494"/>
	</linearGradient>
	<path class="st32" d="M1310.06,834.85c0,0-1.06-144.63,25.33-175.23c26.38-30.6,53.82-24.01,65.96-17.02
		c0,0,13.19,6.99,18.64,21.94c0,0-1.23-15.83-16.36-26.38c-15.13-10.55-58.22-23.04-78.8,17.24s-24.1,176.24-24.1,176.24
		L1310.06,834.85z"/>
	<linearGradient id="SVGID_30_" gradientUnits="userSpaceOnUse" x1="1469.4921" y1="672.3751" x2="1491.0751" y2="657.9863">
		<stop  offset="0.0449" style="stop-color:#2D2821"/>
		<stop  offset="0.5258" style="stop-color:#3A3C3C"/>
		<stop  offset="0.98" style="stop-color:#494238"/>
	</linearGradient>
	<path class="st33" d="M1479.96,645.37c0,0-6.33-0.35-6.33,4.4c0,4.75-3.34,9.5,0,9.5s7.39-2.81,7.74-2.29
		c0.35,0.53-7.56,29.55-10.55,33.59c0,0,4.05,0.7,6.68-1.58c2.64-2.29,13.54-31.31,13.54-33.42s0-3.52,0-3.52s-8.62-0.35-8.79-1.23
		C1482.07,649.94,1480.87,645.35,1479.96,645.37z"/>
	<linearGradient id="SVGID_31_" gradientUnits="userSpaceOnUse" x1="736.7196" y1="798.8091" x2="860.1904" y2="716.4952">
		<stop  offset="0.0449" style="stop-color:#4072A6"/>
		<stop  offset="0.204" style="stop-color:#6CA6E3"/>
		<stop  offset="0.4984" style="stop-color:#4B7CAE"/>
		<stop  offset="0.6686" style="stop-color:#3A6C9E"/>
		<stop  offset="1" style="stop-color:#336494"/>
	</linearGradient>
	<path class="st34" d="M697.84,833.23c0,0,9.9,3.63,12.28,0.66c2.37-2.96,32.8-89.1,73.92-105c41.11-15.9,72.24-13.96,84.91-7.81
		c12.66,6.16,22.69,19.76,27.97,34.06c0,0-9.23-35.38-16.88-41.8c-7.65-6.42-49.51-33.07-95.99-8
		C737.55,730.41,721.71,755.59,697.84,833.23z"/>
	<path class="st35" d="M1296.12,502.42l99.68,5.37c0,0-5.94-4.93-7.65-5.37c-1.71-0.44-4.09-1.9-4.49-1.43
		c-0.4,0.47-102.3-4.68-102.3-4.68l9.56,7.65l4.43-1.91L1296.12,502.42z"/>
	<linearGradient id="SVGID_32_" gradientUnits="userSpaceOnUse" x1="1346.5627" y1="517.9705" x2="1362.2845" y2="517.9705">
		<stop  offset="0.0449" style="stop-color:#2D2821"/>
		<stop  offset="0.5258" style="stop-color:#3A3C3C"/>
		<stop  offset="0.98" style="stop-color:#494238"/>
	</linearGradient>
	<path class="st36" d="M1362.28,500.99l-6.85,33.97l-8.87-6.36c0,0,7.95-25.96,8.61-26.48
		C1355.83,501.58,1361.34,500.94,1362.28,500.99z"/>
	<linearGradient id="SVGID_33_" gradientUnits="userSpaceOnUse" x1="1281.366" y1="514.2806" x2="1452.7872" y2="514.2806">
		<stop  offset="0.0449" style="stop-color:#2D2821"/>
		<stop  offset="0.5258" style="stop-color:#3A3C3C"/>
		<stop  offset="0.98" style="stop-color:#494238"/>
	</linearGradient>
	<path class="st37" d="M1435.37,532.72c0,0-48.28-29.55-51.45-30.34c-3.17-0.79-99.92-5.14-99.92-5.14l-2.64-1.39l107.58,4.95
		c0,0,11.17,1.32,18.38,4.49s45.47,24.8,45.47,24.8v2.64H1435.37z"/>
	<linearGradient id="SVGID_34_" gradientUnits="userSpaceOnUse" x1="889.1658" y1="834.8458" x2="1256.0607" y2="834.8458">
		<stop  offset="0.0449" style="stop-color:#2D2821"/>
		<stop  offset="0.5258" style="stop-color:#3A3C3C"/>
		<stop  offset="0.98" style="stop-color:#494238"/>
	</linearGradient>
	<path class="st38" d="M900.42,821.43l355.64-52.06v26.03l-188.55,32.01l188.55-27.09c0,0-3.87,32.71-7.74,39.75
		c-3.87,7.04-354.93,59.8-354.93,59.8s-4.22,2.11-4.22-2.81C889.17,892.14,898.66,826.71,900.42,821.43z"/>
	<linearGradient id="SVGID_35_" gradientUnits="userSpaceOnUse" x1="1259.2266" y1="780.0646" x2="1295.3219" y2="780.0646">
		<stop  offset="0.0449" style="stop-color:#2D2821"/>
		<stop  offset="0.5258" style="stop-color:#3A3C3C"/>
		<stop  offset="0.98" style="stop-color:#494238"/>
	</linearGradient>
	<path class="st39" d="M1259.23,769.37v26.03l33.77-3.52c0,0,2.46-1.76,2.11-3.52c-0.35-1.76,0.03-20.75,0.03-20.75
		s1.02-2.11-1.79-2.81C1290.53,764.09,1259.23,769.37,1259.23,769.37z"/>
	<linearGradient id="SVGID_36_" gradientUnits="userSpaceOnUse" x1="1250.7841" y1="818.0138" x2="1295.3219" y2="818.0138">
		<stop  offset="0.0449" style="stop-color:#2D2821"/>
		<stop  offset="0.5258" style="stop-color:#3A3C3C"/>
		<stop  offset="0.98" style="stop-color:#494238"/>
	</linearGradient>
	<path class="st40" d="M1259.23,800.68l-8.44,40.1l35.88-5.93l8.66-35.58c0,0-0.21-4.92-2.33-3.87S1259.23,800.68,1259.23,800.68z"
		/>
	<linearGradient id="SVGID_37_" gradientUnits="userSpaceOnUse" x1="577.1469" y1="642.5995" x2="1492.6251" y2="642.5995">
		<stop  offset="0.0449" style="stop-color:#4072A6"/>
		<stop  offset="0.204" style="stop-color:#5689BF"/>
		<stop  offset="0.4984" style="stop-color:#4B7CAE"/>
		<stop  offset="0.6686" style="stop-color:#5A8CC1"/>
		<stop  offset="1" style="stop-color:#73AAE4"/>
	</linearGradient>
	<path class="st41" d="M647.8,730.92c0,0,8.33-6.22,19.4-8.2c11.06-1.98,74.58-21.61,118.9-26.63
		c44.32-5.03,158.3-24.02,211.06-29.83c52.77-5.8,276.49-22.07,289.15-24.49c12.66-2.42,49.6-9.81,45.91-16.66
		c-3.69-6.86-35.35-0.97-17.41-15.26c17.94-14.29,27.44-17.46,50.65-14.55c23.22,2.9,63.32,33.51,89.7,29.28
		c26.38-4.22,37.46-17.41,37.46-17.41s-6.77-39.46-19.88-46.51c0,0-23.39,4.82-24.45,5.35s-71.5-11.73-71.5-11.73
		s-70.71,1.17-74.4,1.97c-3.69,0.79-55.1,12.93-56.17,13.98s-122.35,21.74-125.07,20.84c-2.72-0.9-113.45,7.66-113.45,7.66
		l-112.39,3.83l-170.43,19.9c0,0-102.51,28.1-103.76,33.31s-43.99,41.51-43.99,45.78s14.57,22.21,22.85,22.74
		S647.8,730.92,647.8,730.92z"/>
	<path class="st42" d="M639.28,689.16c0,0,12.62-15.13,17.01-18.64c4.4-3.52,9.32-6.78,10.73-5.77c1.41,1.02-2.64,17.73,1.41,25.99
		c4.05,8.27,9.33,18.47,13.55,19s8.97,0.35,7.91,1.41s-14.77,4.22-14.77,4.22s-6.86-6.51-12.66-10.38
		c-5.8-3.87-16.18-8.97-16.88-10.55C644.86,692.86,637.5,691.28,639.28,689.16z"/>
	<path class="st42" d="M732.01,761.45c0,0,15.04-24.17,21.63-27.65c6.6-3.48,0,1.71,0,6.11c0,4.4,7.39,0.95,5.28,4.92
		c-2.11,3.97-20.84,25.73-24.27,33.71s0.53-13.3,1.85-13.61S730.84,763.3,732.01,761.45z"/>
	<path class="st43" d="M1198.19,469.66c0,0-58.04-17.94-61.74-19.26s-402.07-12.93-402.07-12.93l-116.05,21.14l-105.96,98.97
		l32.32-4.85c0.09-0.65,73.26-85.88,75.37-87.29c2.11-1.41,125.23-4.22,126.64-3.17c1.41,1.06-15.83,85.89-15.83,85.89
		s-182.49,5.77-185.65,17.18s460.79,33.07,460.79,33.07l241.36-30.82c0,0,4.11-26.81,4.11-30.18
		C1251.49,534.03,1198.19,469.66,1198.19,469.66z M1150.44,519.13c0,0-7.65-23.88-11.87-25.46c-4.22-1.58-7.12-1.58-10.29-3.43
		c-3.17-1.85-6.07-3.96-7.65-4.49c-1.58-0.53-3.17-4.22-7.12-4.22s-97.62-1.32-97.62-1.32l-31.4,33.51c0,0-62.79-41.68-64.9-43.8
		c-2.11-2.11,243.51-4.75,243.51-4.75s52.5,53.03,52.5,53.95S1150.44,519.13,1150.44,519.13z"/>
	<linearGradient id="SVGID_38_" gradientUnits="userSpaceOnUse" x1="1014.5247" y1="421.4836" x2="1013.8212" y2="598.775">
		<stop  offset="0.0449" style="stop-color:#416289"/>
		<stop  offset="0.2925" style="stop-color:#30557F"/>
		<stop  offset="0.4984" style="stop-color:#547FB0"/>
		<stop  offset="0.7382" style="stop-color:#5481B3"/>
		<stop  offset="1" style="stop-color:#5282B6"/>
	</linearGradient>
	<path class="st44" d="M1402.22,555.49c-1.58-0.35-18.12-6.28-18.12-6.28s-76.69-43.15-110.98-57.39
		c-34.3-14.25-88.12-37.46-88.12-37.46s-22.69-11.61-71.76-14.77c-49.07-3.17-235.33-8.44-235.33-8.44s-33.24-2.11-97.09,2.64
		s-145.49,9.18-159.77,20.24l379.72,0.34l-6.22,13.09l-29.57,124.17l41.04,4.83l200.36-17.08l74.66-12.29l77.04-15.01l49.25,8
		C1407.32,560.07,1403.8,555.84,1402.22,555.49z M1246.23,542.13c0.06,1.4-2.13,6.03-2.13,6.03l-37.73,13.05l-205.26,23.74
		l21.72-120.92l5.21-4.77l119.67,0.78c0,0,11.97-0.27,13.39,0c1.42,0.27,8.59,3.29,8.59,3.29l76.53,72.46
		C1246.23,535.79,1246.17,540.72,1246.23,542.13z"/>
	<path class="st45" d="M668.15,575.85c0,0,216.95,6.38,290.49,10.6l36.41-120.66c0,0,2.9-7.48-3.96-7.74s-225.4,0-225.4,0
		l-144.23-0.12l-108.56,98.9l-1.71-2.08l104.47-98.03c0,0,5.28-3.96,13.19-4.22s151.44-2.11,151.44-2.11l220.82,1.32
		c0,0,6.6,2.37,4.49,8.97c-2.11,6.6-34.03,127.16-34.03,127.16l-202.09-7.65L668.15,575.85z"/>
	<path class="st46" d="M1001.12,584.95l21.72-120.92c0,0,1.49-4.66,7.3-5.19c4.98-0.45,90.79-0.13,115.03-0.03
		c4.01,0.02,6.33,0.03,6.33,0.03s13.19,0.53,18.2,4.49s75.19,74.08,75.19,74.08s5.8,7.97-6.6,12.46
		c-12.4,4.49-31.92,11.34-31.92,11.34s-54.87-87.88-61.21-102.39"/>
	<path class="st47" d="M1206.37,561.21c0,0-162.87,19.26-205.61,23.74"/>
	<linearGradient id="SVGID_39_" gradientUnits="userSpaceOnUse" x1="6.9734" y1="646.4719" x2="1472.7501" y2="646.4719">
		<stop  offset="0.0449" style="stop-color:#30496A"/>
		<stop  offset="0.2925" style="stop-color:#3C5D85"/>
		<stop  offset="0.4984" style="stop-color:#3E6592"/>
		<stop  offset="0.7382" style="stop-color:#3A6693"/>
		<stop  offset="0.9196" style="stop-color:#486F9C"/>
		<stop  offset="1" style="stop-color:#2D527C"/>
	</linearGradient>
	<path class="st48" d="M624.68,719.4c0,0-45.89-8.99-38.43-21.44c7.47-12.46,26.85-22.13,32.09-18.25
		c5.24,3.88,1.59,13.73,9.4,11.97s19.77-31.52,54.24-39.51s223.72-44.57,292.67-48.79s222.32-10.51,256.79-18.97
		c34.47-8.47,93.57-28.68,120.3-29.83c26.73-1.15,91.46,17.81,99.9,15.01c8.44-2.8,21.11-15.06,21.11-15.06l-88.65-5.32l16.88,8.44
		c0,0-42.92-10.55-73.52-8.44c-30.6,2.11-114.32,29.55-107.99,24.98c6.33-4.57,31.31-20.4,29.55-23.22
		c-1.76-2.81-1.76-2.81-1.76-2.81s-26.03,16.18-43.62,18.29c-17.59,2.11-200.16,26.21-201.21,25.24
		c-1.06-0.97-23.53-4.01-30.87-3.84c-7.34,0.17-308.24-13.02-308.24-13.02l-175.76,4.83c0,0-37.06,4.9-78.22,5.96
		s-163.04,3.32-234.28,23.82s-107.64,18.4-120.83,29.48S9.3,685,7.15,690.89c-2.15,5.89,16.16,5.06,16.16,5.06l587.08,48.83
		L624.68,719.4z"/>
	<linearGradient id="SVGID_40_" gradientUnits="userSpaceOnUse" x1="475.3842" y1="495.3623" x2="475.5601" y2="592.0987">
		<stop  offset="0.1915" style="stop-color:#30496A"/>
		<stop  offset="0.4035" style="stop-color:#5784B6"/>
		<stop  offset="0.6188" style="stop-color:#2D527C"/>
	</linearGradient>
	<path class="st49" d="M453.85,538.85c0,0,1.61-6.73,9.65-7.72c8.05-0.99,25.59-1.19,28.56,0c2.97,1.19,4.95,7.98,5.01,8.64
		c0.07,0.66-2.57,7.26-3.56,8.11c-0.99,0.86-14.71,6.25-14.71,6.25l-17.61-1.24L453.85,538.85z"/>
	<linearGradient id="SVGID_41_" gradientUnits="userSpaceOnUse" x1="481.821" y1="587.0917" x2="474.9615" y2="526.4116">
		<stop  offset="0.1915" style="stop-color:#152E4D"/>
		<stop  offset="0.4035" style="stop-color:#04142C"/>
		<stop  offset="0.6188" style="stop-color:#1E3955"/>
	</linearGradient>
	<path class="st50" d="M457.37,533.77c0,0,2.37,8.97,3.43,11.34c1.06,2.37,3.69,5.01,7.65,5.28c3.96,0.26,16.61-1.32,16.61-1.32
		s3.7-1.06,4.23-3.96s3.96-12.93,2.37-13.98c0,0,8.18,1.35,10.03,9.64c1.85,8.3-4.42,14.51-4.42,14.51l-13.92,19.98l-3.64,1.88
		c0,0-5.45-12.51-8.61-14.09c-3.17-1.58-14.51-5.15-17.68-10.62S453.94,535.62,457.37,533.77z"/>
	<linearGradient id="SVGID_42_" gradientUnits="userSpaceOnUse" x1="1059.2979" y1="536.3034" x2="1066.2617" y2="604.7819">
		<stop  offset="0.1915" style="stop-color:#152E4D"/>
		<stop  offset="0.4035" style="stop-color:#04142C"/>
		<stop  offset="0.6188" style="stop-color:#1E3955"/>
	</linearGradient>
	<path class="st51" d="M1051.41,543.64c0,0-11.97,6.31-13.64,14.05c-1.67,7.74,8.79,12.14,8.53,15.13
		c-0.26,2.99-3.52,9.76-6.68,11.17c-3.17,1.41-12.75,2.11-13.02,2.9s0,2.11,0,2.11s11.24,3.43,12.35,3.52s9.64,0.18,10.17,0
		s24.1-2.02,24.1-2.02v-1.14l-11.26-3.08c0,0,7.21-11.96,16.36-13.72s19.15-2.76,21.62-6.53s-9.31-7.98-9.31-7.98L1051.41,543.64z"
		/>
	<linearGradient id="SVGID_43_" gradientUnits="userSpaceOnUse" x1="1072.7109" y1="533.278" x2="1077.4597" y2="579.9752">
		<stop  offset="0.1915" style="stop-color:#30496A"/>
		<stop  offset="0.4035" style="stop-color:#5784B6"/>
		<stop  offset="0.6188" style="stop-color:#2D527C"/>
	</linearGradient>
	<path class="st52" d="M1045.7,547.75c0,0-5.01,5.54,0,5.8c5.01,0.26,15.3-4.22,16.36-2.37s-6.86,8.97,0,13.19
		c6.86,4.22,30.08,6.86,35.88,3.43s9.76-12.14,7.12-17.94c-2.64-5.8-14.77-13.19-29.02-12.4
		C1061.8,538.26,1049.92,543.53,1045.7,547.75z"/>
	<path class="st53" d="M474.06,682.13c0,0,14.18-27.49,78.55-50.48c52.49-18.74,145.42-33.67,233.22-35.09l172.81-7.39"/>
	<path class="st54" d="M62.16,664.76c0,0,35.35-48.94,141.41-62.65"/>
	<path class="st54" d="M491.67,666.65c0,0,136.07,10.9,181.2,49.25c0,0,9.33,71.03,9.11,107.1"/>
	<path class="st54" d="M78.75,648.7c-1.06,0.26-28.99-0.43-39.28,5.91"/>
	<linearGradient id="SVGID_44_" gradientUnits="userSpaceOnUse" x1="312.52" y1="776.3486" x2="542.5767" y2="631.4199">
		<stop  offset="0.0449" style="stop-color:#2D2821"/>
		<stop  offset="0.5258" style="stop-color:#3A3C3C"/>
		<stop  offset="0.98" style="stop-color:#494238"/>
	</linearGradient>
	<path class="st55" d="M761.83,584.86l-33.77-1.75c0,0-41.42,0.59-91.18,4.6c-91.98,7.41-229.67,27.93-308.25,88.07l33.77,1.41
		c0,0,46.61-40.79,127.16-60.32c38.17-9.25,86.75-18.57,134.02-23.74C676.07,587.39,727.03,586.24,761.83,584.86z"/>
	<linearGradient id="SVGID_45_" gradientUnits="userSpaceOnUse" x1="282.9803" y1="729.458" x2="513.0371" y2="584.5293">
		<stop  offset="0.0449" style="stop-color:#2D2821"/>
		<stop  offset="0.5258" style="stop-color:#3A3C3C"/>
		<stop  offset="0.98" style="stop-color:#494238"/>
	</linearGradient>
	<path class="st56" d="M315.5,677.56c0,0,64.15-47.81,145.57-64.15c177.04-35.55,263.83-31.35,263.83-31.35l-44.85-0.15
		l-379.91,30.18c0,0-87.85,19.29-127.69,59.93L315.5,677.56z"/>
	<linearGradient id="SVGID_46_" gradientUnits="userSpaceOnUse" x1="232.4846" y1="649.3022" x2="462.5414" y2="504.3735">
		<stop  offset="0.0449" style="stop-color:#2D2821"/>
		<stop  offset="0.5258" style="stop-color:#3A3C3C"/>
		<stop  offset="0.98" style="stop-color:#494238"/>
	</linearGradient>
	<path class="st57" d="M301.57,609.84c0,0-94.57,19.15-135.99,62.16l-27.7-2.35c0,0,99.46-67.28,201.83-72.3
		C442.07,592.34,301.57,609.84,301.57,609.84z"/>
	<path class="st58" d="M665.27,579.37h22.34c0,0,3.87,1.45,4.05,2.86c0.18,1.41-82.84,4.22-165.86,13.02
		c-83.02,8.79-226.56,52.06-226.56,52.06s-16.38,4.79-15.72,0.7c0.66-4.09,19-29.15,19-29.15l67.01-15.13l165.95-17.98
		c0,0,83.37-8.13,84.69-8.55C621.47,576.77,665.27,579.37,665.27,579.37z"/>
	<path class="st59" d="M283.51,647.3c0,0,11.76-28.49,18.06-37.46c6.3-8.97,47.58-19.54,132.56-24.98l-30.15,17.07l-97.87,18.82
		l-9.66,6.16L283.51,647.3z"/>
	<path class="st60" d="M283.51,648.01c0,0,8.44-23.48,26.65-31.13c18.2-7.65,84.95-28.99,139.56-33.77s81.71-6.42,82.4-5.78
		c0.69,0.64,58.92,5.78,58.92,5.78s-204.11,20.58-272.97,46.17c0,0-9.23-0.79-8.97-5.28S296.17,622.94,283.51,648.01z"/>
	<linearGradient id="SVGID_47_" gradientUnits="userSpaceOnUse" x1="528.202" y1="601.2488" x2="536.4686" y2="582.6051">
		<stop  offset="0.0449" style="stop-color:#1B1D20"/>
		<stop  offset="0.5258" style="stop-color:#545250"/>
		<stop  offset="0.9645" style="stop-color:#0B0A09"/>
	</linearGradient>
	<path class="st61" d="M485.8,579.37c0,0,32.78-2.42,51.6-1.19c18.82,1.23,54.52,4.92,54.52,4.92l12.84-7.74
		c0,0-7.56-13.72-9.32-15.48s-20.75-6.51-24.8-6.51c-4.05,0-51.31-1.61-52.66-0.63s-29.13,3.27-29.13,3.27l-7.65,4.44
		c0,0-1.67,7.44-2.03,8.51S485.8,579.37,485.8,579.37z"/>
	<linearGradient id="SVGID_48_" gradientUnits="userSpaceOnUse" x1="514.7845" y1="554.3831" x2="514.8985" y2="576.8309">
		<stop  offset="0.0449" style="stop-color:#1B1D20"/>
		<stop  offset="0.5258" style="stop-color:#545250"/>
		<stop  offset="0.9645" style="stop-color:#0B0A09"/>
	</linearGradient>
	<path class="st62" d="M512.38,557.58c0,0,0.92-0.59,2.97-0.59c2.04,0,2.64-0.07,2.64,0.66s-0.46,18.93-0.46,18.93
		s-0.53,0.66-1.45,0.66s-3.03,0-3.03,0s-1.25-0.07-1.32-0.66S512.38,557.58,512.38,557.58z"/>
	<linearGradient id="SVGID_49_" gradientUnits="userSpaceOnUse" x1="541.761" y1="554.2076" x2="541.8762" y2="576.905">
		<stop  offset="0.0449" style="stop-color:#1B1D20"/>
		<stop  offset="0.5258" style="stop-color:#545250"/>
		<stop  offset="0.9645" style="stop-color:#0B0A09"/>
	</linearGradient>
	<path class="st63" d="M538.96,557.71v18.2c0,0,0,1.12,0.92,1.32s3.43,0,3.43,0s1.06,0.33,1.06-1.58c0-1.91,0.33-17.08,0.33-17.08
		s-0.13-1.26-0.79-1.58c-0.66-0.33-4.16,0-4.16,0S538.96,556.99,538.96,557.71z"/>
	<linearGradient id="SVGID_50_" gradientUnits="userSpaceOnUse" x1="568.2808" y1="555.881" x2="568.3979" y2="578.9521">
		<stop  offset="0.0449" style="stop-color:#1B1D20"/>
		<stop  offset="0.5258" style="stop-color:#545250"/>
		<stop  offset="0.9645" style="stop-color:#0B0A09"/>
	</linearGradient>
	<path class="st64" d="M565.21,560.15c0,0-0.13-1.58,1.12-1.58s3.69,0,3.69,0s0.86,0.33,0.86,1.58s0.53,16.86,0.53,17.17
		s0.4,1.76-0.46,1.96c-0.86,0.2-4.09,0-4.09,0s-1.12-0.35-1.39-1.96C565.21,575.72,565.21,560.15,565.21,560.15z"/>
	<linearGradient id="SVGID_51_" gradientUnits="userSpaceOnUse" x1="573.6168" y1="547.9099" x2="573.7927" y2="582.5591">
		<stop  offset="0.0449" style="stop-color:#1B1D20"/>
		<stop  offset="0.5258" style="stop-color:#545250"/>
		<stop  offset="0.9645" style="stop-color:#0B0A09"/>
	</linearGradient>
	<path class="st65" d="M591.04,583.11c0,0,5.98-14.95,1.06-19.52c-4.92-4.57-13.02-6.16-40.81-8.44s-63.49,0.7-64.9,2.64
		c-1.41,1.93-6.16,5.16-5.28,10.93c0.88,5.78,5.1,11.23,5.1,11.23h-3.17c0,0-5.28-10.38-4.92-13.72c0.35-3.34,6.33-10.2,9.32-11.26
		c2.99-1.06,57.87-4.57,89.35-1.93c31.48,2.64,82.49,10.55,89.35,13.19c6.86,2.64,0.88,13.19-1.41,14.25
		C662.45,581.52,591.04,583.11,591.04,583.11z"/>
	<linearGradient id="SVGID_52_" gradientUnits="userSpaceOnUse" x1="615.116" y1="898.8798" x2="693.2943" y2="898.8798">
		<stop  offset="0" style="stop-color:#182536"/>
		<stop  offset="1" style="stop-color:#33608B"/>
	</linearGradient>
	<path class="st66" d="M693.29,854.52c0,0-9.36,37.26-10.07,47.46s2.81,30.25-0.35,34.12c-3.17,3.87-49.64,9.01-58.24,6.44
		c-8.6-2.57-10.16-55.02-9.32-56.39C616.15,884.78,693.29,854.52,693.29,854.52z"/>
	<path class="st67" d="M671.33,890.41h-38.78L78.13,837.04c0,0-38.49,32.67-42,53.33l63.48,12.75l129.82,12.14l365.88,39.72
		l20.89-10.44L671.33,890.41z"/>
	<path class="st68" d="M80.45,835.25c0,0-9.5,8.69-12.31,15.38c-2.81,6.68,29.55,34.29,34.12,37.9s6.4,7.18,3.73,8.21
		c-2.67,1.03-69.86-6.36-69.86-6.36v6.46c0,0,186.44,24.15,242.02,31.18c55.58,7.04,325.03,27.57,325.03,27.57l-3.61-6.19
		c0,0-83.11-6.96-88.03-8.72c-4.92-1.76,123.43-42.32,124.59-49.56c1.16-7.25-101.04-15.32-104.01-16.47
		C529.15,873.5,80.45,835.25,80.45,835.25z"/>
	<path class="st69" d="M602.83,942.09l44.57-40.81c0,0,11.35-8.09,15.22-9.15c3.87-1.06,8.27-2.46,9.5-1.41
		c1.23,1.06,0.7,3.92,0,6.01c-0.7,2.08-8.44,14.92-10.55,17.56c-2.11,2.64-53.47,40.28-53.47,40.28s-5.8,2.29-6.86,0
		c-1.06-2.29-2.29-6.16-1.67-8.09C600.19,944.55,602.83,942.09,602.83,942.09z"/>
	<path class="st70" d="M94.87,830.84c2.97-0.36,20.61,8.69,20.61,8.69l33.56,9.69l270.51,29.55l161.95,3.28l24.8-7.4
		c0,0-0.31-9.5-4.53-11.84c-4.22-2.33-79.85-14.27-119.6-19.56c-39.75-5.29-180.11-21.5-188.55-20.25
		c-8.44,1.25-109.05-3.68-109.05-3.68l-97.44-13.37L94.87,830.84z"/>
	<path class="st71" d="M191.19,843.25l30.32-2.38c0,0-0.29-5.18,5.26-6.68c5.55-1.5-15.55-2.29-15.55-2.29l-43.27-1.06l5.61,9.83
		l16.28,2.58H191.19z"/>
	<path class="st72" d="M98.27,827.84c0,0,19.32,14.81,23.79,14.18s23.2-2.21,23.2-2.21s115.82,19.27,125.58,20.06
		c9.76,0.79,95.51,8.44,164.1,11.08s136.1,2.93,136.51,3.71c0.42,0.78,28.12-9.25,29.7-9.25c1.58,0,11.6-0.86,11.6,1.68
		c0,2.54-6.46,18.37-6.46,18.37s-23.82,1.26-30.45,2.74c-6.62,1.48-105.29-2.48-108.19-2.74c-2.9-0.26-68.33-1.58-80.2-1.85
		c-11.87-0.26-147.22-9.76-151.7-9.76c-4.49,0-76.77-14.44-81.79-15.66c-5.01-1.22-61.47-12.57-63.32-14.94s-11-11.82-11.87-15.4
		c-0.87-3.58-1.58-6.76,2.9-7.29C86.17,820.02,98.27,827.84,98.27,827.84z"/>
	<linearGradient id="SVGID_53_" gradientUnits="userSpaceOnUse" x1="374.9751" y1="835.5454" x2="371.6608" y2="903.361">
		<stop  offset="0" style="stop-color:#182536"/>
		<stop  offset="1" style="stop-color:#081625"/>
	</linearGradient>
	<path class="st73" d="M678.75,862.81c0,0-40.52,29.5-51.01,32.14c-10.49,2.64-321.27,2.11-341.33,0
		c-20.05-2.11-196.68-41.13-202.29-48.53c-5.61-7.4-15.56-23.81-13.33-23.42c2.23,0.39,9.66-0.01,9.66-0.01s8.62,16.78,14.42,19.04
		c5.8,2.26,148.8,26,189.43,29.7c40.63,3.69,302.15,19,309.37,16.36c7.22-2.64,10.63-21.34,12.63-21.26S678.75,862.81,678.75,862.81
		z"/>
	<linearGradient id="SVGID_54_" gradientUnits="userSpaceOnUse" x1="347.5565" y1="670.5807" x2="338.4105" y2="857.7217">
		<stop  offset="0" style="stop-color:#182536"/>
		<stop  offset="1" style="stop-color:#081625"/>
	</linearGradient>
	<path class="st74" d="M6.36,698.79c-0.14-0.57-1.45-7.12,0.79-10.42s15.7-18.47,18.86-19.79s32.05-3.96,37.33-3.83
		s408.27,17.01,409.06,17.01s171.58,39.58,171.58,39.58s4.15-0.27,6.38,11.47s7.51,39.94,9.1,56.97
		c1.58,17.03,3.16,45.45,3.16,45.45l16.13,27.56l-262.53-30.12c0,0-144.58-1.58-158.82-4.22c-14.25-2.64-149.35-22.69-157.78-22.69
		S36.65,779.9,36.65,779.9S6.59,699.76,6.36,698.79z"/>
	<path class="st75" d="M45.93,753.8c0,0,0.4-2.24,0-4.09c-0.4-1.85-8.51-21.5-8.51-21.5l-12.86-1.32l-2.84,4.22
		c0,0,6.66,16.87,7.85,17.6c1.19,0.73,12.8,3.77,12.8,3.77L45.93,753.8z"/>
	<path class="st75" d="M34.59,721.36l-11.48-23.12h-7.26l-3.83,5.2l6.73,14.73c0,0,4.22,2.26,4.55,2.26
		c0.33,0,10.61,0.94,10.61,0.94L34.59,721.36z"/>
	<path class="st76" d="M8.86,699.85c0,0-0.07-1.52,1.12-2.04s12.93-1.19,12.93-1.19l1.32,2.04c0,0-7.45,0.92-7.98,0.92
		S8.86,699.85,8.86,699.85z"/>
	<path class="st76" d="M19.29,728.61c0,0-0.33-2.57,0.73-2.7c1.06-0.13,16.49,0,16.49,0l0.92,2.31c0,0-11.01-0.07-11.41,0.4
		c-0.4,0.46-3.96,0.73-3.96,0.73L19.29,728.61z"/>
	<path class="st76" d="M581.5,728.38c0.39,0,15.3-1.55,21.9,0c6.6,1.55,35.84,5.08,35.88,6.43s-0.26,4.91-0.92,5.09
		c-0.66,0.18-49.86-6.81-50.39-6.81s-6.46-5.4-6.46-5.4"/>
	<path class="st76" d="M589.28,761.59c0,0,5.94-1.45,11.87-0.79c5.94,0.66,45.77,6.46,45.77,6.46s1.06,1.98,0,1.98
		c-1.06,0-50.39-4.31-50.39-4.31L589.28,761.59z"/>
	<path class="st77" d="M586.25,753.57l57.73,7.88l-0.2-3.94c0,0-36.84-8.91-37.48-8.79c-0.64,0.11-11.74,2.98-11.74,2.98
		L586.25,753.57z"/>
	<path class="st77" d="M592.05,789.68c0,0-1.39,0.16,1.61,1.33c3,1.17,54.84,6.58,54.84,6.58s1.98,0.53,1.85-1.45
		c-0.13-1.98-1.19-5.9-1.19-5.9s-25.06-1.49-25.85-1.62c-0.79-0.13-16.35,1.06-16.35,1.06h-14.25H592.05z"/>
	<path class="st77" d="M26.01,728.61c0,0,8.18,20.05,9.5,20.84c1.32,0.79,10.42,1.85,10.42,1.85v3.17H31.16c0,0-2.26-1.19-3.31-3.17
		s-8.57-22.69-8.57-22.69H26.01z"/>
	<path class="st77" d="M33.53,719.77h-9.37l-7.91-20.18H8.86l6.73,20.84c0,0,1.98,1.32,3.69,1.19c1.71-0.13,15.3-0.26,15.3-0.26
		L33.53,719.77z"/>
	<path class="st78" d="M599.04,729.79c0,0-17.02-1.85-18.47-1.32s5.14,24.99,5.67,25.09c0.53,0.1,20.72-0.99,20.72-0.99
		L599.04,729.79z"/>
	<path class="st78" d="M606.97,762.9c0,0-16.63-1.98-17.68-1.32c-1.06,0.66,2.37,27.83,2.77,28.1c0.4,0.26,18.86,0,18.86,0
		L606.97,762.9z"/>
	<path class="st35" d="M30.23,674.13l31.4-5.54l409.99,19.52c0,0,68.74,13.75,73.17,16.62c4.43,2.86,14.84,8.75,15.74,10.29
		c0.9,1.54,7.26,57.19,9.23,59.98c1.98,2.79,2.21,21.34,0.78,24.45s-12.91,10.71-12.91,10.71l-33.24,1.45l-422.12-29.57l-29.55-3.5
		l-7.12-9.7L27,686L30.23,674.13z"/>
	<path class="st79" d="M1001.12,584.95l-0.35,7.66l-5.04,9.55c0,0-5.95,28.25-6.31,38.1c-0.35,9.85,1.76,21.46,0,23.57
		c-1.76,2.11-7.74,42.92-8.79,60.86s-3.12,85.45-3.12,85.45"/>
	<path class="st79" d="M1206.37,561.21c0,0,33.86,15.04,35.97,18.56c2.11,3.52,26.03,55.89,26.03,55.89s0.7,5.06,0,10.82
		c-0.7,5.76-9.15,121.49-9.15,122.9"/>
	<linearGradient id="SVGID_55_" gradientUnits="userSpaceOnUse" x1="1200.6647" y1="597.4088" x2="1250.96" y2="597.4088">
		<stop  offset="0.0449" style="stop-color:#9CA1A9"/>
		<stop  offset="0.5258" style="stop-color:#8891A2"/>
		<stop  offset="0.98" style="stop-color:#B2B4C3"/>
	</linearGradient>
	<path class="st80" d="M1200.96,602.76c0,0-1.06-0.92,0.79-3.3s14.64-5.28,14.64-5.28s25.2-2.37,29.02-2.11
		c3.83,0.26,5.54,0.66,5.54,1.85c0,1.19-0.66,2.53-0.66,2.53s-8.44,0.22-10.03,0.96c-1.58,0.74-24.4,2.85-28.36,3.37
		C1207.96,601.31,1200.96,602.76,1200.96,602.76z"/>
	<linearGradient id="SVGID_56_" gradientUnits="userSpaceOnUse" x1="1239.3298" y1="607.0997" x2="1250.1117" y2="607.0997">
		<stop  offset="0.0449" style="stop-color:#9CA1A9"/>
		<stop  offset="0.5258" style="stop-color:#8891A2"/>
		<stop  offset="0.98" style="stop-color:#B2B4C3"/>
	</linearGradient>
	<path class="st81" d="M1239.35,602.76c-0.13,0.4,0.26,7.12,3.17,9.23c2.9,2.11,4.35,2.64,5.67,1.71c1.32-0.92-0.13-3.43-0.4-5.41
		s3.43-5.01,1.98-6.99S1240.41,599.6,1239.35,602.76z"/>
	<linearGradient id="SVGID_57_" gradientUnits="userSpaceOnUse" x1="1246.246" y1="624.6458" x2="1253.7174" y2="624.6458">
		<stop  offset="0.0449" style="stop-color:#9CA1A9"/>
		<stop  offset="0.5258" style="stop-color:#8891A2"/>
		<stop  offset="0.98" style="stop-color:#B2B4C3"/>
	</linearGradient>
	<path class="st82" d="M1246.25,620.83c0,0-0.17,6.99,2.07,8.05c2.24,1.06,4.75,2.24,5.28-0.13c0.53-2.37-0.79-8.71-2.11-9.37
		C1250.17,618.72,1246.24,619.64,1246.25,620.83z"/>
	<linearGradient id="SVGID_58_" gradientUnits="userSpaceOnUse" x1="503.8031" y1="745.3707" x2="567.1215" y2="745.3707">
		<stop  offset="0" style="stop-color:#FFFFFF"/>
		<stop  offset="1" style="stop-color:#5D5E60"/>
	</linearGradient>
	<ellipse class="st83" cx="535.46" cy="745.37" rx="31.66" ry="41.94"/>
	<linearGradient id="SVGID_59_" gradientUnits="userSpaceOnUse" x1="57.4086" y1="718.1682" x2="110.8335" y2="718.1682">
		<stop  offset="0" style="stop-color:#FFFFFF"/>
		<stop  offset="1" style="stop-color:#5D5E60"/>
	</linearGradient>
	<ellipse class="st84" cx="84.12" cy="718.17" rx="26.71" ry="37.45"/>
	<linearGradient id="SVGID_60_" gradientUnits="userSpaceOnUse" x1="532.1205" y1="745.1105" x2="544.7842" y2="745.1105">
		<stop  offset="0" style="stop-color:#FFFFFF"/>
		<stop  offset="1" style="stop-color:#5D5E60"/>
	</linearGradient>
	<ellipse class="st85" cx="538.45" cy="745.11" rx="6.33" ry="8.46"/>
	<linearGradient id="SVGID_61_" gradientUnits="userSpaceOnUse" x1="80.4483" y1="721.357" x2="90.6507" y2="721.357">
		<stop  offset="0" style="stop-color:#FFFFFF"/>
		<stop  offset="1" style="stop-color:#5D5E60"/>
	</linearGradient>
	<ellipse class="st86" cx="85.55" cy="721.36" rx="5.1" ry="8.44"/>
	<path class="st87" d="M83.98,669.65L444.97,686c0,0,46.54,5.4,48.5,5.76c1.95,0.36,18.84,3.71,18.84,3.71s-28.37,18.23-27.5,38.68
		c0.88,20.45,23.39,51.65,41.33,56.1c17.94,4.45,43.62-15.25,43.62-15.25s2.73,16.27,2.5,19.17s-4.15,10.37-4.15,10.37l-14.54,5.62
		c0,0-48.91-0.48-49.77-0.54s-358.54-25.44-358.54-25.44l-32.45-4.82l1.41-16.32c0,0,0.7-33.42,0.7-34.83
		c0-1.41-11.61-31.31-13.02-33.42c-1.41-2.11-21.46-22.67-21.46-22.67L83.98,669.65z"/>
	<path class="st88" d="M82.21,676.24c0.79,0.79,19.56,18.69,22.16,29.28s8.44,34.76,6.46,38.88s-7.78,29.19-7.78,29.19l12.4-1.99
		c0,0,8.71-27.82,8.97-36c0.26-8.18-14.77-32.06-14.77-32.06l-21.11-31.52c0,0-14.51,0.26-13.72,0
		C75.61,671.75,82.21,676.24,82.21,676.24z"/>
	<path class="st89" d="M130.22,677.56c0,1.58,30.08,104.48,30.08,104.48"/>
	<line class="st89" x1="160.3" y1="680.72" x2="184.57" y2="779.35"/>
	<path class="st89" d="M189.85,683.62c0,0.26,24.8,98.41,24.8,98.41"/>
	<path class="st89" d="M221.51,683.62c0.53,2.9,22.16,101.05,22.16,101.05"/>
	<line class="st89" x1="255.28" y1="686" x2="281.13" y2="787.31"/>
	<line class="st89" x1="301.57" y1="689.16" x2="327.3" y2="790.25"/>
	<line class="st89" x1="350.78" y1="689.16" x2="374" y2="794.17"/>
	<line class="st89" x1="391.75" y1="693.43" x2="416.21" y2="796.81"/>
	<line class="st89" x1="432.57" y1="693.43" x2="457.37" y2="799.44"/>
	<linearGradient id="SVGID_62_" gradientUnits="userSpaceOnUse" x1="92.7377" y1="693.4299" x2="507.5203" y2="693.4299">
		<stop  offset="0.0449" style="stop-color:#2D2821"/>
		<stop  offset="0.5258" style="stop-color:#3A3C3C"/>
		<stop  offset="0.98" style="stop-color:#494238"/>
	</linearGradient>
	<line class="st90" x1="92.76" y1="683.62" x2="507.5" y2="703.24"/>
	<linearGradient id="SVGID_63_" gradientUnits="userSpaceOnUse" x1="99.3122" y1="703.4333" x2="503.8278" y2="703.4333">
		<stop  offset="0.0449" style="stop-color:#2D2821"/>
		<stop  offset="0.5258" style="stop-color:#3A3C3C"/>
		<stop  offset="0.98" style="stop-color:#494238"/>
	</linearGradient>
	<line class="st91" x1="99.34" y1="693.43" x2="503.8" y2="713.44"/>
	<linearGradient id="SVGID_64_" gradientUnits="userSpaceOnUse" x1="107.5115" y1="712.92" x2="500.6613" y2="712.92">
		<stop  offset="0.0449" style="stop-color:#2D2821"/>
		<stop  offset="0.5258" style="stop-color:#3A3C3C"/>
		<stop  offset="0.98" style="stop-color:#494238"/>
	</linearGradient>
	<line class="st92" x1="107.54" y1="703.43" x2="500.64" y2="722.41"/>
	<linearGradient id="SVGID_65_" gradientUnits="userSpaceOnUse" x1="172.4106" y1="721.6153" x2="482.1957" y2="721.6153">
		<stop  offset="0.0449" style="stop-color:#2D2821"/>
		<stop  offset="0.5258" style="stop-color:#3A3C3C"/>
		<stop  offset="0.98" style="stop-color:#494238"/>
	</linearGradient>
	<line class="st93" x1="172.44" y1="713.44" x2="482.17" y2="729.79"/>
	<linearGradient id="SVGID_66_" gradientUnits="userSpaceOnUse" x1="175.0477" y1="730.0706" x2="482.1968" y2="730.0706">
		<stop  offset="0.0449" style="stop-color:#2D2821"/>
		<stop  offset="0.5258" style="stop-color:#3A3C3C"/>
		<stop  offset="0.98" style="stop-color:#494238"/>
	</linearGradient>
	<line class="st94" x1="175.08" y1="721.62" x2="482.17" y2="738.53"/>
	<linearGradient id="SVGID_67_" gradientUnits="userSpaceOnUse" x1="172.4087" y1="738.9023" x2="484.8358" y2="738.9023">
		<stop  offset="0.0449" style="stop-color:#2D2821"/>
		<stop  offset="0.5258" style="stop-color:#3A3C3C"/>
		<stop  offset="0.98" style="stop-color:#494238"/>
	</linearGradient>
	<line class="st95" x1="172.44" y1="730.07" x2="484.81" y2="747.73"/>
	<linearGradient id="SVGID_68_" gradientUnits="userSpaceOnUse" x1="172.1527" y1="748.7147" x2="489.5873" y2="748.7147">
		<stop  offset="0.0449" style="stop-color:#2D2821"/>
		<stop  offset="0.5258" style="stop-color:#3A3C3C"/>
		<stop  offset="0.98" style="stop-color:#494238"/>
	</linearGradient>
	<line class="st96" x1="172.18" y1="738.9" x2="489.56" y2="758.53"/>
	<linearGradient id="SVGID_69_" gradientUnits="userSpaceOnUse" x1="117.5327" y1="759.569" x2="500.6655" y2="759.569">
		<stop  offset="0.0449" style="stop-color:#2D2821"/>
		<stop  offset="0.5258" style="stop-color:#3A3C3C"/>
		<stop  offset="0.98" style="stop-color:#494238"/>
	</linearGradient>
	<line class="st97" x1="117.56" y1="748.71" x2="500.64" y2="770.42"/>
	<linearGradient id="SVGID_70_" gradientUnits="userSpaceOnUse" x1="110.8006" y1="771.5969" x2="507.5296" y2="771.5969">
		<stop  offset="0.0449" style="stop-color:#2D2821"/>
		<stop  offset="0.5258" style="stop-color:#3A3C3C"/>
		<stop  offset="0.98" style="stop-color:#494238"/>
	</linearGradient>
	<line class="st98" x1="507.5" y1="784.67" x2="110.83" y2="758.52"/>
	<linearGradient id="SVGID_71_" gradientUnits="userSpaceOnUse" x1="110.7975" y1="782.0316" x2="520.1964" y2="782.0316">
		<stop  offset="0.0449" style="stop-color:#2D2821"/>
		<stop  offset="0.5258" style="stop-color:#3A3C3C"/>
		<stop  offset="0.98" style="stop-color:#494238"/>
	</linearGradient>
	<line class="st99" x1="110.83" y1="767.26" x2="520.16" y2="796.81"/>
	<linearGradient id="SVGID_72_" gradientUnits="userSpaceOnUse" x1="485.0604" y1="743.2296" x2="540.7539" y2="743.2296">
		<stop  offset="0.0449" style="stop-color:#2D2821"/>
		<stop  offset="0.5258" style="stop-color:#3A3C3C"/>
		<stop  offset="0.98" style="stop-color:#494238"/>
	</linearGradient>
	<path class="st100" d="M533.35,703.24c0,0-33.51,12.62-25.85,43.2c7.65,30.58,23.51,40.61,33.26,43.25c0,0-4.86,1.83-9.74,1.2
		c-4.88-0.64-54.65-35.23-44.63-69.27c10.03-34.03,30.53-25.12,30.53-25.12L533.35,703.24z"/>
	<linearGradient id="SVGID_73_" gradientUnits="userSpaceOnUse" x1="94.8719" y1="746.0328" x2="117.097" y2="746.0328">
		<stop  offset="0.0449" style="stop-color:#2D2821"/>
		<stop  offset="0.5258" style="stop-color:#3A3C3C"/>
		<stop  offset="0.98" style="stop-color:#494238"/>
	</linearGradient>
	<path class="st101" d="M110.83,736.45c0,0-3.3,12.16-15.96,17.09c0,0,13.7,4.67,19.55,0s0.3-14.64,0.3-14.64L110.83,736.45z"/>
	<path class="st102" d="M97.25,708.16c0,0,11.61-4.92,34.83-4.92s40.89,5.92,40.89,5.92s2.11,2.16,2.11,7.44v16.67
		c0,3.58-2.72,6.58-6.29,6.9c-10.82,0.99-19.42,1.75-25.28,1.05C135.58,740.29,97.25,708.16,97.25,708.16z"/>
	<path class="st102" d="M446.03,759.61c0.33,0.13,6.66-0.46,8.18-0.79s9.63-2.7,9.63-2.7s1.19-0.53,1.39-2.77
		c0.2-2.24-0.24-23.55,0-24.07c0.24-0.53,0.59-2.78-1.87-3.5c-2.46-0.72-68.07-2.66-68.07-2.66L446.03,759.61z"/>
	<path class="st102" d="M643.98,758.53l-4.08-20.47c0,0,1.23-2.46-4.58-3.39s-36.8-4.88-36.8-4.88s-0.53,1.71,0,4.22
		c0.53,2.51,5.54,17.15,6.07,17.94C605.11,752.75,643.98,758.53,643.98,758.53z"/>
	<path class="st102" d="M647.32,771.74c0,0,0.53-3.17-0.92-4.09c-1.45-0.92-37.73-4.75-37.73-4.75s-2.37,0.13-2.37,1.06
		s2.64,21.63,2.64,21.63s-1.32,3.9,2.51,4.65c3.83,0.76,35.97,3.92,35.97,3.92s1.75-0.33,1.75-3.92S647.32,771.74,647.32,771.74z"/>
	<linearGradient id="SVGID_74_" gradientUnits="userSpaceOnUse" x1="27.852" y1="829.0513" x2="702.3766" y2="829.0513">
		<stop  offset="0.0449" style="stop-color:#2D2821"/>
		<stop  offset="0.5258" style="stop-color:#3A3C3C"/>
		<stop  offset="0.98" style="stop-color:#494238"/>
	</linearGradient>
	<path class="st103" d="M702.38,840.56c0,0-1.58,7.58-6.16,11.63s-21.99,13.54-26.03,14.25c-4.05,0.7-35.88,1.76-41.51,1.32
		c-5.63-0.44-286.34-10.82-286.34-10.82s-1.76,0.17-2.99-2.73c-1.23-2.9-4.4-9.23-7.74-10.64c-3.34-1.41-137.54-13.02-142.29-10.9
		c-4.75,2.11-2.64,5.8,0,6.86c2.64,1.06,5.8,2.77,3.17,3.76c-2.64,0.99-144.58-24.34-144.58-24.34s-24.5-16.77-19.35-25.52
		c5.15-8.76,37.29,3.36,37.29,3.36l276.49,25.33c0,0,304.46,14.63,306.04,13.65C649.96,834.78,702.38,840.56,702.38,840.56z"/>
	<linearGradient id="SVGID_75_" gradientUnits="userSpaceOnUse" x1="28.499" y1="812.8873" x2="702.3824" y2="812.8873">
		<stop  offset="0.0449" style="stop-color:#9CA1A9"/>
		<stop  offset="0.5258" style="stop-color:#8891A2"/>
		<stop  offset="0.98" style="stop-color:#B2B4C3"/>
	</linearGradient>
	<path class="st104" d="M686.9,822.82c0,0.35,15.83,14.77,15.48,17.24c-0.35,2.46-20.4,5.63-28.14,6.33
		c-7.74,0.7-351.42-9.5-437.95-15.83S33.14,797.84,33.14,797.84s-5.28-2.29-4.57-4.92c0.7-2.64,8.09-13.02,8.09-13.02
		s1.41-1.23,4.4,0s162.47,27.88,186.26,29.02c23.79,1.14,427.4,20.58,439.01,19.52C677.93,827.39,686.9,822.82,686.9,822.82z"/>
	<path class="st105" d="M656.56,829.52c0,0,6.33-1.06,10.29,0s6.33,9.23,9.5,10.29s10.55,1.06,8.71,1.85
		c-1.85,0.79-14.51,1.58-28.49,0.79c-13.98-0.79-20.05-2.9-14.77-2.9s14.25,0.53,15.04-1.32
		C657.61,836.38,654.48,829.78,656.56,829.52z"/>
	<linearGradient id="SVGID_76_" gradientUnits="userSpaceOnUse" x1="391.7531" y1="741.3737" x2="451.8781" y2="741.3737">
		<stop  offset="0.0449" style="stop-color:#9C421D"/>
		<stop  offset="0.5258" style="stop-color:#8D3615"/>
		<stop  offset="0.98" style="stop-color:#EC8426"/>
	</linearGradient>
	<path class="st106" d="M451.88,754.33l-0.31-18.73l-6.56-7.72c0,0-6.04-2.96-7.95-2.11c-1.91,0.85-37.9-1.45-39.31-1.54
		s-4.67,1.54-4.67,1.54l-1.32,9.83v17.15l9.42,4.43c0,0,43.32,1.43,44.06,1.35c0.74-0.08,6.63-1.35,6.63-1.35L451.88,754.33z"/>
	<linearGradient id="SVGID_77_" gradientUnits="userSpaceOnUse" x1="99.224" y1="724.6666" x2="154.6276" y2="724.6666">
		<stop  offset="0.0449" style="stop-color:#9C421D"/>
		<stop  offset="0.5258" style="stop-color:#8D3615"/>
		<stop  offset="0.98" style="stop-color:#EC8426"/>
	</linearGradient>
	<path class="st107" d="M153.62,733.14c0.07-0.73,1.93-14.26,0.42-17.06c-1.52-2.8-2.73-5.4-4.52-5.81
		c-1.79-0.41-12.26-1.96-12.96-2.12s-34.12,0.25-34.12,0.25s-2.5-0.93-3.1,2.23c-0.6,3.17,1.35,21.97,1.59,22.51
		c0.24,0.54,5.75,3.34,5.75,3.34l40.09,4.75l4.71-3.95L153.62,733.14z"/>
	<linearGradient id="SVGID_78_" gradientUnits="userSpaceOnUse" x1="422.1288" y1="725.7632" x2="421.5025" y2="757.1776">
		<stop  offset="0" style="stop-color:#FFFFFF"/>
		<stop  offset="1" style="stop-color:#5D5E60"/>
	</linearGradient>
	<line class="st108" x1="421.82" y1="725.77" x2="421.82" y2="757.17"/>
	<linearGradient id="SVGID_79_" gradientUnits="userSpaceOnUse" x1="421.8508" y1="740.2233" x2="421.7695" y2="744.3033">
		<stop  offset="0" style="stop-color:#FFFFFF"/>
		<stop  offset="1" style="stop-color:#5D5E60"/>
	</linearGradient>
	<line class="st109" x1="451.87" y1="744.4" x2="391.75" y2="740.12"/>
	<linearGradient id="SVGID_80_" gradientUnits="userSpaceOnUse" x1="126.7032" y1="722.3143" x2="126.668" y2="724.0806">
		<stop  offset="0" style="stop-color:#FFFFFF"/>
		<stop  offset="1" style="stop-color:#5D5E60"/>
	</linearGradient>
	<line class="st110" x1="154.03" y1="724.13" x2="99.34" y2="722.27"/>
	<linearGradient id="SVGID_81_" gradientUnits="userSpaceOnUse" x1="126.5907" y1="708.386" x2="125.9899" y2="738.5298">
		<stop  offset="0" style="stop-color:#FFFFFF"/>
		<stop  offset="1" style="stop-color:#5D5E60"/>
	</linearGradient>
	<line class="st111" x1="126.29" y1="708.39" x2="126.29" y2="738.53"/>
	<linearGradient id="SVGID_82_" gradientUnits="userSpaceOnUse" x1="126.5111" y1="707.381" x2="125.8466" y2="740.717">
		<stop  offset="0" style="stop-color:#FFFFFF"/>
		<stop  offset="1" style="stop-color:#5D5E60"/>
	</linearGradient>
	<path class="st112" d="M100.5,708.16c1.41-0.01,44.67-0.35,49.95,2.46s3.17,22.51,3.17,22.51s-2.11,6.53-6.33,6.96
		c-4.22,0.43-42.21-3.79-42.21-3.79s-3.52,0.35-4.57-4.57c-1.06-4.92-1.76-17.94-1.76-17.94S97.68,708.17,100.5,708.16z"/>
	<linearGradient id="SVGID_83_" gradientUnits="userSpaceOnUse" x1="422.0638" y1="723.6425" x2="421.3577" y2="759.0653">
		<stop  offset="0" style="stop-color:#FFFFFF"/>
		<stop  offset="1" style="stop-color:#5D5E60"/>
	</linearGradient>
	<path class="st113" d="M396.34,724.13l47.14,3.02c0,0,7.39,2.81,8.09,8.44c0.7,5.63,0,17.94,0,17.94s0,5.63-8.44,4.92
		c-8.44-0.7-43.97-2.46-43.97-2.46s-7.74-2.81-7.39-7.74c0.35-4.92-0.01-20.05-0.01-20.05S393.09,723.93,396.34,724.13z"/>
	<linearGradient id="SVGID_84_" gradientUnits="userSpaceOnUse" x1="472.4555" y1="626.8834" x2="472.3601" y2="631.6686">
		<stop  offset="0" style="stop-color:#FFFFFF"/>
		<stop  offset="1" style="stop-color:#5D5E60"/>
	</linearGradient>
	<ellipse class="st114" cx="472.41" cy="629.28" rx="15.04" ry="2.37"/>
	<linearGradient id="SVGID_85_" gradientUnits="userSpaceOnUse" x1="200.9831" y1="616.8629" x2="200.8774" y2="622.166">
		<stop  offset="0" style="stop-color:#FFFFFF"/>
		<stop  offset="1" style="stop-color:#5D5E60"/>
	</linearGradient>
	<ellipse class="st115" cx="200.93" cy="619.51" rx="13.72" ry="2.64"/>
	<linearGradient id="SVGID_86_" gradientUnits="userSpaceOnUse" x1="697.9952" y1="722.3703" x2="696.7523" y2="784.7243">
		<stop  offset="0" style="stop-color:#FFFFFF"/>
		<stop  offset="1" style="stop-color:#5D5E60"/>
	</linearGradient>
	<path class="st116" d="M686.9,723.99l12.93-1.58c0,0,1.58,2.76,1.85,4.02c0.26,1.26,6.07,52.18,6.07,52.18s1.28,4.22-3.18,4.75
		s-10.53,1.32-10.53,1.32s-2.64-1.06-2.9-3.96c-0.26-2.9-4.22-52.77-4.22-52.77V723.99z"/>
	<linearGradient id="SVGID_87_" gradientUnits="userSpaceOnUse" x1="691.12" y1="753.5676" x2="704.5566" y2="753.5676">
		<stop  offset="0.0449" style="stop-color:#9C421D"/>
		<stop  offset="0.5258" style="stop-color:#8D3615"/>
		<stop  offset="0.98" style="stop-color:#EC8426"/>
	</linearGradient>
	<path class="st117" d="M691.12,726.89l4.49,53.82c0,0,7.12-1.06,8.71-1.58c1.58-0.53-5.01-52.24-5.01-52.24
		S692.97,725.84,691.12,726.89z"/>
	<linearGradient id="SVGID_88_" gradientUnits="userSpaceOnUse" x1="560.5258" y1="874.649" x2="599.5721" y2="874.649">
		<stop  offset="0.0449" style="stop-color:#9C421D"/>
		<stop  offset="0.5258" style="stop-color:#8D3615"/>
		<stop  offset="0.98" style="stop-color:#EC8426"/>
	</linearGradient>
	<path class="st118" d="M560.53,867.25v14.77c0,0,30.34-0.53,31.13,0c0.79,0.53,7.12-6.33,7.91-13.46L560.53,867.25z"/>
	<linearGradient id="SVGID_89_" gradientUnits="userSpaceOnUse" x1="97.2464" y1="835.2513" x2="124.4205" y2="835.2513">
		<stop  offset="0.0449" style="stop-color:#9C421D"/>
		<stop  offset="0.5258" style="stop-color:#8D3615"/>
		<stop  offset="0.98" style="stop-color:#EC8426"/>
	</linearGradient>
	<path class="st119" d="M122.84,832.42l1.58,9.5c0,0-3.69,0.26-8.18,0c-4.49-0.26-15.04-4.75-16.88-8.18
		c-1.85-3.43-2.11-5.28-2.11-5.28L122.84,832.42z"/>
	<linearGradient id="SVGID_90_" gradientUnits="userSpaceOnUse" x1="300.9395" y1="671.8524" x2="298.2184" y2="808.3627">
		<stop  offset="0" style="stop-color:#FFFFFF"/>
		<stop  offset="1" style="stop-color:#5D5E60"/>
	</linearGradient>
	<path class="st120" d="M471.62,688.11L61.63,668.59c0,0-27.7,4.49-31.4,5.54s-3.96,11.08-2.11,17.15s37.46,77.57,37.46,77.57
		s0,7.12,17.41,9.76c17.41,2.64,251.43,20.31,251.43,20.31l200.51,12.66c0,0,34.83,1.06,36.94-13.19
		c2.11-14.25-4.75-74.4-11.34-83.37C553.93,706.05,532.82,697.61,471.62,688.11z"/>
</g>
</svg>
