<?xml version="1.0" encoding="utf-8"?>
<!-- Generator: Adobe Illustrator 25.0.0, SVG Export Plug-In . SVG Version: 6.00 Build 0)  -->
<svg version="1.1" id="Слой_2" xmlns="http://www.w3.org/2000/svg" xmlns:xlink="http://www.w3.org/1999/xlink" x="0px" y="0px"
	 viewBox="0 0 1500 1500" style="enable-background:new 0 0 1500 1500;" xml:space="preserve">
<style type="text/css">
	.st0{fill:#30180D;}
	.st1{fill:#65442A;}
	.st2{fill:#BB7800;}
	.st3{fill:#352E29;}
	.st4{fill:#D8A51E;}
	.st5{fill:url(#SVGID_1_);}
	.st6{fill:#1F1F20;}
	.st7{fill:url(#SVGID_2_);}
	.st8{fill:url(#SVGID_3_);}
	.st9{fill:#060606;}
	.st10{fill:#2B241B;}
	.st11{fill:url(#SVGID_4_);}
	.st12{fill:url(#SVGID_5_);}
	.st13{fill:url(#SVGID_6_);}
	.st14{fill:url(#SVGID_7_);}
	.st15{fill:url(#SVGID_8_);}
	.st16{fill:url(#SVGID_9_);}
	.st17{fill:url(#SVGID_10_);}
	.st18{fill:url(#SVGID_11_);}
	.st19{fill:url(#SVGID_12_);}
	.st20{fill:url(#SVGID_13_);}
	.st21{fill:url(#SVGID_14_);}
	.st22{fill:url(#SVGID_15_);}
	.st23{fill:url(#SVGID_16_);}
	.st24{fill:url(#SVGID_17_);}
	.st25{fill:url(#SVGID_18_);}
	.st26{fill:url(#SVGID_19_);}
	.st27{fill:url(#SVGID_20_);}
	.st28{fill:url(#SVGID_21_);}
	.st29{fill:url(#SVGID_22_);}
	.st30{fill:url(#SVGID_23_);}
	.st31{fill:url(#SVGID_24_);}
	.st32{fill:url(#SVGID_25_);}
	.st33{fill:url(#SVGID_26_);}
	.st34{fill:url(#SVGID_27_);}
	.st35{fill:url(#SVGID_28_);}
	.st36{fill:url(#SVGID_29_);}
	.st37{fill:url(#SVGID_30_);}
	.st38{fill:url(#SVGID_31_);}
	.st39{fill:url(#SVGID_32_);}
	.st40{fill:url(#SVGID_33_);}
	.st41{fill:url(#SVGID_34_);}
	.st42{fill:url(#SVGID_35_);}
	.st43{fill:url(#SVGID_36_);}
	.st44{fill:url(#SVGID_37_);}
	.st45{fill:url(#SVGID_38_);}
	.st46{fill:url(#SVGID_39_);}
	.st47{fill:url(#SVGID_40_);}
	.st48{fill:url(#SVGID_41_);}
	.st49{fill:url(#SVGID_42_);}
	.st50{fill:url(#SVGID_43_);}
	.st51{fill:#E1C143;}
	.st52{fill:#CDA709;}
	.st53{fill:url(#SVGID_44_);}
	.st54{fill:url(#SVGID_45_);}
	.st55{fill:#362F26;}
	.st56{fill:url(#SVGID_46_);}
	.st57{fill:#3C3733;stroke:#3C3733;stroke-miterlimit:10;}
	.st58{fill:#A27600;}
	.st59{fill:#C7A007;}
	.st60{fill:#5A5246;}
	.st61{fill:none;stroke:#5A5246;stroke-width:3;stroke-miterlimit:10;}
	.st62{fill:none;stroke:#9F9E98;stroke-width:2;stroke-miterlimit:10;}
	.st63{fill:url(#SVGID_47_);}
	.st64{fill:url(#SVGID_48_);}
	.st65{fill:url(#SVGID_49_);}
	.st66{fill:url(#SVGID_50_);}
	.st67{fill:url(#SVGID_51_);}
	.st68{fill:#61594C;}
	.st69{fill:url(#SVGID_52_);}
	.st70{fill:url(#SVGID_53_);}
	.st71{fill:url(#SVGID_54_);}
	.st72{fill:url(#SVGID_55_);}
	.st73{fill:url(#SVGID_56_);}
	.st74{fill:url(#SVGID_57_);}
	.st75{fill:url(#SVGID_58_);}
	.st76{fill:#352D24;}
	.st77{fill:url(#SVGID_59_);}
	.st78{fill:#A7A195;}
	.st79{opacity:0.5;fill:url(#SVGID_60_);}
	.st80{fill:none;stroke:url(#SVGID_61_);stroke-miterlimit:10;}
	.st81{fill:none;stroke:url(#SVGID_62_);stroke-miterlimit:10;}
	.st82{fill:#3C3733;}
	.st83{fill:url(#SVGID_63_);}
	.st84{fill:url(#SVGID_64_);}
	.st85{fill:#463D31;}
	.st86{fill:#413C33;}
	.st87{fill:url(#SVGID_65_);}
	.st88{fill:url(#SVGID_66_);}
	.st89{fill:#594F41;}
	.st90{fill:#B2ADA9;}
	.st91{fill:#6A6158;}
	.st92{fill:#393228;}
	.st93{fill:#352F25;}
	.st94{fill:url(#SVGID_67_);}
	.st95{fill:#5D5446;}
	.st96{fill:#484138;}
	.st97{fill:#1D1D1F;}
	.st98{fill:#736C5E;}
	.st99{fill:url(#SVGID_68_);}
	.st100{fill:url(#SVGID_69_);}
	.st101{fill:url(#SVGID_70_);}
	.st102{fill:#332C24;}
	.st103{fill:#3F372D;}
	.st104{fill:#878278;}
	.st105{fill:url(#SVGID_71_);}
	.st106{fill:url(#SVGID_72_);}
	.st107{fill:url(#SVGID_73_);}
	.st108{fill:url(#SVGID_74_);}
	.st109{fill:url(#SVGID_75_);}
	.st110{fill:#736C66;}
	.st111{fill:#050505;}
	.st112{fill:#7B7265;}
	.st113{fill:none;stroke:#3B352C;stroke-width:2;stroke-miterlimit:10;}
	.st114{fill:url(#SVGID_76_);}
	.st115{fill:url(#SVGID_77_);}
	.st116{fill:url(#SVGID_78_);}
	.st117{fill:#5B524A;}
	.st118{fill:url(#SVGID_79_);}
	.st119{fill:url(#SVGID_80_);}
	.st120{fill:url(#SVGID_81_);}
	.st121{fill:url(#SVGID_82_);}
	.st122{fill:url(#SVGID_83_);}
	.st123{fill:url(#SVGID_84_);}
</style>
<path class="st0" d="M1440.63,796.43c0,0,8.57,0.92,10.44,0.96c1.87,0.04,7.19-5.99,8.34-10.73c1.15-4.74,0.73-12.78,0.73-12.78
	s-5.33,1.14-6.05,2.15C1453.37,777.03,1440.63,796.43,1440.63,796.43z"/>
<path class="st1" d="M1439.95,797.39c0,0,10.26-8.15,13.57-13.61s16.43-23.86,16.43-23.86s-8.52-0.43-9.39,0
	c-0.86,0.43-7.19,3.74-7.19,3.74s-4.6,20.7-5.17,21.85C1447.62,786.65,1439.95,797.39,1439.95,797.39z"/>
<path class="st2" d="M1486.84,718.69l0.16,12.85c0,0-0.5,3.22-1.68,4.22s-2.34-1.1-2.49-4.76c-0.14-3.66,0-13.09,0-13.09
	L1486.84,718.69z"/>
<path class="st3" d="M1484.41,720.13l0.86,14.65c0,0,0.65,1.08-0.86,1.83c-1.51,0.75-4.27,4.21-4.27,4.21l-3.11-26.37l3.61,0.39
	L1484.41,720.13z"/>
<path class="st4" d="M1454.8,695.33c0.94,0.64,24.44,0.85,25.3,7.1c0.86,6.25-6.04,17.68-6.04,17.68l-23.15,0.01l-4.44-17.69
	L1454.8,695.33z"/>
<path class="st4" d="M1478.66,715.66l5.75,4.47c0,0,2.59-0.14,2.59-2.23c0-2.09-6.9-5.4-6.9-5.4L1478.66,715.66z"/>
<linearGradient id="SVGID_1_" gradientUnits="userSpaceOnUse" x1="1450.2255" y1="733.8702" x2="1480.1421" y2="733.8702">
	<stop  offset="0" style="stop-color:#E3B84A"/>
	<stop  offset="0.1427" style="stop-color:#D09108"/>
	<stop  offset="0.15" style="stop-color:#CE8F08"/>
	<stop  offset="0.2523" style="stop-color:#BB7A03"/>
	<stop  offset="0.3522" style="stop-color:#B06D01"/>
	<stop  offset="0.4462" style="stop-color:#AC6900"/>
	<stop  offset="0.552" style="stop-color:#AC6C01"/>
	<stop  offset="1" style="stop-color:#AC6E01"/>
</linearGradient>
<path class="st5" d="M1450.23,715.66c0,0,22.69-7.19,26.14-8.91c3.45-1.72,3.74-4.31,3.74-4.31s-0.29,9.2,0,10.06
	c0.29,0.86-1.44,3.16-1.44,3.16l1.47,23.86c0,0,0.26,8.91-2.04,11.5c-2.3,2.59-7.41,10.35-12.91,11.21s-10.74,3.08-10.74,3.08
	l-0.79-27.35L1450.23,715.66z"/>
<g>
	<path class="st6" d="M903.21,944.17h-21.69l-92.9-212.42l574.44-87.37c0,0,63.02,10.47,64.25,11.99
		c1.23,1.51,28.96,52.53,28.96,52.53l-2.74,74.88l-17.1,17.25l-14.08-1.44c0,0-218.73-51.74-220.89-50.59
		C1199.27,750.15,903.21,944.17,903.21,944.17z"/>
	<path class="st6" d="M175.4,981.86c2.61,5.14,83.56,30.3,136.63,19.44S175.4,981.86,175.4,981.86z"/>
	<g>
		<linearGradient id="SVGID_2_" gradientUnits="userSpaceOnUse" x1="1455.4047" y1="621.7332" x2="1301.4797" y2="842.9194">
			<stop  offset="0" style="stop-color:#695B4A"/>
			<stop  offset="0.5159" style="stop-color:#443A2D"/>
			<stop  offset="1" style="stop-color:#221E1B"/>
		</linearGradient>
		<path class="st7" d="M1407.46,892.43c0,0-17.47,28.75-47.15,29.9s-84.29-2.59-84.29-2.59s-21.27-8.91-26.44-18.68
			s-12.36-22.84-12.36-22.84l23.14-178.08c0,0,95.25-30.75,95.81-31.11s17.39-0.87,26.58,3.44c9.19,4.31,41.11,20.59,49.5,72.27
			C1440.63,796.43,1434.85,837.96,1407.46,892.43z"/>
		<linearGradient id="SVGID_3_" gradientUnits="userSpaceOnUse" x1="1376.2014" y1="676.1727" x2="1367.5781" y2="934.0077">
			<stop  offset="0" style="stop-color:#695B4A"/>
			<stop  offset="0.5159" style="stop-color:#443A2D"/>
			<stop  offset="1" style="stop-color:#221E1B"/>
		</linearGradient>
		<path class="st8" d="M1433.13,802.53c-4.45,65.75-35.38,117.2-69.08,114.92c-33.7-2.28-57.41-57.43-52.95-123.18
			c4.45-65.75,35.38-117.2,69.08-114.92C1413.88,681.63,1437.59,736.78,1433.13,802.53z"/>
		<path class="st9" d="M1347.89,728.3c2.78-0.27,16.04-4.32,23.03,0c7,4.32,24.67,15.65,25.97,25.08c1.29,9.42-5.8,68.56-6.99,78.87
			c-1.2,10.31-9.16,41.03-19.27,41.65s-29.35-7.66-28.78-7.9c0.57-0.24-12.58-44.62-12.65-46.75c-0.07-2.13,3.88-44.48,3.88-44.48
			L1347.89,728.3z"/>
		<path class="st10" d="M1337.53,773.87l3.16,9.07v7.15h-6.56l-1.06,16.16h15.09c0,0,13.44-0.79,13.2-2.38
			c-0.23-1.59-0.42-13.81-0.42-13.81s-2.15-15.61-3.3-18.27s-14.66-17.33-14.66-17.33l-2.1-1.09l-4.14,17.42L1337.53,773.87z"/>
		<path class="st10" d="M1334.13,828.05c0,0,6.99-2.95,7.71-0.79c0.72,2.16-2.2,25.22-2.2,25.22s0.69,5.09,2.32,4.96
			c1.62-0.13,3.46-1.51,5.27-2.8c1.8-1.29,13.34-26.37,14.15-28.17c0.81-1.8,3.93-13.54,1.68-15.6c-2.25-2.05-7.43-4.53-10.51-3.88
			c-3.08,0.65-14.27,9.7-14.5,10.56c-0.23,0.86-4.04,5.67-4.04,5.67L1334.13,828.05z"/>
		<path class="st10" d="M1366.09,826.4c0.18,1.68,7.3,11.85,7.95,11.85s3.23,0,3.23,0l4.31-7.19c0,0-1.29-15.55-2.37-16.58
			c-1.08-1.03-7.1-5.9-8.29-5.08c-1.19,0.82-7.85,3.36-7.87,6.3C1363.04,818.63,1366.09,826.4,1366.09,826.4z"/>
		<path class="st10" d="M1360.03,772.93c-0.01-1.08,6.2-28.89,7.41-29.32s4.88,2.59,4.88,2.59l2.56,25.59c0,0-4.29,17.57-5.15,18.3
			c-0.86,0.73-5.8-5.97-6.67-7.15C1362.18,781.77,1360.03,772.93,1360.03,772.93z"/>
		<linearGradient id="SVGID_4_" gradientUnits="userSpaceOnUse" x1="1346.5806" y1="782.0125" x2="1347.7804" y2="799.0495">
			<stop  offset="0" style="stop-color:#0E0D0C"/>
			<stop  offset="1" style="stop-color:#595046"/>
		</linearGradient>
		<path class="st11" d="M1350.87,782.94h-5.4c0,0-2.48,2.92-2.48,3.24c0,0.32,0,4.85,0,4.85s2.05,1.83,3.02,2.26
			s4.47-0.87,4.47-0.87L1350.87,782.94z"/>
		<linearGradient id="SVGID_5_" gradientUnits="userSpaceOnUse" x1="1362.7927" y1="766.3452" x2="1363.6958" y2="779.1689">
			<stop  offset="0" style="stop-color:#0E0D0C"/>
			<stop  offset="1" style="stop-color:#595046"/>
		</linearGradient>
		<path class="st12" d="M1365.15,766.82l-4.2,0.66v5.77c0,0,2.01,0.92,2.05,1.07c0.04,0.15,1.81,0.45,1.81,0.45L1365.15,766.82z"/>
		<linearGradient id="SVGID_6_" gradientUnits="userSpaceOnUse" x1="1349.5337" y1="813.814" x2="1350.4956" y2="827.4731">
			<stop  offset="0" style="stop-color:#0E0D0C"/>
			<stop  offset="1" style="stop-color:#595046"/>
		</linearGradient>
		<path class="st13" d="M1352.71,814.49h-3.03c0,0-2.47,2.1-2.74,2.74c-0.27,0.65,0,3.99,0,3.99l1.88,1.51h3.73L1352.71,814.49z"/>
		<linearGradient id="SVGID_7_" gradientUnits="userSpaceOnUse" x1="1367.2534" y1="819.3497" x2="1367.6692" y2="825.2548">
			<stop  offset="0" style="stop-color:#0E0D0C"/>
			<stop  offset="1" style="stop-color:#595046"/>
		</linearGradient>
		<path class="st14" d="M1368.24,823.23l-2.1-0.5l0.19-3.02c0,0,2.23,0.75,2.38,1.4C1368.86,821.76,1368.24,823.23,1368.24,823.23z"
			/>
		<linearGradient id="SVGID_8_" gradientUnits="userSpaceOnUse" x1="1350.2878" y1="782.2184" x2="1351.3657" y2="797.5247">
			<stop  offset="0.075" style="stop-color:#241B15"/>
			<stop  offset="0.4462" style="stop-color:#C6C2BB"/>
			<stop  offset="0.4496" style="stop-color:#C4C0B9"/>
			<stop  offset="0.4959" style="stop-color:#ABA69D"/>
			<stop  offset="0.5475" style="stop-color:#969086"/>
			<stop  offset="0.6072" style="stop-color:#867F74"/>
			<stop  offset="0.6789" style="stop-color:#7B7467"/>
			<stop  offset="0.7748" style="stop-color:#756D60"/>
			<stop  offset="0.9957" style="stop-color:#736B5E"/>
		</linearGradient>
		<polygon class="st15" points="1353.16,790.17 1350.48,792.43 1347.98,789.95 1348.18,785.21 1350.87,782.94 1353.36,785.42 		"/>
		
			<linearGradient id="SVGID_9_" gradientUnits="userSpaceOnUse" x1="1368.8993" y1="793.6647" x2="1369.9773" y2="808.9709" gradientTransform="matrix(0.8244 -5.582692e-04 -5.582692e-04 0.8378 224.1463 149.7227)">
			<stop  offset="0.075" style="stop-color:#241B15"/>
			<stop  offset="0.4462" style="stop-color:#C6C2BB"/>
			<stop  offset="0.4496" style="stop-color:#C4C0B9"/>
			<stop  offset="0.4959" style="stop-color:#ABA69D"/>
			<stop  offset="0.5475" style="stop-color:#969086"/>
			<stop  offset="0.6072" style="stop-color:#867F74"/>
			<stop  offset="0.6789" style="stop-color:#7B7467"/>
			<stop  offset="0.7748" style="stop-color:#756D60"/>
			<stop  offset="0.9957" style="stop-color:#736B5E"/>
		</linearGradient>
		<polygon class="st16" points="1354.59,820.54 1352.38,822.44 1350.32,820.36 1350.49,816.39 1352.71,814.49 1354.76,816.56 		"/>
		
			<linearGradient id="SVGID_10_" gradientUnits="userSpaceOnUse" x1="1388.1432" y1="794.6185" x2="1389.2212" y2="809.9247" gradientTransform="matrix(0.8244 -5.582692e-04 -5.582692e-04 0.8378 224.1463 149.7227)">
			<stop  offset="0.075" style="stop-color:#241B15"/>
			<stop  offset="0.4462" style="stop-color:#C6C2BB"/>
			<stop  offset="0.4496" style="stop-color:#C4C0B9"/>
			<stop  offset="0.4959" style="stop-color:#ABA69D"/>
			<stop  offset="0.5475" style="stop-color:#969086"/>
			<stop  offset="0.6072" style="stop-color:#867F74"/>
			<stop  offset="0.6789" style="stop-color:#7B7467"/>
			<stop  offset="0.7748" style="stop-color:#756D60"/>
			<stop  offset="0.9957" style="stop-color:#736B5E"/>
		</linearGradient>
		<polygon class="st17" points="1370.46,821.33 1368.24,823.23 1366.19,821.15 1366.35,817.18 1368.57,815.28 1370.62,817.35 		"/>
		
			<linearGradient id="SVGID_11_" gradientUnits="userSpaceOnUse" x1="1397.615" y1="759.8179" x2="1398.6929" y2="775.1241" gradientTransform="matrix(0.8244 -5.582692e-04 -5.582692e-04 0.8378 224.1463 149.7227)">
			<stop  offset="0.075" style="stop-color:#241B15"/>
			<stop  offset="0.4462" style="stop-color:#C6C2BB"/>
			<stop  offset="0.4496" style="stop-color:#C4C0B9"/>
			<stop  offset="0.4959" style="stop-color:#ABA69D"/>
			<stop  offset="0.5475" style="stop-color:#969086"/>
			<stop  offset="0.6072" style="stop-color:#867F74"/>
			<stop  offset="0.6789" style="stop-color:#7B7467"/>
			<stop  offset="0.7748" style="stop-color:#756D60"/>
			<stop  offset="0.9957" style="stop-color:#736B5E"/>
		</linearGradient>
		<polygon class="st18" points="1378.29,792.17 1376.07,794.07 1374.02,791.99 1374.18,788.01 1376.4,786.12 1378.45,788.19 		"/>
		
			<linearGradient id="SVGID_12_" gradientUnits="userSpaceOnUse" x1="1383.9573" y1="736.7785" x2="1385.0353" y2="752.0847" gradientTransform="matrix(0.8244 -5.582692e-04 -5.582692e-04 0.8378 224.1463 149.7227)">
			<stop  offset="0.075" style="stop-color:#241B15"/>
			<stop  offset="0.4462" style="stop-color:#C6C2BB"/>
			<stop  offset="0.4496" style="stop-color:#C4C0B9"/>
			<stop  offset="0.4959" style="stop-color:#ABA69D"/>
			<stop  offset="0.5475" style="stop-color:#969086"/>
			<stop  offset="0.6072" style="stop-color:#867F74"/>
			<stop  offset="0.6789" style="stop-color:#7B7467"/>
			<stop  offset="0.7748" style="stop-color:#756D60"/>
			<stop  offset="0.9957" style="stop-color:#736B5E"/>
		</linearGradient>
		<polygon class="st19" points="1367.04,772.87 1364.82,774.77 1362.77,772.69 1362.93,768.72 1365.15,766.82 1367.2,768.9 		"/>
		<linearGradient id="SVGID_13_" gradientUnits="userSpaceOnUse" x1="1358.3658" y1="818.0383" x2="1350.0302" y2="864.1727">
			<stop  offset="0" style="stop-color:#0E0D0C"/>
			<stop  offset="1" style="stop-color:#595046"/>
		</linearGradient>
		<path class="st20" d="M1341.84,855.78c0,0,13.08-36.22,13.22-36.65c0.14-0.43-1.31-8.66-2.35-7.9c-1.04,0.76,2.78-3.45,3.5-3.45
			c0.72,0,10.12,2.44,10.12,2.44l-0.29,19.01c0,0-7.82,22.53-8.25,23.96c-0.43,1.44-13.66,5.42-13.66,5.42L1341.84,855.78z"/>
		<linearGradient id="SVGID_14_" gradientUnits="userSpaceOnUse" x1="1377.4379" y1="811.3813" x2="1373.4081" y2="833.6844">
			<stop  offset="0" style="stop-color:#0E0D0C"/>
			<stop  offset="1" style="stop-color:#595046"/>
		</linearGradient>
		<path class="st21" d="M1369.73,815.44c-0.11,0.09,6.75,16.63,6.75,16.63s4.2,0.81,5.11-1.01c0.91-1.81,1.51-8.62,0.93-11.21
			c-0.57-2.59-7.01-13.6-7.01-13.6l-5.78,3.97L1369.73,815.44z"/>
		<linearGradient id="SVGID_15_" gradientUnits="userSpaceOnUse" x1="1353.9808" y1="765.3792" x2="1346.6221" y2="806.1058">
			<stop  offset="0" style="stop-color:#0E0D0C"/>
			<stop  offset="1" style="stop-color:#595046"/>
		</linearGradient>
		<path class="st22" d="M1338.13,763.66c0.84,0.71,15.35,21.7,15.35,22.56c0,0.86,0.14,10.24-0.72,11.66s-3.59,4.72-3.59,4.72
			l15.23,1.58c0,0,3.8-17.43,3.05-19.71c-0.75-2.28-10.67-11.34-10.67-11.34l-14.95-18.68l-4.31,4.46L1338.13,763.66z"/>
		<linearGradient id="SVGID_16_" gradientUnits="userSpaceOnUse" x1="1374.0437" y1="752.3964" x2="1367.5596" y2="788.2823">
			<stop  offset="0" style="stop-color:#0E0D0C"/>
			<stop  offset="1" style="stop-color:#595046"/>
		</linearGradient>
		<path class="st23" d="M1374.87,744.86c0,0-3.19-0.26-3.96,0c-0.76,0.26-4.21,34.75-5.22,36.05c-1.01,1.29-0.86,3.27,0.14,3.57
			c1.01,0.31,6.32-2.28,6.32-2.28s4.11-15.23,4.07-16.67C1376.19,764.09,1374.87,744.86,1374.87,744.86z"/>
		<linearGradient id="SVGID_17_" gradientUnits="userSpaceOnUse" x1="1360.8662" y1="739.4847" x2="1358.7104" y2="995.1638">
			<stop  offset="0.075" style="stop-color:#5A4B38"/>
			<stop  offset="0.3713" style="stop-color:#625442"/>
			<stop  offset="0.6467" style="stop-color:#5B4C39"/>
			<stop  offset="0.9957" style="stop-color:#584835"/>
		</linearGradient>
		<path class="st24" d="M1338.9,754.82c0,0,8.41-13.79,10.13-14.01c1.72-0.22,4.96,3.88,5.61,5.82
			c0.65,1.94,10.35,34.28,10.35,34.28h5.93l3.33-36.65c0,0,3.45,3.02,5.17,7.55s5.39,12.78,5.39,13.5s-8.81,17.79-8.82,19.17
			c-0.02,1.38,3,10.28,2.36,14.67l0.86,2.67l7.76,2.37c0,0,1.29,4.84,0,12.07c-1.29,7.23-5.39,14.8-5.39,14.8l-6.68-19.76
			c0,0-5.68,4.53-6.18,4.96c-0.5,0.43-7.76,40.53-7.76,40.53s-0.71,3.59-3.95,3.95c-3.23,0.36-16.05-1.41-14.66-2.23
			s8.19-10.13,9.27-13.58c1.08-3.45,11.61-27.16,11.61-27.16s0.25-2.3-1.04-3.95c-1.29-1.65-4.31-3.59-4.31-3.59
			s-1.72-0.65-3.88,0.22c-2.16,0.86-19.86,15.95-19.86,15.95l-1.06-25.6h24.58c0,0,1.08-1.15,1.29-3.94c0.22-2.8,1.44-8.62,1.37-9.7
			c-0.07-1.08-2.23-4.53-3.31-6.04c-1.08-1.51-19.19-24.79-19.19-24.79L1338.9,754.82z"/>
		<linearGradient id="SVGID_18_" gradientUnits="userSpaceOnUse" x1="1368.6434" y1="781.3445" x2="1368.7765" y2="814.9537">
			<stop  offset="0.075" style="stop-color:#5A4B38"/>
			<stop  offset="0.3713" style="stop-color:#625442"/>
			<stop  offset="0.6467" style="stop-color:#5B4C39"/>
			<stop  offset="0.9957" style="stop-color:#584835"/>
		</linearGradient>
		<ellipse class="st25" cx="1368.71" cy="799.15" rx="7.76" ry="14.67"/>
		<linearGradient id="SVGID_19_" gradientUnits="userSpaceOnUse" x1="1371.7002" y1="695.0102" x2="1372.4431" y2="882.6108">
			<stop  offset="0.075" style="stop-color:#241B15"/>
			<stop  offset="0.3713" style="stop-color:#493C2E"/>
			<stop  offset="0.3817" style="stop-color:#685D51"/>
			<stop  offset="0.3951" style="stop-color:#8A8177"/>
			<stop  offset="0.4084" style="stop-color:#A49E95"/>
			<stop  offset="0.4215" style="stop-color:#B7B2AA"/>
			<stop  offset="0.4342" style="stop-color:#C2BEB7"/>
			<stop  offset="0.4462" style="stop-color:#C6C2BB"/>
			<stop  offset="0.4496" style="stop-color:#C4C0B9"/>
			<stop  offset="0.4959" style="stop-color:#ABA69D"/>
			<stop  offset="0.5475" style="stop-color:#969086"/>
			<stop  offset="0.6072" style="stop-color:#867F74"/>
			<stop  offset="0.6789" style="stop-color:#7B7467"/>
			<stop  offset="0.7748" style="stop-color:#756D60"/>
			<stop  offset="0.9957" style="stop-color:#736B5E"/>
		</linearGradient>
		<path class="st26" d="M1347.37,873.43c-0.37,0-0.73-0.06-1.1-0.02c-4.72,0.49-4.16-21.48-12.14-36.74
			c-7.67-14.64-4.53-23.82-3.5-43.98c1.03-20.16-1.41-31.33,7.72-45.36c9.52-14.62,19.75-35.27,32.56-34.8
			c26.1,0.95,36.18,44.02,38.9,80.32l5.39,14.29c-5.96,26.84-19.39,47.12-28.52,61.15C1377.44,882.49,1359.83,873.43,1347.37,873.43
			z M1354.39,728.3c-10.03,0-9.31,8.64-17.38,21.03c-8.67,13.31-3.38,25.38-4.37,44.73c-0.99,19.35-5.79,36.44,1.49,50.34
			c6.95,13.28,3.97,21.61,9.74,21.6c10.29-0.03,22.82-5.84,31.11-18.57c8.67-13.31,13.74-29.98,14.73-49.33
			c1.98-38.63-12.74-68.99-34.51-69.78C1354.93,728.3,1354.66,728.3,1354.39,728.3z"/>
		<linearGradient id="SVGID_20_" gradientUnits="userSpaceOnUse" x1="1369.3171" y1="691.4199" x2="1370.1019" y2="889.5714">
			<stop  offset="0.075" style="stop-color:#80725C"/>
			<stop  offset="0.3713" style="stop-color:#928978"/>
			<stop  offset="0.3791" style="stop-color:#8F8674"/>
			<stop  offset="0.4136" style="stop-color:#877B67"/>
			<stop  offset="0.4462" style="stop-color:#847763"/>
			<stop  offset="0.5436" style="stop-color:#8B806F"/>
			<stop  offset="0.6804" style="stop-color:#8F8676"/>
			<stop  offset="0.9957" style="stop-color:#908878"/>
		</linearGradient>
		<path class="st27" d="M1363.9,882.9c-0.36,0-0.71-0.01-1.06-0.02c-12.44-0.53-17.51-14.7-25.23-31.91
			c-7.42-16.52-8.27-32.66-7.27-55.4c1-22.74,4.19-43.43,13.04-59.25c9.21-16.49,14.67-26.91,27.07-26.38
			c25.25,1.08,43.36,39.9,41.23,88.39l-3.09-0.13l3.09,0.13c-1,22.74-6.42,43.98-15.26,59.81
			C1387.46,874.15,1375.95,882.9,1363.9,882.9z M1370.69,719.17c-9.7,0-22.19,7.43-30,21.41c-8.39,15.02-11.96,32.33-12.92,54.16
			c-0.96,21.83,2.39,42.48,9.43,58.16c6.73,14.98,13.33,21.18,23.3,21.61c9.95,0.4,22.09-6.59,30.11-20.95
			c8.39-15.02,13.29-33.83,14.26-55.65c1.92-43.58-12.33-77.83-33.39-78.72C1371.22,719.18,1370.95,719.17,1370.69,719.17z"/>
		<linearGradient id="SVGID_21_" gradientUnits="userSpaceOnUse" x1="1374.587" y1="685.1876" x2="1375.4011" y2="890.7273">
			<stop  offset="0.075" style="stop-color:#241B15"/>
			<stop  offset="0.3713" style="stop-color:#493C2E"/>
			<stop  offset="0.3817" style="stop-color:#685D51"/>
			<stop  offset="0.3951" style="stop-color:#8A8177"/>
			<stop  offset="0.4084" style="stop-color:#A49E95"/>
			<stop  offset="0.4215" style="stop-color:#B7B2AA"/>
			<stop  offset="0.4342" style="stop-color:#C2BEB7"/>
			<stop  offset="0.4462" style="stop-color:#C6C2BB"/>
			<stop  offset="0.4496" style="stop-color:#C4C0B9"/>
			<stop  offset="0.4959" style="stop-color:#ABA69D"/>
			<stop  offset="0.5475" style="stop-color:#969086"/>
			<stop  offset="0.6072" style="stop-color:#867F74"/>
			<stop  offset="0.6789" style="stop-color:#7B7467"/>
			<stop  offset="0.7748" style="stop-color:#756D60"/>
			<stop  offset="0.9957" style="stop-color:#736B5E"/>
		</linearGradient>
		<path class="st28" d="M1364.94,883.24c-0.37,0-0.73-0.01-1.1-0.02c-12.86-0.53-18.49-12.84-26.48-30.16
			c-7.67-16.62-7.56-36.73-6.52-59.62c1.03-22.89,2.25-39.56,11.39-55.48c9.52-16.59,21.73-34.11,34.55-33.58
			c26.1,1.08,47.89,46.18,45.69,94.98l-3.83,11.74c-1.03,22.89-8.38,44.44-17.51,60.36C1391.87,887.57,1377.4,883.24,1364.94,883.24
			z M1371.96,718.49c-10.03,0-22.93,7.48-31,21.54c-8.67,15.11-12.35,32.54-13.35,54.5c-0.99,21.96,2.47,42.75,9.74,58.52
			c6.95,15.08,13.78,21.32,24.08,21.74c10.28,0.4,22.82-6.63,31.11-21.08c8.67-15.11,13.74-34.04,14.73-56
			c1.98-43.85-12.74-78.31-34.51-79.22C1372.5,718.5,1372.23,718.49,1371.96,718.49z"/>
		<linearGradient id="SVGID_22_" gradientUnits="userSpaceOnUse" x1="1375.8682" y1="682.0412" x2="1376.7305" y2="899.7781">
			<stop  offset="0.075" style="stop-color:#80725C"/>
			<stop  offset="0.3713" style="stop-color:#928978"/>
			<stop  offset="0.3791" style="stop-color:#8F8674"/>
			<stop  offset="0.4136" style="stop-color:#877B67"/>
			<stop  offset="0.4462" style="stop-color:#847763"/>
			<stop  offset="0.5436" style="stop-color:#8B806F"/>
			<stop  offset="0.6804" style="stop-color:#8F8676"/>
			<stop  offset="0.9957" style="stop-color:#908878"/>
		</linearGradient>
		<path class="st29" d="M1373.36,892.43c-0.38,0-0.77-0.01-1.15-0.03c-13.45-0.58-25.46-11.32-33.82-30.23
			c-8.02-18.15-11.84-41.91-10.76-66.9c1.08-24.99,6.94-48.33,16.5-65.72c9.96-18.12,22.89-27.77,36.31-27.19
			c27.31,1.18,46.89,43.84,44.58,97.12l-3.34-0.14l3.34,0.14c-1.08,24.99-6.94,48.33-16.5,65.72
			C1398.84,882.81,1386.39,892.43,1373.36,892.43z M1380.7,712.53c-10.49,0-23.99,8.17-32.43,23.53
			c-9.07,16.5-12.93,35.53-13.97,59.51c-1.04,23.98,2.58,46.68,10.2,63.91c7.28,16.46,14.42,23.28,25.2,23.74
			c10.76,0.44,23.88-7.24,32.55-23.02c9.07-16.5,14.38-37.17,15.41-61.15c2.07-47.89-13.33-85.52-36.11-86.5
			C1381.27,712.54,1380.99,712.53,1380.7,712.53z"/>
	</g>
	<g>
		<linearGradient id="SVGID_23_" gradientUnits="userSpaceOnUse" x1="921.6994" y1="682.155" x2="733.0667" y2="953.2153">
			<stop  offset="0" style="stop-color:#695B4A"/>
			<stop  offset="0.5159" style="stop-color:#443A2D"/>
			<stop  offset="1" style="stop-color:#221E1B"/>
		</linearGradient>
		<path class="st30" d="M862.94,1013.89c0,0-21.41,35.23-57.78,36.64c-36.37,1.41-103.3-3.17-103.3-3.17s-26.07-10.92-32.41-22.9
			c-6.34-11.98-15.15-27.99-15.15-27.99l28.36-218.24c0,0,116.73-37.68,117.41-38.12c0.68-0.44,21.32-1.07,32.58,4.21
			c11.26,5.28,50.38,25.23,60.66,88.57S896.51,947.14,862.94,1013.89z"/>
		<linearGradient id="SVGID_24_" gradientUnits="userSpaceOnUse" x1="824.637" y1="748.8698" x2="814.0693" y2="1064.8427">
			<stop  offset="0" style="stop-color:#695B4A"/>
			<stop  offset="0.5159" style="stop-color:#443A2D"/>
			<stop  offset="1" style="stop-color:#221E1B"/>
		</linearGradient>
		<path class="st31" d="M894.4,903.72c-5.46,80.58-43.36,143.63-84.66,140.83c-41.3-2.8-70.35-70.38-64.9-150.96
			s43.36-143.63,84.66-140.83C870.81,755.56,899.86,823.15,894.4,903.72z"/>
		<path class="st9" d="M789.94,812.75c3.4-0.33,19.65-5.29,28.23,0c8.57,5.29,30.24,19.18,31.82,30.73
			c1.59,11.55-7.1,84.02-8.57,96.66c-1.47,12.64-11.23,50.28-23.62,51.04s-35.97-9.39-35.27-9.68c0.69-0.29-15.42-54.68-15.5-57.29
			c-0.08-2.61,4.76-54.51,4.76-54.51L789.94,812.75z"/>
		<path class="st10" d="M777.25,868.6l3.87,11.12v8.76h-8.04l-1.29,19.81h18.49c0,0,16.47-0.97,16.18-2.92
			c-0.29-1.95-0.51-16.92-0.51-16.92s-2.64-19.12-4.05-22.39c-1.41-3.27-17.97-21.23-17.97-21.23l-2.57-1.33l-5.08,21.35
			L777.25,868.6z"/>
		<path class="st10" d="M773.08,934.99c0,0,8.57-3.61,9.45-0.97c0.88,2.64-2.7,30.91-2.7,30.91s0.85,6.24,2.84,6.08
			s4.24-1.85,6.46-3.43c2.21-1.59,16.35-32.32,17.34-34.52c0.99-2.2,4.81-16.6,2.06-19.11s-9.1-5.55-12.88-4.76
			c-3.78,0.79-17.49,11.89-17.77,12.95c-0.28,1.06-4.95,6.95-4.95,6.95L773.08,934.99z"/>
		<path class="st10" d="M812.24,932.97c0.22,2.06,8.95,14.53,9.74,14.53c0.79,0,3.96,0,3.96,0l5.28-8.81c0,0-1.59-19.05-2.91-20.31
			c-1.32-1.26-8.7-7.24-10.16-6.23c-1.46,1.01-9.63,4.12-9.64,7.72C808.51,923.45,812.24,932.97,812.24,932.97z"/>
		<path class="st10" d="M804.82,867.44c-0.01-1.32,7.6-35.4,9.08-35.93s5.98,3.17,5.98,3.17l3.14,31.36c0,0-5.25,21.53-6.31,22.43
			s-7.11-7.32-8.18-8.76C807.45,878.28,804.82,867.44,804.82,867.44z"/>
		<linearGradient id="SVGID_25_" gradientUnits="userSpaceOnUse" x1="788.3372" y1="878.5749" x2="789.8074" y2="899.4535">
			<stop  offset="0" style="stop-color:#0E0D0C"/>
			<stop  offset="1" style="stop-color:#595046"/>
		</linearGradient>
		<path class="st32" d="M793.59,879.72h-6.62c0,0-3.04,3.58-3.04,3.97c0,0.4,0,5.94,0,5.94s2.51,2.25,3.7,2.77
			c1.19,0.53,5.47-1.07,5.47-1.07L793.59,879.72z"/>
		<linearGradient id="SVGID_26_" gradientUnits="userSpaceOnUse" x1="808.2048" y1="859.3748" x2="809.3115" y2="875.0901">
			<stop  offset="0" style="stop-color:#0E0D0C"/>
			<stop  offset="1" style="stop-color:#595046"/>
		</linearGradient>
		<path class="st33" d="M811.1,859.96l-5.15,0.81v7.07c0,0,2.46,1.12,2.52,1.31s2.22,0.55,2.22,0.55L811.1,859.96z"/>
		<linearGradient id="SVGID_27_" gradientUnits="userSpaceOnUse" x1="791.9561" y1="917.5471" x2="793.1349" y2="934.2861">
			<stop  offset="0" style="stop-color:#0E0D0C"/>
			<stop  offset="1" style="stop-color:#595046"/>
		</linearGradient>
		<path class="st34" d="M795.84,918.37h-3.72c0,0-3.03,2.57-3.36,3.36c-0.34,0.79,0,4.89,0,4.89l2.31,1.85h4.57L795.84,918.37z"/>
		<linearGradient id="SVGID_28_" gradientUnits="userSpaceOnUse" x1="813.6713" y1="924.3311" x2="814.181" y2="931.5677">
			<stop  offset="0" style="stop-color:#0E0D0C"/>
			<stop  offset="1" style="stop-color:#595046"/>
		</linearGradient>
		<path class="st35" d="M814.88,929.08l-2.57-0.61l0.23-3.7c0,0,2.74,0.92,2.92,1.72C815.64,927.28,814.88,929.08,814.88,929.08z"/>
		<linearGradient id="SVGID_29_" gradientUnits="userSpaceOnUse" x1="792.8803" y1="878.8272" x2="794.2012" y2="897.5848">
			<stop  offset="0.075" style="stop-color:#241B15"/>
			<stop  offset="0.4462" style="stop-color:#C6C2BB"/>
			<stop  offset="0.4496" style="stop-color:#C4C0B9"/>
			<stop  offset="0.4959" style="stop-color:#ABA69D"/>
			<stop  offset="0.5475" style="stop-color:#969086"/>
			<stop  offset="0.6072" style="stop-color:#867F74"/>
			<stop  offset="0.6789" style="stop-color:#7B7467"/>
			<stop  offset="0.7748" style="stop-color:#756D60"/>
			<stop  offset="0.9957" style="stop-color:#736B5E"/>
		</linearGradient>
		<polygon class="st36" points="796.41,888.57 793.11,891.34 790.06,888.31 790.3,882.49 793.59,879.72 796.65,882.76 		"/>
		
			<linearGradient id="SVGID_30_" gradientUnits="userSpaceOnUse" x1="693.3777" y1="917.0504" x2="694.6987" y2="935.808" gradientTransform="matrix(0.8244 -5.582692e-04 -5.582692e-04 0.8378 224.1463 149.7227)">
			<stop  offset="0.075" style="stop-color:#241B15"/>
			<stop  offset="0.4462" style="stop-color:#C6C2BB"/>
			<stop  offset="0.4496" style="stop-color:#C4C0B9"/>
			<stop  offset="0.4959" style="stop-color:#ABA69D"/>
			<stop  offset="0.5475" style="stop-color:#969086"/>
			<stop  offset="0.6072" style="stop-color:#867F74"/>
			<stop  offset="0.6789" style="stop-color:#7B7467"/>
			<stop  offset="0.7748" style="stop-color:#756D60"/>
			<stop  offset="0.9957" style="stop-color:#736B5E"/>
		</linearGradient>
		<polygon class="st37" points="798.16,925.79 795.44,928.12 792.92,925.57 793.13,920.7 795.84,918.37 798.36,920.92 		"/>
		
			<linearGradient id="SVGID_31_" gradientUnits="userSpaceOnUse" x1="716.9609" y1="918.2193" x2="718.2819" y2="936.9769" gradientTransform="matrix(0.8244 -5.582692e-04 -5.582692e-04 0.8378 224.1463 149.7227)">
			<stop  offset="0.075" style="stop-color:#241B15"/>
			<stop  offset="0.4462" style="stop-color:#C6C2BB"/>
			<stop  offset="0.4496" style="stop-color:#C4C0B9"/>
			<stop  offset="0.4959" style="stop-color:#ABA69D"/>
			<stop  offset="0.5475" style="stop-color:#969086"/>
			<stop  offset="0.6072" style="stop-color:#867F74"/>
			<stop  offset="0.6789" style="stop-color:#7B7467"/>
			<stop  offset="0.7748" style="stop-color:#756D60"/>
			<stop  offset="0.9957" style="stop-color:#736B5E"/>
		</linearGradient>
		<polygon class="st38" points="817.6,926.75 814.88,929.08 812.37,926.54 812.57,921.67 815.29,919.34 817.8,921.88 		"/>
		
			<linearGradient id="SVGID_32_" gradientUnits="userSpaceOnUse" x1="728.5683" y1="875.5717" x2="729.8893" y2="894.3293" gradientTransform="matrix(0.8244 -5.582692e-04 -5.582692e-04 0.8378 224.1463 149.7227)">
			<stop  offset="0.075" style="stop-color:#241B15"/>
			<stop  offset="0.4462" style="stop-color:#C6C2BB"/>
			<stop  offset="0.4496" style="stop-color:#C4C0B9"/>
			<stop  offset="0.4959" style="stop-color:#ABA69D"/>
			<stop  offset="0.5475" style="stop-color:#969086"/>
			<stop  offset="0.6072" style="stop-color:#867F74"/>
			<stop  offset="0.6789" style="stop-color:#7B7467"/>
			<stop  offset="0.7748" style="stop-color:#756D60"/>
			<stop  offset="0.9957" style="stop-color:#736B5E"/>
		</linearGradient>
		<polygon class="st39" points="827.19,891.02 824.47,893.35 821.96,890.8 822.16,885.93 824.88,883.6 827.39,886.15 		"/>
		
			<linearGradient id="SVGID_33_" gradientUnits="userSpaceOnUse" x1="711.8311" y1="847.3372" x2="713.152" y2="866.0948" gradientTransform="matrix(0.8244 -5.582692e-04 -5.582692e-04 0.8378 224.1463 149.7227)">
			<stop  offset="0.075" style="stop-color:#241B15"/>
			<stop  offset="0.4462" style="stop-color:#C6C2BB"/>
			<stop  offset="0.4496" style="stop-color:#C4C0B9"/>
			<stop  offset="0.4959" style="stop-color:#ABA69D"/>
			<stop  offset="0.5475" style="stop-color:#969086"/>
			<stop  offset="0.6072" style="stop-color:#867F74"/>
			<stop  offset="0.6789" style="stop-color:#7B7467"/>
			<stop  offset="0.7748" style="stop-color:#756D60"/>
			<stop  offset="0.9957" style="stop-color:#736B5E"/>
		</linearGradient>
		<polygon class="st40" points="813.41,867.37 810.69,869.7 808.18,867.16 808.38,862.29 811.1,859.96 813.61,862.5 		"/>
		<linearGradient id="SVGID_34_" gradientUnits="userSpaceOnUse" x1="802.7799" y1="922.724" x2="792.5645" y2="979.261">
			<stop  offset="0" style="stop-color:#0E0D0C"/>
			<stop  offset="1" style="stop-color:#595046"/>
		</linearGradient>
		<path class="st41" d="M782.53,968.98c0,0,16.03-44.38,16.2-44.91s-1.61-10.61-2.88-9.69c-1.27,0.93,3.41-4.23,4.29-4.23
			c0.88,0,12.4,2.99,12.4,2.99l-0.35,23.3c0,0-9.58,27.6-10.11,29.37c-0.53,1.76-16.75,6.65-16.75,6.65L782.53,968.98z"/>
		<linearGradient id="SVGID_35_" gradientUnits="userSpaceOnUse" x1="826.1523" y1="914.5659" x2="821.2138" y2="941.898">
			<stop  offset="0" style="stop-color:#0E0D0C"/>
			<stop  offset="1" style="stop-color:#595046"/>
		</linearGradient>
		<path class="st42" d="M816.7,919.54c-0.13,0.11,8.27,20.38,8.27,20.38s5.14,0.99,6.26-1.23c1.11-2.22,1.85-10.57,1.14-13.74
			c-0.7-3.17-8.59-16.67-8.59-16.67l-7.08,4.87L816.7,919.54z"/>
		<linearGradient id="SVGID_36_" gradientUnits="userSpaceOnUse" x1="797.406" y1="858.191" x2="788.388" y2="908.1009">
			<stop  offset="0" style="stop-color:#0E0D0C"/>
			<stop  offset="1" style="stop-color:#595046"/>
		</linearGradient>
		<path class="st43" d="M777.98,856.09c1.03,0.87,18.82,26.59,18.82,27.65s0.18,12.55-0.88,14.29c-1.06,1.74-4.4,5.79-4.4,5.79
			l18.67,1.94c0,0,4.65-21.36,3.74-24.15s-13.07-13.89-13.07-13.89l-18.32-22.9l-5.28,5.46L777.98,856.09z"/>
		<linearGradient id="SVGID_37_" gradientUnits="userSpaceOnUse" x1="821.9927" y1="842.2808" x2="814.0466" y2="886.2585">
			<stop  offset="0" style="stop-color:#0E0D0C"/>
			<stop  offset="1" style="stop-color:#595046"/>
		</linearGradient>
		<path class="st44" d="M823.01,833.04c0,0-3.91-0.32-4.85,0s-5.16,42.59-6.4,44.18s-1.06,4.01,0.18,4.38
			c1.23,0.37,7.74-2.8,7.74-2.8s5.04-18.67,4.99-20.43C824.62,856.61,823.01,833.04,823.01,833.04z"/>
		<linearGradient id="SVGID_38_" gradientUnits="userSpaceOnUse" x1="805.844" y1="826.4576" x2="803.2021" y2="1139.7887">
			<stop  offset="0.075" style="stop-color:#5A4B38"/>
			<stop  offset="0.3713" style="stop-color:#625442"/>
			<stop  offset="0.6467" style="stop-color:#5B4C39"/>
			<stop  offset="0.9957" style="stop-color:#584835"/>
		</linearGradient>
		<path class="st45" d="M778.92,845.25c0,0,10.3-16.9,12.42-17.17c2.11-0.27,6.08,4.75,6.87,7.13c0.79,2.38,12.69,42.01,12.69,42.01
			h7.27l4.08-44.91c0,0,4.23,3.7,6.34,9.25s6.6,15.66,6.6,16.55s-10.79,21.8-10.81,23.5c-0.02,1.7,3.68,12.59,2.89,17.98l1.06,3.27
			l9.51,2.91c0,0,1.59,5.94,0,14.79s-6.6,18.14-6.6,18.14l-8.19-24.22c0,0-6.97,5.55-7.58,6.08s-9.51,49.67-9.51,49.67
			s-0.88,4.4-4.84,4.84c-3.96,0.44-19.67-1.73-17.96-2.73c1.71-1,10.04-12.42,11.36-16.64c1.32-4.23,14.22-33.29,14.22-33.29
			s0.31-2.82-1.28-4.84c-1.59-2.03-5.28-4.4-5.28-4.4s-2.11-0.79-4.76,0.26s-24.33,19.55-24.33,19.55l-1.29-31.37h30.12
			c0,0,1.32-1.41,1.59-4.83c0.26-3.43,1.76-10.56,1.67-11.88c-0.09-1.32-2.73-5.55-4.05-7.4c-1.32-1.85-23.51-30.38-23.51-30.38
			L778.92,845.25z"/>
		<linearGradient id="SVGID_39_" gradientUnits="userSpaceOnUse" x1="815.3748" y1="877.7563" x2="815.538" y2="918.9438">
			<stop  offset="0.075" style="stop-color:#5A4B38"/>
			<stop  offset="0.3713" style="stop-color:#625442"/>
			<stop  offset="0.6467" style="stop-color:#5B4C39"/>
			<stop  offset="0.9957" style="stop-color:#584835"/>
		</linearGradient>
		<ellipse class="st46" cx="815.46" cy="899.58" rx="9.51" ry="17.98"/>
		<linearGradient id="SVGID_40_" gradientUnits="userSpaceOnUse" x1="819.1208" y1="771.9548" x2="820.0314" y2="1001.8566">
			<stop  offset="0.075" style="stop-color:#241B15"/>
			<stop  offset="0.3713" style="stop-color:#493C2E"/>
			<stop  offset="0.3817" style="stop-color:#685D51"/>
			<stop  offset="0.3951" style="stop-color:#8A8177"/>
			<stop  offset="0.4084" style="stop-color:#A49E95"/>
			<stop  offset="0.4215" style="stop-color:#B7B2AA"/>
			<stop  offset="0.4342" style="stop-color:#C2BEB7"/>
			<stop  offset="0.4462" style="stop-color:#C6C2BB"/>
			<stop  offset="0.4496" style="stop-color:#C4C0B9"/>
			<stop  offset="0.4959" style="stop-color:#ABA69D"/>
			<stop  offset="0.5475" style="stop-color:#969086"/>
			<stop  offset="0.6072" style="stop-color:#867F74"/>
			<stop  offset="0.6789" style="stop-color:#7B7467"/>
			<stop  offset="0.7748" style="stop-color:#756D60"/>
			<stop  offset="0.9957" style="stop-color:#736B5E"/>
		</linearGradient>
		<path class="st47" d="M789.31,990.6c-0.45,0-0.9-0.07-1.35-0.02c-5.78,0.6-5.09-26.33-14.88-45.02
			c-9.39-17.94-5.56-29.19-4.29-53.9c1.27-24.71-1.73-38.39,9.47-55.58c11.67-17.91,24.2-43.22,39.91-42.65
			c31.98,1.17,44.33,53.95,47.67,98.43l6.6,17.51c-7.31,32.89-23.76,57.75-34.96,74.94C826.15,1001.7,804.57,990.6,789.31,990.6z
			 M797.91,812.75c-12.29,0-11.41,10.59-21.3,25.78c-10.63,16.32-4.14,31.1-5.35,54.82c-1.22,23.71-7.09,44.66,1.82,61.69
			c8.52,16.28,4.87,26.48,11.94,26.47c12.61-0.04,27.97-7.16,38.13-22.75c10.63-16.32,16.84-36.74,18.05-60.46
			c2.43-47.34-15.62-84.54-42.29-85.52C798.57,812.76,798.24,812.75,797.91,812.75z"/>
		<linearGradient id="SVGID_41_" gradientUnits="userSpaceOnUse" x1="816.2004" y1="767.5549" x2="817.1622" y2="1010.3867">
			<stop  offset="0.075" style="stop-color:#80725C"/>
			<stop  offset="0.3713" style="stop-color:#928978"/>
			<stop  offset="0.3791" style="stop-color:#8F8674"/>
			<stop  offset="0.4136" style="stop-color:#877B67"/>
			<stop  offset="0.4462" style="stop-color:#847763"/>
			<stop  offset="0.5436" style="stop-color:#8B806F"/>
			<stop  offset="0.6804" style="stop-color:#8F8676"/>
			<stop  offset="0.9957" style="stop-color:#908878"/>
		</linearGradient>
		<path class="st48" d="M809.56,1002.21c-0.44,0-0.87-0.01-1.3-0.03c-15.25-0.65-21.45-18.01-30.92-39.1
			c-9.09-20.24-10.13-40.02-8.9-67.9c1.23-27.87,5.14-53.22,15.97-72.62c11.29-20.21,17.98-32.97,33.18-32.33
			c30.95,1.32,53.14,48.9,50.53,108.32l-3.78-0.16l3.78,0.16c-1.23,27.87-7.87,53.9-18.7,73.29
			C838.44,991.48,824.33,1002.21,809.56,1002.21z M817.89,801.57c-11.89,0-27.19,9.11-36.76,26.24
			c-10.28,18.41-14.65,39.62-15.83,66.38c-1.18,26.75,2.93,52.06,11.56,71.27c8.25,18.36,16.34,25.96,28.55,26.48
			c12.19,0.49,27.07-8.08,36.89-25.67c10.28-18.41,16.29-41.45,17.47-68.2c2.35-53.41-15.11-95.38-40.92-96.48
			C818.53,801.58,818.21,801.57,817.89,801.57z"/>
		<linearGradient id="SVGID_42_" gradientUnits="userSpaceOnUse" x1="822.6587" y1="759.9174" x2="823.6562" y2="1011.8032">
			<stop  offset="0.075" style="stop-color:#241B15"/>
			<stop  offset="0.3713" style="stop-color:#493C2E"/>
			<stop  offset="0.3817" style="stop-color:#685D51"/>
			<stop  offset="0.3951" style="stop-color:#8A8177"/>
			<stop  offset="0.4084" style="stop-color:#A49E95"/>
			<stop  offset="0.4215" style="stop-color:#B7B2AA"/>
			<stop  offset="0.4342" style="stop-color:#C2BEB7"/>
			<stop  offset="0.4462" style="stop-color:#C6C2BB"/>
			<stop  offset="0.4496" style="stop-color:#C4C0B9"/>
			<stop  offset="0.4959" style="stop-color:#ABA69D"/>
			<stop  offset="0.5475" style="stop-color:#969086"/>
			<stop  offset="0.6072" style="stop-color:#867F74"/>
			<stop  offset="0.6789" style="stop-color:#7B7467"/>
			<stop  offset="0.7748" style="stop-color:#756D60"/>
			<stop  offset="0.9957" style="stop-color:#736B5E"/>
		</linearGradient>
		<path class="st49" d="M810.84,1002.63c-0.45,0-0.9-0.01-1.35-0.03c-15.75-0.65-22.66-15.73-32.45-36.96
			c-9.39-20.37-9.26-45.01-7.99-73.06c1.27-28.05,2.76-48.48,13.95-67.99c11.67-20.33,26.63-41.81,42.34-41.16
			c31.98,1.33,58.69,56.6,55.99,116.39l-4.69,14.38c-1.27,28.05-10.27,54.46-21.46,73.97
			C843.84,1007.93,826.1,1002.63,810.84,1002.63z M819.44,800.73c-12.29,0-28.1,9.17-37.99,26.4
			c-10.63,18.52-15.14,39.87-16.36,66.79c-1.22,26.92,3.03,52.39,11.94,71.72c8.52,18.48,16.88,26.12,29.51,26.65
			c12.6,0.49,27.97-8.13,38.13-25.83c10.63-18.52,16.84-41.71,18.05-68.63c2.43-53.74-15.62-95.97-42.29-97.08
			C820.1,800.74,819.77,800.73,819.44,800.73z"/>
		<linearGradient id="SVGID_43_" gradientUnits="userSpaceOnUse" x1="824.2286" y1="756.0615" x2="825.2853" y2="1022.8948">
			<stop  offset="0.075" style="stop-color:#80725C"/>
			<stop  offset="0.3713" style="stop-color:#928978"/>
			<stop  offset="0.3791" style="stop-color:#8F8674"/>
			<stop  offset="0.4136" style="stop-color:#877B67"/>
			<stop  offset="0.4462" style="stop-color:#847763"/>
			<stop  offset="0.5436" style="stop-color:#8B806F"/>
			<stop  offset="0.6804" style="stop-color:#8F8676"/>
			<stop  offset="0.9957" style="stop-color:#908878"/>
		</linearGradient>
		<path class="st50" d="M821.15,1013.89c-0.47,0-0.94-0.01-1.41-0.03c-16.49-0.71-31.2-13.87-41.45-37.04
			c-9.83-22.24-14.51-51.36-13.19-81.98c1.33-30.63,8.51-59.23,20.22-80.54c12.21-22.2,28.06-34.03,44.49-33.32
			c33.46,1.45,57.46,53.73,54.63,119.02l-4.09-0.18l4.09,0.18c-1.33,30.63-8.51,59.23-20.22,80.54
			C852.38,1002.11,837.13,1013.89,821.15,1013.89z M830.16,793.43c-12.86,0-29.4,10.01-39.75,28.83
			c-11.12,20.23-15.84,43.54-17.11,72.93c-1.27,29.39,3.17,57.21,12.5,78.32c8.92,20.17,17.67,28.53,30.88,29.1
			c13.18,0.54,29.27-8.88,39.89-28.2c11.12-20.22,17.62-45.55,18.89-74.94c2.54-58.68-16.34-104.8-44.25-106.01
			C830.85,793.43,830.5,793.43,830.16,793.43z"/>
	</g>
	<path class="st51" d="M1437.56,525.35c0,0,5.46,3.73,5.46,8.78s0.36,13.52-1.72,15.96c-2.08,2.44-22.71,13.94-22.71,13.94
		l-26.42,9.63c0,0-37.68,2.59-38.55,2.59s-11.93-12.21-11.93-12.21l15.95-14.53l36.22-16.95L1437.56,525.35z"/>
	<path class="st52" d="M1258.14,512.32l174.25,11.77c0,0,7.19,1.54,6.61,6.73c-0.57,5.19-3.74,7.56-3.74,7.56s-4.31-1.95-7.47-2.45
		c-3.16-0.5-41.39,0-41.39,0l-101.04-5.11l-13.65-5.47L1258.14,512.32z"/>
	<linearGradient id="SVGID_44_" gradientUnits="userSpaceOnUse" x1="906.4028" y1="878.2192" x2="1293.3364" y2="878.2192">
		<stop  offset="0" style="stop-color:#E3C64A"/>
		<stop  offset="0.1427" style="stop-color:#D0A308"/>
		<stop  offset="0.161" style="stop-color:#CC9E07"/>
		<stop  offset="0.2595" style="stop-color:#BA8903"/>
		<stop  offset="0.3557" style="stop-color:#B07C01"/>
		<stop  offset="0.4462" style="stop-color:#AC7800"/>
		<stop  offset="0.552" style="stop-color:#AC7B00"/>
		<stop  offset="1" style="stop-color:#AC7D00"/>
	</linearGradient>
	<path class="st53" d="M1156.2,884.52c1.05-0.33,37.41-6.17,53.75-6.46c16.34-0.29,41.64,4.31,49.11,0
		c7.47-4.31,27.91-29.39,29.68-32.55s-8.41-3.95-8.41-3.95l13.01-6.11l-2.95-4.38c0,0-29.89,0.43-53.75,0.14
		c-23.86-0.29-64.96,8.62-72.15,10.35c-7.19,1.72-255.75,61.8-255.75,61.8s-5.96,22.46,1.15,22.01
		c7.11-0.45,230.17-40.84,230.17-40.84L1156.2,884.52z"/>
	<linearGradient id="SVGID_45_" gradientUnits="userSpaceOnUse" x1="903.2065" y1="898.3257" x2="1188.1013" y2="898.3257">
		<stop  offset="0" style="stop-color:#846A00"/>
		<stop  offset="0.3713" style="stop-color:#816800"/>
		<stop  offset="1" style="stop-color:#846C00"/>
	</linearGradient>
	<path class="st54" d="M906.51,912.58c0,0-0.71,24.41-3.3,31.59c0,0,248.06-55.48,258.12-61.51c10.06-6.04,26.36-25.16,26.73-27.02
		c0.38-1.86-2.01-3.16-2.01-3.16L906.51,912.58z"/>
	<path class="st55" d="M907.08,909.39c0,0,8.63-5.17,16.18-6.9c7.55-1.72,273.36-58.42,273.36-58.42s22.64-3.88,39.02-4.1
		c16.38-0.22,51.52-2.59,54.76-3.88c3.23-1.29,0.93-2.59,0.93-2.59l0.35-0.93c0,0,1.74,0.43,1.67,2.87
		c-0.07,2.44-4.6,10.06-4.6,10.06s-15.81,2.23-30.68,2.23c-14.88,0-50.01,2.59-62.95,4.74s-271.42,57.56-271.85,57.78
		c-0.43,0.22-14.44,4.96-14.44,4.96l-2.59-1.08L907.08,909.39z"/>
	<linearGradient id="SVGID_46_" gradientUnits="userSpaceOnUse" x1="1096.7509" y1="826.9985" x2="1100.7965" y2="892.7409">
		<stop  offset="0" style="stop-color:#E3C64A"/>
		<stop  offset="0.1427" style="stop-color:#D0A308"/>
		<stop  offset="0.161" style="stop-color:#CC9E07"/>
		<stop  offset="0.2595" style="stop-color:#BA8903"/>
		<stop  offset="0.3557" style="stop-color:#B07C01"/>
		<stop  offset="0.4462" style="stop-color:#AC7800"/>
		<stop  offset="0.552" style="stop-color:#AC7B00"/>
		<stop  offset="1" style="stop-color:#AC7D00"/>
	</linearGradient>
	<path class="st56" d="M907.08,907.67c0,0,3.42-6.04,17.45-8.62c14.03-2.59,261.95-55.91,272.3-57.49
		c10.35-1.58,89.25-5.89,94.86-7.62c0,0,0.57-1.87-1.29-2.87c-1.87-1.01-5.17-4.46-5.17-4.46l-9.86-4.62l-34.55-8.17l-48.86,1.44
		l-100.75-1.44l-167.94,66.02c0,0-14.7,8.89-14.67,9.32C908.62,889.58,907.08,907.67,907.08,907.67z"/>
	<path class="st57" d="M1245.98,506.51c0,0-129.49-57.6-133.51-59.32c-4.02-1.72-153.49-20.12-153.49-20.12s-273.93-0.29-274.79,0
		c-0.86,0.29-78.96,14.95-78.96,14.95l-18.2,15.24L465.17,591.79l-8.65,7.16c0,0-11.49,9.2-12.94,9.2
		c-1.44,0,164.52,43.55,164.52,43.55l260.04,24.86l252.46-11.5c0,0,153.41-47.72,155.14-48.97c1.72-1.26,24.72-44.16,26.09-47.32
		S1245.98,506.51,1245.98,506.51z M486.99,590.91c0,0,101.75-125.29,110.95-128.47c9.2-3.18,20.91-4.12,20.91-4.12l-70.93,127.99
		L486.99,590.91z M556.9,583.61l69.15-125.29c0,0,72.57-13.45,140.95,7.54l-2.91,7.19h-15.23l-0.86-4.66h-8.91l-5.46,4.66
		c0,0-7.19,0-11.21,2.87c-4.02,2.87-7.47,18.68-7.47,21.27c0,2.59,4.31,3.74,4.31,3.74l26.16,0.29l-0.57,5.17l-34.14,63.81
		L556.9,583.61z M802.89,492.03c0,0-12.65,1.44-17.82,17.82c-5.17,16.38-26.73,55.48-26.73,55.48h-35.64
		c0.57-0.86,36.22-65.82,36.22-65.82h22.42c0,0,2.87,0.86,2.3-2.87c-0.57-3.74,0.08-17.53,0.08-17.53s-3.58-6.9-7.72-5.75l3.91-6.9
		c0,0,43.98,15.23,57.49,25.58H802.89z M868.71,537.44l-6.32-25.87c0,0,8.91,6.25,9.77,13.04
		C873.03,531.41,868.71,537.44,868.71,537.44z M960.14,511.57l-103.06-53.25c0,0-11.64-5.96-4.31-8.55
		c7.33-2.59,36.5-6.79,36.5-6.79s73.45,8.5,74.74,11.09c1.29,2.59,8.62,25.87,8.62,27.17S960.14,511.57,960.14,511.57z
		 M1089.9,508.84l-8.62,7.04h-11.21c-2.59-5.89-13.8-10.06-14.76-11.35c-0.96-1.29-27.5-0.86-41.89-1.72
		c-14.39-0.86-23.55,18.23-23.55,18.23s-11.1-0.86-11.37,0l-2.86-50.19l26.41-20.64l101.65,3.25c0,0,79.65,27.02,87.88,34.09
		c8.23,7.07,32.85,24.03,32.85,24.03L1089.9,508.84z"/>
	<path class="st58" d="M1301.82,542.78l46.99-2.74l40.17-1.66c0,0-37.15,26.95-37.36,27.59s0.65,2.8,0.65,2.8s0.86,3.02,19.19,2.16
		c18.32-0.86,56.48-9.27,69.85-21.99c0,0-7.76,17.34-29.75,22.14c-21.99,4.8-51.91,8.52-56.05,11.27s-3.24,7.34-3.24,7.34
		s-39.02-12.22-41.6-16.03C1308.07,569.85,1301.82,542.78,1301.82,542.78z"/>
	<polygon class="st59" points="1283.06,527.38 1341.7,534.13 1320.62,545.36 1299.99,552.7 	"/>
	<path class="st60" d="M966.06,624.7c0,0-5.04-9.89-3.91-17.33s25.56-133.45,25.56-133.45s57.22-13.93,98.3-8.05
		c41.08,5.88,60.94,10.21,60.94,10.21l18.28,122.04l-118.88,16.64c0,0,29.61,13.58,30.47,13.55s201.5-31.67,201.5-32.52
		s17.25-35.06,17.25-35.06s-17.41-20.83-20.06-24.93c-2.65-4.1-50.72-34.57-50.72-34.57l-0.22,6.32c0,0,25.29,18.4,33.34,26.16
		c8.05,7.76,19.95,21.85,17.59,27.88c-2.36,6.04-10.12,14.08-16.44,16.1s-16.12,6.49-25.01,7.19c-6.3,0.49-64.39,10.64-64.39,10.64
		l-16.6-121.16c0,0-8.41-13.94-11.43-16.03c-3.02-2.08-102.19-21.05-102.19-21.05l-53.18,22.83l-24.29,2.81c0,0,5.5,4.55,5.05,13.17
		c-0.45,8.62-24.16,120.72-21.15,130.64c3.02,9.92,8.19,24.27,8.19,24.27L966.06,624.7z"/>
	<line class="st61" x1="1000.36" y1="473.06" x2="1021.63" y2="599.2"/>
	<line class="st62" x1="1002.05" y1="470.84" x2="1024.79" y2="601.54"/>
	<path class="st62" d="M986.28,472.13c0,0,66.4-23.22,162.69,2.22"/>
	<path class="st61" d="M1165.23,598.12l-18.28-122.04c0,0-37.94-10.49-85.08-10.21c-47.14,0.29-74.16,8.05-74.16,8.05
		s-19.13,97.43-24.72,127.62c-5.59,30.19,12.79,22.4,12.79,22.4L1165.23,598.12z"/>
	<path class="st62" d="M1152.19,476.08l17.48,119.71c0,0,71.29-9.19,88.82-17.81s22.13-19.83,10.92-31.33
		C1258.2,535.14,1219.29,489.74,1152.19,476.08z"/>
	<path class="st62" d="M638.84,609.7c0,0-71.93-6.09-108.58-6.36s-65.54-1.94-65.54-1.94s-18.54,3.16-6.18-3.64
		c7.68-4.23,104.34-112.05,104.34-112.05s24.56-34.42,41.52-41.32s76.55-14.45,125.91-15.27c67.54-1.13,180.79,12.25,223.36,28.29
		c19.83,7.47,11.84,30.97,11.84,30.97l-26.94,123.19c0,0-8.91,21.18-33.66,18.59C884.51,628.02,638.84,609.7,638.84,609.7z"/>
	<linearGradient id="SVGID_47_" gradientUnits="userSpaceOnUse" x1="920.0407" y1="403.1855" x2="934.3868" y2="636.3086">
		<stop  offset="0.1757" style="stop-color:#FFE99F"/>
		<stop  offset="0.2369" style="stop-color:#DEBE37"/>
		<stop  offset="0.3445" style="stop-color:#D9B62A"/>
		<stop  offset="0.5709" style="stop-color:#D1A915"/>
		<stop  offset="0.792" style="stop-color:#CCA208"/>
		<stop  offset="1" style="stop-color:#CA9F04"/>
	</linearGradient>
	<path class="st63" d="M958.97,609.74c0,0,24.22-137.11,28.74-140.93c4.53-3.82,29.78-5.67,29.78-5.67s25.87-2.2,26.49-3.48
		c0.61-1.28,43.85-1.07,45.06,0c1.2,1.07,30.24,3.64,30.24,3.64l135.18,52.43l5.89-2.59c-106.21-80.77-170.88-82.5-304.26-96.87
		c-133.37-14.37-273.07,1.72-312.99,9.77c-39.92,8.05-53.54,26.97-53.54,26.97C603.6,441.19,623.38,439,623.38,439
		s59.5-12.5,143.61-9.49s173.29,22.42,187.95,28.38c14.66,5.96,13.37,17.32,13.37,17.32s-25.44,119.43-29.75,136.35
		s-31.77,18.99-31.77,18.99l0.28,7.1l48.86-2.67l10.12-10.28c0,0-4.76,1.42-5.93-6.78C958.97,609.74,958.97,609.74,958.97,609.74z"
		/>
	<linearGradient id="SVGID_48_" gradientUnits="userSpaceOnUse" x1="1128.8282" y1="469.321" x2="1133.4875" y2="545.0345">
		<stop  offset="0" style="stop-color:#342F20"/>
		<stop  offset="0.3713" style="stop-color:#362C1C"/>
		<stop  offset="0.5737" style="stop-color:#3B2D19"/>
		<stop  offset="1" style="stop-color:#3F2E17"/>
	</linearGradient>
	<path class="st64" d="M1264.77,537.88c0,0-36.25-39.6-111.7-63.53c0,0-2.59-0.86-4.1,0c0,0-79.62-26.3-162.69-4.74
		c0,0,39.71-16.67,115.72-9.49c76.01,7.19,130.33,45.99,130.33,45.99l43.4,33.63L1264.77,537.88z"/>
	<linearGradient id="SVGID_49_" gradientUnits="userSpaceOnUse" x1="1169.9594" y1="472.0845" x2="1177.8965" y2="601.0638">
		<stop  offset="0" style="stop-color:#342F20"/>
		<stop  offset="0.3713" style="stop-color:#362C1C"/>
		<stop  offset="0.5737" style="stop-color:#3B2D19"/>
		<stop  offset="1" style="stop-color:#3F2E17"/>
	</linearGradient>
	<path class="st65" d="M1357.06,590.06c-0.75-0.66-61.07-56.36-96.71-76.48c-35.64-20.12-63.05-43.98-158.36-56.34
		c-95.31-12.36-114.28,9.49-114.28,9.49s7.04-2.59,10.92-3.45c3.88-0.86,36.55-11.5,103.36-3.16
		c66.81,8.34,103.9,27.88,105.33,28.74c1.43,0.86,110.92,76.37,115.85,79.91s36.31,27.01,36.31,27.01L1357.06,590.06z"/>
	<linearGradient id="SVGID_50_" gradientUnits="userSpaceOnUse" x1="1125.7764" y1="613.8673" x2="1141.2982" y2="866.0971">
		<stop  offset="0" style="stop-color:#E3C64A"/>
		<stop  offset="0.1427" style="stop-color:#D0A308"/>
		<stop  offset="0.161" style="stop-color:#CC9E07"/>
		<stop  offset="0.2595" style="stop-color:#BA8903"/>
		<stop  offset="0.3557" style="stop-color:#B07C01"/>
		<stop  offset="0.4462" style="stop-color:#AC7800"/>
		<stop  offset="0.552" style="stop-color:#AC7B00"/>
		<stop  offset="1" style="stop-color:#AC7D00"/>
	</linearGradient>
	<path class="st66" d="M1273.81,828.05c0,0-21.73-2.08-24.29-2.05c-0.65,0.01-23.52-7.75-56.14-1.44
		c-96.23,18.61-283.39,67.3-283.39,67.3l-2.81-73.88L873.55,749l-55.19-36.22c0,0-17.68-31.04-12.5-34.92
		c5.17-3.88,98.74-29.99,98.74-29.99l49.58-21.29l243.88-29.79c0,0,71.74-15.23,78.63-23.13c6.9-7.9,0-20.96,0-20.96
		s25.01,1.42,26.3,1.85s65.68,47,65.68,47s12.68,9.38,16.67,11.21c3.99,1.83,60.9,26.95,65.75,38.37
		c4.85,11.43,3.81,53.03,3.23,54.76c-0.57,1.72-2.65,3.93-2.65,3.93l-16.9-34.11l-23.86-16.68c0,0-28.74-6.66-31.04-5.19
		c-2.3,1.46-34.49,21.87-34.78,22.73c-0.29,0.86-30.18,50.3-31.91,52.6C1311.47,731.47,1273.81,828.05,1273.81,828.05z"/>
	<linearGradient id="SVGID_51_" gradientUnits="userSpaceOnUse" x1="978.4387" y1="667.2798" x2="1033.1731" y2="585.8376">
		<stop  offset="0" style="stop-color:#CCC7C4"/>
		<stop  offset="0.3713" style="stop-color:#7D756B"/>
		<stop  offset="0.4098" style="stop-color:#726A5E"/>
		<stop  offset="0.4462" style="stop-color:#6E665A"/>
		<stop  offset="0.4643" style="stop-color:#6B6357"/>
		<stop  offset="0.563" style="stop-color:#60564D"/>
		<stop  offset="0.6952" style="stop-color:#594F47"/>
		<stop  offset="1" style="stop-color:#574D45"/>
	</linearGradient>
	<path class="st67" d="M967.88,660.18c0,0-8.91-17.89-8.91-20.01s2.59-9.34,4.46-14.78c1.87-5.45,9.05-31.6,13.94-32.47
		c4.89-0.86,23.86-2.01,30.18-2.01c6.32,0,41.68,4.51,45.42,8.29s1.82,7.23,2.35,9.53c0.53,2.3-4.79,31.35-8.31,33.78
		c-3.52,2.43-44.05-8.2-45.2-8.2s-16.1-1.44-18.68,0.29c-2.59,1.72-12.67,0.77-11.65,2.68s-0.13,21.74-0.13,21.74L967.88,660.18z"/>
	<path class="st68" d="M986.28,656.87l-7.47-19.59l-5.03,2.89c0,0-1.94,6.44-1.95,6.91c-0.01,0.47-2.11,9.92-0.5,11.94
		C972.94,661.04,986.28,656.87,986.28,656.87z"/>
	<linearGradient id="SVGID_52_" gradientUnits="userSpaceOnUse" x1="980.8933" y1="670.4325" x2="1033.9246" y2="591.5245">
		<stop  offset="0" style="stop-color:#342F20"/>
		<stop  offset="0.3713" style="stop-color:#362C1C"/>
		<stop  offset="0.5737" style="stop-color:#3B2D19"/>
		<stop  offset="1" style="stop-color:#3F2E17"/>
	</linearGradient>
	<path class="st69" d="M986.28,656.87c0.34-0.46-13.22,1.29-13.65-0.57c-0.43-1.87-1.01-14.95,1.87-16.96s61.37,4.6,62.81,4.6
		c1.44,0,9.63,0.29,11.21-2.87s3.88-21.7,3.31-29.61c-0.57-7.9-0.14-8.91-1.15-8.19c-1.01,0.72,3.74,5.32-4.17,3.88
		c-7.9-1.44-61.51-10.35-65.82-7.33s-8.62,32.91-9.49,39.52c-0.86,6.61-1.44,16.1-2.87,16.82c-1.44,0.72-2.59,0.72-2.16,2.44
		s-0.43,2.73,2.73,2.73S983.98,660.04,986.28,656.87z"/>
	<linearGradient id="SVGID_53_" gradientUnits="userSpaceOnUse" x1="1311.7488" y1="853.605" x2="1436.4974" y2="667.9851">
		<stop  offset="0" style="stop-color:#342F20"/>
		<stop  offset="0.3713" style="stop-color:#362C1C"/>
		<stop  offset="0.5737" style="stop-color:#3B2D19"/>
		<stop  offset="1" style="stop-color:#3F2E17"/>
	</linearGradient>
	<path class="st70" d="M1273.72,828.05l11.5-1.44c0,0,30-131.13,76.75-158.67s78.76,22.42,78.76,22.42s13.83,32.77,9.5,63.81
		c-4.33,31.04-6.34,34.21-8.93,38.23c-2.59,4.02-4.89,8.62-4.89,8.62s14.07-13.8,14.65-19.26s4.89-18.97,5.18-31.33
		s-4.89-50.3-10.64-62.66c-5.75-12.36-34.49-57.37-77.03-32.56C1326.03,680.01,1301.03,726,1273.72,828.05z"/>
	<linearGradient id="SVGID_54_" gradientUnits="userSpaceOnUse" x1="1187.5752" y1="718.6095" x2="1297.6346" y2="554.8463">
		<stop  offset="0" style="stop-color:#E8C21F"/>
		<stop  offset="0.3713" style="stop-color:#FDC936"/>
		<stop  offset="0.4632" style="stop-color:#FCCE3C"/>
		<stop  offset="0.7395" style="stop-color:#FBD949"/>
		<stop  offset="1" style="stop-color:#FADD4D"/>
	</linearGradient>
	<path class="st71" d="M1055.31,629.72c3.45,0.13,152.58-26.16,195.13-25.59c42.54,0.57,47.72,0.78,43.12,7.87
		c-4.6,7.08-30.44,46.05-30.74,59.62c-0.3,13.57,58.91,12.12,69.83-1.24c10.92-13.36,60.36-36.94,92.56-11.35
		c0,0-2.3-9.73-27.02-26.28c-24.72-16.54-54.61-30.36-47.72-28.62c6.9,1.73,29.32,5.18,24.72,2.88c-4.6-2.3-68.41-13.8-98.88-13.8
		c-30.47,0-0.57-12.65,3.45-19.55c0,0-16.67,12.07-29.32,14.66c-12.65,2.59-193.16,30.18-193.16,30.18L1055.31,629.72z"/>
	<linearGradient id="SVGID_55_" gradientUnits="userSpaceOnUse" x1="1415.2498" y1="650.3881" x2="1426.9949" y2="632.9119">
		<stop  offset="0" style="stop-color:#E8C21F"/>
		<stop  offset="0.3713" style="stop-color:#FDC936"/>
		<stop  offset="0.4632" style="stop-color:#FCCE3C"/>
		<stop  offset="0.7395" style="stop-color:#FBD949"/>
		<stop  offset="1" style="stop-color:#FADD4D"/>
	</linearGradient>
	<path class="st72" d="M1394.3,622.24c1.08,1.12,21.13,19.64,24.58,23.47c3.45,3.83,11.79,15.91,14.08,16.48
		c2.3,0.57,16.96-1.16,17.25-3.17c0.29-2-2.87-13.68-9.49-16.75c-6.61-3.07-42.83-18.88-43.98-20.03S1392.82,620.71,1394.3,622.24z"
		/>
	<linearGradient id="SVGID_56_" gradientUnits="userSpaceOnUse" x1="1226.5486" y1="543.83" x2="1250.3337" y2="508.4387">
		<stop  offset="0" style="stop-color:#E8C21F"/>
		<stop  offset="0.3713" style="stop-color:#FDC936"/>
		<stop  offset="0.4632" style="stop-color:#FCCE3C"/>
		<stop  offset="0.7395" style="stop-color:#FBD949"/>
		<stop  offset="1" style="stop-color:#FADD4D"/>
	</linearGradient>
	<path class="st73" d="M1368.57,601.54c0,0-62.09-39.67-72.15-42.54c-10.06-2.87-15.23,0.86-16.96-1.72
		c-1.72-2.59-37.32-70.42-177.47-97.16c0,0,86.04-3.76,194.86,81.06C1368.19,596.78,1368.57,601.54,1368.57,601.54z"/>
	<linearGradient id="SVGID_57_" gradientUnits="userSpaceOnUse" x1="1320.8889" y1="556.5153" x2="1352.8645" y2="508.9372">
		<stop  offset="0" style="stop-color:#E8C21F"/>
		<stop  offset="0.3713" style="stop-color:#FDC936"/>
		<stop  offset="0.4632" style="stop-color:#FCCE3C"/>
		<stop  offset="0.7395" style="stop-color:#FBD949"/>
		<stop  offset="1" style="stop-color:#FADD4D"/>
	</linearGradient>
	<path class="st74" d="M1304.62,544.2c-0.65,0.04,10.13,8.19,10.13,8.19s63.81-9.92,71.36-14.44c0,0-33.42,18.97-36.65,23.5
		c-3.23,4.53-1.51,7.33-0.65,7.33c0.86,0,4.31,0,4.31,0s33.85-29.53,38.8-32.55c0,0,1.08-1.08-1.29-1.51
		c-2.37-0.43-108.44-7.76-107.57-7.33s5.82,4.74,6.47,4.96c0.65,0.22,33.42,1.51,33.42,1.51S1308.24,543.98,1304.62,544.2z"/>
	<linearGradient id="SVGID_58_" gradientUnits="userSpaceOnUse" x1="1176.5165" y1="633.8572" x2="1178.6724" y2="670.9372">
		<stop  offset="0" style="stop-color:#342F20"/>
		<stop  offset="0.3713" style="stop-color:#362C1C"/>
		<stop  offset="0.3951" style="stop-color:#3B3121"/>
		<stop  offset="0.5521" style="stop-color:#554C3F"/>
		<stop  offset="0.7071" style="stop-color:#685F54"/>
		<stop  offset="0.858" style="stop-color:#736B61"/>
		<stop  offset="1" style="stop-color:#776F65"/>
	</linearGradient>
	<path class="st75" d="M1166.86,654.79c0,0-3.66-9.27,0-12.5c3.66-3.23,11.86-6.9,14.88-3.88c3.02,3.02,7.55,6.9,7.98,14.88
		s0.86,11.86-2.16,14.66c-3.02,2.8-9.49,3.66-13.37,0C1170.31,664.28,1166.86,654.79,1166.86,654.79z"/>
	<path class="st76" d="M1160.18,657.31c0,0-1.29,2.73,1.58,2.87c2.87,0.14,29.89-3.88,33.06-2.87s7.87,2.14,9.4,1.36
		s2.1-3.45,2.1-3.45s-11.35-2.65-12.07-2.65s-29.01,2.65-29.01,2.65L1160.18,657.31z"/>
	<linearGradient id="SVGID_59_" gradientUnits="userSpaceOnUse" x1="1169.1249" y1="676.5778" x2="1192.9825" y2="641.0788">
		<stop  offset="0" style="stop-color:#342F20"/>
		<stop  offset="0.3713" style="stop-color:#362C1C"/>
		<stop  offset="0.3951" style="stop-color:#3B3121"/>
		<stop  offset="0.5521" style="stop-color:#554C3F"/>
		<stop  offset="0.7071" style="stop-color:#685F54"/>
		<stop  offset="0.858" style="stop-color:#736B61"/>
		<stop  offset="1" style="stop-color:#776F65"/>
	</linearGradient>
	<path class="st77" d="M1160.18,659.02c0,0,0-2.44,0-3.88s39.81-10.35,39.81-10.35s5.46-1.29,6.47,0.72
		c1.01,2.01,0.86,6.75,0.86,7.76s-0.72,3.31-2.16,3.16c-1.44-0.14-2.87-1.29-4.46-1.29S1160.18,659.02,1160.18,659.02z"/>
	<path class="st78" d="M1201.86,646.23c-0.18,0.19-0.86,4.38,0,6.47c0.86,2.08,4.45,3.4,4.81,1.8c0.36-1.61,0.72-7.76-0.72-8.26
		C1204.52,645.73,1202.65,645.37,1201.86,646.23z"/>
	<linearGradient id="SVGID_60_" gradientUnits="userSpaceOnUse" x1="1100.4662" y1="682.1843" x2="1115.1257" y2="875.3449">
		<stop  offset="0" style="stop-color:#846A00"/>
		<stop  offset="0.3713" style="stop-color:#816800"/>
		<stop  offset="1" style="stop-color:#846C00"/>
	</linearGradient>
	<path class="st79" d="M909.89,889.11c0,0,9.27-40.02,8.84-64.34s-3.02-50.62-11.21-65.71c-8.19-15.09-24.15-40.1-24.15-43.55
		c0,0,8.19-4.62,14.23-3.17s237.57-32.18,263.01-35.63c25.44-3.45,37.94-9.05,48.29-15.52c10.35-6.47,19.4-14.66,23.28-5.17
		c3.88,9.49,10.78,23.28,22.42,16.82c11.64-6.47,6.9,3.02,19.83,12.07c12.93,9.05,32.91,6.47,40.39,3.02s6.9,2.59,2.87,8.34
		s-41.39,92.84-47.14,129.64c0,0-47.43-0.29-64.67,2.3s-285.86,60.92-285.86,60.92s-9.59,2.96-10.13,2.75
		C909.36,891.65,909.89,889.11,909.89,889.11z"/>
	<linearGradient id="SVGID_61_" gradientUnits="userSpaceOnUse" x1="927.2908" y1="631.3389" x2="956.2797" y2="887.4078">
		<stop  offset="0" style="stop-color:#908C83"/>
		<stop  offset="0.3982" style="stop-color:#534A3F"/>
		<stop  offset="0.4664" style="stop-color:#453D33"/>
		<stop  offset="0.5646" style="stop-color:#383228"/>
		<stop  offset="0.6965" style="stop-color:#312B22"/>
		<stop  offset="1" style="stop-color:#2F2920"/>
	</linearGradient>
	<path class="st80" d="M957.82,628.31c0,0,4.41,2.09,2.31,4.44c-2.1,2.35-26.17,13.06-29.91,19.39c-3.74,6.32,5.46,64.1,5.17,75.88
		c-0.29,11.79-8.05,146.98-9.49,151.82S923.26,891,923.26,891"/>
	<linearGradient id="SVGID_62_" gradientUnits="userSpaceOnUse" x1="1049.8485" y1="613.5497" x2="1078.6741" y2="868.1756">
		<stop  offset="0" style="stop-color:#908C83"/>
		<stop  offset="0.3982" style="stop-color:#534A3F"/>
		<stop  offset="0.4664" style="stop-color:#453D33"/>
		<stop  offset="0.5646" style="stop-color:#383228"/>
		<stop  offset="0.6965" style="stop-color:#312B22"/>
		<stop  offset="1" style="stop-color:#2F2920"/>
	</linearGradient>
	<path class="st81" d="M924.53,885.12c0,0,16.33-2.37,29.55-5.29c13.22-2.92,189.71-41.8,189.71-41.8s14.88-7.55,20.91-15.09
		s39.02-66.18,43.76-120.94c4.74-54.76-3.45-81.06-3.45-81.06s-7.33-18.76-29.53-21.13"/>
	<path class="st82" d="M898.03,711.2c0.06,0.43,1.84,11.5,1.84,11.5s0.75,2.73,3.77,2.87c3.02,0.14,10.06-0.72,10.06-0.72
		s1.87-1.01,1.87-3.45c0-2.44-1.28-11.35-1.28-11.35s-0.59-2.59-2.46-2.44c-1.87,0.14-11.96,1.29-11.96,1.29
		S897.9,710.22,898.03,711.2z"/>
	<path class="st82" d="M899.9,710.77c0.11,0.63,1.29,11.35,1.29,11.35s0.29,1.15,2.3,1.29c2.01,0.14,10.06-0.86,10.06-0.86
		s0.86-1.29,0.72-2.59c-0.14-1.29-0.72-9.2-0.72-9.2s-0.57-1.87-2.01-1.87s-10.06,1.01-10.06,1.01S899.61,709.05,899.9,710.77z"/>
	<linearGradient id="SVGID_63_" gradientUnits="userSpaceOnUse" x1="77.1686" y1="965.454" x2="694.5927" y2="1004.2585">
		<stop  offset="0" style="stop-color:#AC7D00"/>
		<stop  offset="0.3713" style="stop-color:#9F7200"/>
		<stop  offset="0.384" style="stop-color:#A37702"/>
		<stop  offset="0.468" style="stop-color:#BC9510"/>
		<stop  offset="0.5509" style="stop-color:#CDAA19"/>
		<stop  offset="0.6316" style="stop-color:#D7B71F"/>
		<stop  offset="0.7076" style="stop-color:#DBBB21"/>
		<stop  offset="0.7267" style="stop-color:#CAA719"/>
		<stop  offset="0.7549" style="stop-color:#B69010"/>
		<stop  offset="0.7876" style="stop-color:#A77E09"/>
		<stop  offset="0.8268" style="stop-color:#9C7104"/>
		<stop  offset="0.8792" style="stop-color:#966A01"/>
		<stop  offset="1" style="stop-color:#946800"/>
	</linearGradient>
	<path class="st83" d="M681.3,1005.77c0,0-1.72,4.02-12.65,3.74c-10.92-0.29-99.45,8.62-99.45,8.62s-42.11,4.02-68.91,1.44
		c-26.8-2.59-340.62-31.62-403.57-43.48l-39.67-9.49c0,0-4.31-1.4-3.88-5.98c0.43-4.58,4.96-19.66,4.96-19.66s64.67,8.4,65.54,8.4
		c0.86,0,491.63,20.17,497.56,23.07c5.93,2.9,51.64,8.36,51.64,8.36L681.3,1005.77z"/>
	<linearGradient id="SVGID_64_" gradientUnits="userSpaceOnUse" x1="753.7403" y1="873.5164" x2="607.7201" y2="962.6232">
		<stop  offset="0" style="stop-color:#F6D984"/>
		<stop  offset="0.3713" style="stop-color:#C89F06"/>
		<stop  offset="0.3768" style="stop-color:#C69D07"/>
		<stop  offset="0.4627" style="stop-color:#A8840F"/>
		<stop  offset="0.5474" style="stop-color:#937215"/>
		<stop  offset="0.6299" style="stop-color:#866819"/>
		<stop  offset="0.7076" style="stop-color:#82641A"/>
		<stop  offset="0.7198" style="stop-color:#856516"/>
		<stop  offset="0.7714" style="stop-color:#8E6709"/>
		<stop  offset="0.8406" style="stop-color:#936802"/>
		<stop  offset="1" style="stop-color:#946800"/>
	</linearGradient>
	<path class="st84" d="M727.8,845.58c0,0,1.44-4.31,0-5.61c-1.44-1.29-65.32,1.58-65.32,1.58l-2.23,22.81l-34.21,114.58
		c0,0,51.74,31.04,54.61,26.73c2.87-4.31,7.53-17.23,7.53-17.23L727.8,845.58z"/>
	<path class="st85" d="M728.44,845.58l-41.68,150.33c0,0-4.89,10.92-5.46,9.77c-0.57-1.15,38.23-157.52,38.23-157.52
		S723.56,843.28,728.44,845.58z"/>
	<path class="st86" d="M601.97,849.87c1.15,0.88,32.19-0.43,32.19-0.43l5.46,22.29c0,0-20.26,43.98-20.77,44.84
		c-0.5,0.86-10.75,11.56-10.75,11.56l-23.01-1.07c0,0-6.47-34.9-5.85-41.38C579.86,879.22,601.97,849.87,601.97,849.87z"/>
	<linearGradient id="SVGID_65_" gradientUnits="userSpaceOnUse" x1="628.3969" y1="846.9401" x2="622.3606" y2="924.5493">
		<stop  offset="0" style="stop-color:#CCC7C4"/>
		<stop  offset="0.1406" style="stop-color:#554B3E"/>
		<stop  offset="0.2109" style="stop-color:#5F5649"/>
		<stop  offset="0.332" style="stop-color:#6A6256"/>
		<stop  offset="0.4462" style="stop-color:#6E665A"/>
		<stop  offset="0.4643" style="stop-color:#6B6357"/>
		<stop  offset="0.563" style="stop-color:#60564D"/>
		<stop  offset="0.6952" style="stop-color:#594F47"/>
		<stop  offset="1" style="stop-color:#574D45"/>
	</linearGradient>
	<path class="st87" d="M600.53,924.79c0,0,11.5-3.88,16.53-13.8c5.03-9.92,10.64-45.61,10.64-45.61s-1.98-14.13-13.08-16.13
		c-11.09-2-31.6-0.69-31.6-0.69l48.56-16.47l37.08,9.88c0,0,5.61,5.71,3.88,18.61c-1.72,12.9-12.93,50.84-12.93,50.84
		s-0.43,6.61-6.47,9.34c-6.04,2.73-34.28,6.82-34.28,6.82L600.53,924.79z"/>
	<linearGradient id="SVGID_66_" gradientUnits="userSpaceOnUse" x1="789.5799" y1="638.8293" x2="833.5584" y2="839.7509">
		<stop  offset="0" style="stop-color:#F6D984"/>
		<stop  offset="0.3713" style="stop-color:#C89F06"/>
		<stop  offset="0.4059" style="stop-color:#C09505"/>
		<stop  offset="0.4462" style="stop-color:#BD9105"/>
		<stop  offset="0.539" style="stop-color:#B48602"/>
		<stop  offset="0.6785" style="stop-color:#AE7F01"/>
		<stop  offset="1" style="stop-color:#AC7D00"/>
	</linearGradient>
	<path class="st88" d="M909.18,897.18c0,0,7.26-58.01,0-86.92c-7.26-28.92-27.53-81.52-65.9-97.47
		c-38.37-15.95-6.04-41.39,15.95-47.43s99.45-29.46,100.46-31.04s0-3.1,0-3.1s-19.98-0.51-20.98,0s-222.91,59.15-222.91,59.15
		l-59.21,61.51l1.72,72.76l3.45,13.76l58.93,0.86l3.74-1.72L767,767.68l40.21-26.73l41.68-2.07l31.33,25.2l16.1,34.94l9.77,55.76
		L909.18,897.18z"/>
	<path class="st6" d="M672.67,769.01c0.94-2.64,10.36-20.88,12.66-19.44c2.3,1.44-11.51,27.88-12.66,37.65
		c-1.14,9.77-2.29,16.1-3.73,20.41c-1.44,4.31-9.06,20.41-5.82,21.85c3.24,1.44,5.25-2.3,6.11,1.44s1.44,7.47,6.9,7.47
		c5.46,0,44.55-1.44,44.55-1.44s24.29-54.11,46.31-72.65c23.91-20.12,41.57-32.34,71.11-28.67s52.82,29.97,60.36,55.4
		c7.55,25.44,14.65,96,8.62,152.27l-3.87,0.87c0,0,15.9-188.72-68.12-200.35c-63.81-8.83-104.34,94.42-104.34,94.42
		s-2.37,3.38-10.56,3.31c-8.19-0.07-59.07,1.59-63.6,0.76c-4.53-0.83-2.81-17.76-2.81-17.76L672.67,769.01z"/>
	<path class="st89" d="M422.03,601.54l2.44,3.02l9.49-12.65c0,0,0.28-26.64,0-28.03c-0.28-1.39-6.61-4.16-6.61-4.16l-9.49,0.43
		l-1.01,14.8L422.03,601.54z"/>
	<path class="st90" d="M423,602.14c0.06-0.01,0.47-30.49-1.11-33.8c-1.58-3.31-2.87-5.46,0-5.75c2.87-0.29,13.22-0.14,14.23,0
		s3.16-0.67,3.16-0.67s-0.43-3.07-8.91-4.22c-8.48-1.15-32.63,1.13-32.63,1.13l-2.3,2.32c0,0-5.01-1.14-5.46,3.31
		c-0.45,4.44,9.92,18.68,12.79,22.28s18.09,16.61,18.09,16.61L423,602.14z"/>
	<path class="st91" d="M441.67,600.38c0,0,0.48-10.99,0.48-16.77s-0.86-20.05-2.3-21.68c-1.44-1.63-2.73,0.34-4.17,0
		c-1.44-0.34-3.45-2.64-6.47-2.78s-31.47-1.29-32.48,0c-1.01,1.29-1.29,2.01-1.29,2.01s29.32-1.19,32.19,0.77
		c2.87,1.96,3.16,1.96,3.16,6.13c0,4.17-0.18,31.79,0.35,32.92s3.52,2.18,4.68,2.37S441.67,600.38,441.67,600.38z"/>
	<path class="st92" d="M424.47,603.34c0,0,1.72-32.41,3.59-36.58c1.87-4.17,5.03-2.59,5.03-2.59l0.86,38.8L424.47,603.34z"/>
	<path class="st92" d="M420.87,602.45c0,0-0.99-29.22-2.43-32.52c-1.44-3.31-3.31-6.04-10.78-7.33c-7.47-1.29-16.53-0.72-17.68,1.87
		c-1.15,2.59-0.14,33.25,0,33.29c0.14,0.05,0.29,4.93,6.32,5.22C402.34,603.27,420.87,602.45,420.87,602.45z"/>
	<path class="st93" d="M647.96,927.07c0,0-8.34,47.35-30.9,54.79c-22.56,7.44-56.48,11.46-63.38,12.04
		c-6.9,0.57-83.32-1.15-119.27-4.6c-35.95-3.45-310.74-33.92-310.74-33.92s-65.41-11.18-65.54-14.5
		c-0.13-3.33,52.31-14.69,54.61-12.74C115.04,930.09,647.96,927.07,647.96,927.07z"/>
	<linearGradient id="SVGID_67_" gradientUnits="userSpaceOnUse" x1="40.2356" y1="931.5639" x2="642.9139" y2="931.5639">
		<stop  offset="0.1418" style="stop-color:#433423"/>
		<stop  offset="0.3982" style="stop-color:#1D1613"/>
		<stop  offset="1" style="stop-color:#1C1512"/>
	</linearGradient>
	<path class="st94" d="M40.24,882.43l6.4,22.22l57.21,33.31c0,0,62.79,10.95,199.76,25.47s223.05,18.45,269.62,16.98
		s69.69-52.68,69.69-52.68l-235.83-34.6L40.24,882.43z"/>
	<path class="st95" d="M597.11,923.58l56.02-5.99c0,0,1.44,1.15,0,3.74c-1.44,2.59-2.44,5.03-5.17,5.75
		c-2.73,0.72-82.78,8.83-82.78,8.83s-48.29,1.79-87.96,0c-39.67-1.79-223.63-15.88-248.92-18.32S67.18,893.13,67.18,893.13
		s-27.36-7.5-27.8-10.93c-0.44-3.43,37.94-2.13,37.94-2.13L597.11,923.58z"/>
	<path class="st96" d="M452.33,939.36c0,0,3.54,28.46,3.54,31.69s-0.57,4.53-2.23,5.39c-1.65,0.86-5.1,3.98-5.1,3.98
		s-2.79,1.44-4.07,1.4c-1.28-0.04-4.24-24.81-4.24-24.81l3.35-15.8L452.33,939.36z"/>
	<path class="st96" d="M99.13,902.18c0.11-0.04,3.7,1.18,3.84,3.48c0.14,2.3,2.87,28.03,2.87,28.03s1.01,2.73-1.15,3.88
		c-2.16,1.15-11.12,4.08-12.44,4.45c-1.32,0.36-1.94-7.47-2.08-9.05c-0.14-1.58-5.61-27.45-5.61-27.45s2.01-3.37,2.87-3.34
		C88.31,902.21,99.13,902.18,99.13,902.18z"/>
	<path class="st97" d="M40.67,902.49c0,0-0.22-4.96,6.58-5.39c6.79-0.43,15.52-0.97,16.28-0.86c0.75,0.11,35.36,5.17,36.11,5.61
		c0.75,0.43-11.34,2.8-11.34,2.8l-47.08-2.37L40.67,902.49z"/>
	<path class="st97" d="M380.24,937.33c0,0,1.37-1.42,4.17-2.5c2.8-1.08,6.04-1.62,6.04-1.62s60.79,4.54,61.23,4.75
		c0.43,0.21,1.32,0.75,0.66,1.4c-0.66,0.65-5.65,2.06-6.66,4.42c-1.01,2.37-22.89,1.5-22.89,1.5l-29.53-2.91L380.24,937.33z"/>
	<path class="st98" d="M382.53,935.91l59.12,4.1c0,0,4.31,1.94,4.31,5.17c0,3.23,1.72,33.42,1.72,33.42s-1.52,3.66-4.1,3.23
		s-57.77-5.61-57.77-5.61s-4.31-1.29-4.53-4.1S379.34,940,379.34,940S379.9,935.73,382.53,935.91z"/>
	<path class="st98" d="M90.9,908.1c0.05,0.64,2.59,29.53,2.59,29.53s1.51,5.17-3.66,4.74c-5.17-0.43-41.39-4.31-41.39-4.31
		s-4.1-2.16-4.1-5.61c0-3.45-3.66-29.97-3.66-29.97s1.72-4.74,7.55-4.1s40.07,6.25,40.07,6.25S90.76,906.39,90.9,908.1z"/>
	<linearGradient id="SVGID_68_" gradientUnits="userSpaceOnUse" x1="412.04" y1="935.3442" x2="411.1776" y2="979.7539">
		<stop  offset="0.1319" style="stop-color:#FFFFFF"/>
		<stop  offset="0.3964" style="stop-color:#675E50"/>
	</linearGradient>
	<path class="st99" d="M384.81,972.77c0,0-2.16-30.04-2.16-30.47s-1.29-3.88,4.46-4.31c5.75-0.43,49.01,3.74,49.44,3.74
		c0.43,0,2.3,0.86,3.02,4.74c0.72,3.88,1.29,31.04,1.01,31.47c-0.29,0.43,0.29,2.73-3.16,2.44c-3.45-0.29-50.16-5.32-50.16-5.32
		S384.92,974.36,384.81,972.77z"/>
	<linearGradient id="SVGID_69_" gradientUnits="userSpaceOnUse" x1="66.3329" y1="898.2194" x2="65.5154" y2="940.3231">
		<stop  offset="0.1319" style="stop-color:#FFFFFF"/>
		<stop  offset="0.3964" style="stop-color:#675E50"/>
	</linearGradient>
	<path class="st100" d="M46.7,933.54l-3.23-29.75c0,0,0.86-3.02,4.1-3.02s34.49,4.31,35.36,4.74c0.86,0.43,3.02,2.59,3.02,4.31
		c0,1.72,2.16,28.46,2.16,28.46s0.86,2.8-1.08,2.59s-37.73-4.31-37.73-4.31L46.7,933.54z"/>
	<linearGradient id="SVGID_70_" gradientUnits="userSpaceOnUse" x1="29.8479" y1="884.1616" x2="605.8804" y2="907.1569">
		<stop  offset="0.1418" style="stop-color:#433423"/>
		<stop  offset="0.3982" style="stop-color:#1D1613"/>
		<stop  offset="1" style="stop-color:#1C1512"/>
	</linearGradient>
	<path class="st101" d="M607,907.22c0,1.29,1.72,10.13,0.86,10.99c-0.86,0.86-8.41,5.17-8.41,5.17s-69.35,5.75-110.16,4.6
		c-40.82-1.15-221.83-14.73-269.26-20.12S40.24,882.43,40.24,882.43s-21.13-5.37-22.64-7.64c-1.51-2.27-2.23-16.14-1.01-16.64
		c1.22-0.5,126.62,18.52,128.92,18.89s334.38,25.31,334.38,25.31h74.29l45.28,1.56L607,907.22z"/>
	<path class="st95" d="M618.86,861.41v14.13l-49.37,24.36c0,0-17.09,8.23-18.81,8.28c-1.71,0.05-15.19-0.34-17.31,0
		c-2.12,0.34-76.85,1.63-76.85,1.63l-25.29-6.47l-138.52-21.77c0,0-204.58-21.79-207.57-20.17c-2.99,1.62-51.97-9.64-51.97-9.64
		L16.2,852.8l-2.35-4.2l-1.54-20.91c0,0-0.09-8.7,1.95-8.77c2.04-0.07,107.67,12.87,107.67,12.87L618.86,861.41z"/>
	<path class="st102" d="M617.06,897.18l-5.32,6.18c0,0-56.48,5.32-58.35,5.61s-4.42-0.72-4.42-0.72s9.17-11.07,10.17-11.07
		s39.81-1.8,41.39-1.9S617.06,897.18,617.06,897.18z"/>
	<path class="st102" d="M452.33,909.54l-13.92-0.47c0,0-191.15-12.61-237.14-17.5c-45.99-4.89-164.63-23.82-164.63-23.82l-6-5.37
		c0,0,5.35-2.79,7.07-3.07c1.72-0.29,373.96,32.84,373.96,32.84s31.62,8.62,33.06,9.49C446.17,902.49,452.33,909.54,452.33,909.54z"
		/>
	<path class="st93" d="M450.7,883.31c0,0,2.05,0.11,2.05,1.83c0,1.72-0.11,23.28,0,23.93s-1.72,0.86-2.48,0
		c-0.75-0.86-11.86-5.28-11.86-5.28s-4.31-14.88-3.99-15.09C434.75,888.48,450.7,883.31,450.7,883.31z"/>
	<polygon class="st93" points="549.01,881.58 548.97,908.96 561.74,903.23 565.18,886.11 	"/>
	<polygon class="st93" points="9.84,833.94 11.4,849.14 16.2,852.8 12.96,833.29 	"/>
	<path class="st103" d="M621.23,881.15l-3.45,16.49l-57.34,5.71l1.04-15.74c0,0,55.55-7.87,55.88-7.87S621.23,881.15,621.23,881.15z
		"/>
	<path class="st103" d="M438.41,889.77v14.01c0,0-185.4-10.99-241.45-17.68c-56.05-6.68-167.15-23.86-167.15-23.86l1.65-12.38h16.24
		l159.6,17.88L438.41,889.77z"/>
	<path class="st104" d="M618.86,875.55l2.37,5.61l-59.76,6.47c0,0-13.33-6.9-12.46-6.04S611.96,875.98,618.86,875.55z"/>
	<path class="st104" d="M450.7,883.31l-12.29,6.47c0,0-200.49-11.86-247.49-18.32c-47-6.47-159.46-21.58-159.46-21.58l3.19-7.77
		c0,0,69.48,9.27,160.29,19.04C287.61,871.11,402.11,881.6,450.7,883.31z"/>
	<polygon class="st104" points="12.96,833.29 9.84,833.94 12.32,827.69 	"/>
	<linearGradient id="SVGID_71_" gradientUnits="userSpaceOnUse" x1="471.7248" y1="897.5804" x2="546.5853" y2="896.5123">
		<stop  offset="0.0449" style="stop-color:#965719"/>
		<stop  offset="0.5258" style="stop-color:#874912"/>
		<stop  offset="0.98" style="stop-color:#E09D1B"/>
	</linearGradient>
	<path class="st105" d="M453.65,908.53v-22.71l1.58-1.29h90.11c0,0,1.58,1.58,1.58,2.16c0,0.57-0.57,20.98-0.57,20.98
		s-0.14,2.16-1.44,2.16c-1.29,0-88.39,0-88.39,0S454.22,909.25,453.65,908.53z"/>
	<linearGradient id="SVGID_72_" gradientUnits="userSpaceOnUse" x1="19.6991" y1="851.8674" x2="36.314" y2="851.6302">
		<stop  offset="0.0449" style="stop-color:#965719"/>
		<stop  offset="0.5258" style="stop-color:#874912"/>
		<stop  offset="0.98" style="stop-color:#E09D1B"/>
	</linearGradient>
	<path class="st106" d="M15.59,835.81c0,0,16.1,5.32,18.97,5.89l0.29,1.15l-3.38,7.02c0,0-0.57,12.45-0.29,12.6s4.93,3.38,5.34,4.46
		c0.41,1.08-0.31,0.79-0.31,0.79s-17.89-5.89-19.62-9.77C16.59,857.94,15.01,838.54,15.59,835.81z"/>
	<linearGradient id="SVGID_73_" gradientUnits="userSpaceOnUse" x1="131.9538" y1="844.5722" x2="615.4302" y2="837.6736">
		<stop  offset="0.1418" style="stop-color:#C0BBB9"/>
		<stop  offset="0.3982" style="stop-color:#CBC6C2"/>
		<stop  offset="0.4161" style="stop-color:#C3BEBA"/>
		<stop  offset="0.4764" style="stop-color:#AFA8A3"/>
		<stop  offset="0.5462" style="stop-color:#9F9791"/>
		<stop  offset="0.6299" style="stop-color:#938B84"/>
		<stop  offset="0.742" style="stop-color:#8D847D"/>
		<stop  offset="1" style="stop-color:#8B827B"/>
	</linearGradient>
	<path class="st107" d="M614.81,857.23l4.05,4.18c0,0-14.39,8.41-75.86,12.72s-371.47-23.71-371.47-23.71S41.74,834.47,23.64,828.43
		s-9.49-16.09,12.93-18.18"/>
	<linearGradient id="SVGID_74_" gradientUnits="userSpaceOnUse" x1="504.1464" y1="576.5599" x2="416.1893" y2="1106.8893">
		<stop  offset="0.1418" style="stop-color:#FAE18E"/>
		<stop  offset="0.3009" style="stop-color:#DCBA36"/>
		<stop  offset="0.3284" style="stop-color:#DEB729"/>
		<stop  offset="0.3705" style="stop-color:#E0B51C"/>
		<stop  offset="0.4269" style="stop-color:#E1B315"/>
		<stop  offset="0.5568" style="stop-color:#E1B313"/>
	</linearGradient>
	<path class="st108" d="M454.8,598.12c0,0-1.72,5.8,1.44,5.22c3.16-0.57,96.29-1.15,168.73,5.17s291.47,22.49,291.47,22.49
		l6.83,3.02c0,0-232.32,58.14-231.97,60c0.36,1.87-91.05,120.59-92.77,122.74s16.1,33.04,16.1,33.04s1.22,7.35,1.01,8.43
		c-0.22,1.08-97.59,5.96-199.34,0s-229.95-16.31-229.95-16.31S67.69,824.38,51.27,819.21s-14.7-7.76-14.7-7.76l10.06-10.35
		l4.64-43.12L216.8,652.97l207.68-49.63L454.8,598.12z"/>
	<linearGradient id="SVGID_75_" gradientUnits="userSpaceOnUse" x1="238.7768" y1="635.7114" x2="258.1791" y2="697.7988">
		<stop  offset="0.1418" style="stop-color:#F6D984"/>
		<stop  offset="0.3982" style="stop-color:#C89F06"/>
		<stop  offset="0.4193" style="stop-color:#BE9304"/>
		<stop  offset="0.4538" style="stop-color:#B48602"/>
		<stop  offset="0.5001" style="stop-color:#AE7F00"/>
		<stop  offset="0.6066" style="stop-color:#AC7D00"/>
		<stop  offset="0.8594" style="stop-color:#C89C05"/>
	</linearGradient>
	<path class="st109" d="M51.27,760.04c0.58,0.99,1.97,24.99,13.47,28.15c11.5,3.16,58.06,2.59,88.24-19.83
		s171.17-134.81,286.72-165.57l15.09-5.03c0,0-272.21,34.64-354.7,81.2L51.27,760.04z"/>
	<path class="st110" d="M511.71,625.39c0,0,140.56,4.93,162.69,7.36l21.56-7.36c0,0-55.84-5.86-95.49-8.38S509.44,612,509.44,612
		l-2.33,7.94L511.71,625.39z"/>
	<polygon class="st111" points="520.87,620.62 520.87,616.09 567.12,617.28 564.64,622.13 	"/>
	<polygon class="st111" points="577.46,623.21 577.46,618.36 632.98,621.38 629.9,626.59 	"/>
	<polygon class="st111" points="643.11,628.31 644.19,622.47 691.29,626.59 680.3,630.65 	"/>
	<path class="st112" d="M509.44,612c1.56-0.45,2.27,13.39,2.27,13.39s-50.01,10.36-174.48,67.85
		C337.23,693.24,457.16,627.05,509.44,612z"/>
	<path class="st113" d="M912.83,634.02c0,0-25.15-2.87-45.27,0c-20.12,2.87-127.05,33.92-127.05,33.92l-232.39,108.7
		c0,0-79.77,51.12-94.72,64.92"/>
	<path class="st113" d="M119.64,813.39c0,0,97.73-104.05,183.96-149.47c86.23-45.42,138.55-60.94,138.55-60.94"/>
	<path class="st113" d="M46.63,800.74c0,0,67.26,14.95,110.95,18.97s239.15,21.85,239.15,21.85s215.01,18.19,259.85,0.76"/>
	<path class="st113" d="M419.14,611c0,0,124.96-6.07,421.5,29.17"/>
	<linearGradient id="SVGID_76_" gradientUnits="userSpaceOnUse" x1="713.7338" y1="659.3351" x2="755.1254" y2="800.3251">
		<stop  offset="0.1418" style="stop-color:#F6D984"/>
		<stop  offset="0.3982" style="stop-color:#C89F06"/>
		<stop  offset="0.4591" style="stop-color:#BE9304"/>
		<stop  offset="0.5587" style="stop-color:#B48602"/>
		<stop  offset="0.6923" style="stop-color:#AE7F00"/>
		<stop  offset="1" style="stop-color:#AC7D00"/>
	</linearGradient>
	<path class="st114" d="M561.47,715.67c0,0,63.64-23.39,127.88-38.92c64.24-15.52,243.18-46.13,243.18-46.13s20.7-2.44,23-2.3
		s4.89,2.73,4.89,2.73s-226.22,51.31-256.4,81.06s-45.27,105.63-45.7,112.53c-0.43,6.9-1.72,17.68-1.72,17.68s-67.34,8.62-95.11,6.9
		c-27.77-1.72-47.6-2.16-47.6-2.16s50.01-7.33,68.55-24.58c18.54-17.25,26.91-64.67,21-79.33
		C597.51,728.49,561.47,715.67,561.47,715.67z"/>
	<linearGradient id="SVGID_77_" gradientUnits="userSpaceOnUse" x1="114.7571" y1="674.8018" x2="84.6164" y2="778.4435">
		<stop  offset="0" style="stop-color:#908C83"/>
		<stop  offset="0.3982" style="stop-color:#B8B1A6"/>
		<stop  offset="0.4347" style="stop-color:#938D84"/>
		<stop  offset="0.4751" style="stop-color:#726C65"/>
		<stop  offset="0.5201" style="stop-color:#55504B"/>
		<stop  offset="0.5702" style="stop-color:#3E3A36"/>
		<stop  offset="0.6274" style="stop-color:#2C2825"/>
		<stop  offset="0.6962" style="stop-color:#1F1C1A"/>
		<stop  offset="0.7882" style="stop-color:#181513"/>
		<stop  offset="1" style="stop-color:#161311"/>
	</linearGradient>
	<path class="st115" d="M87.56,685.59c0,0,10.24-6.01,12.54-6.44s31.47-2.01,36.51,23.28c5.03,25.29-13.51,62.95-28.46,71
		c-14.95,8.05-27.02,12.93-41.1,5.17s-13.03-19.35-13.03-19.35L87.56,685.59z"/>
	<linearGradient id="SVGID_78_" gradientUnits="userSpaceOnUse" x1="577.4787" y1="709.4968" x2="544.7103" y2="822.1738">
		<stop  offset="0" style="stop-color:#908C83"/>
		<stop  offset="0.3982" style="stop-color:#B8B1A6"/>
		<stop  offset="0.4347" style="stop-color:#938D84"/>
		<stop  offset="0.4751" style="stop-color:#726C65"/>
		<stop  offset="0.5201" style="stop-color:#55504B"/>
		<stop  offset="0.5702" style="stop-color:#3E3A36"/>
		<stop  offset="0.6274" style="stop-color:#2C2825"/>
		<stop  offset="0.6962" style="stop-color:#1F1C1A"/>
		<stop  offset="0.7882" style="stop-color:#181513"/>
		<stop  offset="1" style="stop-color:#161311"/>
	</linearGradient>
	<path class="st116" d="M549.04,719.56c0,0,9.81-5.05,20.45-4.76c10.64,0.29,29.61,4.89,32.77,23.57
		c3.16,18.68,0.57,44.55-16.38,64.96s-35.93,25.29-47.43,23.57s-25.88-19.74-27.99-28.99C508.35,788.65,549.04,719.56,549.04,719.56
		z"/>
	
		<ellipse transform="matrix(0.4428 -0.8966 0.8966 0.4428 -382.674 922.2513)" class="st117" cx="550.68" cy="769.01" rx="54.1" ry="39.51"/>
	
		<ellipse transform="matrix(0.4428 -0.8966 0.8966 0.4428 -604.7539 487.655)" class="st117" cx="89.98" cy="730.4" rx="50.31" ry="34.98"/>
	<linearGradient id="SVGID_79_" gradientUnits="userSpaceOnUse" x1="561.0817" y1="700.9907" x2="562.2314" y2="816.5421">
		<stop  offset="0" style="stop-color:#FFFFFF"/>
		<stop  offset="1" style="stop-color:#675E50"/>
	</linearGradient>
	<path class="st118" d="M533.38,728.25c0,0,15.7-7.42,27.2-6.55c11.5,0.86,27.02,5.17,28.74,24.72
		c1.72,19.55-5.28,54.41-35.41,68.31c-30.13,13.9-16.62-62.85-17.19-63.71S533.38,728.25,533.38,728.25z"/>
	<linearGradient id="SVGID_80_" gradientUnits="userSpaceOnUse" x1="96.648" y1="664.5022" x2="97.7488" y2="775.1331">
		<stop  offset="0" style="stop-color:#FFFFFF"/>
		<stop  offset="1" style="stop-color:#675E50"/>
	</linearGradient>
	<path class="st119" d="M70.37,690.6c0,0,14.89-7.1,25.8-6.27c10.91,0.83,25.63,4.95,27.26,23.67c1.64,18.71-5.01,52.1-33.58,65.4
		c-28.58,13.3-15.76-60.17-16.31-61S70.37,690.6,70.37,690.6z"/>
	
		<linearGradient id="SVGID_81_" gradientUnits="userSpaceOnUse" x1="492.7977" y1="780.8776" x2="563.5083" y2="780.8776" gradientTransform="matrix(1.0055 0.1519 -0.1564 1.035 134.0475 -116.6499)">
		<stop  offset="0" style="stop-color:#FFFFFF"/>
		<stop  offset="1" style="stop-color:#675E50"/>
	</linearGradient>
	<path class="st120" d="M578.55,777.16c3.84-25.38-8.97-48.37-28.61-51.33c-19.63-2.97-38.66,15.21-42.5,40.59
		s8.97,48.37,28.61,51.33S574.71,802.55,578.55,777.16z"/>
	
		<linearGradient id="SVGID_82_" gradientUnits="userSpaceOnUse" x1="38.1432" y1="809.7174" x2="105.2235" y2="809.7174" gradientTransform="matrix(1.0055 0.1519 -0.1564 1.035 134.0475 -116.6499)">
		<stop  offset="0" style="stop-color:#FFFFFF"/>
		<stop  offset="1" style="stop-color:#675E50"/>
	</linearGradient>
	<path class="st121" d="M113.22,737.43c3.64-24.3-8.51-46.31-27.13-49.15c-18.62-2.84-36.67,14.56-40.31,38.86
		c-3.64,24.3,8.51,46.31,27.13,49.15S109.58,761.73,113.22,737.43z"/>
	<linearGradient id="SVGID_83_" gradientUnits="userSpaceOnUse" x1="507.6995" y1="842.4029" x2="500.6966" y2="884.6262">
		<stop  offset="0.1418" style="stop-color:#CCC7C4"/>
		<stop  offset="0.3982" style="stop-color:#7D756B"/>
		<stop  offset="0.4001" style="stop-color:#7C746A"/>
		<stop  offset="0.4797" style="stop-color:#6C635A"/>
		<stop  offset="0.5755" style="stop-color:#60564E"/>
		<stop  offset="0.704" style="stop-color:#594F47"/>
		<stop  offset="1" style="stop-color:#574D45"/>
	</linearGradient>
	<path class="st122" d="M497.91,866.06l1.27-18.04c0,0,0.51-7.45,6.17-7.08c5.66,0.38,5.77,5.82,5.77,5.82l0.27,19.29
		c0,0-4.31,1.08-7.76,0.81C500.18,866.6,498.51,866.33,497.91,866.06z"/>
	<linearGradient id="SVGID_84_" gradientUnits="userSpaceOnUse" x1="29.1518" y1="796.8473" x2="22.245" y2="838.4913">
		<stop  offset="0.1418" style="stop-color:#CCC7C4"/>
		<stop  offset="0.3982" style="stop-color:#7D756B"/>
		<stop  offset="0.4001" style="stop-color:#7C746A"/>
		<stop  offset="0.4797" style="stop-color:#6C635A"/>
		<stop  offset="0.5755" style="stop-color:#60564E"/>
		<stop  offset="0.704" style="stop-color:#594F47"/>
		<stop  offset="1" style="stop-color:#574D45"/>
	</linearGradient>
	<path class="st123" d="M19.9,820.36c0,0,8.84,1.44,12.14-0.79c0,0-1.58-11.21-0.5-13.87c1.08-2.66,2.23-4.02,1.29-6.04
		c-0.93-2.01-4.67-4.02-4.67-4.02s-1.87-0.57-2.73,0c-0.86,0.57-3.02,4.74-4.38,10.35S19.9,820.36,19.9,820.36z"/>
</g>
</svg>
