<?xml version="1.0" encoding="utf-8"?>
<!-- Generator: Adobe Illustrator 25.0.0, SVG Export Plug-In . SVG Version: 6.00 Build 0)  -->
<svg version="1.1" id="Слой_3" xmlns="http://www.w3.org/2000/svg" xmlns:xlink="http://www.w3.org/1999/xlink" x="0px" y="0px"
	 viewBox="0 0 1500 1500" style="enable-background:new 0 0 1500 1500;" xml:space="preserve">
<style type="text/css">
	.st0{fill:#1C1C1C;}
	.st1{fill:url(#SVGID_1_);}
	.st2{fill:url(#SVGID_2_);}
	.st3{fill:#050002;}
	.st4{fill:url(#SVGID_3_);}
	.st5{fill:#1F171A;}
	.st6{fill:url(#SVGID_4_);}
	.st7{fill:url(#SVGID_5_);}
	.st8{fill:url(#SVGID_6_);}
	.st9{fill:#312C34;}
	.st10{fill:none;stroke:url(#SVGID_7_);stroke-width:4;stroke-miterlimit:10;}
	.st11{fill:none;stroke:url(#SVGID_8_);stroke-width:4;stroke-miterlimit:10;}
	.st12{fill:none;stroke:url(#SVGID_9_);stroke-width:4;stroke-miterlimit:10;}
	.st13{fill:none;stroke:url(#SVGID_10_);stroke-width:4;stroke-miterlimit:10;}
	.st14{fill:none;stroke:url(#SVGID_11_);stroke-width:4;stroke-miterlimit:10;}
	.st15{fill:none;stroke:url(#SVGID_12_);stroke-width:4;stroke-miterlimit:10;}
	.st16{fill:none;stroke:url(#SVGID_13_);stroke-width:4;stroke-miterlimit:10;}
	.st17{fill:url(#SVGID_14_);}
	.st18{fill:url(#SVGID_15_);}
	.st19{fill:url(#SVGID_16_);}
	.st20{fill:url(#SVGID_17_);}
	.st21{fill:url(#SVGID_18_);}
	.st22{fill:url(#SVGID_19_);}
	.st23{fill:none;stroke:url(#SVGID_20_);stroke-width:4;stroke-miterlimit:10;}
	.st24{fill:none;stroke:url(#SVGID_21_);stroke-width:4;stroke-miterlimit:10;}
	.st25{fill:none;stroke:url(#SVGID_22_);stroke-width:4;stroke-miterlimit:10;}
	.st26{fill:none;stroke:url(#SVGID_23_);stroke-width:4;stroke-miterlimit:10;}
	.st27{fill:none;stroke:url(#SVGID_24_);stroke-width:4;stroke-miterlimit:10;}
	.st28{fill:none;stroke:url(#SVGID_25_);stroke-width:4;stroke-miterlimit:10;}
	.st29{fill:none;stroke:url(#SVGID_26_);stroke-width:4;stroke-miterlimit:10;}
	.st30{fill:#191B23;}
	.st31{fill:#2D2A27;}
	.st32{fill:#656461;}
	.st33{fill:#5E2900;}
	.st34{fill:#020201;}
	.st35{fill:#5F6061;}
	.st36{fill:#313233;}
	.st37{fill:#6E6C69;}
	.st38{fill:#343332;}
	.st39{fill:#010101;}
	.st40{fill:#36393E;}
	.st41{fill:#8B8C8B;}
	.st42{fill:url(#SVGID_27_);}
	.st43{fill:#444543;}
	.st44{fill:url(#SVGID_28_);}
	.st45{fill:#261102;}
	.st46{fill:url(#SVGID_29_);}
	.st47{fill:url(#SVGID_30_);}
	.st48{fill:url(#SVGID_31_);}
	.st49{fill:url(#SVGID_32_);}
	.st50{fill:url(#SVGID_33_);}
	.st51{fill:#020203;}
	.st52{fill:url(#SVGID_34_);}
	.st53{fill:url(#SVGID_35_);}
	.st54{fill:#393B44;}
	.st55{fill:url(#SVGID_36_);}
	.st56{fill:#592500;}
	.st57{fill:url(#SVGID_37_);}
	.st58{fill:url(#SVGID_38_);}
	.st59{fill:url(#SVGID_39_);}
	.st60{fill:#181411;}
	.st61{fill:url(#SVGID_40_);}
	.st62{fill:url(#SVGID_41_);}
	.st63{fill:url(#SVGID_42_);}
	.st64{fill:#2F2D29;}
	.st65{fill:url(#SVGID_43_);}
	.st66{fill:url(#SVGID_44_);}
	.st67{fill:none;stroke:#423D34;stroke-width:3;stroke-miterlimit:10;}
	.st68{fill:#4A433C;}
	.st69{fill:#8E8D89;}
	.st70{fill:#EDEDEE;}
	.st71{fill:#494643;}
	.st72{fill:url(#SVGID_45_);}
	.st73{fill:url(#SVGID_46_);}
	.st74{fill:url(#SVGID_47_);}
	.st75{fill:url(#SVGID_48_);}
	.st76{fill:none;stroke:#8B5406;stroke-miterlimit:10;}
	.st77{fill:#F7F6F5;}
	.st78{fill:#7D5D2A;}
	.st79{fill:#857F6D;}
	.st80{fill:#BD862C;}
	.st81{fill:url(#SVGID_49_);}
	.st82{fill:#1F1B14;}
	.st83{fill:#302613;}
	.st84{fill:#706F6B;}
	.st85{fill:#1E160B;}
	.st86{fill:#171108;}
	.st87{fill:url(#SVGID_50_);}
	.st88{fill:#7B7B77;}
	.st89{fill:#CACDCF;}
</style>
<g>
	<path class="st0" d="M1080.67,1020.49l-38.1-0.32c0,0-96.21-267.54-92.27-268.84c3.94-1.3,226.58-5.76,226.58-5.76l252.28-107.64
		c0,0,23.39,7.51,25.01,8.72c1.62,1.21,24.57,38.17,21.77,78.45c-2.8,40.28-214.59,112.39-220.21,116.56
		C1250.12,845.82,1080.67,1020.49,1080.67,1020.49z"/>
	<g>
		<linearGradient id="SVGID_1_" gradientUnits="userSpaceOnUse" x1="1519.6224" y1="669.1138" x2="1348.871" y2="870.2444">
			<stop  offset="0" style="stop-color:#5E5A59"/>
			<stop  offset="0.5159" style="stop-color:#3D3936"/>
			<stop  offset="1" style="stop-color:#221E1B"/>
		</linearGradient>
		<path class="st1" d="M1482.16,809.67c-2.85,86.3-20.48,146.18-58.94,149.18c-25.38,1.98-102.02,2.65-111.18-14.87
			c-27.62-52.81-9.08-107.63-7.55-153.87c2.85-86.3,51.3-131.93,89.76-129.22c15.1,1.06,45.82-3.02,58.77,14.01
			C1473.05,701.24,1483.89,757.25,1482.16,809.67z"/>
		
			<linearGradient id="SVGID_2_" gradientUnits="userSpaceOnUse" x1="1361.8584" y1="737.0406" x2="1352.8737" y2="1005.6851" gradientTransform="matrix(1.1364 -3.188448e-03 -3.188448e-03 1.1833 -107.6869 -206.1545)">
			<stop  offset="0" style="stop-color:#5E5A59"/>
			<stop  offset="0.5159" style="stop-color:#3D3936"/>
			<stop  offset="1" style="stop-color:#221E1B"/>
		</linearGradient>
		<path class="st2" d="M1481.88,817.25c-3.76,81.13-28.97,144.7-56.3,142c-27.33-2.7-46.44-70.66-42.67-151.79s28.97-144.7,56.3-142
			C1466.54,668.17,1485.64,736.12,1481.88,817.25z"/>
		
			<ellipse transform="matrix(0.0438 -0.999 0.999 0.0438 558.3756 2211.3237)" class="st3" cx="1434.33" cy="813.98" rx="119.19" ry="40.28"/>
		
			<linearGradient id="SVGID_3_" gradientUnits="userSpaceOnUse" x1="1432.0739" y1="769.1264" x2="1487.9828" y2="769.1264" gradientTransform="matrix(0.9035 0.0677 -0.0747 0.9972 158.903 -53.3973)">
			<stop  offset="0.1202" style="stop-color:#363440"/>
			<stop  offset="0.1712" style="stop-color:#40393C"/>
			<stop  offset="0.8741" style="stop-color:#7D7B7E"/>
		</linearGradient>
		<path class="st4" d="M1445.74,815.1c-2.11,41.2-15.08,73.36-28.95,71.85c-13.88-1.52-23.42-36.15-21.31-77.34
			c2.11-41.2,15.08-73.36,28.95-71.85C1438.32,739.28,1447.86,773.9,1445.74,815.1z"/>
		<path class="st5" d="M1407.27,816.04c-0.27-0.2,2.81-10.26,3.44-15.33s3.14-12.65,4.02-13.45c0.88-0.79,3.6-4.77,4.94-6.18
			c1.34-1.4,11.64,3.67,13.39,6.18c1.76,2.51,5.22,7.8,4.65,9.5c-0.58,1.7,12.3,14.65,11.93,15.01c-0.38,0.37-7.41,3.85-9.79,6.24
			c-2.39,2.38-4.33,7.52-3.05,9.17s4.18,2.83,2.17,4.35c-2.01,1.52-6.36,2.43-6.57,4.63c-0.21,2.2,1.59,7.89-1.09,7.89
			c-2.68,0-4.63,6.24-4.63,6.24s-3.78-12.65-4.91-12.84c-1.13-0.18-3.89-5.5-3.89-6.97s-4.39-9.15-5.02-9.53
			S1407.27,816.04,1407.27,816.04z"/>
		<linearGradient id="SVGID_4_" gradientUnits="userSpaceOnUse" x1="1427.734" y1="832.1529" x2="1430.3523" y2="795.2772">
			<stop  offset="0.1202" style="stop-color:#363440"/>
			<stop  offset="0.6162" style="stop-color:#40393C"/>
			<stop  offset="0.8741" style="stop-color:#7D7B7E"/>
		</linearGradient>
		<ellipse class="st6" cx="1429.05" cy="813.64" rx="6.58" ry="17.24"/>
		<linearGradient id="SVGID_5_" gradientUnits="userSpaceOnUse" x1="1428.0544" y1="828.5865" x2="1430.2544" y2="797.6056">
			<stop  offset="0.1202" style="stop-color:#363440"/>
			<stop  offset="0.1712" style="stop-color:#40393C"/>
			<stop  offset="0.8741" style="stop-color:#7D7B7E"/>
		</linearGradient>
		<ellipse class="st7" cx="1429.16" cy="813.04" rx="5.51" ry="14.49"/>
		<linearGradient id="SVGID_6_" gradientUnits="userSpaceOnUse" x1="1451.812" y1="755.1631" x2="1439.1136" y2="928.5436">
			<stop  offset="0.1202" style="stop-color:#363440"/>
			<stop  offset="0.1712" style="stop-color:#40393C"/>
			<stop  offset="0.8741" style="stop-color:#7D7B7E"/>
		</linearGradient>
		<path class="st8" d="M1413.99,918.08c0,0,18.07,0.49,27.95-15.16s17.27-52.27,19.59-98.06s-11.38-99.48-32.48-103.9v-4.79
			c0,0,10.53-3.37,11.21-3.72c0.68-0.34,12.4,3.83,12.75,5.67c0.36,1.84,9.95,19.53,10.53,21.16c0.58,1.63,5.82,21,6.13,22.63
			s3.47,23.45,3.47,23.45l2.28,26.1l-1.13,26.5c0,0-2.38,27.03-2.39,27.06s-4.61,27.04-4.84,28.07s-5.9,21.61-6.34,22.88
			c-0.44,1.27-7.53,18.05-7.77,18.51c-0.24,0.46-11.55,16.55-11.55,16.55l-10.68,4.24l-11.05-4.23l-5.69-6.51V918.08z"/>
		<path class="st9" d="M1428.6,793.01c0,0-3.99-1.59-5.5-3.67s-3.52-12.23-3.43-15.41c0.08-3.18,0-64.68,0-64.68l8.93-11.12
			c0,0,0.45,1.63,0.45,2.83S1428.6,793.01,1428.6,793.01z"/>
		<polygon class="st9" points="1433.07,694.8 1429.89,760.12 1429.05,790.11 1431.06,785.3 1439.43,765.37 1442.42,692.37 
			1435.51,692.65 		"/>
		<path class="st9" d="M1470.7,747.41l-12.36,1.95c0,0-17.91,23.72-18.42,24.94c-0.5,1.22-4.91,16.87-5.21,20.05
			c-0.31,3.18,1.02,6.36,1.02,6.36l13.37-26.65l22.26-22.62L1470.7,747.41z"/>
		<path class="st9" d="M1474.41,781.08c-0.06,0.3-10.87,0-10.87,0s-17.09,17.91-19.43,17.67c-2.34-0.24-6.2,1.96-6.2,1.96v6.73
			l10.06,3.17l5.04-3.1l21.4-24.89V781.08z"/>
		<path class="st9" d="M1463.1,888.5c0,0-12.96-6.77-13.12-6.57c-0.17,0.2-13.63-37.2-15.26-40.15c-1.63-2.94-2.32-7.82-2.32-7.82
			l2.32-4.86c0,0,9.77,4.24,11.7,7.66c1.92,3.42,17.29,49.67,17.29,49.67L1463.1,888.5z"/>
		<path class="st9" d="M1454.17,912.09l-12.23-9.17c0,0-2.18-2.2-3.01-5.14c-0.84-2.93-9.71-37.9-10.04-42.06s-0.33-17.61,0-20.05
			c0.33-2.45,4.69-5.87,4.69-5.87l-1.17,5.62l4.4,22.01L1454.17,912.09z"/>
		<path class="st9" d="M1425.44,832.26c0,0-9.62-1.23-10.46-0.5c-0.84,0.73-4.35,13.2-6.03,20.05c-1.67,6.85-8.2,38.31-8.05,38.97
			c0.15,0.66,5.41,18.58,6.36,20.85c0.95,2.27,7.69,14.28,7.69,14.28h1.53l9.04-45.99l1.53-12.45L1425.44,832.26z"/>
		<path class="st9" d="M1419.67,786.28l1.17,18.58c0,0-8.2-3.67-9.21-4.16c-1-0.49-0.24-3.18-2.3-5.14s-11.1-10.27-11.1-10.27
			l1.67-13.47L1419.67,786.28z"/>
		<path class="st9" d="M1416.32,824.78l3.35,6.75l-3.35-1.72c0,0-2.51-4.19-5.02-5.03c-2.51-0.84-16.07-8.19-16.07-8.19
			s0.2-9.01,0.63-8.74C1396.29,808.11,1416.32,824.78,1416.32,824.78z"/>
		<linearGradient id="SVGID_7_" gradientUnits="userSpaceOnUse" x1="1426.6017" y1="742.8823" x2="1444.4144" y2="742.8823">
			<stop  offset="0" style="stop-color:#544D50"/>
			<stop  offset="0.4438" style="stop-color:#40393C"/>
			<stop  offset="0.8741" style="stop-color:#7D7B7E"/>
		</linearGradient>
		<path class="st10" d="M1429.05,698.13v71.77c0,0-1,20.05,0,21.52c1,1.47,10.38-26.04,10.38-26.04l2.99-73"/>
		<linearGradient id="SVGID_8_" gradientUnits="userSpaceOnUse" x1="1434.8014" y1="781.3944" x2="1475.8976" y2="781.3944">
			<stop  offset="0" style="stop-color:#544D50"/>
			<stop  offset="0.4438" style="stop-color:#40393C"/>
			<stop  offset="0.8741" style="stop-color:#7D7B7E"/>
		</linearGradient>
		<path class="st11" d="M1470.57,751.44l-24.36,25.68c0,0-9.13,19.62-9.38,22.65c-0.25,3.03,1.08,7.68,1.08,7.68
			s10.47,4.03,11.22,3.17c0.75-0.86,25.28-27.99,25.28-27.99"/>
		<linearGradient id="SVGID_9_" gradientUnits="userSpaceOnUse" x1="1430.3965" y1="869.0312" x2="1465.5474" y2="869.0312">
			<stop  offset="0" style="stop-color:#544D50"/>
			<stop  offset="0.4438" style="stop-color:#40393C"/>
			<stop  offset="0.8741" style="stop-color:#7D7B7E"/>
		</linearGradient>
		<path class="st12" d="M1463.54,886.99c0.41-1.45-15.57-47.89-15.57-47.89s-2.18-3.91-4.69-5.38c-2.51-1.47-7.58-5.08-8.56-4.62
			c-0.98,0.46-2.32,4.13-2.32,4.86s3.62,24.38,4.4,26.25c0.78,1.87,17.19,50.15,17.19,50.15"/>
		<linearGradient id="SVGID_10_" gradientUnits="userSpaceOnUse" x1="1405.3036" y1="879.1083" x2="1429.0648" y2="879.1083">
			<stop  offset="0" style="stop-color:#544D50"/>
			<stop  offset="0.4438" style="stop-color:#40393C"/>
			<stop  offset="0.8741" style="stop-color:#7D7B7E"/>
		</linearGradient>
		<path class="st13" d="M1416.49,925.91c0,0,10.38-52.73,10.55-56.2c0.17-3.47-0.5-33.06-1.51-35.5c-1-2.45-6.36,11.6-7.2,15.09
			c-0.84,3.49-11.06,62.33-11.06,62.33"/>
		<linearGradient id="SVGID_11_" gradientUnits="userSpaceOnUse" x1="1394.8164" y1="815.2427" x2="1417.5306" y2="815.2427">
			<stop  offset="0" style="stop-color:#544D50"/>
			<stop  offset="0.4438" style="stop-color:#40393C"/>
			<stop  offset="0.8741" style="stop-color:#7D7B7E"/>
		</linearGradient>
		<path class="st14" d="M1395.23,807.51c1.34,0.28,20.61,15.2,21.94,15.45"/>
		<linearGradient id="SVGID_12_" gradientUnits="userSpaceOnUse" x1="1398.9885" y1="779.3095" x2="1420.9597" y2="779.3095">
			<stop  offset="0" style="stop-color:#544D50"/>
			<stop  offset="0.4438" style="stop-color:#40393C"/>
			<stop  offset="0.8741" style="stop-color:#7D7B7E"/>
		</linearGradient>
		<path class="st15" d="M1419.67,787.26c0,0-18.39-15.45-20.66-15.43"/>
		
			<linearGradient id="SVGID_13_" gradientUnits="userSpaceOnUse" x1="1411.9923" y1="768.9683" x2="1501.166" y2="768.9683" gradientTransform="matrix(0.9342 0.07 -0.075 1.002 131.6026 -58.726)">
			<stop  offset="0" style="stop-color:#544D50"/>
			<stop  offset="0.4438" style="stop-color:#40393C"/>
			<stop  offset="0.8741" style="stop-color:#7D7B7E"/>
		</linearGradient>
		
			<ellipse transform="matrix(0.0443 -0.999 0.999 0.0443 558.3052 2210.9023)" class="st16" cx="1434.72" cy="813.64" rx="121.71" ry="39.74"/>
	</g>
	<g>
		<linearGradient id="SVGID_14_" gradientUnits="userSpaceOnUse" x1="1098.1547" y1="770.9824" x2="892.6775" y2="1013.0169">
			<stop  offset="0" style="stop-color:#5E5A59"/>
			<stop  offset="0.5159" style="stop-color:#3D3936"/>
			<stop  offset="1" style="stop-color:#221E1B"/>
		</linearGradient>
		<path class="st17" d="M1077.66,940.89c-4.78,99.07-34.34,167.82-98.83,171.26c-42.56,2.27-122.24,4.33-137.6-15.78
			c-46.32-60.63,0.28-113.67,2.84-166.75c4.78-99.07,21.67-162.65,86.18-159.53c25.33,1.22,76.83-3.47,98.55,16.08
			C1062.39,816.42,1080.56,880.72,1077.66,940.89z"/>
		
			<linearGradient id="SVGID_15_" gradientUnits="userSpaceOnUse" x1="977.2344" y1="828.3007" x2="966.9137" y2="1136.8914" gradientTransform="matrix(1.1364 -3.188448e-03 -3.188448e-03 1.1833 -107.6869 -206.1545)">
			<stop  offset="0" style="stop-color:#5E5A59"/>
			<stop  offset="0.5159" style="stop-color:#3D3936"/>
			<stop  offset="1" style="stop-color:#221E1B"/>
		</linearGradient>
		<path class="st18" d="M1077.2,949.6c-6.31,93.14-48.57,166.12-94.4,163.02c-45.83-3.1-77.87-81.12-71.56-174.26
			c6.31-93.14,48.57-166.12,94.4-163.02C1051.47,778.45,1083.51,856.46,1077.2,949.6z"/>
		
			<ellipse transform="matrix(0.0747 -0.9972 0.9972 0.0747 -20.219 1869.9003)" class="st3" cx="997.46" cy="945.84" rx="137" ry="67.45"/>
		
			<linearGradient id="SVGID_16_" gradientUnits="userSpaceOnUse" x1="933.186" y1="933.696" x2="1026.4669" y2="933.696" gradientTransform="matrix(0.9035 0.0677 -0.0747 0.9972 158.903 -53.3973)">
			<stop  offset="0.1202" style="stop-color:#363440"/>
			<stop  offset="0.1712" style="stop-color:#40393C"/>
			<stop  offset="0.8741" style="stop-color:#7D7B7E"/>
		</linearGradient>
		<path class="st19" d="M1016.6,947.13c-3.54,47.3-25.28,84.22-48.55,82.48c-23.27-1.74-39.27-41.5-35.73-88.79
			c3.54-47.3,25.28-84.22,48.55-82.48C1004.15,860.08,1020.14,899.84,1016.6,947.13z"/>
		<path class="st5" d="M952.09,948.21c-0.46-0.23,4.72-11.78,5.77-17.6s5.26-14.53,6.74-15.44s6.04-5.48,8.28-7.09
			c2.25-1.61,19.51,4.21,22.46,7.09s8.76,8.96,7.79,10.91c-0.97,1.95,20.63,16.82,20,17.24c-0.63,0.42-12.42,4.42-16.42,7.16
			c-4,2.74-7.26,8.63-5.11,10.53c2.16,1.89,7,3.25,3.63,5c-3.37,1.74-10.67,2.79-11.02,5.32c-0.35,2.53,2.66,9.05-1.82,9.05
			c-4.49,0-7.76,7.16-7.76,7.16s-6.35-14.53-8.24-14.74c-1.89-0.21-6.53-6.32-6.53-8c0-1.68-7.37-10.5-8.42-10.94
			C960.39,953.42,952.09,948.21,952.09,948.21z"/>
		<linearGradient id="SVGID_17_" gradientUnits="userSpaceOnUse" x1="987.0967" y1="966.7169" x2="990.1039" y2="924.3648">
			<stop  offset="0.1202" style="stop-color:#363440"/>
			<stop  offset="0.6162" style="stop-color:#40393C"/>
			<stop  offset="0.8741" style="stop-color:#7D7B7E"/>
		</linearGradient>
		<ellipse class="st20" cx="988.61" cy="945.46" rx="11.03" ry="19.8"/>
		<linearGradient id="SVGID_18_" gradientUnits="userSpaceOnUse" x1="987.5232" y1="962.6213" x2="990.0497" y2="927.0392">
			<stop  offset="0.1202" style="stop-color:#363440"/>
			<stop  offset="0.1712" style="stop-color:#40393C"/>
			<stop  offset="0.8741" style="stop-color:#7D7B7E"/>
		</linearGradient>
		<ellipse class="st21" cx="988.79" cy="944.76" rx="9.24" ry="16.63"/>
		<linearGradient id="SVGID_19_" gradientUnits="userSpaceOnUse" x1="1023.3835" y1="878.6074" x2="1008.7858" y2="1077.9226">
			<stop  offset="0.1202" style="stop-color:#363440"/>
			<stop  offset="0.1712" style="stop-color:#40393C"/>
			<stop  offset="0.8741" style="stop-color:#7D7B7E"/>
		</linearGradient>
		<path class="st22" d="M963.35,1065.36c0,0,30.31,0.56,46.87-17.41s28.96-60.01,32.84-112.57s-19.09-114.2-54.46-119.28v-5.49
			c0,0,17.66-3.87,18.8-4.27c1.15-0.39,20.79,4.4,21.39,6.51c0.6,2.11,16.69,22.42,17.66,24.3c0.97,1.88,9.75,24.11,10.28,25.98
			c0.53,1.87,5.81,26.92,5.81,26.92l3.82,29.96l-1.89,30.42c0,0-3.99,31.03-4,31.07s-7.73,31.04-8.12,32.22
			c-0.39,1.18-9.9,24.81-10.63,26.27s-12.63,20.72-13.04,21.25c-0.4,0.53-19.37,19.01-19.37,19.01l-17.9,4.87l-18.53-4.86
			l-9.53-7.47V1065.36z"/>
		<path class="st9" d="M987.86,921.77c0,0-6.69-1.82-9.22-4.21c-2.53-2.39-5.9-14.04-5.75-17.69c0.14-3.65,0-74.25,0-74.25
			l14.97-12.77c0,0,0.75,1.88,0.75,3.25C988.61,817.48,987.86,921.77,987.86,921.77z"/>
		<polygon class="st9" points="995.34,809.03 990.01,884.02 988.61,918.44 991.97,912.92 1006.01,890.04 1011.02,806.24 
			999.44,806.56 		"/>
		<path class="st9" d="M1058.45,869.42l-20.72,2.24c0,0-30.04,27.23-30.88,28.63s-8.23,19.37-8.74,23.02
			c-0.52,3.65,1.71,7.3,1.71,7.3l22.43-30.59l37.32-25.97L1058.45,869.42z"/>
		<path class="st9" d="M1064.68,908.08c-0.1,0.34-18.22,0-18.22,0s-28.65,20.57-32.58,20.28c-3.93-0.28-10.4,2.25-10.4,2.25v7.73
			l16.86,3.64l8.46-3.55l35.88-28.58V908.08z"/>
		<path class="st9" d="M1045.7,1031.4c0,0-21.73-7.77-22.01-7.54c-0.28,0.23-22.86-42.71-25.59-46.09
			c-2.73-3.38-3.89-8.98-3.89-8.98l3.89-5.58c0,0,16.39,4.87,19.61,8.79s29,57.02,29,57.02L1045.7,1031.4z"/>
		<path class="st9" d="M1030.73,1058.47l-20.51-10.52c0,0-3.65-2.53-5.05-5.9c-1.4-3.37-16.28-43.51-16.84-48.28
			s-0.56-20.21,0-23.02s7.86-6.74,7.86-6.74l-1.97,6.46l7.39,25.27L1030.73,1058.47z"/>
		<path class="st9" d="M982.56,966.83c0,0-16.13-1.41-17.54-0.57s-7.3,15.16-10.11,23.02c-2.81,7.86-13.75,43.98-13.49,44.74
			c0.26,0.76,9.08,21.33,10.67,23.94c1.59,2.6,12.89,16.39,12.89,16.39h2.57l15.16-52.8l2.57-14.29L982.56,966.83z"/>
		<path class="st9" d="M972.89,914.05l1.97,21.34c0,0-13.76-4.21-15.44-4.77c-1.68-0.56-0.4-3.65-3.85-5.9
			c-3.45-2.25-18.61-11.79-18.61-11.79l2.81-15.47L972.89,914.05z"/>
		<path class="st9" d="M967.27,958.24l5.61,7.75l-5.61-1.98c0,0-4.21-4.81-8.42-5.77s-26.95-9.41-26.95-9.41s0.34-10.35,1.06-10.04
			C933.68,939.11,967.27,958.24,967.27,958.24z"/>
		<linearGradient id="SVGID_20_" gradientUnits="userSpaceOnUse" x1="985.8575" y1="864.0621" x2="1013.0182" y2="864.0621">
			<stop  offset="0" style="stop-color:#544D50"/>
			<stop  offset="0.4438" style="stop-color:#40393C"/>
			<stop  offset="0.8741" style="stop-color:#7D7B7E"/>
		</linearGradient>
		<path class="st23" d="M988.61,812.84v82.39c0,0-1.68,23.02,0,24.7c1.68,1.68,17.41-29.9,17.41-29.9l5.01-83.81"/>
		<linearGradient id="SVGID_21_" gradientUnits="userSpaceOnUse" x1="999.6071" y1="908.2671" x2="1065.8844" y2="908.2671">
			<stop  offset="0" style="stop-color:#544D50"/>
			<stop  offset="0.4438" style="stop-color:#40393C"/>
			<stop  offset="0.8741" style="stop-color:#7D7B7E"/>
		</linearGradient>
		<path class="st24" d="M1058.23,874.04l-40.84,29.48c0,0-15.3,22.53-15.72,26c-0.42,3.47,1.81,8.81,1.81,8.81
			s17.56,4.63,18.82,3.64c1.26-0.98,42.38-32.13,42.38-32.13"/>
		<linearGradient id="SVGID_22_" gradientUnits="userSpaceOnUse" x1="992.2206" y1="1009.2686" x2="1048.4557" y2="1009.2686">
			<stop  offset="0" style="stop-color:#544D50"/>
			<stop  offset="0.4438" style="stop-color:#40393C"/>
			<stop  offset="0.8741" style="stop-color:#7D7B7E"/>
		</linearGradient>
		<path class="st25" d="M1046.44,1029.66c0.7-1.67-26.11-54.98-26.11-54.98s-3.65-4.49-7.86-6.18c-4.21-1.68-12.72-5.83-14.36-5.3
			c-1.64,0.53-3.89,4.74-3.89,5.58s6.07,27.98,7.39,30.13c1.32,2.15,28.83,57.57,28.83,57.57"/>
		<linearGradient id="SVGID_23_" gradientUnits="userSpaceOnUse" x1="950.1559" y1="1020.8168" x2="987.2804" y2="1020.8168">
			<stop  offset="0" style="stop-color:#544D50"/>
			<stop  offset="0.4438" style="stop-color:#40393C"/>
			<stop  offset="0.8741" style="stop-color:#7D7B7E"/>
		</linearGradient>
		<path class="st26" d="M967.55,1074.34c0,0,17.4-60.53,17.69-64.52c0.28-3.98-0.84-37.95-2.53-40.76
			c-1.68-2.81-10.67,13.31-12.07,17.32c-1.4,4.01-18.55,71.56-18.55,71.56"/>
		<linearGradient id="SVGID_24_" gradientUnits="userSpaceOnUse" x1="931.6143" y1="947.2911" x2="968.9369" y2="947.2911">
			<stop  offset="0" style="stop-color:#544D50"/>
			<stop  offset="0.4438" style="stop-color:#40393C"/>
			<stop  offset="0.8741" style="stop-color:#7D7B7E"/>
		</linearGradient>
		<path class="st27" d="M931.9,938.42c2.24,0.33,34.55,17.45,36.79,17.73"/>
		<linearGradient id="SVGID_25_" gradientUnits="userSpaceOnUse" x1="938.2221" y1="906.1782" x2="973.8828" y2="906.1782">
			<stop  offset="0" style="stop-color:#544D50"/>
			<stop  offset="0.4438" style="stop-color:#40393C"/>
			<stop  offset="0.8741" style="stop-color:#7D7B7E"/>
		</linearGradient>
		<path class="st28" d="M972.89,915.17c0,0-30.84-17.74-34.65-17.71"/>
		
			<linearGradient id="SVGID_26_" gradientUnits="userSpaceOnUse" x1="929.3126" y1="932.2371" x2="1075.3959" y2="932.2371" gradientTransform="matrix(0.9342 0.07 -0.075 1.002 131.6026 -58.726)">
			<stop  offset="0" style="stop-color:#544D50"/>
			<stop  offset="0.4438" style="stop-color:#40393C"/>
			<stop  offset="0.8741" style="stop-color:#7D7B7E"/>
		</linearGradient>
		
			<ellipse transform="matrix(0.0747 -0.9972 0.9972 0.0747 -19.2376 1870.1874)" class="st29" cx="998.11" cy="945.46" rx="139.9" ry="66.56"/>
	</g>
	<path class="st30" d="M1361.56,887.21l4.79-13.96c0,0-282.14,106.43-284.38,108.43c-2.24,2,0,18.93,0,19.26s39.76-5.62,48.23-10.14
		C1138.67,986.27,1361.56,887.21,1361.56,887.21z"/>
	<path class="st31" d="M1361.56,887.21c2.61,1.96,13.69,7.49,13.69,7.49l-13.69,13.69l-249.61,101.67l-32.77-14.83l8-2.76
		L1361.56,887.21z"/>
	<path class="st30" d="M1080.67,990.79c1.63,0,35.85,11.45,35.85,11.45l258.74-107.54v10.51l-260.04,105.82l-34.54,9.45l-2.28-22.9
		L1080.67,990.79z"/>
	<g>
		<path class="st32" d="M33.99,1008.76l-16.3,12.06c0,0-0.4,20.06,3.31,22.33s93.81,19.71,95.76,19.71
			c1.96,0,22.81-27.33,22.16-39.08s-45.29-70.18-45.29-70.18s-32.25,6-37.47,11.03S33.99,1008.76,33.99,1008.76z"/>
		<g>
			<path class="st33" d="M1410.28,697.19c0.29-0.77,21.02-47.86,40.41-41.83c19.39,6.03,25.25,69.74,25.25,69.74
				s1.14-32.91-3.42-48.88c-4.56-15.97-8.44-22-8.44-22s-11.93-9.29-12.42-9.29s-39.76-0.81-41.38,0.65
				c-1.63,1.47-6.19,28.02-6.35,29.98C1403.76,677.52,1410.28,697.19,1410.28,697.19"/>
			<path class="st34" d="M933.7,858.45l-14.66,31.04c0,0-30.65,172.63-33.89,178.91c-3.24,6.28-78.43,20.44-83.26,21.08
				s-131.81,7.93-131.81,7.93s-2.14-40.52,6.52-46.29S908,848.2,913.55,844.6S933.7,858.45,933.7,858.45z"/>
			<path class="st35" d="M879.28,482.86c9.96,1.95,122.97,10.38,160.98,21.78c38,11.41,9.98,17.42,7.82,22s-63.38,15.44-69.08,13.1
				c-5.7-2.34-93.03-20.97-107.54-20.7s-321.99-0.63-319.81,0s94.73-38.89,223.68-36.17C904.28,485.58,879.28,482.86,879.28,482.86z
				"/>
			<path class="st36" d="M731.99,498.48c0,0,14.67-18.27,69.09-17.78c54.42,0.49,70.39,2.17,70.39,2.17l-0.33,1.23
				c0,0-42.53,5.08-43.18,5.49c-0.65,0.4-88.31,10.99-88.31,10.99L731.99,498.48z"/>
			<path class="st37" d="M812.81,482.99c-0.98-0.03-33.57-1.16-51.16,3.73c-17.6,4.89-24.77,11.37-24.77,11.37l77.23,3.54
				c0,0,41.39-16.25,57.03-17.54c15.64-1.28-37.15,0.02-38.78,0.02C830.73,484.11,812.81,482.99,812.81,482.99z"/>
			<path class="st38" d="M801.73,482.4c0,0-6.35-1.22-2.69-4.15c3.67-2.93,17.11-12.71,47.17-12.22
				c30.06,0.49,59.39,5.38,74.3,11.49c14.91,6.11,30.31,13.69,30.31,13.69s-39.84-4.4-57.92-6.11
				C874.8,483.38,804.59,483.48,801.73,482.4z"/>
			<path class="st39" d="M810.53,476.05c0,0,17.6-8.55,38.61-8.31c21.02,0.24,39.59,5.62,40.08,7.33c0.49,1.71-4.89,5.38-20.53,4.89
				C853.05,479.47,795.99,481.17,810.53,476.05z"/>
			<path class="st40" d="M962.54,527.13c0,0-122.36-20.2-128.23-22.53c-5.87-2.32-55.4-2.24-59.96-2.89
				c-4.56-0.65-50.79,2.89-91.89,2.89s-126.02,13.62-126.02,13.62l-92.14,50.88l-79.91,66.66c0,0-26.5,34.09-28.45,37.06
				c0,0-31.28,48.51-29.98,52.42c1.3,3.91,275.68,36.5,324.56,26.07c48.88-10.43,282.85-23.46,283.16-28.86
				c0.31-5.4,45.31-146.45,45.31-149.06C979,570.79,962.54,527.13,962.54,527.13z M627.06,603.46c0,0-119.27,50.11-184.44,56.62
				c0,0,159.02-144.68,234.62-128.39C677.25,531.69,651.18,582.68,627.06,603.46z M951.29,580.61
				c-1.82,1.21-117.63,2.56-134.57-2.65c0,0-1.77-33.24,7.59-35.85c9.36-2.61,134.04-3.7,133.94,0
				C958.15,545.81,953.11,579.4,951.29,580.61z"/>
			<path class="st40" d="M984.52,696.67l50.85,9.85l67.05-36.33l66.7-52.66l-6.21-40.21c0,0-44.99-34.21-48.44-37.57
				c-3.45-3.36-84.97-22.88-84.97-22.88s-38.19,59.82-38.45,64.87C990.79,586.77,979,700.98,979,700.98L984.52,696.67z"/>
			<path class="st0" d="M1150.08,583.18c0,0-21.34-33.08-58-45.78l56.05,82.47l-7.04,12.32l-8.6-1.91l-55.38-90.44
				c0,0-38.8-11.73-64.7,32.75v8.03l37.39,107.57l-9.53,3.42l-10.26-1.22l-23.46-97.27c0,0-10.07,82.59-10.75,95.07
				c-0.69,12.48,2.44,8.48,2.44,8.48l-2.54,12.13c0,0-10.66,3.75-11.14,0c-0.49-3.75,10.26-119.1,11.73-124.97
				c1.47-5.87,36.66-63.05,38.61-64.52c1.96-1.47,56.42,3.43,57.79,4.19s68.41,48.1,74.18,53.81c5.77,5.71,11.24,25.38,9.78,29.39
				c-1.47,4.01-13.24,32.85-13.24,32.85s-81.71,69.45-86.3,72.36c-4.58,2.91-78.08,4.09-78.08,4.09l-1.64-15.33l0.84-4h3.1
				l34.54-4.98l20.04-7.01l41.06-22.48l42.36-27.21c0,0,9.94-8.15,10.59-9.45s3.26-38.61,3.26-38.61L1150.08,583.18z"/>
			<polygon class="st41" points="1001.65,696.67 1040.26,691.61 1032.44,690.39 			"/>
			<path class="st41" d="M1048.08,684.52l1.71,3.67c0,0,90.1-32.59,109.2-71.77c11.43-23.45,10.08-34.62,10.08-34.62l-19,1.38
				c0,0,2.61,18.9-1.63,28.68l-1.63,4.89l1.3,3.12l-7.04,8.94l-8.6,1.48C1132.48,630.28,1081.97,677.03,1048.08,684.52z"/>
			<linearGradient id="SVGID_27_" gradientUnits="userSpaceOnUse" x1="898.5226" y1="806.3963" x2="1175.6705" y2="616.743">
				<stop  offset="0" style="stop-color:#542802"/>
				<stop  offset="0.5098" style="stop-color:#B36F01"/>
				<stop  offset="0.7021" style="stop-color:#D59A01"/>
			</linearGradient>
			<path class="st42" d="M1170.61,577.31h-3.75c0,0,6.68,7.98,1.87,26.31s-27.79,38.7-42.7,50.75s-67.79,46.79-130.94,46.29
				s-11.21,14.56-4.04,15.34c7.17,0.78,107.92-4.4,115.19-7.2c7.27-2.8,66.97-28.45,77.72-41.86
				c10.75-13.41,31.32-30.32,29.84-42.05S1170.61,577.31,1170.61,577.31z"/>
			<path class="st43" d="M990.15,529.94c-197.4-63.01-431.36-13.08-431.36-13.08c-25.59,4.64-129.98,75.68-129.98,75.68
				l-113.94,92.62l-15.1,26.4c0,0,269.29,31.93,281.67,29.98c12.38-1.96,347.73-24.02,349.33-22.16
				c1.6,1.86,57.35-41.71,59.38-43.42C992.18,674.27,990.15,529.94,990.15,529.94z M957.65,548.64
				c-1.96,8.31-23.95,95.8-26.88,112.42c-2.93,16.62-3.91,32.26-36.66,38.5c-32.75,6.24-253.69,12.82-351.56,6.96
				c-97.87-5.87-172.92-20.53-178.3-23.46c-5.38-2.93-2.93-8.31,8.8-25.91c11.73-17.6,134.91-102.65,165.7-125.13
				c30.79-22.48,184.81-27.41,184.81-27.41s-11.53,18.61-12.99,21.3c-1.47,2.69,5.13,3.83,5.13,3.83
				c-5.87,0.65-24.77,17.6-24.77,17.6c-8.26,7.01,34.26,5.7,34.26,5.7s8.59-6.84,13.09-10.26c4.5-3.42,4.79-11.24,4.79-11.24
				c5.38,0.98,55.85-24.44,55.85-24.44s104.47,10.26,131.84,17.11C958.14,531.04,959.61,540.33,957.65,548.64z"/>
			<linearGradient id="SVGID_28_" gradientUnits="userSpaceOnUse" x1="198.0466" y1="793.1605" x2="564.6445" y2="495.9719">
				<stop  offset="0" style="stop-color:#542802"/>
				<stop  offset="0.5098" style="stop-color:#B36F01"/>
				<stop  offset="0.7021" style="stop-color:#D59A01"/>
			</linearGradient>
			<path class="st44" d="M558.8,516.86c3.17-0.84-125.13,62.08-176.46,121.22l-65.17,51.98l-7.37-2.61c0,0,22.03-19.14,53.8-44.68
				C420.95,596.68,510.05,529.76,558.8,516.86z"/>
			<path class="st45" d="M325.78,699.56c0,0,0.83-5.75,5.23-10.89s51.32-50.59,51.32-50.59s-61.1,44.48-61.34,45.21
				c-0.24,0.73-2.21,11.98-2.2,13.2S325.78,699.56,325.78,699.56z"/>
			<linearGradient id="SVGID_29_" gradientUnits="userSpaceOnUse" x1="941.4058" y1="776.8267" x2="1154.0325" y2="571.043">
				<stop  offset="0" style="stop-color:#542802"/>
				<stop  offset="0.5098" style="stop-color:#B36F01"/>
				<stop  offset="0.7021" style="stop-color:#D59A01"/>
			</linearGradient>
			<path class="st46" d="M1324.89,598.58c-2.63,1.2-48.7,25.65-85.85,13.27s-68.43-34.54-68.43-34.54s10.79,22.29-3.75,43.67
				c-14.54,21.38-77.07,77.64-154.62,81.83c0,0-21.18,2.57-20.86-8.51s4.4-105.58,25.91-137.84s62.86-45.21,110.96-10.26
				c0,0-54.75-40.57-87.98-41.55c-33.24-0.98-52.79,15.64-62.57,58.66s-23.46,118-33.73,129.39
				c-10.26,11.38-44.58,15.19-44.58,15.19l-5.28,21.62c0,0,37.15,9.78,40.57,9.78c3.42,0,145.17,15.72,148.11,16.66
				c2.93,0.94,110.09-29.86,111.75-31.32c1.65-1.47,98.93-87.49,101.86-88.96S1324.89,598.58,1324.89,598.58z"/>
			<linearGradient id="SVGID_30_" gradientUnits="userSpaceOnUse" x1="1200.1619" y1="632.1816" x2="1369.7572" y2="632.1816">
				<stop  offset="0" style="stop-color:#F5E8C0"/>
				<stop  offset="0.3078" style="stop-color:#E7CD9D"/>
				<stop  offset="1" style="stop-color:#E0B763"/>
			</linearGradient>
			<path class="st47" d="M1369.76,581.8c-1.56,0.31-34.59,11.48-50.23,19.3c-15.64,7.82-33.89,14.99-47.58,17.27
				c-13.69,2.28-58.15,32.96-58.15,32.96s11.48,3.21,2.39,9.07c-9.09,5.87-16.03,22.16-16.03,22.16l41.82-4.84l117.95-78.91
				L1369.76,581.8z"/>
			<linearGradient id="SVGID_31_" gradientUnits="userSpaceOnUse" x1="1194.532" y1="663.6789" x2="1233.0984" y2="663.6789">
				<stop  offset="0" style="stop-color:#542802"/>
				<stop  offset="0.5098" style="stop-color:#B36F01"/>
				<stop  offset="0.7021" style="stop-color:#5C2700"/>
			</linearGradient>
			<path class="st48" d="M1194.53,656.78c0,0,20.72-6.8,29.52-7.13c8.8-0.33,11.7,3.31,6.4,7.13s-27.93,20.94-27.93,20.94
				L1194.53,656.78z"/>
			<linearGradient id="SVGID_32_" gradientUnits="userSpaceOnUse" x1="1197.1593" y1="666.9348" x2="1230.4467" y2="666.9348">
				<stop  offset="0" style="stop-color:#222022"/>
				<stop  offset="0.5782" style="stop-color:#18171C"/>
				<stop  offset="0.9976" style="stop-color:#1A1A1A"/>
			</linearGradient>
			<path class="st49" d="M1197.16,660.28c0,0,22.73-6.8,29.33-5.58c6.6,1.22,4.64,2.93-3.67,7.09s-22.57,19.3-23.14,17.35
				C1199.12,677.19,1197.16,660.28,1197.16,660.28z"/>
			<linearGradient id="SVGID_33_" gradientUnits="userSpaceOnUse" x1="1227.0483" y1="885.9728" x2="1338.494" y2="716.849">
				<stop  offset="0.6733" style="stop-color:#542802"/>
				<stop  offset="0.9176" style="stop-color:#CB9D51"/>
			</linearGradient>
			<path class="st50" d="M1335.49,680.94l9.11-0.67c0,0-2.93,77.08-4.56,82.45c-1.62,5.38-90.86,152.11-90.86,152.11h-82.33
				c0,0,112.94-164.88,113.66-167.54C1281.24,744.64,1335.49,680.94,1335.49,680.94z"/>
			<path class="st51" d="M1283.52,689.95c2.46-1.29,53.86-18.03,53.86-18.03l-1.88,9.01c0,0-42.2,173.19-138.41,231.84l-96.7,40.81
				c0,0-5.38-14.37-5.38-16.83c0-2.46,44.48-98.27,55.23-116.35c10.75-18.08,103.62-128.06,103.62-128.06L1283.52,689.95z"/>
			<linearGradient id="SVGID_34_" gradientUnits="userSpaceOnUse" x1="1102.2" y1="889.1453" x2="1281.5962" y2="889.1453">
				<stop  offset="0" style="stop-color:#222022"/>
				<stop  offset="0.5782" style="stop-color:#18171C"/>
				<stop  offset="0.9976" style="stop-color:#1A1A1A"/>
			</linearGradient>
			<path class="st52" d="M1102.48,945.08c0,0,109.35-56.59,129.39-92.34c20.04-35.75,27.37-30.87,27.37-30.87l22.35-5.42
				c0,0-14.72,29.48-28.87,47.45c-19.69,25-74.13,70.91-77.56,72.85c-3.42,1.94-72.06,27.36-72.69,24.91
				C1101.85,959.23,1102.48,945.08,1102.48,945.08z"/>
			<linearGradient id="SVGID_35_" gradientUnits="userSpaceOnUse" x1="1162.9182" y1="749.1839" x2="1292.9719" y2="749.1839">
				<stop  offset="0" style="stop-color:#080A10"/>
				<stop  offset="0.5098" style="stop-color:#14161D"/>
				<stop  offset="0.7021" style="stop-color:#20232A"/>
			</linearGradient>
			<path class="st53" d="M1257.87,801.7c0,0,16.53-30.66,23.37-57.06c6.84-26.4,11.73-47.98,11.73-47.98s-127.09,76.33-127.58,77.79
				c-0.49,1.47-5.31,23.56,0,24.64C1170.71,800.18,1257.87,801.7,1257.87,801.7z"/>
			<path class="st54" d="M1174.54,779.04l84.7,22.3c0,0-29.07,7.43-37.75,12.27c-8.69,4.84-28.73,21.95-30.68,20.48
				c-1.96-1.47-47.52-25.66-47.9-27.48c-0.38-1.82-3.91-13.64,0-14.1C1146.82,792.06,1174.54,779.04,1174.54,779.04z"/>
			<linearGradient id="SVGID_36_" gradientUnits="userSpaceOnUse" x1="1071.2633" y1="873.2468" x2="1221.5941" y2="873.2468">
				<stop  offset="0" style="stop-color:#080A10"/>
				<stop  offset="0.5098" style="stop-color:#14161D"/>
				<stop  offset="0.7021" style="stop-color:#20232A"/>
			</linearGradient>
			<path class="st55" d="M1094.08,950.48c0.98-0.65,101.67-65.17,101.67-65.17s22.48-68.43,25.74-71.69
				c3.26-3.26-71.69-17.6-71.69-17.6s-79.19,60.28-78.53,62.57s5.88,89.29,5.88,89.29L1094.08,950.48z"/>
			<path class="st56" d="M1196.02,934.24c0,0,123.18-44.75,129.69-48.01c6.52-3.26,44.55-21.1,45.89-24.51
				c1.34-3.4,6.57-22.87,6.57-22.87s-31.6-13.76-34.21-13.82c-2.61-0.07-75.6,43.6-76.9,46.21c-1.3,2.61-57.35,42.36-59.31,44.97
				c-1.96,2.61-18.9,18.03-18.9,18.03H1196.02z"/>
			<linearGradient id="SVGID_37_" gradientUnits="userSpaceOnUse" x1="1353.2042" y1="715.8282" x2="1175.2821" y2="972.9355">
				<stop  offset="0" style="stop-color:#542802"/>
				<stop  offset="0.5098" style="stop-color:#7C4203"/>
				<stop  offset="0.7021" style="stop-color:#884B05"/>
			</linearGradient>
			<path class="st57" d="M1080.84,932.89c0,0,24.92,17.91,38.12,15.3s139.8-50.54,171.57-127.02
				c31.77-76.48,56.7-148.34,56.7-148.34s38.13,4.4,39.59,4.89c1.47,0.49,20.04,24.68,20.04,24.68l-31.28,148.84h-4.89
				c0,0-39.59-19.06-72.83,4.89c-33.24,23.95-89.45,67.98-105.58,76.76c0,0,157.07-63.56,174.5-78.88l3.91-2.77h4.89
				c0,0-8.31,23.46-11.24,24.44c-2.93,0.98-264.44,104.6-282.04,115.11l-3.12-14.46L1080.84,932.89z"/>
			<linearGradient id="SVGID_38_" gradientUnits="userSpaceOnUse" x1="997.272" y1="876.553" x2="1387.3322" y2="762.1745">
				<stop  offset="0" style="stop-color:#542802"/>
				<stop  offset="0.5098" style="stop-color:#B36F01"/>
				<stop  offset="0.7021" style="stop-color:#5C2700"/>
			</linearGradient>
			<path class="st58" d="M929.14,862.94l4.56-4.5c0,0,30.86-75.3,61.59-84.07c30.73-8.78,54.75,3.89,63.54,37.63
				c3.8,14.56,12.46,44.2,15.97,81.07c4.61,48.54,3.58,104.52,3.58,104.52l3.91-2.93l-3.42-135.89c0,0,198.8-176.52,258.57-178.42
				c59.77-1.9,69.41,25.91,69.41,25.91l6.39-16.94c0,0-9.32-33.89-12.25-34.87c-2.93-0.98-98.74-3.91-102.65,0
				c-3.91,3.91-161.3,97.84-164.24,102.69c-2.93,4.85-101.67-9.82-104.6-10.79c-2.93-0.98-72.37-8.8-78.22,0
				s-32.93,43.43-37.14,63.1C909.95,829.12,929.14,862.94,929.14,862.94z"/>
			<linearGradient id="SVGID_39_" gradientUnits="userSpaceOnUse" x1="1143.4219" y1="812.8537" x2="1107.7025" y2="658.0696">
				<stop  offset="0" style="stop-color:#542802"/>
				<stop  offset="0.5098" style="stop-color:#B36F01"/>
				<stop  offset="0.7021" style="stop-color:#D59A01"/>
			</linearGradient>
			<path class="st59" d="M954.1,810.78c0,0,27.54-47.08,55.89-48.54c28.35-1.47,48.39,24.93,53.28,35.68
				c4.89,10.75,6.35,27.11,6.35,27.11l2.17,19.57l7.77-4.65c0,0,170.1-143.71,228.76-160.81c58.66-17.1,79.51-11.24,104.93,8.97
				c0,0,23.46-56.7,50.83-33.89c0,0-18.9-52.79-56.05-69.74c0,0-33.89-12.38-62.57,7.17c-28.68,19.55-136.37,87.49-136.37,87.49
				s-76.09,46.77-125.62,44.16c-49.53-2.61-69.08-18.8-117.47-11.08c-48.4,7.72-157.95,80.81-159.06,83.42
				c-1.11,2.61-18.95,25.17-18.95,25.17l72.59,16.55l64.36-12.32L954.1,810.78z"/>
			<path class="st60" d="M1108.21,751.32c0,0-11.25-10.75-11.25-14.01s1.63-25.74,1.63-25.74s0.65-1.63,7.49-4.24
				s59.29-4.7,65.19-5.67c5.89-0.98,32.64-19.09,32.64-19.09s3.51-4.24,3.19,0c-0.33,4.24-6.19,20.86-20.86,23.14
				c-14.66,2.28-68.6,5.54-71.77,8.15c-3.18,2.61,3.67,17.6,7.58,21.18c3.91,3.58,3.26,7.49,0.98,10.1
				C1120.75,747.74,1108.21,751.32,1108.21,751.32z"/>
			<path class="st60" d="M1199.69,657.8c-0.08,0.98,5.78,19.72,3.83,26.07c-1.95,6.35-7.88,15.33-14.66,16.13
				c-6.78,0.8-57.85,2.25-57.85,2.25s-13.92,0.67-15.47-3.39c-1.55-4.06-6.89-17.93-6.86-18.59c0.04-0.66,4.9-30.62,7.51-30.62
				s57.68,1.74,59.63,2.83C1177.78,653.56,1199.69,657.8,1199.69,657.8z"/>
			<linearGradient id="SVGID_40_" gradientUnits="userSpaceOnUse" x1="1108.2079" y1="670.1832" x2="1199.6859" y2="670.1832">
				<stop  offset="0" style="stop-color:#080A10"/>
				<stop  offset="0.5098" style="stop-color:#14161D"/>
				<stop  offset="0.7021" style="stop-color:#20232A"/>
			</linearGradient>
			<path class="st61" d="M1115.54,698.86c0,0-8.47-2.28-7.17-14.66s-0.14-31.71-0.14-31.71s-1.17-10.97,13.5-10.97
				c14.66,0,57.35-0.21,71.69,10.97c14.34,11.19,0,7.27-2.93,6.62c-2.93-0.65-63.54-7.17-69.41-3.91
				C1115.21,658.45,1110.32,691.69,1115.54,698.86z"/>
			<linearGradient id="SVGID_41_" gradientUnits="userSpaceOnUse" x1="1114.4744" y1="692.6887" x2="1203.5187" y2="692.6887">
				<stop  offset="0" style="stop-color:#080A10"/>
				<stop  offset="0.5098" style="stop-color:#14161D"/>
				<stop  offset="0.7021" style="stop-color:#20232A"/>
			</linearGradient>
			<path class="st62" d="M1203.52,682.57c0,0-6.52,12.56-14.66,14.1c-8.15,1.54-64.36,4.32-74.38,0c2.09,0.66,10.51,5.78,21.92,6.1
				s51.16-1.3,57.68-3.91C1200.59,696.25,1202.87,687.45,1203.52,682.57z"/>
			<path class="st34" d="M33.34,1036.46c0,0,15.32,8.31,22.81-10.26c7.49-18.57,10.78-38.13,10.78-38.13h14.78l16.46,57.11
				l-4.47,10.19c0,0,53.2,16.29,56.29,16.78c3.1,0.49,341.51,27.8,341.51,27.8l59.96-5.8c0,0,92.56-50.2,104.94-53.45
				c12.38-3.25,20.68,39.77,20.68,41.72c0,1.96,0,11.73,0,11.73s199.59-27.02,202.2-25.73c2.61,1.29,15.47-7.61,15.47-7.61
				S912.2,916,930.77,866c0,0-54.77,41.37-73.41,129.88c-7.82,37.15,8.88,58.9,8.88,58.9l4.89,5.45c0,0-93.21,5.21-91.82,0
				c1.39-5.21,8.89-162.09,8.67-161.84c-0.21,0.25-20.49-13.48-20.49-13.48s-306.96,29.33-310.87,29.33
				c-3.91,0-376.37-36.75-376.37-36.75l-0.77-82.72c0,0-23.56-5.09-23.34,0s-24.16,39.3-26.49,66.95s4.77,140.22,1.72,143.94
				S33.34,1036.46,33.34,1036.46z"/>
			<path class="st32" d="M545.6,1094.13c0,0,5.37,0.31,9.29,2.93c3.91,2.62,103.57-0.59,108.02,0c4.45,0.59,29.42-2.28,29.86-5.05
				c0.44-2.77-7.38-48.72-8.84-52.14c-1.47-3.42-22-9.78-26.4-10.26s-80.16,20.04-83.58,22.97
				C570.53,1055.52,545.6,1094.13,545.6,1094.13z"/>
			<linearGradient id="SVGID_42_" gradientUnits="userSpaceOnUse" x1="774.8676" y1="1034.3838" x2="926.3947" y2="786.5636">
				<stop  offset="0.6733" style="stop-color:#542802"/>
				<stop  offset="0.9176" style="stop-color:#CB9D51"/>
			</linearGradient>
			<path class="st63" d="M857.36,815.99c2.08-0.52,50.59-24.02,53.53-23.81c2.93,0.21,14.66-8.59,27.7-2.08
				c13.03,6.52,13.69,17.25,12.06,20.68s-14.99,30.35-21.51,50.94c0,0-23.79,18.54-30.63,35.05s-49.46,95.01-49.94,115.54
				c-0.49,20.53,22.57,47.93,22.57,47.93s-125.34,28.13-179.01,25.39c-53.66-2.74-45.06-25.39-45.06-25.39s24.87-42.74,36.86-51.49
				c11.98-8.75,72.34-62.73,72.34-62.73l23.05-15.95l44.99-36.35c0,0,37.24-38.54,37.64-56.66
				C862.34,818.94,857.36,815.99,857.36,815.99z"/>
			<path d="M921.48,1067.74l-0.61,6.48c0,0-119.31,61.48-616.09,29.7c0,0-155.43-6.53-248.63-36.18c0,0-29.98-10.59-39.76-20.04
				c0,0-3.66-21.53-0.85-23.64c2.81-2.11,6.06,7.83,6.55,8.48c0.49,0.65,11.24,13.85,11.73,14.01c0.49,0.16,201.55,39.1,205.46,39.1
				c3.91,0,230.06,14.34,233.97,14.34c3.91,0,175.97-0.65,175.97-0.65l196.17-18.25L921.48,1067.74z"/>
			<path class="st64" d="M892.64,1060.24l28.84,7.49c0,0-123.7,31.82-292.79,35.19c-179.55,3.58-396.9-1.96-505.42-27.37
				c-108.51-25.42-105.58-36.17-105.58-36.17s-6.37-12.71-0.01-18.57c6.36-5.87,13.69-15.15,13.69-15.15l-1.96,17.11
				c0,0-0.98,8.8,3.91,13.69c3.09,3.09,44.02,15.93,93.46,26.69c8.22,1.79,25.81-8.36,25.81-8.36s20.13,8,39.76,12.3
				c3.21,0.7,8.09-5.8,11.08-4.89c6.06,1.84,237.23,19.55,237.23,19.55l0.68,5.57c30.59,0.91,51.38,1.43,51.38,1.43l-1.22,5.38
				h59.96h123.18C674.64,1094.13,838.22,1083.05,892.64,1060.24z"/>
			<linearGradient id="SVGID_43_" gradientUnits="userSpaceOnUse" x1="111.7365" y1="971.2349" x2="74.4332" y2="994.9104">
				<stop  offset="0" style="stop-color:#222022"/>
				<stop  offset="0.5782" style="stop-color:#18171C"/>
				<stop  offset="0.9976" style="stop-color:#1A1A1A"/>
			</linearGradient>
			<path class="st65" d="M56.15,905.22c0,0,7.09,48.14,18.04,65.74s26.6,85.05,26.6,85.05l30.31,4.24c0,0-4.89-63.87-15.64-88.31
				S64.3,913.04,56.15,905.22z"/>
			<linearGradient id="SVGID_44_" gradientUnits="userSpaceOnUse" x1="756.1872" y1="935.4772" x2="545.6785" y2="1069.0817">
				<stop  offset="0" style="stop-color:#222022"/>
				<stop  offset="0.5782" style="stop-color:#18171C"/>
				<stop  offset="0.9976" style="stop-color:#1A1A1A"/>
			</linearGradient>
			<path class="st66" d="M761.85,909.77c-1.1,3.05-163.46,80.09-201.26,110.72s-69.08,73.65-69.08,73.65h59.96l115.15-61.59
				l110.35-100.37L761.85,909.77z"/>
			<path class="st67" d="M56.15,896.77c0,0,14.33,26.65,51.48,37.47s177.43,29.88,245.86,30.36c68.43,0.49,307.42-7.82,412.77-70.88
				"/>
			<path class="st68" d="M56.15,792.14l0.65,22.65c0,0,15.75,13.93,16.18,14.66c0.44,0.73,19.25,3.67,19.25,3.67
				s-6.6-27.62-8.07-31.77S70,784.72,70,784.72l-12.27,2.72L56.15,792.14z"/>
			<path class="st69" d="M47.84,838.98l-4.68-12.22c0,0-1.16-7.33,6.61-9.04c7.77-1.71,5.57-3.18,7.03-2.93
				c1.47,0.24,23.56,5.62,23.56,5.62s10.41,13.85,10.41,14.99c0,1.14-6.35,20.21-7.82,22.89c-1.47,2.69-13.6,8.78-14.66,8.73
				C67.23,866.97,47.84,838.98,47.84,838.98z"/>
			<path class="st70" d="M46.29,802.96c0.69-1.73,13.2-17.26,18.08-13.1c4.89,4.15,17.6,39.59,17.6,39.59s11.73-22.48,11.73-25.91
				s-16.13-33.97-16.13-33.97s-8.55,2.44-9.04,3.18C68.04,773.48,46.29,802.96,46.29,802.96z"/>
			<path class="st71" d="M72.98,773.49c0,0-26.2,22.97-32.07,49.36s-7.33,71.61-7.33,71.61l-5.87,2.31l-1.17-22.41
				c0,0,5.3-30.2,7.8-39.41c2.5-9.21,21.23-55.12,21.23-55.12l14.92-12.9L72.98,773.49z"/>
			<linearGradient id="SVGID_45_" gradientUnits="userSpaceOnUse" x1="40.1487" y1="1032.8057" x2="44.8187" y2="884.9238">
				<stop  offset="0.0429" style="stop-color:#542802"/>
				<stop  offset="0.3479" style="stop-color:#AE6C03"/>
				<stop  offset="0.9976" style="stop-color:#CC9215"/>
			</linearGradient>
			<path class="st72" d="M33.58,894.46h13.77c0,0,16.94,74.87,13.69,89.53c-3.26,14.66-9.46,43.67-16.95,46.6
				c-7.49,2.93-15.31-6.84-15.31-6.84l-3.91-128.39l4.56,1.42L33.58,894.46z"/>
			<linearGradient id="SVGID_46_" gradientUnits="userSpaceOnUse" x1="165.1322" y1="1001.7178" x2="176.138" y2="653.201">
				<stop  offset="0" style="stop-color:#F5E8C0"/>
				<stop  offset="0.3078" style="stop-color:#E7CD9D"/>
				<stop  offset="0.9523" style="stop-color:#B77808"/>
			</linearGradient>
			<path class="st73" d="M69.67,768.92c0,0-23.87,27.13-33.65,62.89c-9.78,35.76-9.04,61.67-8.31,62.65c0.73,0.98,5.87-2.2,5.87,0
				s14.93,91.89,14.92,99.23H37.25c0,0-12.06-74.54-12.38-98.33c-0.33-23.79,13.8-99.41,38.78-126.44
				c23.07-24.96,39.28-55.59,105.58-81.47c53.44-20.86,100.37-3.91,102.65-2.93c2.28,0.98,35.82,2.92,43,0.65
				c7.18-2.28,2.29,4.89,2.29,4.89l-132.3,44.97L69.67,768.92z"/>
			<linearGradient id="SVGID_47_" gradientUnits="userSpaceOnUse" x1="408.9781" y1="957.1155" x2="411.9109" y2="864.2441">
				<stop  offset="0.0429" style="stop-color:#542802"/>
				<stop  offset="0.3479" style="stop-color:#AE6C03"/>
				<stop  offset="0.9976" style="stop-color:#CC9215"/>
			</linearGradient>
			<path class="st74" d="M47.84,839.95c0,0-32.1,68.97,106.72,95.26l4.89,4.13c0,0,113.4,17.6,240.81,13.69l2.68-4.09
				c0,0,265.82-11.92,364.24-59.64l12.13-21.08l-139.54-16.87c0,0-506.72,20.86-509.33,19.56s-63.22-3.94-63.22-3.94L47.84,839.95z"
				/>
			<linearGradient id="SVGID_48_" gradientUnits="userSpaceOnUse" x1="520.0517" y1="907.0435" x2="502.455" y2="776.0459">
				<stop  offset="0" style="stop-color:#F5E8C0"/>
				<stop  offset="0.3078" style="stop-color:#E7CD9D"/>
				<stop  offset="1" style="stop-color:#E0B763"/>
			</linearGradient>
			<path class="st75" d="M794.27,812.29c0,0,110.92-88.99,168.27-100.07c0,0-116.04,18.25-136.23,22.81l86.04-18.25l3.26-10.43
				c0,0-165.13,15.64-204.44,16.94s-161.18-5.87-192.46-6.52s-152.5-5.87-175.97-10.43s-24.77-16.94-23.46-23.46
				c0,0-22.81,13.03-38.78,9.78c-15.97-3.26-42.04-21.18-87.66-9.78S94.76,724.28,71.3,765.01l-1.63,3.91c0,0,21.18,18.9,4.56,93.2
				c0,0-22.81-16.62-26.4-23.14c0,0-7.49,8.8-1.3,23.14c6.19,14.34,18.9,22.81,26.4,2.61c0,0,69.41,22.48,72.67,24.44
				c3.26,1.96,4.89-1.96,4.89-1.96l0.98,9.45c0,0,12.38-4.24,28.35-1.3c15.97,2.93,77.56,10.75,116.01,9.78
				c38.45-0.98,164.89-6.52,164.89-6.52s18.25-10.43,23.46-10.43s149.08-17.62,149.08-17.62L794.27,812.29z"/>
			<path class="st76" d="M400.26,952.06c0,0,18.9-33.89,81.47-65.82c62.57-31.93,217.67-108.84,285.46-134.91
				c67.78-26.07,112.1-39.76,112.1-39.76"/>
			<path class="st76" d="M313.58,687.45c0,0-21.51,5.87-43.01,14.99s-58,43.01-80.16,73.65S150,865.38,150,893.73
				c0,28.35,4.56,40.51,4.56,40.51"/>
			<path class="st77" d="M299.77,840.01c0.87,0.16,22.94-12.11,22.94-12.11L303.66,842L299.77,840.01z"/>
			<path class="st77" d="M423.4,852.74"/>
			<path class="st78" d="M482.38,764.36c1.76-0.84-74.3,63.87-91.24,93.2c0,0-27.37,0.98-21.83-10.75S460.55,774.79,482.38,764.36z"
				/>
			<path class="st78" d="M273.5,733.08c0,0-29.65,59.31-33.56,98.74c0,0-8.47-19.55,0-40.73C248.41,769.9,273.5,733.08,273.5,733.08
				z"/>
			<path class="st79" d="M244.17,838.66c0,0,48.55-1.96,60.61,2.61C304.78,841.26,273.83,863.42,244.17,838.66z"/>
			<path class="st80" d="M405.79,838.24c1.74-1.95,14.35,7.08,17.61,14.5c0,0-15.97,4.49-32.26,4.82
				C391.14,857.56,402.34,842.11,405.79,838.24z"/>
			<linearGradient id="SVGID_49_" gradientUnits="userSpaceOnUse" x1="726.645" y1="819.7019" x2="719.313" y2="1057.2573">
				<stop  offset="0" style="stop-color:#633E1F"/>
				<stop  offset="0.3078" style="stop-color:#C28201"/>
				<stop  offset="1" style="stop-color:#CCA670"/>
			</linearGradient>
			<path class="st81" d="M761.65,877.08c0,0,1.76,7.12-34.17,13.47s-99.47,23.04-129.29,19.22c-29.82-3.82,13.69-27.53,13.69-27.53
				s107.69-57.92,177.19-68.92c63.3-10.02,73.81-5.62,73.56,16.62c-0.24,22.24-18.41,48.47-60.94,84.97
				c-42.53,36.5-122.04,84.07-148.76,140.12l-5.87,5.21c0,0,8.48-26.6,35.77-53.22c27.29-26.62,55.25-51.38,55.25-51.38
				s54.97-62.24,54.65-63.22c-0.33-0.98-14.99-20.86-14.99-20.86L761.65,877.08z"/>
			<path class="st82" d="M609.2,896.21l142.02-18.71c0,0,13.68-3,15.97,3.19s-6.52,43.99-22.48,59.63
				c-15.97,15.64-63.22,68.43-63.22,68.43s70.71-64.2,94.17-81.14l1.3,4.56c0,0,48.39-43.09,56.12-52.39
				c7.73-9.3,25.35-37.09,26.32-46.44c0.98-9.35-4.24-24.34-29.65-22.39C804.33,812.91,685.51,829.6,609.2,896.21z"/>
			<path class="st83" d="M810.28,861.71c0,0,12.95-3.67,13.93-11.24s-5.99-12.38-6.97-15.23c-0.97-2.85-0.03-5.3,0.05-5.3
				s-18.99,6.63-19.72,7.13c-0.73,0.49-5.48,15.38-5.32,15.68c0.16,0.3,5.23,9.4,6.79,8.97S810.28,861.71,810.28,861.71z"/>
			<path class="st84" d="M733.46,841.65c1.27-0.39,66.64-3.82,67.53-4.59s19.06-5.17,22-7.37s8.31-1.71,1.47-2.93
				c-6.84-1.22-19.55-3.18-38.13,0s-55.48,12.22-55.48,12.22L733.46,841.65z"/>
			<path class="st85" d="M777.04,835.23c0,0-40,4.73-53.48,8.15c-13.48,3.42-112.46,46.11-112.46,46.11s-7.33,6.19-5.38,7.17
				s12.95-4.64,37.15-9.04c24.2-4.4,150.31-25.99,150.06-26.13C792.68,861.35,777.04,835.23,777.04,835.23z"/>
			<path class="st86" d="M801.89,838.49c0,0,1.91,4.58,1.55,9.87c-0.37,5.28-0.43,12.71-2.84,12.92c-2.41,0.2-9.38-2.86-9.99-3.72
				c-0.61-0.86-3.54-7.82-2.32-11.12s4.52-8.31,6.35-9.16C796.47,836.42,801.89,838.49,801.89,838.49z"/>
			<linearGradient id="SVGID_50_" gradientUnits="userSpaceOnUse" x1="784.8775" y1="836.9126" x2="783.737" y2="861.6783">
				<stop  offset="0" style="stop-color:#333333"/>
				<stop  offset="0.2411" style="stop-color:#CBCCD0"/>
				<stop  offset="1" style="stop-color:#1A1A1A"/>
			</linearGradient>
			<path class="st87" d="M771.25,861.4c-0.48,0.01-3.9-4.98-4.07-12.8c-0.16-7.82,8.8-13.36,8.8-13.36h25.91V838
				c0,0-8.8,2.61-10.43,9.61c-1.63,7.01,9.46,13.87,9.46,13.87L771.25,861.4z"/>
			<path class="st88" d="M615.01,893.73c0,0,0.42-0.13,1.18-0.38c7.5-2.42,48.44-15.64,53.32-16.97
				c5.38-1.47,82.61-13.69,95.07-14.66c12.46-0.98,45.7,0,45.7,0S637.49,892.99,615.01,893.73z"/>
			<path class="st89" d="M612.07,889.49c0,0,99.71-56.05,174.66-69.08c74.95-13.03,71.04,5.87,70.39,16.95s-18.9,40.41-28.68,46.27
				c0,0,0.98-10.43,3.58-14.34c2.61-3.91,12.22-31.28-1.47-38.61C816.88,823.34,761.65,820.73,612.07,889.49z"/>
		</g>
	</g>
</g>
</svg>
