<?xml version="1.0" encoding="utf-8"?>
<!-- Generator: Adobe Illustrator 25.0.0, SVG Export Plug-In . SVG Version: 6.00 Build 0)  -->
<svg version="1.1" xmlns="http://www.w3.org/2000/svg" xmlns:xlink="http://www.w3.org/1999/xlink" x="0px" y="0px"
	 viewBox="0 0 1500 1500" style="enable-background:new 0 0 1500 1500;" xml:space="preserve">
<style type="text/css">
	.st0{fill:url(#SVGID_1_);}
	.st1{fill:url(#SVGID_2_);}
	.st2{fill:url(#SVGID_3_);}
	.st3{fill:#322C28;}
	.st4{fill:#201F1A;}
	.st5{fill:#423239;}
	.st6{fill:#151614;}
	.st7{fill:#1E1D1C;}
	.st8{fill:#A59388;}
	.st9{fill:#100A13;}
	.st10{fill:#403534;}
	.st11{fill:url(#SVGID_4_);}
	.st12{fill:#160918;}
	.st13{fill:#4B3E49;}
	.st14{fill:#160B19;}
	.st15{fill:#1E1422;}
	.st16{fill:url(#SVGID_5_);}
	.st17{fill:url(#SVGID_6_);}
	.st18{fill:url(#SVGID_7_);}
	.st19{fill:url(#SVGID_8_);}
	.st20{fill:url(#SVGID_9_);}
	.st21{fill:url(#SVGID_10_);}
	.st22{fill:url(#SVGID_11_);}
	.st23{fill:url(#SVGID_12_);}
	.st24{fill:#8C7D72;}
	.st25{fill:#533D4D;}
	.st26{fill:#12100D;}
	.st27{fill:#050302;}
	.st28{fill:#080509;}
	.st29{fill:#140917;}
	.st30{fill:#090909;}
	.st31{fill:url(#SVGID_13_);}
	.st32{fill:none;stroke:url(#SVGID_14_);stroke-miterlimit:10;}
	.st33{fill:none;stroke:url(#SVGID_15_);stroke-miterlimit:10;}
	.st34{fill:none;stroke:url(#SVGID_16_);stroke-miterlimit:10;}
	.st35{fill:none;stroke:url(#SVGID_17_);stroke-miterlimit:10;}
	.st36{fill:none;stroke:url(#SVGID_18_);stroke-miterlimit:10;}
	.st37{fill:none;stroke:url(#SVGID_19_);stroke-miterlimit:10;}
	.st38{fill:none;stroke:url(#SVGID_20_);stroke-miterlimit:10;}
	.st39{fill:none;stroke:url(#SVGID_21_);stroke-miterlimit:10;}
	.st40{fill:none;stroke:url(#SVGID_22_);stroke-miterlimit:10;}
	.st41{fill:none;stroke:url(#SVGID_23_);stroke-miterlimit:10;}
	.st42{fill:none;stroke:url(#SVGID_24_);stroke-miterlimit:10;}
	.st43{fill:none;stroke:url(#SVGID_25_);stroke-miterlimit:10;}
	.st44{fill:url(#SVGID_26_);}
	.st45{fill:url(#SVGID_27_);}
	.st46{fill:url(#SVGID_28_);}
	.st47{fill:url(#SVGID_29_);}
	.st48{fill:url(#SVGID_30_);}
	.st49{fill:url(#SVGID_31_);}
	.st50{fill:url(#SVGID_32_);}
	.st51{fill:url(#SVGID_33_);}
	.st52{fill:url(#SVGID_34_);}
	.st53{fill:url(#SVGID_35_);}
	.st54{fill:url(#SVGID_36_);}
	.st55{fill:url(#SVGID_37_);}
	.st56{fill:none;stroke:url(#SVGID_38_);stroke-miterlimit:10;}
	.st57{fill:none;stroke:url(#SVGID_39_);stroke-miterlimit:10;}
	.st58{fill:none;stroke:url(#SVGID_40_);stroke-miterlimit:10;}
	.st59{fill:none;stroke:url(#SVGID_41_);stroke-miterlimit:10;}
	.st60{fill:none;stroke:url(#SVGID_42_);stroke-miterlimit:10;}
	.st61{fill:none;stroke:url(#SVGID_43_);stroke-miterlimit:10;}
	.st62{fill:none;stroke:url(#SVGID_44_);stroke-miterlimit:10;}
	.st63{fill:none;stroke:url(#SVGID_45_);stroke-miterlimit:10;}
	.st64{fill:none;stroke:url(#SVGID_46_);stroke-miterlimit:10;}
	.st65{fill:none;stroke:url(#SVGID_47_);stroke-miterlimit:10;}
	.st66{fill:none;stroke:url(#SVGID_48_);stroke-miterlimit:10;}
	.st67{fill:none;stroke:url(#SVGID_49_);stroke-miterlimit:10;}
	.st68{fill:#1A0421;}
	.st69{fill:#08030D;}
	.st70{fill:url(#SVGID_50_);}
	.st71{fill:#1F1F1E;}
	.st72{fill:#0B0313;}
	.st73{fill:#1F062C;}
	.st74{fill:url(#SVGID_51_);}
	.st75{fill:url(#SVGID_52_);}
	.st76{fill:#2F0546;}
	.st77{fill:url(#SVGID_53_);}
	.st78{fill:url(#SVGID_54_);}
	.st79{fill:#360E51;}
	.st80{fill:#77369B;}
	.st81{fill:#240A35;}
	.st82{fill:#3A1D4D;}
	.st83{fill:url(#SVGID_55_);}
	.st84{fill:url(#SVGID_56_);}
	.st85{fill:url(#SVGID_57_);}
	.st86{fill:#943AB5;}
	.st87{fill:#77379F;}
	.st88{fill:#5E2374;}
	.st89{fill:#060108;}
	.st90{fill:#09030C;}
	.st91{fill:#171817;}
	.st92{fill:#240431;}
	.st93{fill:#09020E;}
	.st94{fill:#1C072C;}
	.st95{fill:#040105;}
	.st96{fill:url(#SVGID_58_);}
	.st97{fill:#8A4FC4;}
	.st98{fill:url(#SVGID_59_);}
	.st99{fill:#3A1554;}
	.st100{fill:#350F51;}
	.st101{fill:#9544BA;}
	.st102{fill:url(#SVGID_60_);}
	.st103{fill:url(#SVGID_61_);}
	.st104{fill:url(#SVGID_62_);}
	.st105{fill:url(#SVGID_63_);}
	.st106{fill:url(#SVGID_64_);}
	.st107{fill:#050107;}
	.st108{fill:#C955D8;}
	.st109{fill:#040106;}
	.st110{fill:#723E92;}
	.st111{fill:#150720;}
	.st112{fill:#19082B;}
	.st113{fill:#53326C;}
	.st114{fill:#07020A;}
	.st115{fill:none;stroke:#170925;stroke-width:2;stroke-miterlimit:10;}
	.st116{fill:url(#SVGID_65_);}
	.st117{fill:url(#SVGID_66_);}
	.st118{fill:#1D0A2F;}
	.st119{fill:#602E82;}
	.st120{fill:#C157D5;}
	.st121{fill:#693D9F;}
	.st122{fill:#451665;}
	.st123{fill:#FFFFFF;}
	.st124{fill:url(#SVGID_67_);}
	.st125{fill:url(#SVGID_68_);}
	.st126{fill:#553086;}
	.st127{fill:#49419E;}
	.st128{fill:url(#SVGID_69_);}
	.st129{fill:url(#SVGID_70_);}
	.st130{fill:#A24ED0;}
	.st131{fill:url(#SVGID_71_);}
	.st132{fill:url(#SVGID_72_);}
	.st133{fill:#8532AA;}
	.st134{fill:#AA47C7;}
	.st135{fill:url(#SVGID_73_);}
	.st136{fill:url(#SVGID_74_);}
	.st137{fill:#5C3077;}
	.st138{fill:url(#SVGID_75_);}
	.st139{fill:url(#SVGID_76_);}
	.st140{fill:#230230;}
	.st141{fill:#3C0654;}
	.st142{fill:#2D073E;}
	.st143{fill:#22032F;}
	.st144{fill:#130118;}
</style>
<g id="Слой_2">
	<linearGradient id="SVGID_1_" gradientUnits="userSpaceOnUse" x1="1245.2383" y1="888.2404" x2="1150.3834" y2="594.3894">
		<stop  offset="0" style="stop-color:#0C0B09"/>
		<stop  offset="0.8325" style="stop-color:#150621"/>
	</linearGradient>
	<path class="st0" d="M1022.02,973.09c1.87,0.78,10.11,1.84,10.11,1.84l73.36-32.88l366.1-169.86l11.79,1.3l4.67-11.71
		c0,0-0.16-52.98,0-56.42c0.16-3.43-7.79-43.8-9.06-51c-1.27-7.2-29.44-22.17-33.05-31.61c-3.61-9.44-136.24-6.6-147.53,0
		c-11.29,6.6-408.02,114.13-408.02,114.13s18.89,60.56,17.7,63.42s29.31,83.42,36.69,93.76
		C952.17,904.41,1022.02,973.09,1022.02,973.09z"/>
	<g>
		<linearGradient id="SVGID_2_" gradientUnits="userSpaceOnUse" x1="1417.7189" y1="896.6801" x2="1327.8252" y2="618.1984">
			<stop  offset="0" style="stop-color:#0C0B09"/>
			<stop  offset="0.8325" style="stop-color:#2B2B24"/>
		</linearGradient>
		<path class="st1" d="M1475.79,791.73c0.17,5.08-9.39,101.19-45.72,117.87c-9.71,4.46-55.8,1.14-66.51,0.79
			c-9.52-0.31-27.19-0.62-35.7-4.72c-36.86-17.74-37.81-61.52-35.87-120.02c2.38-71.99,45.46-129,96.21-127.32
			c8.57,0.28,37.91-2.85,45.48,0.52C1470.91,675.46,1473.8,731.89,1475.79,791.73z"/>
		
			<linearGradient id="SVGID_3_" gradientUnits="userSpaceOnUse" x1="1416.9962" y1="908.3447" x2="1422.5977" y2="656.2798" gradientTransform="matrix(1.0388 0.0344 -0.0331 0.9995 -21.1325 -44.8759)">
			<stop  offset="0" style="stop-color:#0C0B09"/>
			<stop  offset="0.8325" style="stop-color:#2B2B24"/>
		</linearGradient>
		<path class="st2" d="M1475.93,787.4c-2.3,69.6-25.7,125.31-52.26,124.43c-26.56-0.88-46.22-58.01-43.92-127.61
			c2.3-69.6,25.7-125.31,52.26-124.43C1458.57,660.66,1478.23,717.8,1475.93,787.4z"/>
		<path class="st3" d="M1425.89,811.32c0.09-1.26,8.91-4.81,10.02-4.95c1.11-0.14,10.92,39.22,9.97,40.28s-13.47,26.09-13.47,26.09
			s-5.2-33.23-5.28-38.23S1425.89,811.32,1425.89,811.32z"/>
		<path class="st4" d="M1394.13,742.49c0,0,9.29,11.81,8.78,13.9s-2.29,36.85-2.29,36.85l-11.62,3.96c0,0-0.97-7.45-0.88-10.85
			C1388.2,782.94,1394.13,742.49,1394.13,742.49z"/>
		<path class="st5" d="M1402.94,704.45c0.43-1.03,12.5-26.65,20.36-28.22c7.87-1.57,10.17-2.29,10.37-2.26
			c0.2,0.03,6.4,2.26,6.4,2.26s-18.8,1.57-20.38,5.35c-1.57,3.77-7.84,42.46-7.27,42.63s-4.21,1.94-5,1.52s-6.13-6.4-6.13-6.4
			L1402.94,704.45z"/>
		<path class="st6" d="M1404.61,700.59c-0.5,1.1-1.05,16.68-0.69,19.19s8.85,1.52,8.85,1.52l10.39,32.92c0,0-7.91,14.15-8.36,14.94
			c-0.45,0.79-2.7,0.66-2.37-0.79c0.33-1.45-14.03-28.78-14.03-28.78s-5.04,9.83-4.97,10.54c0.07,0.71-4.43,23.04-4.43,23.04
			s3.67-40.58,7.83-50.6C1400.98,712.55,1404.61,700.59,1404.61,700.59z"/>
		<path class="st7" d="M1431.15,761.78c0,0,1.52,19.77,5.53,25.53c4.01,5.76-13.52-0.5-13.52-0.5s-1.53-2.37-2.52-3.54
			c-0.99-1.17-1.82-13.96-1.82-13.96l11.25-6.67L1431.15,761.78z"/>
		<path class="st8" d="M1414.8,765.71c0,0,5.21,3.01,5.84,7.79c0.63,4.77,2.52,16.74,0.17,21.46c-2.34,4.73-3.69,8.49-5.39,8.33
			c-1.7-0.16-7.61-3.53-8.82-6.48s-4.05-13.39-3.65-15.88s7.41-12.55,7.41-12.55L1414.8,765.71z"/>
		<path class="st9" d="M1407.73,777.97c0,0,0,11.68,0,13.56c0,2.63,2.29,6.42,2.29,6.42l4.33,3.01l-7.75,8.31
			c0,0-3.67,4.81-4.83,4.94s-4.23-1.3-6.02-4.76c-1.8-3.46-2.25-7.2-2.25-7.2l10.85-24.3H1407.73z"/>
		<path class="st10" d="M1402.94,826.24c0,0-1.96,2.17-2.41,7.09c-0.45,4.92-2.02,30.27-2.02,30.27s-7.76-23.47-7.75-31.59
			s-0.66-9.38,2.74-9.38S1402.94,826.24,1402.94,826.24z"/>
		<linearGradient id="SVGID_4_" gradientUnits="userSpaceOnUse" x1="1388.0458" y1="772.1899" x2="1409.1436" y2="772.1899">
			<stop  offset="0" style="stop-color:#3B342F"/>
			<stop  offset="0.8325" style="stop-color:#22211E"/>
		</linearGradient>
		<path class="st11" d="M1396.83,738.8c1.05,1.29,13.79,18.25,12.18,25.26c-1.62,7-6.02,27.6-6.02,27.6l-9.49,13.92l-5.45-10.15
			c0,0,9.5-24.12,8.78-33.64c-0.72-9.52-3.33-10.94-3.33-10.94s-0.94-8.24,1.2-10.14S1396.83,738.8,1396.83,738.8z"/>
		<path class="st12" d="M1390.39,829.4l10.22-0.94l15.07-19.7l3.13,1.8l-0.53-2.85c0,0-1.67-2.35-1.37-2.99s2.78-11.48,2.78-11.48
			s-2.67,5.97-5.35,7.22c-2.67,1.25-10.54,12.73-10.54,12.73s-2.96,1.19-3.2,1.16s-2.71-0.5-4.08-0.75c-1.37-0.25-3.41-0.7-4.04,0
			c-0.63,0.7-3.56,1.06-3.49,2.39C1389.06,817.31,1390.39,829.4,1390.39,829.4z"/>
		<path class="st13" d="M1415.42,824.12c1.4,0.81,11.59,8.23,11.6,7.87c0.01-0.36,0.7-3.96,0.7-3.93s-8.9-17.51-8.9-17.51
			l-2.18-1.99l-6.27,6.52l4.19,10.39L1415.42,824.12z"/>
		<path class="st14" d="M1414.35,823.5c0.63,0.35,7.35,4.36,9.36,4.95c2.01,0.59,3.32-0.31,3.36,1.05
			c0.04,1.36-1.11,39.16-1.71,40.93s-7.55,3.07-8.73,1.77s-3.86-10.5-3.86-10.5s1.05-10.7,1.1-11.84c0.05-1.14,2.41-15.88,1.82-19.3
			S1414.35,823.5,1414.35,823.5z"/>
		<path class="st14" d="M1414.35,846.65c-0.06,1.01-0.91,17.89,0.45,20.72c1.36,2.83,11.4-0.55,11.18,0
			c-0.21,0.55-1.29,5.21-2.37,7.26c-1.08,2.06-9.03,15.95-9.03,15.95s-8.89-10.56-9.19-11.06s4.74-11.33,5.92-15.69
			C1412.5,859.47,1414.35,846.65,1414.35,846.65z"/>
		<path class="st15" d="M1410.35,815.09c0,0,3.51,5.73,4.19,10.39c0.68,4.65-0.07,29.38-1.78,34.59
			c-1.71,5.21-7.37,19.47-7.37,19.47l-7-14.44l2.66-35.7C1401.06,829.4,1406.94,819.33,1410.35,815.09z"/>
		<linearGradient id="SVGID_5_" gradientUnits="userSpaceOnUse" x1="1429.6931" y1="894.8967" x2="1430.5525" y2="856.2274">
			<stop  offset="0" style="stop-color:#3B342F"/>
			<stop  offset="0.8325" style="stop-color:#22211E"/>
		</linearGradient>
		<path class="st16" d="M1426.41,856.14c0,0,0.03,12.61-1.65,16.07c-1.68,3.46-10.41,18.79-10.41,18.79s6.69,5.36,14.43,3.33
			c7.74-2.03,15.81-11.34,16.66-13.46c0,0-12.53-9.65-12.84-10.43C1432.28,869.65,1426.41,856.14,1426.41,856.14z"/>
		<linearGradient id="SVGID_6_" gradientUnits="userSpaceOnUse" x1="1437.7427" y1="879.9835" x2="1439.6605" y2="793.6826">
			<stop  offset="0" style="stop-color:#3B342F"/>
			<stop  offset="0.8325" style="stop-color:#22211E"/>
		</linearGradient>
		<path class="st17" d="M1418.81,798.42l0.88-5.18c0,0,16.83,0.36,22.8,3.47s14.03,11.63,14.23,13.1c0.2,1.47,3.94,33.34,2.04,38.16
			c-1.9,4.82-2.26,10.25-2.6,11.18c-0.34,0.93-10.31,20.64-10.31,20.64l-1.71,0.33l-10.7-10.91c0,0,11.09-35.73,10.7-36.51
			c-0.39-0.79-3.38-22.02-3.85-22.96c-0.47-0.94-4.72-5.19-6.6-5.98C1431.8,802.98,1418.81,798.42,1418.81,798.42z"/>
		<linearGradient id="SVGID_7_" gradientUnits="userSpaceOnUse" x1="1436.8646" y1="869.2871" x2="1438.27" y2="806.047">
			<stop  offset="0" style="stop-color:#3B342F"/>
			<stop  offset="0.8325" style="stop-color:#22211E"/>
		</linearGradient>
		<path class="st18" d="M1430.08,810.37c-0.38,0.33,7.1,9.78,4.35,26.19s-2.79,15.3-2.75,16.41c0.05,1.11,0.52,13.93,0.52,13.93
			l1.25,2.31c0,0,8.99-13.36,10.06-16.64c1.07-3.28,2.09-15.16,2.35-23.18s-1.35-18.25-3.97-21.15
			C1437.7,803.61,1433.7,807.23,1430.08,810.37z"/>
		<linearGradient id="SVGID_8_" gradientUnits="userSpaceOnUse" x1="1428.5258" y1="818.1298" x2="1428.9594" y2="798.6219">
			<stop  offset="0" style="stop-color:#3B342F"/>
			<stop  offset="0.8325" style="stop-color:#22211E"/>
		</linearGradient>
		<path class="st19" d="M1419.7,798.42c0.16,0.31,17.46,3.67,21.23,8.83c0,0-3.5-2.23-6.5-0.21c-3,2.02-8.14,7.89-8.44,11.04
			l-9.35-11.9l1.84-6.49L1419.7,798.42z"/>
		<linearGradient id="SVGID_9_" gradientUnits="userSpaceOnUse" x1="1451.9872" y1="879.9349" x2="1454.5466" y2="764.7633">
			<stop  offset="0" style="stop-color:#3B342F"/>
			<stop  offset="0.8325" style="stop-color:#22211E"/>
		</linearGradient>
		<path class="st20" d="M1468.6,765.08c0,0,6.01,62.28-22.75,114.72c0,0,11.69-29.03,11.93-29.92c0.24-0.9,0.99-8.68,0.99-8.68
			s-1.53-27.18-1.56-27.58c-0.04-0.4-0.18-5.77-3.31-8.03c-3.13-2.26-11.4-8.87-11.4-8.87l-3.57-2.35l16.79-1.13
			c0,0,3.24-1.12,5.31-6.9C1463.1,780.57,1468.6,765.08,1468.6,765.08z"/>
		<linearGradient id="SVGID_10_" gradientUnits="userSpaceOnUse" x1="1421.8354" y1="747.5977" x2="1423.334" y2="680.1609">
			<stop  offset="0" style="stop-color:#3B342F"/>
			<stop  offset="0.8325" style="stop-color:#22211E"/>
		</linearGradient>
		<path class="st21" d="M1420.81,747.57c0,0,7.25-14.7,7.78-17.27s2.37-23.25,2.55-26.87c0.18-3.62-1.07-10.23-2.69-14.3
			c-1.62-4.07-3.71-8.76-5.31-8.96c-1.59-0.2-3.5,1.52-3.76,2.31c-0.25,0.79-5.05,26.83-5.05,26.83s-0.1,18.92,0,19.27
			S1420.81,747.57,1420.81,747.57z"/>
		<linearGradient id="SVGID_11_" gradientUnits="userSpaceOnUse" x1="1445.356" y1="788.533" x2="1446.786" y2="724.1809">
			<stop  offset="0" style="stop-color:#3B342F"/>
			<stop  offset="0.8325" style="stop-color:#22211E"/>
		</linearGradient>
		<path class="st22" d="M1447.73,724.2c0,0,7.27,8.84,8.29,14.3s2.26,14.96,0,20.76c-2.26,5.8-9.12,21.93-13.05,27.08l-0.47,2.13
			l-3.57-0.71l-2.72-1.42l-1.78-5.54l7.42-32.57c0,0,1.65-9.19,1.79-9.73s4.05-13.6,4.05-13.6L1447.73,724.2z"/>
		<linearGradient id="SVGID_12_" gradientUnits="userSpaceOnUse" x1="1455.3396" y1="793.095" x2="1457.0375" y2="716.6895">
			<stop  offset="0" style="stop-color:#3B342F"/>
			<stop  offset="0.8325" style="stop-color:#22211E"/>
		</linearGradient>
		<path class="st23" d="M1457.75,792.75l7.23-15.57l3.94-13.2l-3.38-33.43l-2.79-12.89c0,0-5.94-1.55-8.19-0.75
			c-2.25,0.8-5.23,2.01-5.81,3.91c-0.58,1.9-1.06,4.08-1.06,4.08s7.55,6.53,8.65,14.55c1.1,8.02,0.89,17.25-1.96,23.85
			c-2.84,6.6-6.54,19.94-11.88,25.17c0,0,8.7,3.67,9.17,3.82C1452.14,792.44,1455.55,793.7,1457.75,792.75z"/>
		<path class="st24" d="M1423.16,748.23c0,0,9.09-2.5,9.26-2.34c0.18,0.16,4.26,1.89,4.26,1.89l-2.25,2.13l-17.8,16.97l5.27-11.87
			v-5.94L1423.16,748.23z"/>
		<path class="st25" d="M1423.16,748.23c0.57,0.15,2.28,0.3,5.31,0c3.03-0.3,8.22-0.45,8.22-0.45l7.52-35.7l-3.11-2.78l-7.41,5.14
			c0,0-1.92,5.97-2.53,6.6c-0.6,0.63-6.89,25.16-6.89,25.16l-0.84,2.88L1423.16,748.23z"/>
		<path class="st26" d="M1438.34,889.1c0,0,2.27-3.88,1.64-5.61c-0.63-1.73-9.51-5.03-11.52-8.02c-2-2.99-1.72-7.39-1.72-7.39
			l0.39-40.1l-9.91-19.1c0,0,1.13-1.07,1.67-0.36c0.54,0.71,11.89,17.35,11.89,17.35l-0.08,2.75c0,0,1.42,36.17,1.57,38.06
			c0.16,1.89,4.34,6.64,5.42,7.77c1.08,1.14,7.73,6.43,7.73,6.43L1438.34,889.1z"/>
		<path class="st27" d="M1407.73,777.97c0.17-1.06,3.87-11.2,6.62-14.04c2.75-2.83,4.28-5.96,3.93-6.49
			c-0.35-0.52-7.2-22.6-7.2-22.6s-1.34-3.1-2.59-2.81c-1.25,0.29-12,5.2-11.95,6.45c0.05,1.26,3.75,5,4.08,5.67
			c0.33,0.66,5.43,11.53,5.71,12.17c0.28,0.64,1.35,9.61,1.4,10.55c0.06,0.94-1.12,11.56-1.12,11.56L1407.73,777.97z"/>
		<path class="st28" d="M1402.94,813.6c0,0-1.96,1.87-5.58,2.39c-3.62,0.51-8.31,1.32-8.31,1.32l-1.01-21.88l9.48,16.98
			C1397.52,812.41,1401.13,815.58,1402.94,813.6z"/>
		<path class="st28" d="M1440.07,676.23c0.15,0.79,14.48,6.58,22.68,41.43c0,0-5.08-2.04-8.19-0.75c-3.11,1.29-5.52,2.93-6.1,4.84
			s-7.65,29.63-8.39,31.16c-0.74,1.53-3.92,6.07-6.96,7.31c-3.04,1.24-13.42,10.67-13.42,10.67l-3.07-4.01c0,0,8.86-8.22,9.26-8.48
			c0.41-0.25,11.41-11.42,11.41-11.42s6.38-34.44,6.89-34.91C1444.7,711.61,1440.07,676.23,1440.07,676.23z"/>
		<path class="st29" d="M1421.74,752.67c0,0,8.6-17.47,9.41-27.38c0.81-9.91,2.68-10.81,4.65-11.38c1.98-0.57,8.39-1.83,8.39-1.83
			l-4.12-35.86l-17.8,3.36c0,0,8.9,10.17,9.06,20.23s-2.87,31.45-2.87,31.45s-8.05,16.29-7.82,16.97
			C1420.86,748.91,1421.74,752.67,1421.74,752.67z"/>
		<path class="st30" d="M1457.21,793.24c0,0-14.32,4.14-16.7,3.5c-2.38-0.64-19.87-3.75-19.87-3.75s0.38-7.09,0.79-8.72
			c0,0,1.89,0.46,2.36,0.46c0.47,0,18.3,3.73,18.3,3.73S1453.05,792.78,1457.21,793.24z"/>
		<path class="st30" d="M1442.63,742.49c0,0,5.31,10.24,1.56,22.27c-3.74,12.03-8.96,18.97-9.77,16.38s-3.28-17.85-3.28-17.85v-1.51
			l7.78-6.58c0,0,3.26-7.42,3.16-7.78c-0.1-0.35,0.14-3.3,0.14-3.3L1442.63,742.49z"/>
		<path class="st30" d="M1416.21,734.86c0,0,0.05-0.18,0.13-0.51c0.67-2.71,3.77-15.79,4.3-26.2c0.59-11.68-0.41-26.15-1.68-24.22
			c-1.27,1.93-6.19,39.32-6.19,39.32L1416.21,734.86z"/>
		<linearGradient id="SVGID_13_" gradientUnits="userSpaceOnUse" x1="1413.9945" y1="800.2957" x2="1414.7036" y2="768.3872">
			<stop  offset="0" style="stop-color:#3B342F"/>
			<stop  offset="0.8325" style="stop-color:#22211E"/>
		</linearGradient>
		<ellipse class="st31" cx="1414.35" cy="784.34" rx="5.35" ry="15.96"/>
		
			<linearGradient id="SVGID_14_" gradientUnits="userSpaceOnUse" x1="1420.0295" y1="895.8257" x2="1424.8639" y2="678.2793" gradientTransform="matrix(0.9908 0.0328 -0.0337 1.0194 45.8089 -64.6627)">
			<stop  offset="0" style="stop-color:#95857A"/>
			<stop  offset="0.8325" style="stop-color:#796F66"/>
		</linearGradient>
		
			<ellipse transform="matrix(0.0331 -0.9995 0.9995 0.0331 597.51 2186.1545)" class="st32" cx="1428.6" cy="784.27" rx="110.48" ry="40.42"/>
		<linearGradient id="SVGID_15_" gradientUnits="userSpaceOnUse" x1="1425.4232" y1="748.5667" x2="1426.9639" y2="679.236">
			<stop  offset="0" style="stop-color:#6C5F5F"/>
			<stop  offset="0.8325" style="stop-color:#23181F"/>
		</linearGradient>
		<path class="st33" d="M1420.64,748.23c0,0,6.92-12.9,7.82-18.59c0.9-5.69,3.26-20.79,2.56-30.22c-0.71-9.44-5.46-18.21-8.75-19.84
			"/>
		<linearGradient id="SVGID_16_" gradientUnits="userSpaceOnUse" x1="1449.244" y1="788.9556" x2="1450.6904" y2="723.8707">
			<stop  offset="0" style="stop-color:#6C5F5F"/>
			<stop  offset="0.8325" style="stop-color:#23181F"/>
		</linearGradient>
		<path class="st34" d="M1447.73,724.2c1.46,1.17,11.13,11.31,9.24,27.12c-1.89,15.8-11.36,33.26-14.88,37.15"/>
		<linearGradient id="SVGID_17_" gradientUnits="userSpaceOnUse" x1="1400.188" y1="806.0093" x2="1401.6941" y2="738.2354">
			<stop  offset="0" style="stop-color:#6C5F5F"/>
			<stop  offset="0.8325" style="stop-color:#23181F"/>
		</linearGradient>
		<path class="st35" d="M1396.53,738.5c1.93,1.73,12.08,16.59,11.13,27.21c-0.94,10.61-3.3,24.53-7.31,30.19
			c-4.01,5.66-6.86,9.68-6.86,9.68"/>
		<linearGradient id="SVGID_18_" gradientUnits="userSpaceOnUse" x1="1410.2583" y1="879.5864" x2="1411.6982" y2="814.7928">
			<stop  offset="0" style="stop-color:#6C5F5F"/>
			<stop  offset="0.8325" style="stop-color:#23181F"/>
		</linearGradient>
		<path class="st36" d="M1410.35,815.09c0,0,6.27,7.78,4.86,23.9c-1.42,16.12-4.01,27.44-6.37,33.22s-2.77,7.15-2.77,7.15"/>
		<linearGradient id="SVGID_19_" gradientUnits="userSpaceOnUse" x1="1434.8496" y1="869.5513" x2="1436.2699" y2="805.638">
			<stop  offset="0" style="stop-color:#6C5F5F"/>
			<stop  offset="0.8325" style="stop-color:#23181F"/>
		</linearGradient>
		<path class="st37" d="M1433.45,869.21c0,0,11.02-13.4,11.72-23.3c0.71-9.91,1.14-31.15-3.09-37.4c-4.23-6.24-14.3,1.07-16.11,9.56
			"/>
		<linearGradient id="SVGID_20_" gradientUnits="userSpaceOnUse" x1="1434.0769" y1="787.7527" x2="1434.6528" y2="761.8367">
			<stop  offset="0" style="stop-color:#6C5F5F"/>
			<stop  offset="0.8325" style="stop-color:#23181F"/>
		</linearGradient>
		<path class="st38" d="M1431.15,761.78c0,0,0.5,18.05,6.55,25.73"/>
		<linearGradient id="SVGID_21_" gradientUnits="userSpaceOnUse" x1="1443.5139" y1="793.4611" x2="1445.2338" y2="716.0692">
			<stop  offset="0" style="stop-color:#95857A"/>
			<stop  offset="0.8325" style="stop-color:#796F66"/>
		</linearGradient>
		<path class="st39" d="M1468.6,763.3c-0.05,4.09-8.65,27.41-10.85,29.46c-2.2,2.04-12.11-2.99-14.47-3.93s-20.76-4.09-21.23-4.09
			c0,0-0.94-10.06-2.36-13.84l18.81-14.97c0,0,3.13-5.09,3.36-9.33s7.08-26.42,7.08-26.42s3.54-3.66,7.08-3.36
			c3.54,0.3,6.84-0.41,7.78,2.18C1464.75,721.6,1468.68,756.17,1468.6,763.3z"/>
		<linearGradient id="SVGID_22_" gradientUnits="userSpaceOnUse" x1="1436.4376" y1="880.4329" x2="1438.3832" y2="792.8878">
			<stop  offset="0" style="stop-color:#95857A"/>
			<stop  offset="0.8325" style="stop-color:#796F66"/>
		</linearGradient>
		<path class="st40" d="M1419.7,793.24c-0.11-1.29,21.23,2.9,24.3,4.78s12.03,9.44,12.74,11.79c0.71,2.36,2.59,33.5,1.89,37.03
			c-0.71,3.54-10.3,32.79-13.29,33.26c-2.99,0.47-12.66-10.85-13.13-13.21c-0.47-2.36-0.71-37.98-1.42-41.04
			s-14.15-20.29-14.15-20.29S1419.93,796,1419.7,793.24z"/>
		<linearGradient id="SVGID_23_" gradientUnits="userSpaceOnUse" x1="1411.8451" y1="891.0548" x2="1413.6918" y2="807.954">
			<stop  offset="0" style="stop-color:#95857A"/>
			<stop  offset="0.8325" style="stop-color:#796F66"/>
		</linearGradient>
		<path class="st41" d="M1415.69,808.76c2.86-2.5,9.85,14.98,11.06,18.05s-0.68,39.86-1.39,43.64s-10.06,19.2-10.77,20.15
			s-15.6-22.74-16.07-26.99c-0.47-4.25,1.61-30.19,2.55-34.2C1402,825.39,1413.65,810.53,1415.69,808.76z"/>
		<linearGradient id="SVGID_24_" gradientUnits="userSpaceOnUse" x1="1427.3446" y1="767.491" x2="1429.3794" y2="675.9224">
			<stop  offset="0" style="stop-color:#95857A"/>
			<stop  offset="0.8325" style="stop-color:#796F66"/>
		</linearGradient>
		<path class="st42" d="M1416.63,766.89c0,0,19.34-17.46,20.05-19.11c0.71-1.65,6.92-29.24,7.47-34.79
			c0.55-5.55-3.93-34.8-3.93-35.98c0-1.18-18.4,0.24-20.52,4.72c-2.12,4.48-7.48,37.74-6.93,41.52c0.56,3.77,9.05,28.07,9.05,28.78
			s-1.42,8.96-6.84,14.86"/>
		<linearGradient id="SVGID_25_" gradientUnits="userSpaceOnUse" x1="1402.0388" y1="814.8812" x2="1403.8942" y2="731.3879">
			<stop  offset="0" style="stop-color:#95857A"/>
			<stop  offset="0.8325" style="stop-color:#796F66"/>
		</linearGradient>
		<path class="st43" d="M1418.28,758.16c0,0-6.84-24.53-8.49-25.95c-1.65-1.42-13.21,4.72-15.1,8.49s-7.31,45.54-7.08,50.96
			c0.24,5.42,10.24,21.48,10.78,21.94c0.54,0.46,2.89,1.43,4.55,0s10.85-13.22,11.56-13.22"/>
	</g>
	<g>
		<linearGradient id="SVGID_26_" gradientUnits="userSpaceOnUse" x1="955.91" y1="1039.5607" x2="850.2149" y2="712.1277">
			<stop  offset="0" style="stop-color:#0C0B09"/>
			<stop  offset="0.8325" style="stop-color:#2B2B24"/>
		</linearGradient>
		<path class="st44" d="M1031.84,915.75c0.21,5.94-11.81,118.28-57.52,137.77c-12.22,5.21-70.21,1.33-83.68,0.92
			c-11.97-0.37-34.21-0.73-44.91-5.51c-46.38-20.74-47.56-71.91-45.13-140.28c3-84.15,57.19-150.78,121.05-148.82
			c10.78,0.33,47.7-3.33,57.22,0.61C1025.71,779.84,1029.34,845.81,1031.84,915.75z"/>
		
			<linearGradient id="SVGID_27_" gradientUnits="userSpaceOnUse" x1="981.6248" y1="1067.6935" x2="988.1732" y2="773.0151" gradientTransform="matrix(1.0388 0.0344 -0.0331 0.9995 -21.1325 -44.8759)">
			<stop  offset="0" style="stop-color:#0C0B09"/>
			<stop  offset="0.8325" style="stop-color:#2B2B24"/>
		</linearGradient>
		<path class="st45" d="M1032.02,910.68c-2.9,81.35-32.33,146.47-65.75,145.44s-58.15-67.81-55.26-149.16
			c2.9-81.35,32.33-146.47,65.75-145.44C1010.18,762.55,1034.92,829.33,1032.02,910.68z"/>
		<path class="st3" d="M969.07,938.65c0.12-1.48,11.2-5.62,12.61-5.78c1.4-0.16,13.73,45.85,12.54,47.08
			c-1.19,1.24-16.95,30.49-16.95,30.49s-6.55-38.84-6.64-44.68S969.07,938.65,969.07,938.65z"/>
		<path class="st4" d="M929.1,858.19c0,0,11.68,13.8,11.04,16.24c-0.64,2.44-2.89,43.08-2.89,43.08l-14.62,4.62
			c0,0-1.23-8.71-1.11-12.69C921.65,905.47,929.1,858.19,929.1,858.19z"/>
		<path class="st5" d="M940.19,813.73c0.54-1.2,15.72-31.15,25.62-32.99c9.9-1.84,12.79-2.68,13.04-2.64
			c0.25,0.04,8.05,2.64,8.05,2.64s-23.66,1.84-25.64,6.25c-1.98,4.41-9.87,49.63-9.14,49.83c0.73,0.19-5.3,2.27-6.29,1.77
			c-0.99-0.5-7.72-7.48-7.72-7.48L940.19,813.73z"/>
		<path class="st6" d="M942.29,809.22c-0.62,1.29-1.32,19.49-0.87,22.44c0.46,2.94,11.13,1.78,11.13,1.78l13.07,38.48
			c0,0-9.95,16.54-10.51,17.46c-0.57,0.92-3.39,0.77-2.98-0.92s-17.65-33.64-17.65-33.64s-6.34,11.49-6.25,12.32
			c0.08,0.83-5.58,26.93-5.58,26.93s4.62-47.44,9.85-59.15C937.72,823.2,942.29,809.22,942.29,809.22z"/>
		<path class="st7" d="M975.68,880.75c0,0,1.91,23.11,6.96,29.84c5.05,6.73-17.02-0.58-17.02-0.58s-1.92-2.77-3.17-4.14
			c-1.25-1.36-2.29-16.32-2.29-16.32l14.16-7.8L975.68,880.75z"/>
		<path class="st8" d="M955.11,885.33c0,0,6.56,3.52,7.35,9.1s3.17,19.56,0.22,25.09c-2.95,5.52-4.64,9.93-6.78,9.74
			c-2.14-0.18-9.57-4.12-11.1-7.58c-1.53-3.45-5.1-15.65-4.6-18.56c0.5-2.91,9.32-14.67,9.32-14.67L955.11,885.33z"/>
		<path class="st9" d="M946.21,899.67c0,0,0,13.65,0,15.85c0,3.08,2.88,7.51,2.88,7.51l5.45,3.52l-9.75,9.72
			c0,0-4.62,5.63-6.08,5.77s-5.32-1.52-7.58-5.56c-2.26-4.04-2.83-8.42-2.83-8.42l13.65-28.4H946.21z"/>
		<path class="st10" d="M940.19,956.09c0,0-2.47,2.54-3.04,8.28c-0.57,5.75-2.54,35.38-2.54,35.38s-9.76-27.44-9.75-36.92
			c0-9.49-0.83-10.96,3.45-10.96C932.58,951.87,940.19,956.09,940.19,956.09z"/>
		<linearGradient id="SVGID_28_" gradientUnits="userSpaceOnUse" x1="921.4486" y1="892.91" x2="947.9927" y2="892.91">
			<stop  offset="0" style="stop-color:#3B342F"/>
			<stop  offset="0.8325" style="stop-color:#22211E"/>
		</linearGradient>
		<path class="st46" d="M932.49,853.88c1.32,1.5,17.35,21.34,15.32,29.52s-7.57,32.27-7.57,32.27l-11.94,16.27l-6.86-11.87
			c0,0,11.95-28.19,11.05-39.33c-0.9-11.13-4.19-12.79-4.19-12.79s-1.18-9.63,1.5-11.86C932.49,853.88,932.49,853.88,932.49,853.88z
			"/>
		<path class="st12" d="M924.4,959.78l12.86-1.1l18.97-23.02l3.93,2.11l-0.67-3.33c0,0-2.1-2.75-1.72-3.49
			c0.38-0.74,3.5-13.42,3.5-13.42s-3.36,6.98-6.73,8.44c-3.36,1.47-13.26,14.89-13.26,14.89s-3.72,1.39-4.03,1.35
			c-0.31-0.04-3.41-0.59-5.13-0.88c-1.72-0.29-4.29-0.81-5.08,0c-0.79,0.81-4.47,1.24-4.4,2.79
			C922.72,945.65,924.4,959.78,924.4,959.78z"/>
		<path class="st13" d="M955.89,953.61c1.76,0.95,14.58,9.62,14.59,9.2c0.01-0.42,0.88-4.63,0.88-4.59c0,0.04-11.2-20.46-11.2-20.46
			l-2.75-2.33l-7.89,7.62l5.28,12.14L955.89,953.61z"/>
		<path class="st14" d="M954.54,952.88c0.79,0.41,9.25,5.1,11.77,5.79c2.52,0.69,4.17-0.36,4.23,1.23
			c0.06,1.59-1.4,45.78-2.15,47.85c-0.75,2.07-9.5,3.58-10.98,2.07c-1.48-1.52-4.86-12.27-4.86-12.27s1.32-12.51,1.38-13.84
			c0.06-1.33,3.03-18.56,2.29-22.56S954.54,952.88,954.54,952.88z"/>
		<path class="st14" d="M954.54,979.94c-0.08,1.18-1.14,20.92,0.57,24.22c1.71,3.31,14.34-0.64,14.07,0
			c-0.27,0.64-1.62,6.09-2.98,8.49c-1.36,2.4-11.36,18.64-11.36,18.64s-11.19-12.34-11.56-12.92c-0.37-0.58,5.97-13.24,7.45-18.34
			C952.22,994.93,954.54,979.94,954.54,979.94z"/>
		<path class="st15" d="M949.52,943.05c0,0,4.42,6.7,5.28,12.14c0.86,5.44-0.09,34.34-2.24,40.43c-2.15,6.09-9.27,22.76-9.27,22.76
			l-8.81-16.87l3.35-41.73C937.82,959.78,945.21,948.01,949.52,943.05z"/>
		<linearGradient id="SVGID_29_" gradientUnits="userSpaceOnUse" x1="973.8644" y1="1036.3495" x2="974.869" y2="991.1466">
			<stop  offset="0" style="stop-color:#3B342F"/>
			<stop  offset="0.8325" style="stop-color:#22211E"/>
		</linearGradient>
		<path class="st47" d="M969.71,991.03c0,0,0.04,14.74-2.07,18.79c-2.12,4.05-13.1,21.97-13.1,21.97s8.41,6.27,18.16,3.89
			c9.74-2.38,19.89-13.25,20.96-15.73c0,0-15.76-11.27-16.16-12.19C977.1,1006.83,969.71,991.03,969.71,991.03z"/>
		<linearGradient id="SVGID_30_" gradientUnits="userSpaceOnUse" x1="984.0917" y1="1018.8976" x2="986.3323" y2="918.0706">
			<stop  offset="0" style="stop-color:#3B342F"/>
			<stop  offset="0.8325" style="stop-color:#22211E"/>
		</linearGradient>
		<path class="st48" d="M960.16,923.57l1.11-6.05c0,0,21.17,0.42,28.69,4.06c7.52,3.64,17.65,13.6,17.91,15.32
			s4.95,38.97,2.57,44.61c-2.38,5.63-2.84,11.98-3.28,13.06c-0.43,1.09-12.97,24.13-12.97,24.13l-2.15,0.38l-13.46-12.76
			c0,0,13.96-41.76,13.46-42.68s-4.25-25.73-4.85-26.84c-0.59-1.1-5.94-6.07-8.31-6.98C976.5,928.9,960.16,923.57,960.16,923.57z"/>
		<linearGradient id="SVGID_31_" gradientUnits="userSpaceOnUse" x1="982.968" y1="1006.4139" x2="984.6109" y2="932.4853">
			<stop  offset="0" style="stop-color:#3B342F"/>
			<stop  offset="0.8325" style="stop-color:#22211E"/>
		</linearGradient>
		<path class="st49" d="M974.33,937.54c-0.48,0.39,8.93,11.43,5.47,30.61c-3.46,19.18-3.52,17.89-3.46,19.18
			c0.06,1.29,0.66,16.28,0.66,16.28l1.57,2.7c0,0,11.31-15.61,12.66-19.44c1.35-3.83,2.63-17.72,2.95-27.09
			c0.32-9.37-1.7-21.34-4.99-24.72C983.92,929.63,978.89,933.87,974.33,937.54z"/>
		<linearGradient id="SVGID_32_" gradientUnits="userSpaceOnUse" x1="972.4008" y1="946.6138" x2="972.9072" y2="923.8238">
			<stop  offset="0" style="stop-color:#3B342F"/>
			<stop  offset="0.8325" style="stop-color:#22211E"/>
		</linearGradient>
		<path class="st50" d="M961.27,923.57c0.2,0.37,21.97,4.29,26.72,10.32c0,0-4.41-2.61-8.18-0.25s-10.24,9.22-10.62,12.9
			l-11.77-13.91l2.31-7.59L961.27,923.57z"/>
		<linearGradient id="SVGID_33_" gradientUnits="userSpaceOnUse" x1="1002.0751" y1="1018.8671" x2="1005.0677" y2="884.2002">
			<stop  offset="0" style="stop-color:#3B342F"/>
			<stop  offset="0.8325" style="stop-color:#22211E"/>
		</linearGradient>
		<path class="st51" d="M1022.8,884.59c0,0,7.56,72.8-28.62,134.1c0,0,14.71-33.93,15.01-34.98c0.3-1.05,1.24-10.15,1.24-10.15
			s-1.92-31.77-1.97-32.24c-0.05-0.47-0.22-6.74-4.16-9.38c-3.94-2.64-14.34-10.36-14.34-10.36l-4.5-2.74l21.12-1.32
			c0,0,4.07-1.31,6.68-8.06S1022.8,884.59,1022.8,884.59z"/>
		<linearGradient id="SVGID_34_" gradientUnits="userSpaceOnUse" x1="964.0428" y1="864.1684" x2="965.7946" y2="785.3387">
			<stop  offset="0" style="stop-color:#3B342F"/>
			<stop  offset="0.8325" style="stop-color:#22211E"/>
		</linearGradient>
		<path class="st52" d="M962.67,864.14c0,0,9.12-17.18,9.79-20.19c0.67-3.02,2.98-27.18,3.21-31.41c0.23-4.23-1.35-11.96-3.38-16.72
			c-2.03-4.75-4.67-10.24-6.68-10.48s-4.41,1.78-4.72,2.7c-0.32,0.92-6.36,31.36-6.36,31.36s-0.13,22.11,0,22.52
			C954.67,842.34,962.67,864.14,962.67,864.14z"/>
		<linearGradient id="SVGID_35_" gradientUnits="userSpaceOnUse" x1="993.5972" y1="912.0197" x2="995.269" y2="836.7894">
			<stop  offset="0" style="stop-color:#3B342F"/>
			<stop  offset="0.8325" style="stop-color:#22211E"/>
		</linearGradient>
		<path class="st53" d="M996.53,836.82c0,0,9.14,10.33,10.43,16.71c1.29,6.39,2.84,17.49,0,24.26
			c-2.84,6.78-11.47,25.63-16.41,31.66l-0.59,2.49l-4.5-0.83l-3.42-1.66l-2.24-6.47l9.34-38.07c0,0,2.07-10.74,2.26-11.38
			c0.18-0.63,5.09-15.9,5.09-15.9L996.53,836.82z"/>
		<linearGradient id="SVGID_36_" gradientUnits="userSpaceOnUse" x1="1006.1473" y1="917.3457" x2="1008.132" y2="828.0349">
			<stop  offset="0" style="stop-color:#3B342F"/>
			<stop  offset="0.8325" style="stop-color:#22211E"/>
		</linearGradient>
		<path class="st54" d="M1009.15,916.95l9.1-18.2l4.96-15.43l-4.26-39.08l-3.51-15.07c0,0-7.47-1.81-10.31-0.87
			c-2.84,0.94-6.58,2.34-7.31,4.57c-0.73,2.22-1.34,4.77-1.34,4.77s9.5,7.63,10.88,17c1.38,9.37,1.11,20.17-2.46,27.88
			s-8.22,23.31-14.95,29.42c0,0,10.95,4.3,11.54,4.47C1002.09,916.58,1006.38,918.05,1009.15,916.95z"/>
		<path class="st24" d="M965.62,864.91c0,0,11.43-2.92,11.65-2.74c0.22,0.18,5.36,2.21,5.36,2.21l-2.84,2.49l-22.39,19.84
			l6.63-13.87v-6.94L965.62,864.91z"/>
		<path class="st25" d="M965.62,864.91c0.72,0.17,2.87,0.35,6.68,0c3.81-0.35,10.34-0.53,10.34-0.53l9.46-41.73l-3.92-3.24
			l-9.32,6.01c0,0-2.42,6.98-3.18,7.71c-0.76,0.74-8.67,29.41-8.67,29.41l-1.06,3.36L965.62,864.91z"/>
		<path class="st26" d="M984.73,1029.57c0,0,2.86-4.54,2.06-6.56c-0.79-2.02-11.97-5.88-14.49-9.37c-2.52-3.49-2.16-8.64-2.16-8.64
			l0.49-46.87l-12.47-22.33c0,0,1.42-1.26,2.1-0.43c0.68,0.83,14.95,20.27,14.95,20.27l-0.1,3.22c0,0,1.78,42.28,1.98,44.48
			c0.2,2.21,5.46,7.76,6.83,9.09s9.73,7.52,9.73,7.52L984.73,1029.57z"/>
		<path class="st27" d="M946.21,899.67c0.22-1.24,4.87-13.1,8.33-16.41c3.46-3.31,5.38-6.97,4.95-7.58
			c-0.44-0.61-9.06-26.41-9.06-26.41s-1.69-3.62-3.26-3.28c-1.58,0.34-15.1,6.07-15.04,7.54c0.06,1.47,4.72,5.85,5.13,6.62
			c0.42,0.78,6.84,13.47,7.19,14.22c0.35,0.75,1.69,11.23,1.76,12.33c0.07,1.1-1.41,13.51-1.41,13.51L946.21,899.67z"/>
		<path class="st28" d="M940.19,941.32c0,0-2.47,2.19-7.02,2.79c-4.55,0.6-10.45,1.55-10.45,1.55l-1.27-25.58l11.92,19.85
			C933.37,939.92,937.91,943.62,940.19,941.32z"/>
		<path class="st28" d="M986.9,780.74c0.18,0.92,18.21,7.7,28.54,48.42c0,0-6.4-2.38-10.31-0.87c-3.91,1.51-6.94,3.42-7.67,5.66
			c-0.73,2.24-9.62,34.64-10.56,36.43c-0.94,1.79-4.94,7.09-8.76,8.54c-3.82,1.45-16.88,12.48-16.88,12.48l-3.86-4.69
			c0,0,11.15-9.61,11.66-9.91s14.36-13.35,14.36-13.35s8.03-40.26,8.67-40.81S986.9,780.74,986.9,780.74z"/>
		<path class="st29" d="M963.84,870.09c0,0,10.81-20.42,11.84-32s3.37-12.64,5.86-13.3s10.56-2.14,10.56-2.14l-5.19-41.91
			l-22.39,3.93c0,0,11.2,11.88,11.4,23.65c0.2,11.76-3.61,36.76-3.61,36.76s-10.12,19.04-9.84,19.83
			C962.74,865.7,963.84,870.09,963.84,870.09z"/>
		<path class="st30" d="M1008.47,917.51c0,0-18.02,4.84-21.02,4.1c-3-0.75-24.99-4.38-24.99-4.38s0.48-8.29,0.99-10.19
			c0,0,2.37,0.54,2.97,0.54s23.03,4.37,23.03,4.37S1003.23,916.98,1008.47,917.51z"/>
		<path class="st30" d="M990.13,858.19c0,0,6.68,11.97,1.97,26.03c-4.71,14.06-11.27,22.17-12.29,19.15
			c-1.02-3.02-4.12-20.86-4.12-20.86v-1.77l9.78-7.69c0,0,4.1-8.68,3.98-9.09s0.17-3.86,0.17-3.86L990.13,858.19z"/>
		<path class="st30" d="M956.89,849.27c0,0,0.06-0.21,0.16-0.59c0.84-3.17,4.75-18.45,5.41-30.62c0.74-13.65-0.52-30.56-2.11-28.31
			c-1.59,2.25-7.79,45.96-7.79,45.96L956.89,849.27z"/>
		<linearGradient id="SVGID_37_" gradientUnits="userSpaceOnUse" x1="954.1274" y1="925.7623" x2="954.9562" y2="888.465">
			<stop  offset="0" style="stop-color:#3B342F"/>
			<stop  offset="0.8325" style="stop-color:#22211E"/>
		</linearGradient>
		<ellipse class="st55" cx="954.54" cy="907.11" rx="6.73" ry="18.66"/>
		
			<linearGradient id="SVGID_38_" gradientUnits="userSpaceOnUse" x1="963.8474" y1="1049.2141" x2="969.4953" y2="795.0578" gradientTransform="matrix(0.9908 0.0328 -0.0337 1.0194 45.8089 -64.6627)">
			<stop  offset="0" style="stop-color:#95857A"/>
			<stop  offset="0.8325" style="stop-color:#796F66"/>
		</linearGradient>
		
			<ellipse transform="matrix(0.0365 -0.9993 0.9993 0.0365 30.5575 1845.7632)" class="st56" cx="972.47" cy="907.03" rx="129.15" ry="50.84"/>
		<linearGradient id="SVGID_39_" gradientUnits="userSpaceOnUse" x1="968.5153" y1="865.2832" x2="970.3141" y2="784.3356">
			<stop  offset="0" style="stop-color:#6C5F5F"/>
			<stop  offset="0.8325" style="stop-color:#23181F"/>
		</linearGradient>
		<path class="st57" d="M962.46,864.91c0,0,8.7-15.08,9.84-21.73c1.14-6.65,4.11-24.3,3.22-35.33c-0.89-11.03-6.87-21.28-11-23.19"
			/>
		<linearGradient id="SVGID_40_" gradientUnits="userSpaceOnUse" x1="998.4769" y1="912.4804" x2="1000.1655" y2="836.4908">
			<stop  offset="0" style="stop-color:#6C5F5F"/>
			<stop  offset="0.8325" style="stop-color:#23181F"/>
		</linearGradient>
		<path class="st58" d="M996.53,836.82c1.83,1.37,14,13.22,11.63,31.69c-2.37,18.47-14.29,38.88-18.72,43.43"/>
		<linearGradient id="SVGID_41_" gradientUnits="userSpaceOnUse" x1="936.7611" y1="932.4219" x2="938.5198" y2="853.2818">
			<stop  offset="0" style="stop-color:#6C5F5F"/>
			<stop  offset="0.8325" style="stop-color:#23181F"/>
		</linearGradient>
		<path class="st59" d="M932.12,853.53c2.43,2.02,15.2,19.39,14.01,31.8c-1.19,12.41-4.15,28.68-9.2,35.29
			c-5.05,6.62-8.63,11.32-8.63,11.32"/>
		<linearGradient id="SVGID_42_" gradientUnits="userSpaceOnUse" x1="949.4384" y1="1018.4404" x2="951.1204" y2="942.7492">
			<stop  offset="0" style="stop-color:#6C5F5F"/>
			<stop  offset="0.8325" style="stop-color:#23181F"/>
		</linearGradient>
		<path class="st60" d="M949.52,943.05c0,0,7.89,9.1,6.11,27.94c-1.78,18.84-5.05,32.08-8.01,38.83c-2.97,6.76-3.49,8.36-3.49,8.36"
			/>
		<linearGradient id="SVGID_43_" gradientUnits="userSpaceOnUse" x1="980.4184" y1="1006.6803" x2="982.076" y2="932.0869">
			<stop  offset="0" style="stop-color:#6C5F5F"/>
			<stop  offset="0.8325" style="stop-color:#23181F"/>
		</linearGradient>
		<path class="st61" d="M978.57,1006.32c0,0,13.86-15.66,14.75-27.24c0.89-11.58,1.44-36.41-3.88-43.71s-18,1.25-20.26,11.18"/>
		<linearGradient id="SVGID_44_" gradientUnits="userSpaceOnUse" x1="979.3983" y1="911.0545" x2="980.0702" y2="880.8181">
			<stop  offset="0" style="stop-color:#6C5F5F"/>
			<stop  offset="0.8325" style="stop-color:#23181F"/>
		</linearGradient>
		<path class="st62" d="M975.68,880.75c0,0,0.63,21.1,8.24,30.08"/>
		<linearGradient id="SVGID_45_" gradientUnits="userSpaceOnUse" x1="991.2964" y1="917.6656" x2="993.303" y2="827.373">
			<stop  offset="0" style="stop-color:#95857A"/>
			<stop  offset="0.8325" style="stop-color:#796F66"/>
		</linearGradient>
		<path class="st63" d="M1022.8,882.52c-0.06,4.78-10.88,32.04-13.65,34.43c-2.77,2.39-15.23-3.49-18.2-4.6
			c-2.97-1.1-26.12-4.78-26.71-4.78c0,0-1.19-11.76-2.97-16.18l23.67-17.49c0,0,3.94-5.94,4.23-10.91c0.3-4.96,8.9-30.88,8.9-30.88
			s4.45-4.28,8.9-3.93c4.45,0.35,8.61-0.48,9.79,2.55S1022.9,874.19,1022.8,882.52z"/>
		<linearGradient id="SVGID_46_" gradientUnits="userSpaceOnUse" x1="982.4476" y1="1019.334" x2="984.7167" y2="917.2211">
			<stop  offset="0" style="stop-color:#95857A"/>
			<stop  offset="0.8325" style="stop-color:#796F66"/>
		</linearGradient>
		<path class="st64" d="M961.27,917.51c-0.14-1.51,26.71,3.39,30.57,5.59c3.86,2.21,15.14,11.03,16.03,13.79
			c0.89,2.76,3.26,39.15,2.37,43.29c-0.89,4.14-12.96,38.33-16.72,38.88c-3.76,0.55-15.93-12.68-16.52-15.44
			c-0.59-2.76-0.89-44.39-1.78-47.98c-0.89-3.58-17.81-23.71-17.81-23.71S961.57,920.74,961.27,917.51z"/>
		<linearGradient id="SVGID_47_" gradientUnits="userSpaceOnUse" x1="951.4757" y1="1031.7609" x2="953.6306" y2="934.7913">
			<stop  offset="0" style="stop-color:#95857A"/>
			<stop  offset="0.8325" style="stop-color:#796F66"/>
		</linearGradient>
		<path class="st65" d="M956.22,935.65c3.6-2.92,12.4,17.51,13.92,21.09c1.52,3.58-0.86,46.6-1.75,51.01
			c-0.89,4.41-12.66,22.45-13.55,23.55c-0.89,1.1-19.63-26.58-20.22-31.55c-0.59-4.96,2.02-35.29,3.21-39.98
			C939.01,955.09,953.66,937.73,956.22,935.65z"/>
		<linearGradient id="SVGID_48_" gradientUnits="userSpaceOnUse" x1="970.9922" y1="887.402" x2="973.3689" y2="780.4495">
			<stop  offset="0" style="stop-color:#95857A"/>
			<stop  offset="0.8325" style="stop-color:#796F66"/>
		</linearGradient>
		<path class="st66" d="M957.41,886.71c0,0,24.34-20.4,25.23-22.33s8.71-34.17,9.4-40.66c0.69-6.49-4.95-40.68-4.95-42.06
			s-23.15,0.28-25.82,5.51c-2.67,5.24-9.42,44.12-8.72,48.53s11.39,32.81,11.39,33.64s-1.78,10.48-8.61,17.37"/>
		<linearGradient id="SVGID_49_" gradientUnits="userSpaceOnUse" x1="939.1369" y1="942.731" x2="941.3022" y2="845.2896">
			<stop  offset="0" style="stop-color:#95857A"/>
			<stop  offset="0.8325" style="stop-color:#796F66"/>
		</linearGradient>
		<path class="st67" d="M959.49,876.51c0,0-8.61-28.68-10.68-30.33s-16.62,5.51-18.99,9.93c-2.37,4.41-9.2,53.23-8.9,59.56
			c0.3,6.33,12.89,25.11,13.57,25.65s3.64,1.67,5.72,0c2.08-1.67,13.66-15.46,14.55-15.46"/>
	</g>
	<path class="st68" d="M1192.77,577.94c0,0-129.6-40.12-142.2-39.59c-12.6,0.53-447.42,5.01-447.42,5.01l-45.49,10.83
		c0,0-42.13,14.25-60.23,21.39c-18.1,7.14-158.57,79.26-159.28,80.32c-0.71,1.06-21.23,22.65-21.23,22.65l238.24,109.92
		l302.88-31.76c0,0,279.68-36.68,282.77-39.89c3.09-3.2,80.58-60.92,80.58-60.92L1192.77,577.94z M376.76,640.53l-25.37,15.41
		l8.7,16.04l-28.62-1.34l-1.57-5.19c0,0,113.23-64.55,104.77-55.42c-8.46,9.13-45.6,55.42-45.6,55.42L376.76,640.53z M667.05,552.86
		c0,0-35.85,39.22-40.88,48.19c0,0-67.62,27.08-72.65,30.29c-5.03,3.21-155.37,45.04-155.37,45.04l-2.52-2.2
		c0,0,33.02-54.59,49.69-65.04C462,598.7,625.86,551.06,650.7,547.83C675.55,544.6,667.05,552.86,667.05,552.86z M889.74,577.94
		c0,0-32.73-14.93-37.84-15.56c-0.34-0.01-0.53-0.01-0.53-0.01c0.11-0.03,0.3-0.02,0.53,0.01c6.25,0.1,66.91,1.04,69.3-0.01
		C923.7,561.27,889.74,577.94,889.74,577.94z M1096.47,585.68c-7.77-1.07-35.5-17.36-41.75-15.76l3.74-7.6l44.6,0.05l24.45,20.88
		C1127.51,583.25,1104.24,586.75,1096.47,585.68z"/>
	<path class="st69" d="M948.86,694.63"/>
	<linearGradient id="SVGID_50_" gradientUnits="userSpaceOnUse" x1="992.4152" y1="559.4172" x2="1093.0602" y2="720.4493">
		<stop  offset="0.6362" style="stop-color:#240334"/>
		<stop  offset="0.7444" style="stop-color:#010000"/>
	</linearGradient>
	<path class="st70" d="M1121.53,553.33l-108.96,13.92c0,0-49.87,42.03-49.87,47.06c0,5.03-32.24,70.77-31.29,73.6
		c0.94,2.83,20.29,15.57,22.17,17.46c1.89,1.89,80.12,6.26,80.12,6.26l4.27-11.39l-2.3-3.72c0,0-12.15,6.96-15.33,8.14
		c0,0-27.13-57.32-50.09-76.19c0,0,30.18-60.66,132.81-66.1l44.73,70.35l-93.24,55.2l3.3,5.35l115.99-69.74L1121.53,553.33z
		 M1012.71,705.37c0,0-46.23-6.13-56.93-12.11c0,0-4.49-43.88,12.07-60.78C967.85,632.48,999.5,669.67,1012.71,705.37z"/>
	<path class="st69" d="M314.57,620.7c0,0-1.52,2.34,0.24,3.21c1.76,0.86,19.28,4.58,20.22,4.87s31.26,2.89,32.08,2.54
		s18.22-2.06,18.22-2.06s3.66-1.77,3.48-2.06c-0.18-0.29-4.89-4.01-6.72-4.84s-26.36-4.72-33.26-5.48
		C341.93,616.1,314.57,620.7,314.57,620.7z"/>
	<path class="st71" d="M314.57,623.86l23.2,3.93l50.32-0.86l-16.12,10.38c0,0-22.65,10.74-22.02,9.51c0.63-1.23-1.02-9.51-1.02-9.51
		S319.76,628.89,314.57,623.86z"/>
	<path class="st72" d="M336.86,626.3c0,0,49.97,0.08,52.01-1.02c2.04-1.1-12.34-24.06-15.92-24.22c-3.58-0.16-21.19,4.88-21.51,5.5
		s-8.33,13.37-8.81,13.84C342.16,620.87,336.86,626.3,336.86,626.3z"/>
	<path class="st73" d="M314.57,620.99c0,0,17.81,5.54,22.29,5.31c0,0,33.5-24.41,36.09-25.24c2.59-0.83-4.36-0.94-4.36-0.94
		l-36.68-1.06C331.9,599.05,317.4,609.43,314.57,620.99z"/>
	<linearGradient id="SVGID_51_" gradientUnits="userSpaceOnUse" x1="303.1955" y1="704.0827" x2="903.1037" y2="704.0827">
		<stop  offset="0" style="stop-color:#370048"/>
		<stop  offset="0.5183" style="stop-color:#1C2024"/>
		<stop  offset="1" style="stop-color:#310442"/>
	</linearGradient>
	<path class="st74" d="M311.54,666.14c0,0,2.17,2.65,6.03,3.07c3.86,0.42,13.9,1.43,13.9,1.43l105.11,14.51
		c0,0,245.34,14.98,299.08,14.04s167.44-2.6,167.44-2.6s-7.3,15.88-10.73,19.38c-3.43,3.51-227.59,26.12-228.74,26.06
		c-1.15-0.07-177.5-14.56-196.45-13.63s-110.76-14.09-127.56-17.16c-16.8-3.08-37.56-8.28-36.38-14.64
		C304.42,690.22,311.54,666.14,311.54,666.14z"/>
	<linearGradient id="SVGID_52_" gradientUnits="userSpaceOnUse" x1="315.5097" y1="612.4141" x2="557.6612" y2="612.4141">
		<stop  offset="0" style="stop-color:#9D3EBB"/>
		<stop  offset="0.5159" style="stop-color:#9D41BC"/>
		<stop  offset="1" style="stop-color:#E058CE"/>
	</linearGradient>
	<path class="st75" d="M315.51,668.99l15.33,1.65c0,0,153.09-96.2,226.82-116.46C557.66,554.18,407.62,600.92,315.51,668.99z"/>
	<path class="st76" d="M870.1,521.24c1.4,0.09,75.46,4.1,75.46,4.1s-63.45,18.35-64.4,18.02c-0.94-0.33-67.46,4.04-70.06,4.45
		c-2.59,0.41-74.46-5.02-75.44-5.72c-0.98-0.71-20.09-8.02-5.94-12.27c14.15-4.25,120.3-9.23,120.3-9.23L870.1,521.24z"/>
	<linearGradient id="SVGID_53_" gradientUnits="userSpaceOnUse" x1="725.9374" y1="533.4982" x2="870.0997" y2="533.4982">
		<stop  offset="0" style="stop-color:#77379F"/>
		<stop  offset="0.8753" style="stop-color:#673595"/>
	</linearGradient>
	<path class="st77" d="M752.84,538.35c0,0,67.98-17.44,117.26-17.11c0,0-36.58-2.27-39.41-2.03c-2.83,0.24-91.76,4.48-93.18,5.9
		s-12.03,13.68-11.56,14.86c0.47,1.18,9.44,8.86,13.21,7.73C742.94,546.57,752.84,538.35,752.84,538.35z"/>
	<linearGradient id="SVGID_54_" gradientUnits="userSpaceOnUse" x1="556.3501" y1="543.3588" x2="1240.5714" y2="543.3588">
		<stop  offset="0" style="stop-color:#9D3EBB"/>
		<stop  offset="0.5159" style="stop-color:#9D41BC"/>
		<stop  offset="1" style="stop-color:#E058CE"/>
	</linearGradient>
	<path class="st78" d="M958.3,569.92c0,0-264.19-24.69-401.95-15.25c0,0,140.9-53.47,315.14-33.34c0,0-84.72-6.21-130.43,17.02
		c0,0,62.37,2.79,75.87,2.32c13.51-0.47,97.01-17.46,136.88-17.22c39.86,0.24,218.2,3.15,270.8,14.9s-41.28,3.92-46.47,5.01
		C1172.96,544.44,958.3,569.92,958.3,569.92z"/>
	<path class="st79" d="M1438.51,643.16c0.58-0.18,11.15-4.39,17.99,5.18s27.13,44.72,27.83,94.49s0-58.26,0-58.26l-8.37-47.41
		c0,0-20.55-9.13-21.21-9.26C1454.08,627.75,1438.51,643.16,1438.51,643.16z"/>
	<path class="st80" d="M1373.22,754.9c0,0,18.4-84.49,38.45-98.18c20.05-13.68,38.69-18.87,44.58-12.74
		c5.9,6.13,20.38,31.84,23.64,61.33s5.14,63.22,3.49,68.17c0,0,3.2,0.37,4.9-10.19c1.7-10.57,1.65-30.14,1.65-30.14l-2.54-46
		c0,0-1.99-40.73-4.72-45.72c-2.73-4.99-18.64-23.63-20.76-23.87c-2.12-0.24-25.95,1.65-32.08,4.01
		c-6.13,2.36-32.08,17.22-34.91,20.76c-2.83,3.54-17.22,36.33-19.11,40.57c-1.89,4.25-12.27,62.51-12.27,65.81
		S1373.22,754.9,1373.22,754.9z"/>
	<path class="st81" d="M1467.58,671.47c0.59,0.59,3.42,6.6,3.42,6.6l9.8-10.08l3.53-6.91l-3.83-8.3l-0.6,3.82
		c0,0-0.87,5.31-1.58,6.49C1477.61,664.28,1467.58,671.47,1467.58,671.47z"/>
	<path class="st82" d="M1478.12,659.66l-9.83,8.98v2.83c0,0,8.26-5.78,10.03-8.37c1.77-2.59,2.36-9.55,2.36-9.55L1478.12,659.66z"/>
	<linearGradient id="SVGID_55_" gradientUnits="userSpaceOnUse" x1="1507.6987" y1="664.2532" x2="1463.5568" y2="714.8209">
		<stop  offset="0" style="stop-color:#6641A9"/>
		<stop  offset="0.6699" style="stop-color:#56277C"/>
	</linearGradient>
	<path class="st83" d="M1480.5,652.79c0,0,2.3,12.59,0,15.73c0,0,11.22,76.11,7.45,97.19c0,0,3.83-134.93,1.99-159.93
		c0,0-8.08,15.57-9.44,16.98C1479.14,624.17,1480.5,652.79,1480.5,652.79z"/>
	<linearGradient id="SVGID_56_" gradientUnits="userSpaceOnUse" x1="1182.1862" y1="548.2905" x2="1033.1057" y2="719.0725">
		<stop  offset="0" style="stop-color:#C789E3"/>
		<stop  offset="0.5159" style="stop-color:#9D41BC"/>
		<stop  offset="1" style="stop-color:#E058CE"/>
	</linearGradient>
	<path class="st84" d="M948.89,696.73c0,0-1.47-53.65,13.82-76.01c15.28-22.36,68.56-58.34,68.56-58.34s83.23-6.61,85.33-9.04
		c2.1-2.44,124.47,9.62,125.95,9.87s60.47,6.72,60.47,6.72l67.56-2.32c0,0-27.31-6.18-39.57-7.36c0,0-81.77-25.24-131.47-28.07
		s-199.72-4.72-241.23,37.74c-41.52,42.46-60.86,130.68-60.86,130.68l27.83,6.13L948.89,696.73z"/>
	<linearGradient id="SVGID_57_" gradientUnits="userSpaceOnUse" x1="1274.8613" y1="585.6779" x2="1454.7428" y2="585.6779">
		<stop  offset="0" style="stop-color:#E058CE"/>
		<stop  offset="0.5159" style="stop-color:#AB4ECC"/>
		<stop  offset="1" style="stop-color:#8839B3"/>
	</linearGradient>
	<path class="st85" d="M1274.86,562.37c0,0,137.76,0,174.56,25s-129.21,21.43-129.21,21.43l-42.29-36.14L1274.86,562.37z"/>
	<path class="st86" d="M1439.2,584.12c0,0-36.25,1.29-52.52,4.98s-62.75,16.2-62.75,16.2s0.71,5.5,1.54,4.88
		c0.82-0.63,68.52-11.7,73-13c4.48-1.31,44.35-8.33,44.35-8.33L1439.2,584.12"/>
	<path class="st87" d="M1328.8,604.12v4.81c0,0-87.68,32.68-88.19,31.82c-0.51-0.86-116.28,12.03-116.28,12.03l42.49-28.3
		l-52.84-69.82c0,0,74.85,0.31,75.8,0c0.94-0.31,88.66,14.47,90.72,15.25C1282.57,570.71,1328.8,604.12,1328.8,604.12z"/>
	<path class="st88" d="M1220.92,601.21l-52.68,23.67l-51.64-66.87c0,0,43.48-5.5,43.79-4.58c0.31,0.92,56.33,9.71,56.33,9.71
		l7.9,32.02L1220.92,601.21z"/>
	<path d="M1121.53,558.95c0.24,0.12,5.19,2.01,5.19,2.01l48.12,61.8h-6.13L1121.53,558.95z"/>
	<polygon points="1130.26,558.95 1135.45,560.01 1180.27,618.75 1176.5,618.75 	"/>
	<path d="M1138.52,558.95c0.94,0.12,5.19,0,5.19,0l42.46,56.73h-4.48L1138.52,558.95z"/>
	<path d="M1148.19,560.25c0.24,0,5.19,0,5.19,0l39.39,52.84h-5.66L1148.19,560.25z"/>
	<polygon points="1156.76,560.25 1163.52,561.59 1199.53,610.18 1193.56,610.18 	"/>
	<path d="M1174.85,557.58l16.51,4.79c0,0,27.68,32.55,29.56,38.84l96.56-1.26l-48.37-33.37l-95.27-11.93L1174.85,557.58z"/>
	<polygon points="1235.79,677.1 1259.61,652.71 1358.37,664.9 1253.75,818.07 1173.83,800.75 	"/>
	<path class="st89" d="M1251.74,667.02l-48.44,133.28l-7.71,8.45c0,0-16.66-42.58-11.87-49.65s44.02-89.17,44.02-89.17
		L1251.74,667.02z"/>
	<path class="st90" d="M1238.65,682.38l-41.16,119.49l-63.21-4.09c0,0-25.51-27.36-25.26-29.25s54.78-61.33,61.01-66.99
		c6.23-5.66,68.62-26.54,68.62-26.54V682.38z"/>
	<path class="st91" d="M1263.39,661.16c-1.25-0.03-26.11,22.45-26.11,22.45s-100.28,65.57-120.12,88.93
		c-19.84,23.35-25.4-8.82-16.73-15.16s77.76-80.69,89.85-90.44c12.09-9.75,79.71-14.33,80.65-14.24
		C1271.87,652.8,1263.39,661.16,1263.39,661.16z"/>
	<path class="st92" d="M1249.79,787.09c0,0,45.83-82.74,49.6-123.07c3.77-40.32,47.65,9.8,47.65,9.8s-13.21,95.65-16.04,98.72
		c-2.83,3.07-36.8,48.83-38.69,48.83s-36.68-4.23-37.27-7.77C1254.46,810.06,1249.79,787.09,1249.79,787.09z"/>
	<path class="st93" d="M1277.92,798.68l-29.95-12.34l-40.06-2.71l-4.6,16.67c0,0,1.97,10.06,4.6,10.69
		c2.63,0.63,60.19,9.12,62.71,9.12s7.3-20.13,7.3-20.13"/>
	<path class="st94" d="M1235.79,811.19c0,0,39.86-14.66,41.11-15.92s33.34-57.56,41.2-106.62l4.09-21.7c0,0-42.8-6.26-64.49-5.8
		c-21.69,0.46,25.8-4.03,28.32-5.24c2.52-1.22,46.55-1.53,46.55-1.53s10.38,18.16,10.38,19.46s-21.86,78.08-22.38,80.23
		c-0.52,2.15-13.79,37.45-14.42,37.6c-0.63,0.15-25.65,11.7-25.65,11.7l-35.05,19.28L1235.79,811.19z"/>
	<path class="st95" d="M1318.17,712.99c0-0.01-28.37,75.36-38.43,85.11c0,0-46.55,14.78-44.98,15.41c1.57,0.63,49.38-2.2,49.38-2.2
		s23.27-8.81,24.22-9.75c0.94-0.94,17.61-68.98,17.93-71.92C1326.6,726.71,1318.17,712.99,1318.17,712.99z"/>
	<linearGradient id="SVGID_58_" gradientUnits="userSpaceOnUse" x1="1387.4058" y1="600.2604" x2="1262.2285" y2="873.889">
		<stop  offset="0" style="stop-color:#9A4CC6"/>
		<stop  offset="0.5122" style="stop-color:#7545B1"/>
		<stop  offset="1" style="stop-color:#703A9E"/>
	</linearGradient>
	<path class="st96" d="M1241.29,811.73c0,0,2.28,0.62,6.05,0c3.77-0.62,39.55-10.06,39.55-10.06s2.91-2.59,4.32-5.66
		c1.42-3.07,30.9-87.75,36.56-122.31c0,0,2.52-12.19-10.06-15.98c-12.58-3.79-58.81,2.02-58.81,2.02l-8.25-18.25l8.56-7.69
		l50.32-19.81l59.17-15.53c0,0,40.96-9.92,55.81-10.92c14.84-1,40.08-0.08,40.08-0.08s23.47,6.52,24.77,11.47
		c1.3,4.95,0,28.28,0,28.28l-11.24,32.44c0,0-11.95-25.22-18.56-29.94s-39.94-5.98-56.93,24.22
		c-16.98,30.19-35.23,124.23-39.47,161.03s-54.47,29.37-59.05,30.51c-4.58,1.14-85.16,26.73-85.16,26.73l-8.81-21.39L1241.29,811.73
		z"/>
	<path class="st97" d="M1365.25,815.99l-1.69-0.9c0,0-126.44,30.51-126.59,30.98c-0.16,0.47-2.2,7.86-2.2,7.86s43.4-2.52,45.92-2.67
		c2.52-0.16,51.58-12.58,53.47-13.37S1365.25,815.99,1365.25,815.99z"/>
	<linearGradient id="SVGID_59_" gradientUnits="userSpaceOnUse" x1="1310.6737" y1="788.3659" x2="1142.7223" y2="961.035">
		<stop  offset="0" style="stop-color:#6641A9"/>
		<stop  offset="0.6699" style="stop-color:#56277C"/>
	</linearGradient>
	<path class="st98" d="M1059.55,966.01l264.97-74.54h12.27l28.46-8.02c0,0-2.36-50.01,0-67.46l-152.85,38.08
		c0,0-73.13,14.29-75.02,15.23c-1.89,0.94-77.06,22.65-75.8,24.06s-11.01,72.65-11.01,72.65H1059.55z"/>
	<path class="st99" d="M1324.71,891.2h12.27l-49.69-52.21C1287.28,838.99,1320.31,884.59,1324.71,891.2z"/>
	<path class="st100" d="M1259.61,659.78c0,0-124.39,89.42-141.14,111.12c-16.75,21.7-32.05,20.76-32.05,20.76s-13.42-9.91,0-23.12
		s134.67-94.83,139.38-97.66C1230.51,668.05,1259.61,659.78,1259.61,659.78z"/>
	<path class="st101" d="M1092.28,784.8l26.18-13.91c0,0,65.58,31.61,122.9,38.92c0,0,1.18,2.59,1.18,4.25
		c0,1.65-4.25,33.26-4.25,33.26l-120.77,40.57c0,0-69.27-99.79-64.24-101.55C1058.32,784.58,1092.28,784.8,1092.28,784.8z"/>
	<path class="st100" d="M1036.62,976.76l-4.48-1.82l10.61-61.17c0,0,2.36-13.6,0-22.8s-19.34-92.47-28.31-107.8
		s-11.32-24.06-20.29-28.31s-19.58-4.01-25-4.01c-5.43,0,7.78-5.9,9.44-5.66c1.65,0.24,32.32,7.55,34.2,9.44
		c1.89,1.89,28.78,33.02,29.72,35.62c0.94,2.59,13.92,44.35,13.92,44.35s12.5,70.75,12.27,73.11c-0.24,2.37-13.45,43.41-13.92,45.06
		C1054.31,954.42,1036.62,976.76,1036.62,976.76z"/>
	<linearGradient id="SVGID_60_" gradientUnits="userSpaceOnUse" x1="929.1579" y1="877.0969" x2="1229.2059" y2="762.6131">
		<stop  offset="0" style="stop-color:#703EA2"/>
		<stop  offset="0.5122" style="stop-color:#6A3696"/>
		<stop  offset="1" style="stop-color:#673595"/>
	</linearGradient>
	<path class="st102" d="M874.33,949.61c0,0,14.15-76.89,29.72-117.23s25-59.66,39.63-67.22c14.62-7.56,31.92-18.09,42.93-16.52
		s30.19,18.08,38.37,50.72c8.18,32.63,22.33,94.28,22.33,94.28s2.2,10.69,0,21.31c-2.2,10.61-10.69,61.82-10.69,61.82l23.12-6.23
		l1.42-4.64l25.27-64.71l151.18-56.77l4.09-32.55c0,0-110.4-11.95-149.4-27.05c0,0,128.95-110.41,167.32-125.03l-7.08-19.02
		c0,0-187.92,103.16-190.75,103.16c-2.83,0-49.38-9.44-49.38-9.44s-40.89-19.5-46.55-14.46c-5.66,5.03-85.86,57.87-86.33,60.7
		c-0.47,2.83-19.64,179.59-19.64,179.59L874.33,949.61z"/>
	<linearGradient id="SVGID_61_" gradientUnits="userSpaceOnUse" x1="1166.6499" y1="541.7043" x2="938.9405" y2="607.4381">
		<stop  offset="0" style="stop-color:#D350D3"/>
		<stop  offset="0.2213" style="stop-color:#E058CE"/>
		<stop  offset="0.5159" style="stop-color:#AB4ECC"/>
		<stop  offset="1" style="stop-color:#8839B3"/>
	</linearGradient>
	<path class="st103" d="M1161.16,555.77l-84.27,4.25c0,0-65.75,0.63-114.19,60.7c0,0,21.39-38.06,47.18-50.79
		c25.79-12.74,54.41-18.4,70.14-20.6s78.93-1.62,79.89-1.34c0.96,0.28,6.92,4.48,6.92,4.48L1161.16,555.77z"/>
	<linearGradient id="SVGID_62_" gradientUnits="userSpaceOnUse" x1="1267.7847" y1="583.248" x2="1331.0023" y2="583.248">
		<stop  offset="0" style="stop-color:#D350D3"/>
		<stop  offset="0.2213" style="stop-color:#E058CE"/>
		<stop  offset="0.5159" style="stop-color:#AB4ECC"/>
		<stop  offset="1" style="stop-color:#8839B3"/>
	</linearGradient>
	<polygon class="st104" points="1267.78,569.92 1310.24,602.24 1331,604.12 1274.86,562.37 1267.78,567.56 	"/>
	<linearGradient id="SVGID_63_" gradientUnits="userSpaceOnUse" x1="1158.5691" y1="558.9516" x2="1274.8613" y2="558.9516">
		<stop  offset="0" style="stop-color:#D350D3"/>
		<stop  offset="0.2213" style="stop-color:#E058CE"/>
		<stop  offset="0.5159" style="stop-color:#AB4ECC"/>
		<stop  offset="1" style="stop-color:#8839B3"/>
	</linearGradient>
	<polygon class="st105" points="1267.78,569.92 1161.16,555.77 1158.57,547.98 1274.86,562.37 	"/>
	<linearGradient id="SVGID_64_" gradientUnits="userSpaceOnUse" x1="808.3083" y1="868.3134" x2="1432.4647" y2="581.0033">
		<stop  offset="0" style="stop-color:#D350D3"/>
		<stop  offset="0.2213" style="stop-color:#E058CE"/>
		<stop  offset="0.5159" style="stop-color:#AB4ECC"/>
		<stop  offset="1" style="stop-color:#8839B3"/>
	</linearGradient>
	<path class="st106" d="M867.76,952.02c0,0,13.17-77.75,27.64-118.4c14.47-40.66,25.16-63.93,37.9-73.84
		c12.74-9.91,38.69-22.16,47.18-22.64c8.49-0.48,22.17,4.24,26.89,11.79c4.72,7.55,41.04,10.41,55.67,4.02
		c14.62-6.38,171.73-108.76,218.9-125.74c47.18-16.98,122.19-39.16,144.83-39.63c22.65-0.47,38.21,0,38.21,0l-25.79-3.46
		c0,0-89.95,16.35-104.42,20.13c-14.47,3.77-74.85,26.73-103.79,26.73s-81.46,10.38-105.36,21.07l-98.76,55.83c0,0-5.66,1.73-23.9,0
		c-18.24-1.73-32.71-5.26-32.71-5.26l-54.73,5.26c0,0-113.15,62.9-116.33,65.81c-3.18,2.91-106.78,153.86-106.97,157.68
		c-0.19,3.82,3.15,26.5,3.15,26.5l9.12,29.15c0,0,75.79,3.45,83.03,0C794.76,983.58,867.76,952.02,867.76,952.02z"/>
	<path class="st107" d="M1131.62,652.72c0,0-4.78,10.97-6.79,12.27s-3.92,2.04-3.92,2.04l-34.3-4.04c0,0-0.47-6.02,0-6.37
		s21.7-4.13,23.71-3.89C1112.34,652.95,1131.62,652.72,1131.62,652.72z"/>
	<path class="st108" d="M1131.62,642.82c0.24,0.32,2.77,4.35,2.65,5.65c-0.12,1.3-2.65,4.25-2.65,4.25l-39.18,4.91
		c0,0-35.66,1.11-36.84,1.23c-1.18,0.12-21.23-1-21.23-1s-1.52-2.91,0-3.6c1.52-0.68,5.54-2.83,15.8-4.72
		C1060.44,647.65,1131.62,642.82,1131.62,642.82z"/>
	<path class="st73" d="M1040.98,641.87c0,0,16.63-13.8,18.64-14.39c2.01-0.59,58.5,0.83,58.5,0.83s3.3,0.12,4.84,2.59
		c1.53,2.48,9.2,12.62,9.2,12.62s-35.5,8.26-38.33,9.2c-2.83,0.94-58.85,3.18-58.85,3.18L1040.98,641.87z"/>
	<path class="st71" d="M1121.53,666.95c0,0-21.39-5.98-26.1-8.18l-4.09-1.57h-53.78c0,0-3.07,0.24-2.59-1.3
		c0.47-1.53,6.02-14.04,6.02-14.04l-8.49,11.09c0,0-1.06,3.18,1.3,6.84c2.36,3.66,7.67,11.09,7.67,11.09l20.88,2.95L1121.53,666.95z
		"/>
	<path class="st109" d="M1050.14,666.95l-9.75,3.15l-9.12,46.86l16.04,5.35c0,0,5.98-28.62,5.98-31.45
		C1053.28,688.02,1050.14,666.95,1050.14,666.95z"/>
	<path class="st72" d="M1050.14,666.95c0,0.94-2.83,55.35-2.83,55.35l14.47-2.2v-47.18l-9.44-5.98H1050.14z"/>
	<path class="st110" d="M838.31,913.37l-2.12-1.42c0,0,46.55-10.85,46.86-10.3S883,904.5,883,904.5s-35.17,9.26-35.48,9.26
		s-8.89,0-8.89,0H838"/>
	<polygon class="st111" points="881.44,913.77 880.46,915.49 847.91,921.71 838.31,913.77 840.12,911.96 	"/>
	<polygon class="st112" points="875.98,905.35 883.05,904.17 881.32,914.47 875.98,915.02 	"/>
	<polygon class="st113" points="875.98,905.35 840.12,911.96 848.38,919.03 875.98,915.02 	"/>
	<path class="st114" d="M878.81,1022.56c0,0,9.44,2.86,10.14,3.57c0.71,0.71,1.65,2.12,1.42,3.07
		c-0.24,0.94-177.39,32.56-177.39,32.56l-186.82-3.55c0,0-30.83-13.81-32.08-13.01c-1.26,0.81-28.81-0.39-28.81-0.39l-187.76-8.86
		c0,0-151.15-20.67-151.66-20.91c-0.5-0.24-34.29,3.58-34.29,3.58l-77.44-19.23c0,0,4.09-5.52,7.71-6.53
		c3.61-1.01,42.93,7.08,51.66,7.08s71.95-12.66,74.3-13.17c2.36-0.51,61.57-0.89,61.57-0.89l531.71,42.45L878.81,1022.56z"/>
	<path d="M136.79,1001.47c0,0,26.73-4.72,35.85-4.18c9.12,0.54,159.14,24.76,159.14,24.76l209.15,8.8c0,0,111.66,10.69,119.83,10.69
		c8.18,0,49.38,0,49.38,0l19.77-22.15l11.15-29.14c0,0-215.61-8.28-216.84-9c-1.22-0.72-186.69-11.76-189.3-10.63
		c-2.61,1.13-256.73-35.13-259.32-34.12s-31.01-6.27-31.01-6.27s-6.4,52.69-7.68,55.66c-1.27,2.97,14.87,13.51,22.14,13.51
		S136.79,1001.47,136.79,1001.47z"/>
	<path class="st115" d="M887.54,1028.33l-177.39,33.97l-183.99-4.09c0,0-8.49-3.46-14.15-5.98c-5.66-2.52-12.27-7.03-32.4-7.03
		s-203.49-9.32-203.49-9.32l-149.39-20.84c0,0-16.98-3.22-24.53,0c-7.55,3.22-10.06,4.48-17.93,3.22s-70.14-18.87-70.14-18.87"/>
	<linearGradient id="SVGID_65_" gradientUnits="userSpaceOnUse" x1="54.9584" y1="934.2378" x2="34.6722" y2="963.9595">
		<stop  offset="0" style="stop-color:#9D3EBB"/>
		<stop  offset="0.5159" style="stop-color:#9D41BC"/>
		<stop  offset="1" style="stop-color:#E058CE"/>
	</linearGradient>
	<polygon class="st116" points="50.59,941.71 44.71,979.66 27.33,997.28 23.25,993.34 35.89,931.77 	"/>
	<linearGradient id="SVGID_66_" gradientUnits="userSpaceOnUse" x1="23.246" y1="995.8556" x2="103.7995" y2="995.8556">
		<stop  offset="0" style="stop-color:#9D3EBB"/>
		<stop  offset="0.5159" style="stop-color:#9D41BC"/>
		<stop  offset="1" style="stop-color:#E058CE"/>
	</linearGradient>
	<path class="st117" d="M23.25,993.34c0,0,21.23-14.39,21.47-13.68c0.24,0.71,59.09,15.53,59.09,15.53l-12.54,16.89L23.25,993.34z"
		/>
	<polygon class="st118" points="89.06,1015.04 136.16,1002.54 159.43,962.91 131.04,958.5 	"/>
	<path class="st119" d="M520.97,988.56c1.88,0.08,47.9,5.24,47.9,5.24h171.48l0.73-3.56c0,0-176.93-9.88-178.59-8.94
		c-1.65,0.94-41.52,6.22-41.52,6.22V988.56z"/>
	<path class="st120" d="M590.08,1034.85l-21.7-41.99c0,0-43.42-4.16-44.11-4.18s8.97,27.18,9.34,27.94
		c0.37,0.76,20.14,40.13,22.51,38.76c2.37-1.37,30.43-3.54,31.14-4.48C587.96,1049.95,590.08,1034.85,590.08,1034.85z"/>
	<path class="st121" d="M711.33,1037.21l-121.25-2.36l-34.91,19.11c0,0,55.66,0.72,59.21,1.42c3.54,0.69,95.77-0.94,95.77-0.94
		l4.06-12.15L711.33,1037.21z"/>
	<polygon class="st122" points="708.03,1055.38 711.33,1037.21 741.07,990.24 747.65,990.24 	"/>
	<path class="st123" d="M746.96,990.81l-39.88,62.68H557.06l-32.79-64.81l-4.49-0.12l33.5,67.99l156.86-1.18
		c0,0,21.23-16.98,21.94-17.93c0.71-0.94,17.51-47.11,17.51-47.11L746.96,990.81z"/>
	<linearGradient id="SVGID_67_" gradientUnits="userSpaceOnUse" x1="20.1794" y1="973.4047" x2="131.0428" y2="973.4047">
		<stop  offset="0" style="stop-color:#9D3EBB"/>
		<stop  offset="0.5159" style="stop-color:#9D41BC"/>
		<stop  offset="1" style="stop-color:#E058CE"/>
	</linearGradient>
	<path class="st124" d="M33.29,932.86c-0.37,1.74-13.11,62.36-13.11,62.36l68.88,19.81l41.98-53.53l-5.42-1.91l-38.21,50.01
		l-62.98-18.05l11.46-59.79L33.29,932.86z"/>
	<linearGradient id="SVGID_68_" gradientUnits="userSpaceOnUse" x1="789.2276" y1="1068.3933" x2="810.9292" y2="964.6031">
		<stop  offset="0" style="stop-color:#471F6A"/>
		<stop  offset="0.6699" style="stop-color:#613893"/>
	</linearGradient>
	<path class="st125" d="M875.98,968.2l4.48,55.09c0,0-137.76,31.14-170.31,32.08l38.34-64.83l125.36-22.6L875.98,968.2z"/>
	<polygon class="st126" points="874.33,949.7 722.41,976.84 742.86,991.53 875.98,968.2 	"/>
	<path class="st118" d="M16.9,921.89l18.99,12.71c0,0,39.96,31.39,267.59,44.82c227.63,13.43,439.38,12.11,439.38,12.11
		l-17.59-16.26l-77.08-7.8l-394.71-14.94L16.9,921.89z"/>
	<path class="st127" d="M700.79,936.49l25.16,39.86c0,0-327.49,3.54-447.63-8.41c0,0-152.85-10.06-262.94-46.55l-5.82-34.2
		c0,0,0.71-3.54,2.83-3.54s68.88,9.2,68.88,9.2s401.95-7.31,413.27-9.2S700.79,936.49,700.79,936.49z"/>
	<linearGradient id="SVGID_69_" gradientUnits="userSpaceOnUse" x1="12.1768" y1="931.7707" x2="717.0676" y2="931.7707">
		<stop  offset="0" style="stop-color:#9D3EBB"/>
		<stop  offset="6.112469e-03" style="stop-color:#491564"/>
		<stop  offset="1" style="stop-color:#300D49"/>
	</linearGradient>
	<path class="st128" d="M712.98,966.33l4.09,6.76c0,0-297.06,0.43-432.46-12.11c0,0-203.81-16.98-265.61-42.93
		c0,0-8.26-28.07-6.6-27.6c1.65,0.47,28.54,12.03,84.92,21.47c56.38,9.44,50.48,17.93,50.48,17.93s444.41,25.42,447.56,25.45
		C598.5,955.32,712.98,966.33,712.98,966.33z"/>
	<path d="M550.69,944.98L696,942.46l16.98,23.9c0,0-134.89,2.66-162.6,1.57c-27.71-1.08-38.37-17.61-38.37-17.61L550.69,944.98z"/>
	<path d="M99.67,928.63c0,0-57.56-13.21-58.19-14.15s-6.92-16.04-5.35-15.1c1.57,0.94,38.92,8.63,63.53,12.22s6.6,10.74,6.6,10.74
		L99.67,928.63z"/>
	<linearGradient id="SVGID_70_" gradientUnits="userSpaceOnUse" x1="305.6375" y1="880.5832" x2="488.0566" y2="1032.1798">
		<stop  offset="0" style="stop-color:#070108"/>
		<stop  offset="1" style="stop-color:#1A1A1A"/>
	</linearGradient>
	<path class="st129" d="M27.96,906.29c0,0-1.42-2.83,0-3.93c1.42-1.1,3.62-1.1,3.62-1.1l65.26,16.98v-7.08
		c0,0,120.15,18.4,188.08,21.86c67.94,3.46,265.77,11.01,265.77,11.95s0,7.55,0,7.55h150.14l3.66,5.98H549.75l0.63,9.44
		c0,0-202.27-7.55-274.91-14.47c-72.63-6.92-177.21-18.87-177.21-18.87l-1.42-8.96C96.84,925.64,39.05,911.25,27.96,906.29z"/>
	<path class="st130" d="M726.58,720.1l172.91-22.96c0,0,46.86-1.26,55.98,0s14.78,4.34,14.78,4.34s-38.37,4.85-43.72,6.86
		c-5.35,2.01-214.07,45.41-216.49,46.67c-2.42,1.26-24.12,17.3-26.95,17.3c-2.83,0-27.68,1.89-16.67-5.03
		C677.44,760.36,726.58,720.1,726.58,720.1z"/>
	<linearGradient id="SVGID_71_" gradientUnits="userSpaceOnUse" x1="183.7663" y1="711.2252" x2="367.1689" y2="711.2252">
		<stop  offset="0" style="stop-color:#9D3EBB"/>
		<stop  offset="0.5159" style="stop-color:#9D41BC"/>
		<stop  offset="1" style="stop-color:#E058CE"/>
	</linearGradient>
	<path class="st131" d="M265.74,672.92l37.51-2.28c0,0,33.42,19.26,33.89,19.74c0.47,0.47,30.04,16.83,30.04,16.83l-6.45,5.79
		c0,0-39,17.8-39.63,19.06s-58.81,20-60.07,19.75c-1.26-0.25-73.75-28.24-75.72-32.33c-1.97-4.09-2.12-14.15,0-16.35
		C187.42,700.92,265.74,672.92,265.74,672.92z"/>
	<linearGradient id="SVGID_72_" gradientUnits="userSpaceOnUse" x1="689.3156" y1="735.9897" x2="937.0714" y2="735.9897">
		<stop  offset="0" style="stop-color:#9D3EBB"/>
		<stop  offset="0.5159" style="stop-color:#9D41BC"/>
		<stop  offset="1" style="stop-color:#E058CE"/>
	</linearGradient>
	<path class="st132" d="M869.84,744.65c0,0,55.44-33.67,67.23-37.92c0,0-83.5,3.55-112.28,6.26c-28.78,2.71-93.41,11.58-98.13,15.4
		c-4.72,3.82-39.16,35.43-37.27,35.9s106.15,1.89,109.45,0s65.1-14.94,65.1-14.94L869.84,744.65z"/>
	<path class="st133" d="M353.72,704.85c0,0-34.44-14.86-41.98-23.12s-8.49-11.09-8.49-11.09l8.49-5.19c0,0-2.83,4.95,12.03,13.45
		c14.86,8.49,42.46,22.58,42.46,22.58l-3.3,3.37H353.72z"/>
	<path class="st134" d="M251.27,671.98c0.94-0.31,8.81,0.31,14.47,1.57c0,0-76.11,26.73-77.06,34.91
		c-0.94,8.18,11.95,13.47,11.95,13.47l-28.31-15.35l7.19-8.54l45.56-18.53l4.29-1.99c0,0,13.41-4.76,20.64-5.54H251.27z"/>
	<linearGradient id="SVGID_73_" gradientUnits="userSpaceOnUse" x1="319.5789" y1="726.6417" x2="714.9446" y2="726.6417">
		<stop  offset="0" style="stop-color:#9D3EBB"/>
		<stop  offset="0.5159" style="stop-color:#9D41BC"/>
		<stop  offset="1" style="stop-color:#E058CE"/>
	</linearGradient>
	<path class="st135" d="M714.94,720.1l-346.83-18.62c0,0-48.94,19.38-48.53,23.17c0.41,3.79,14.09,7.4,14.09,7.4l315.62,18.11
		l40.9,1.64L714.94,720.1z"/>
	<linearGradient id="SVGID_74_" gradientUnits="userSpaceOnUse" x1="59.0643" y1="832.4665" x2="700.8243" y2="832.4665">
		<stop  offset="0" style="stop-color:#9D3EBB"/>
		<stop  offset="0.5159" style="stop-color:#9D41BC"/>
		<stop  offset="1" style="stop-color:#E058CE"/>
	</linearGradient>
	<path class="st136" d="M685.91,755.33L545.42,936.49c0,0-58.1,0.69-133.67-2.83c-121.21-5.65-287.29-17.99-330.01-30.19
		c-69.35-19.81,42.46-63.22,42.46-63.22s136.81-107.56,139.64-108.51c2.83-0.94,53.51-2.23,56.14-3.3s330.71,16.51,333.54,16.51
		s47.29-1.9,47.29-1.9L685.91,755.33z"/>
	<path class="st137" d="M324.79,721.93c3.69,0.39,361.12,21.4,361.12,21.4l-9.49,8.47l-322.2-19.47L324.79,721.93z"/>
	<path class="st130" d="M81.75,903.46c0,0,118.89-99.54,194.37-135.38c68.39-32.47,92-41.53,92-41.53l-43.32-4.62
		c0,0-105.83,55.22-107.9,56.6s-82.78,60.3-87.02,65.96c-4.25,5.66-51.9,39.16-51.9,39.16L81.75,903.46z"/>
	<linearGradient id="SVGID_75_" gradientUnits="userSpaceOnUse" x1="250.4303" y1="662.2254" x2="140.5221" y2="909.8666">
		<stop  offset="0" style="stop-color:#9D3EBB"/>
		<stop  offset="0.5159" style="stop-color:#9D41BC"/>
		<stop  offset="1" style="stop-color:#E058CE"/>
	</linearGradient>
	<path class="st138" d="M81.75,903.46c0,0,139.33-150.65,290.3-200.35l-7.55-3.15l-79.26,35.85c0,0-13.21,7.39-22.65,3.7
		c-9.44-3.7-87.44-32.63-87.44-32.63s1.81-2.83,4.36-5.03c2.56-2.2,48.79-27.05,70.49-29.88c0,0-72.5,12.58-109.77,58.34
		S12.4,883.65,12.4,883.65s0.71,2.36,3.77,2.83C19.24,886.95,81.75,903.46,81.75,903.46z"/>
	<linearGradient id="SVGID_76_" gradientUnits="userSpaceOnUse" x1="774.2668" y1="703.9218" x2="662.4564" y2="955.8489">
		<stop  offset="0" style="stop-color:#9D3EBB"/>
		<stop  offset="0.5159" style="stop-color:#9D41BC"/>
		<stop  offset="1" style="stop-color:#E058CE"/>
	</linearGradient>
	<path class="st139" d="M545.42,936.49h155.37c0,0,113.85-162.45,183.68-196.97c0,0-16.35,6.37-26.42,8.26
		S689.63,763.5,684.2,762.25s42.38-42.15,42.38-42.15h-11.64C714.94,720.1,599.52,799.99,545.42,936.49z"/>
	<path class="st140" d="M98.26,792.36l43.17-52.84c0,0,65.58,28.13,84.45,33.05c0,0-47.89,31.58-50.48,34.88s-9.2,8.02-9.2,8.02
		S107.22,797.31,98.26,792.36z"/>
	<path class="st141" d="M118.78,777.26c0,0,26.42,1.65,36.09,3.77c9.67,2.12,38.92,13.45,38.92,13.45l-8.49,5.19l-52.84-11.2
		L118.78,777.26z"/>
	<path class="st141" d="M138.12,756.74c0,0,9.44-1.42,10.14-1.42c0.71,0,16.98,1.42,16.98,1.42l-4.22,5.81L138.12,756.74z"/>
	<path class="st141" d="M165.25,765.71c0.94,0.23,14.39-2.12,14.27-2.12c-0.12,0,21.11,5.43,21.11,5.43l-7.67,3.57L165.25,765.71z"
		/>
	<path class="st142" d="M642.84,800.77c0,0,142.79-19.97,185.25-19.97L772.42,836l-160.56,8.49l10.89-20.07L642.84,800.77z"/>
	<path class="st143" d="M642.84,800.77c1.33-0.79,6.45,15.18,6.45,15.18l-4.25,6.6l-19.34,6.84l-0.52,10.85l-6.24,4.25h-7.08
		C611.86,844.49,628.22,809.42,642.84,800.77z"/>
	<polygon class="st144" points="676.42,821.38 676.42,815.95 649.29,815.95 645.04,822.56 	"/>
	<path class="st123" d="M625.7,840.25c0,0-1.18-8.73,0-10.85c1.18-2.12,161.82-8.02,161.82-8.02l-12.97,10.61L625.7,840.25z"/>
	<polygon class="st123" points="684.44,818.07 684.44,802.5 735.66,799.44 727.13,815.01 	"/>
	<polygon class="st123" points="757.09,811.94 757.09,795.66 807.33,795.66 807.33,802.74 798.13,811.94 	"/>
	<path class="st123" d="M185.3,799.67l-9.91,7.78l-57.56-19.34c0,0,0-11.09,0.94-10.85C119.72,777.5,185.3,799.67,185.3,799.67z"/>
	<polygon class="st123" points="193.79,787.88 193.79,772.78 165.25,765.71 171.38,781.75 	"/>
	<polygon class="st123" points="165.25,775.85 160.53,760.99 138.12,756.74 140.01,770.66 	"/>
</g>
<g id="Слой_3">
</g>
</svg>
