<?xml version="1.0" encoding="utf-8"?>
<!-- Generator: Adobe Illustrator 25.0.0, SVG Export Plug-In . SVG Version: 6.00 Build 0)  -->
<svg version="1.1" id="Слой_2" xmlns="http://www.w3.org/2000/svg" xmlns:xlink="http://www.w3.org/1999/xlink" x="0px" y="0px"
	 viewBox="0 0 1500 1500" style="enable-background:new 0 0 1500 1500;" xml:space="preserve">
<style type="text/css">
	.st0{fill:#260D0F;}
	.st1{fill:#FD3940;}
	.st2{fill:url(#SVGID_1_);}
	.st3{fill:none;stroke:url(#SVGID_2_);stroke-width:19;stroke-miterlimit:10;}
	.st4{fill:#040302;}
	.st5{fill:url(#SVGID_3_);}
	.st6{fill:#070709;}
	.st7{fill:url(#SVGID_4_);}
	.st8{fill:none;stroke:#757579;stroke-width:11;stroke-miterlimit:10;}
	.st9{fill:#C7B332;}
	.st10{fill:none;stroke:#DDDBE5;stroke-width:6;stroke-miterlimit:10;}
	.st11{fill:url(#SVGID_5_);}
	.st12{fill:none;stroke:url(#SVGID_6_);stroke-width:19;stroke-miterlimit:10;}
	.st13{fill:url(#SVGID_7_);}
	.st14{fill:url(#SVGID_8_);}
	.st15{fill:#36383E;}
	.st16{fill:#0B0B0B;}
	.st17{fill:#8C0401;}
	.st18{fill:#DE2624;}
	.st19{fill:url(#SVGID_9_);}
	.st20{fill:#343436;}
	.st21{fill:#1A1A1A;}
	.st22{fill:url(#SVGID_10_);}
	.st23{fill:#1C1617;}
	.st24{fill:#4B0000;}
	.st25{fill:#FA1E27;}
	.st26{fill:url(#SVGID_11_);}
	.st27{fill:url(#SVGID_12_);}
	.st28{fill:url(#SVGID_13_);}
	.st29{fill:url(#SVGID_14_);}
	.st30{fill:url(#SVGID_15_);}
	.st31{fill:url(#SVGID_16_);}
	.st32{fill:#3B090A;}
	.st33{fill:url(#SVGID_17_);}
	.st34{fill:url(#SVGID_18_);}
	.st35{fill:url(#SVGID_19_);}
	.st36{fill:url(#SVGID_20_);}
	.st37{fill:url(#SVGID_21_);}
	.st38{fill:url(#SVGID_22_);}
	.st39{fill:url(#SVGID_23_);}
	.st40{fill:url(#SVGID_24_);}
	.st41{fill:url(#SVGID_25_);}
	.st42{fill:url(#SVGID_26_);}
	.st43{fill:url(#SVGID_27_);}
	.st44{fill:url(#SVGID_28_);}
	.st45{fill:url(#SVGID_29_);}
	.st46{fill:url(#SVGID_30_);}
	.st47{fill:url(#SVGID_31_);}
	.st48{fill:url(#SVGID_32_);}
	.st49{fill:url(#SVGID_33_);}
	.st50{fill:url(#SVGID_34_);}
	.st51{fill:url(#SVGID_35_);}
	.st52{fill:url(#SVGID_36_);}
	.st53{fill:none;stroke:#841E23;stroke-miterlimit:10;}
	.st54{fill:url(#SVGID_37_);}
	.st55{fill:url(#SVGID_38_);}
	.st56{fill:url(#SVGID_39_);}
	.st57{fill:#6E6F76;}
	.st58{fill:#AFBAC2;}
	.st59{fill:#80888A;}
	.st60{fill:#222429;}
	.st61{fill:url(#SVGID_40_);}
	.st62{fill:#AFB8C0;}
	.st63{fill:#343E47;}
	.st64{fill:#7B8085;}
	.st65{fill:#E0C5CD;}
</style>
<g>
	<path class="st0" d="M1154.53,1017.16l-53.35-21.52l-46.22-237.37l94.82-22.26c0,0,296.22-83.49,299.98-84.02
		c3.75-0.53,16.56-1.41,16.56-1.41l18.11,41c0,0,0.07,16.77,0,17.77c-0.07,1-4.6,10.49-4.6,10.49l-125.81,77.45L1154.53,1017.16z"/>
	<path class="st1" d="M1436.12,605.2c1.01,0.56,17.47,5.69,22.72,14.55c5.25,8.86,20.09,17.27-3.61,11.01s-62.96-16.22-60.58-16.52
		c2.37-0.3,24.8-7.2,29.33-7.64C1428.49,606.18,1436.12,605.2,1436.12,605.2z"/>
	<g>
		<linearGradient id="SVGID_1_" gradientUnits="userSpaceOnUse" x1="1414.2722" y1="826.322" x2="1460.494" y2="760.6384">
			<stop  offset="0" style="stop-color:#0C0B09"/>
			<stop  offset="0.8325" style="stop-color:#3F403E"/>
		</linearGradient>
		<path class="st2" d="M1442.52,912.65l-4.43,2.81l-93.28-0.97c0,0-9.22-5.04-8.75-9.51c0.46-4.47,35.97-129.87,35.97-129.87
			l69.73-114.31c0,0,11.21-0.2,17.97,5.22c6.76,5.42,2.04,27.29,3.02,32.15C1463.71,703.03,1442.52,912.65,1442.52,912.65z"/>
		
			<linearGradient id="SVGID_2_" gradientUnits="userSpaceOnUse" x1="1379.6165" y1="745.2388" x2="1463.8569" y2="745.2388" gradientTransform="matrix(0.9963 0.086 -0.0843 0.9763 90.1389 -61.5384)">
			<stop  offset="0" style="stop-color:#0C0B09"/>
			<stop  offset="0.8325" style="stop-color:#3F403E"/>
		</linearGradient>
		<path class="st3" d="M1476.17,791.45c-4.22,64.43-18.53,115.85-37.67,113.67s-31.23-56.17-27.01-120.6
			c4.22-64.43,23.15-114.89,42.28-112.72S1480.39,727.02,1476.17,791.45z"/>
		<path class="st4" d="M1451.3,871.38c0.9-1.26,17.48-61.41,17.48-61.41s2.11-51.86,2.66-56.4c0.55-4.54-11.17-47.6-16.23-58.51
			c-5.05-10.91-17.55,11.82-19.1,12.44c-1.55,0.62-11.65,56.52-12.64,58.95c-1,2.43-3.6,33.43-3.63,36.96
			c-0.03,3.53-3.61,47.11,3.95,62.26c7.56,15.15,12.88,28.75,15.34,27.84C1441.6,892.6,1451.3,871.38,1451.3,871.38z"/>
		<linearGradient id="SVGID_3_" gradientUnits="userSpaceOnUse" x1="1434.2247" y1="785.0943" x2="1476.209" y2="785.0943">
			<stop  offset="0.0575" style="stop-color:#000000"/>
			<stop  offset="0.4399" style="stop-color:#1F2329"/>
			<stop  offset="0.5156" style="stop-color:#23262C"/>
			<stop  offset="0.5846" style="stop-color:#2E3135"/>
			<stop  offset="0.651" style="stop-color:#404245"/>
			<stop  offset="0.7154" style="stop-color:#5A5A5B"/>
			<stop  offset="0.7494" style="stop-color:#6B6A69"/>
		</linearGradient>
		<path class="st5" d="M1436.12,707.49c1.79-0.2,6.75-11.75,13.64-5.17c6.89,6.59,20.1,54.33,14.88,92.05s-16.59,91.85-30.41,86.43
			c0,0,0.05,10.22,1.54,8.76s10.25-0.73,11.06-1.26c0.8-0.53,10.44-13.51,10.44-13.51l9.15-31.41c0,0,10.53-50.09,9.77-51.94
			c-0.76-1.85,0.02-34.73-0.15-38.79c-0.17-4.06-2.06-27.01-3.06-32.48c-1-5.47-5.88-27.39-7.57-30.3
			c-1.69-2.91-4.23-11.32-8.14-8.98c-3.91,2.33-10.19,1.79-12.82,5.54c-2.63,3.74-5.86,6.93-6.86,11.75
			C1436.58,702.99,1436.12,707.49,1436.12,707.49z"/>
		<path class="st6" d="M1422.01,783.35c0,0,5.47,2.88,7.6,13.54c2.33,11.65,2.13,10.67-1.38,72.01l2.07,1.22
			c0,0,3.92-59.54,3.92-62.88c0-3.34-1.38-33.72-3.69-34.33c-2.3-0.61-7.6,3.24-7.6,3.24L1422.01,783.35z"/>
		<path class="st6" d="M1422.48,763.3c1.84,0.19,0.02,3.71,6.41-9.62c6.39-13.33,18.15-62.51,18.15-62.51l2.72-3.75
			c0,0-2.22,39.62-1.73,42.36c0.49,2.73-2.97,29.47-4.35,31.29c-1.38,1.82-11.23,15.88-12.18,13.86s-9.01-6.05-9.01-6.05V763.3z"/>
		<path class="st6" d="M1444.63,756.5c2.17-0.75,18.79-13.66,21.19-16.4c2.4-2.75,1.15,4.86,1.15,5.47c0,0.61-3.14,6.38-7.45,9.72
			c-4.3,3.34-14.44,10.03-14.9,8.51C1444.17,762.27,1444.63,756.5,1444.63,756.5z"/>
		<path class="st6" d="M1438.91,819.62c0,0-0.07-2.63,3.61,0c-21.63-15.41,25.41,58.79,18.43,40.75l1.79-5.44
			c0,0-7.32-24.91-9.16-27.34c-1.84-2.43-11.06-17.62-11.06-17.62s-3.31,1.52-3.61,2.73
			C1438.6,813.92,1438.91,819.62,1438.91,819.62z"/>
		<linearGradient id="SVGID_4_" gradientUnits="userSpaceOnUse" x1="1440.2357" y1="730.4298" x2="1439.8307" y2="907.0204">
			<stop  offset="0.075" style="stop-color:#CDCCD8"/>
			<stop  offset="0.3713" style="stop-color:#423B37"/>
			<stop  offset="0.381" style="stop-color:#605A57"/>
			<stop  offset="0.3945" style="stop-color:#837F7D"/>
			<stop  offset="0.408" style="stop-color:#9E9D9B"/>
			<stop  offset="0.4212" style="stop-color:#B2B1B0"/>
			<stop  offset="0.4341" style="stop-color:#BEBEBD"/>
			<stop  offset="0.4462" style="stop-color:#C2C2C1"/>
			<stop  offset="0.4906" style="stop-color:#A8A8A8"/>
			<stop  offset="0.5428" style="stop-color:#919292"/>
			<stop  offset="0.6031" style="stop-color:#7F8082"/>
			<stop  offset="0.6756" style="stop-color:#727476"/>
			<stop  offset="0.7725" style="stop-color:#6B6D6F"/>
			<stop  offset="0.9957" style="stop-color:#696B6D"/>
		</linearGradient>
		<path class="st7" d="M1441.15,689.87c0,0-3.97,50.63-8.88,62.78c-4.91,12.15-7.33,14.21-9.96,13.79c-2.63-0.42-5.7,0-5.7,0
			s-5.08,11.47-2.54,12.81s10.22,9.64,10.83,17.64c0.61,8.01-2.59,79.23-2.59,79.23l2.19,4.67c0,0,3.78-32.96,4.4-43.9
			c0.61-10.94,3.99-26.17,8.29-18.76c4.3,7.42,16.89,36.98,16.89,36.98l3.07-6.48c0,0-5.84-22.47-9.83-32.3
			c-3.99-9.83-8.6-20.6-7.68-25.95c0.92-5.35,12.29-19.93,17.51-26.81c5.22-6.89,9.83-13.37,9.83-13.37v-8.1
			c0,0-14.44,15.01-18.12,14.19s-7.06-2.04-6.14-10.14c0.92-8.1,3.22-55.8,2.76-59.25C1445.02,683.48,1441.15,689.87,1441.15,689.87
			z"/>
		
			<ellipse transform="matrix(0.0617 -0.9981 0.9981 0.0617 573.7618 2183.2581)" class="st8" cx="1448.02" cy="786.48" rx="103.46" ry="27.53"/>
		<ellipse class="st9" cx="1432.26" cy="786.52" rx="3.38" ry="10.38"/>
		
			<ellipse transform="matrix(0.0618 -0.9981 0.9981 0.0618 571.8188 2184.7983)" class="st10" cx="1448.02" cy="788.24" rx="108.17" ry="28.29"/>
	</g>
	<g>
		<linearGradient id="SVGID_5_" gradientUnits="userSpaceOnUse" x1="1030.9224" y1="990.4561" x2="1096.4889" y2="897.2827">
			<stop  offset="0" style="stop-color:#0C0B09"/>
			<stop  offset="0.8325" style="stop-color:#3F403E"/>
		</linearGradient>
		<path class="st11" d="M1073.92,1120.79h-132c0,0-17.25-7.15-16.39-13.5c0.86-6.35,16.39-181.79,16.39-181.79l130.56-162.31
			c0,0,20.99-0.28,33.64,7.41c12.66,7.69,3.82,38.75,5.65,45.65C1113.6,823.15,1073.92,1120.79,1073.92,1120.79z"/>
		
			<linearGradient id="SVGID_6_" gradientUnits="userSpaceOnUse" x1="998.7673" y1="935.9005" x2="1147.9858" y2="935.9005" gradientTransform="matrix(0.9963 0.086 -0.0843 0.9763 90.1389 -61.5384)">
			<stop  offset="0" style="stop-color:#0C0B09"/>
			<stop  offset="0.8325" style="stop-color:#3F403E"/>
		</linearGradient>
		
			<ellipse transform="matrix(0.086 -0.9963 0.9963 0.086 46.8219 1939.9357)" class="st12" cx="1080.69" cy="944.45" rx="166.26" ry="65.11"/>
		<path class="st4" d="M1090.36,1062.18c1.68-1.79,32.74-87.2,32.74-87.2s3.96-73.64,4.98-80.08c1.03-6.45-20.92-67.59-30.38-83.09
			c-9.46-15.49-32.86,16.78-35.76,17.66c-2.91,0.88-21.8,80.26-23.67,83.71c-1.87,3.45-6.73,47.46-6.79,52.48s-6.76,66.89,7.4,88.4
			c14.16,21.51,24.12,40.82,28.72,39.54S1090.36,1062.18,1090.36,1062.18z"/>
		<linearGradient id="SVGID_7_" gradientUnits="userSpaceOnUse" x1="1058.3884" y1="939.6685" x2="1136.9998" y2="939.6685">
			<stop  offset="0.0575" style="stop-color:#000000"/>
			<stop  offset="0.4399" style="stop-color:#1F2329"/>
			<stop  offset="0.5156" style="stop-color:#23262C"/>
			<stop  offset="0.5846" style="stop-color:#2E3135"/>
			<stop  offset="0.651" style="stop-color:#404245"/>
			<stop  offset="0.7154" style="stop-color:#5A5A5B"/>
			<stop  offset="0.7494" style="stop-color:#6B6A69"/>
		</linearGradient>
		<path class="st13" d="M1061.93,829.48c3.36-0.29,12.63-16.69,25.54-7.34c12.91,9.35,37.64,77.15,27.86,130.71
			c-9.78,53.56-31.06,130.42-56.94,122.72c0,0,0.1,14.52,2.88,12.44c2.77-2.08,19.2-1.03,20.71-1.78
			c1.51-0.75,19.54-19.18,19.54-19.18l17.13-44.6c0,0,19.72-71.12,18.29-73.75c-1.43-2.63,0.04-49.31-0.27-55.08
			c-0.32-5.77-3.85-38.36-5.72-46.12c-1.87-7.77-11.01-38.89-14.18-43.02c-3.16-4.14-7.91-16.07-15.24-12.75s-19.08,2.55-24,7.87
			s-10.97,9.84-12.84,16.68S1061.93,829.48,1061.93,829.48z"/>
		<path class="st6" d="M1035.53,937.2c0,0,10.24,4.1,14.23,19.23c3.99,15.14-2.59,102.24-2.59,102.24l3.87,1.73
			c0,0,7.34-84.55,7.34-89.29c0-4.74-2.59-47.88-6.9-48.74c-4.31-0.86-14.23,4.6-14.23,4.6L1035.53,937.2z"/>
		<path class="st6" d="M1036.39,908.72c3.45,0.27,12.91,5.27,24.87-13.66c11.97-18.93,21.11-88.76,21.11-88.76l5.09-5.33
			c0,0-4.15,56.26-3.24,60.14c0.91,3.88-5.56,41.84-8.15,44.43c-2.59,2.59-21.02,22.54-22.8,19.68c-1.78-2.86-16.88-8.59-16.88-8.59
			V908.72z"/>
		<path class="st6" d="M1090.74,899.07c4.06-1.07,35.19-19.39,39.69-23.29c4.5-3.9,2.16,6.9,2.16,7.76s-5.89,9.06-13.94,13.8
			c-8.06,4.74-27.04,14.23-27.9,12.08C1089.88,907.26,1090.74,899.07,1090.74,899.07z"/>
		<path class="st6" d="M1067.16,988.69c0,0-0.14-3.73,6.76,0c6.9,3.73,34.51,57.86,34.51,57.86l3.35-7.73
			c0,0-13.7-35.37-17.15-38.82c-3.45-3.45-20.71-25.02-20.71-25.02s-6.19,2.16-6.76,3.88
			C1066.58,980.6,1067.16,988.69,1067.16,988.69z"/>
		<linearGradient id="SVGID_8_" gradientUnits="userSpaceOnUse" x1="1082.4834" y1="862.0495" x2="1081.9083" y2="1112.8126">
			<stop  offset="0.075" style="stop-color:#CDCCD8"/>
			<stop  offset="0.3713" style="stop-color:#423B37"/>
			<stop  offset="0.381" style="stop-color:#605A57"/>
			<stop  offset="0.3945" style="stop-color:#837F7D"/>
			<stop  offset="0.408" style="stop-color:#9E9D9B"/>
			<stop  offset="0.4212" style="stop-color:#B2B1B0"/>
			<stop  offset="0.4341" style="stop-color:#BEBEBD"/>
			<stop  offset="0.4462" style="stop-color:#C2C2C1"/>
			<stop  offset="0.4906" style="stop-color:#A8A8A8"/>
			<stop  offset="0.5428" style="stop-color:#919292"/>
			<stop  offset="0.6031" style="stop-color:#7F8082"/>
			<stop  offset="0.6756" style="stop-color:#727476"/>
			<stop  offset="0.7725" style="stop-color:#6B6D6F"/>
			<stop  offset="0.9957" style="stop-color:#696B6D"/>
		</linearGradient>
		<path class="st14" d="M1084.22,804.46c0,0-7.43,71.89-16.63,89.15s-13.73,20.18-18.65,19.58c-4.93-0.6-10.68,0-10.68,0
			s-9.52,16.28-4.76,18.19c4.76,1.91,19.14,13.68,20.29,25.05c1.15,11.37-4.85,112.51-4.85,112.51l4.1,6.63
			c0,0,7.08-46.8,8.23-62.33c1.15-15.53,7.48-37.16,15.53-26.63c8.05,10.53,31.63,52.51,31.63,52.51l5.75-9.2
			c0,0-10.93-31.91-18.4-45.86c-7.48-13.95-16.1-29.26-14.38-36.85s23.01-28.29,32.78-38.07s18.4-18.98,18.4-18.98v-11.5
			c0,0-27.03,21.32-33.93,20.15s-13.23-2.89-11.5-14.4s6.03-79.23,5.18-84.12C1091.47,795.38,1084.22,804.46,1084.22,804.46z"/>
		
			<ellipse transform="matrix(0.086 -0.9963 0.9963 0.086 52.8542 1940.8846)" class="st8" cx="1084.22" cy="941.64" rx="147.13" ry="51.46"/>
		<ellipse class="st9" cx="1067.59" cy="941.7" rx="6.33" ry="14.73"/>
		
			<ellipse transform="matrix(0.086 -0.9963 0.9963 0.086 50.3594 1943.1733)" class="st10" cx="1084.22" cy="944.14" rx="153.82" ry="52.9"/>
	</g>
	<path class="st15" d="M1210.25,640.99c-1.28-8.28-18.55-59.99-18.55-59.99s-45.86-38.69-54.37-43.88
		c-8.51-5.19-29.74-3.2-47.02-11.02s-75.06-4.04-77.64-0.97c-1.85,2.2-169.48-10.1-278.62-3.67c-43.19,2.55-98.39,28.23-98.39,28.23
		l-67.3,42.09L459.66,696.77l80.46,62.13c0,0,368.01,14.94,383.72,7.56s228.59-8.01,246.7-16.67
		C1188.66,741.13,1211.53,649.27,1210.25,640.99z M755.96,665.17c-24.97,17.79-215.84,41.07-215.84,41.07l-5.69-16.19
		c3.74-4.5,72.32-92.26,100.79-111.14c28.47-18.88,130.82-25.51,140.47-4.73C785.34,594.96,780.93,647.38,755.96,665.17z
		 M1081.97,602.51c-17.83,1.08-43.16,22.18-44.55,29.4c-1.39,7.22-55.38-5.9-64.75-7.76c-9.36-1.87-17.81-16.25-36.79-27.44
		c-18.98-11.19-75.49-1.75-81.38-3.51c-5.9-1.76,22.72-12.48,55.56-19.02c32.85-6.55,185.8-0.7,191.45-0.42
		c16,0.78,35.82,28.76,35.82,28.76S1099.8,601.43,1081.97,602.51z"/>
	<path class="st16" d="M370.8,598.84c-1.47,2.01-2.88,11.79,3.74,18.12s24.73,7.48,33.93,8.05c9.2,0.58,15.24-1.73,15.24-1.73
		l73.91,35.08c0,0,7.63-10.03,7.59-9.99c-0.04,0.04-21.11-4.38-32.9-10.14c-11.79-5.75-42.27-21.86-42.27-21.86s5.41-4.31,0.55-8.77
		c-4.86-4.46-33.62-13.08-37.64-13.08C388.92,594.53,370.8,598.84,370.8,598.84z"/>
	<path class="st17" d="M372.44,588.67c-1.64,1.55-3.65,6.44-3.65,9.6c0,3.16,1.83,4.03,1.83,4.03s26.93-0.29,33.55,1.44
		c6.61,1.73,20.96,8.91,22.99,8.91s3.47-3.74,3.47-5.46c0-1.73,2.77-27.08-3.47-31.63c-6.24-4.55-16.67,0.86-21.7,2.01
		S372.44,588.67,372.44,588.67z"/>
	<path class="st18" d="M370.8,590.22c0,0,3.74,2.01,12.65,0s43.42-13.23,43.42-13.23s1.44-4.03-2.3-5.46s-25.6,0-25.6,0
		s-9.48,2.59-15.23,7.19C377.99,583.31,370.8,590.22,370.8,590.22z"/>
	<linearGradient id="SVGID_9_" gradientUnits="userSpaceOnUse" x1="1160.0957" y1="574.1768" x2="1210.2474" y2="574.1768">
		<stop  offset="0" style="stop-color:#FD6F70"/>
		<stop  offset="0.5" style="stop-color:#FE4352"/>
		<stop  offset="0.8309" style="stop-color:#FC4C64"/>
		<stop  offset="0.9719" style="stop-color:#F7535A"/>
	</linearGradient>
	<path class="st19" d="M1160.19,556.57c2.16,0.04,40.33,21.35,48.1,30.63c7.76,9.27-9.92,1.73-11.43,1.08s-15.5-4.45-15.5-4.45
		s-11.89-17.77-17.07-22.51C1159.11,556.57,1160.19,556.57,1160.19,556.57z"/>
	<path class="st20" d="M1037.42,639.44c3.71,2.25,25.57,54.59,27.87,56.89c2.3,2.3,16.68-5.18,16.68-5.18s-35.06-69.6-37.08-79.95
		c-2.03-10.35-7.47,20.71-7.47,20.71V639.44z"/>
	<path class="st20" d="M1058.24,537.27c0,0,53.64-10.61,73.77,3.77c20.13,14.38,41.96,29,49.35,42.78c0,0-17.9-39.53-57.4-52.44
		c-39.5-12.91-81.67-1.84-81.67-1.84v11.49L1058.24,537.27z"/>
	<path class="st21" d="M865.57,502.72l62.83,3.53c0,0-28.47,13.23-30.2,14.38c-1.73,1.15-40.26,5.75-44.29,5.46
		s-72.76-4.03-72.76-4.03s-10.35-4.09-2.59-7.65C786.34,510.85,838.68,502.65,865.57,502.72z"/>
	<linearGradient id="SVGID_10_" gradientUnits="userSpaceOnUse" x1="593.1702" y1="549.6967" x2="1123.955" y2="549.6967">
		<stop  offset="0" style="stop-color:#343436"/>
		<stop  offset="0.4853" style="stop-color:#4A4A4A"/>
		<stop  offset="0.9719" style="stop-color:#222222"/>
	</linearGradient>
	<path class="st22" d="M1047.88,596.71c0,0-1.14-56.69,16.55-65.32c17.69-8.63,59.53,0,59.53,0s-75.49-33.65-194.54-28.04
		c0,0-26.74,3.45-40.55,9.92c-13.8,6.47-21.14,9.06-23.29,7.33c-2.16-1.73,22.43-11.65,36.23-14.67c0,0-63.41,2.59-85.84,9.06
		c-22.43,6.47-22.43,0.43-14.23-3.45s63.84-8.83,63.84-8.83s-69.88-1.1-124.23,8.83c-54.35,9.92-110.24,31.33-137.11,50.56
		s3.68,3.1,3.68,3.1s12.22-12.25,40.69-17.43c28.47-5.18,113.45-16.39,113.45-16.39s71.46-2.59,72.61-2.59s31.35,3.88,36.09,3.88
		s79.8,10.78,87.57,12.51c7.76,1.73,78.94,21.14,80.23,22.43s6.47,29.09,6.47,29.09H1047.88z"/>
	<path class="st20" d="M472.32,698.92c0.58-4.36,118.48-123.37,140.91-133.72s113.94-26.74,130.3-25.02
		c16.36,1.73,12.91,12.08,18.08,14.67c5.18,2.59,42.56,0.86,48.02-1.73s30.54-13.19,40-13.07c9.46,0.13,97.46,7.03,131.97,16.52
		c34.51,9.49,53.49,23.29,53.49,34.51c0,11.22-24.13,86.22-31.92,98.97c-7.79,12.75-17.83,20.94-17.83,20.94l35.87-10.26
		l27.68-104.7c0,0,1.73-25.66-18.12-32.56c-19.84-6.9-144.86-37.1-228.15-33.65s-146.55,14.67-174.02,23.29
		c-27.47,8.63-70.6,47.15-82.68,58.09c-12.08,10.93-86.27,78.84-86.27,78.84L472.32,698.92z"/>
	<path class="st16" d="M1178.02,624.15c0,0-25.31,2.55-43.14,12.35c-17.83,9.79-66.72,26.27-70.17,28.67
		c-3.45,2.4-9.78,9.3-2.88,11.32s17.83-2.01,22.43-5.46s51.19-25.31,60.39-29.33c9.2-4.03,39.11-12.62,39.11-12.62l-2.9-3.74
		L1178.02,624.15z"/>
	<path class="st23" d="M1176.48,623.26c0,0-1.91,8.05,13.05,13.24c14.95,5.19,33.65,8.93,36.52,9.22s36.82-16.64,36.82-16.64
		l1.19-14.83c0,0-29.4,1.04-36.28-1.09c-6.88-2.13-45.15-1.94-45.15-1.94L1176.48,623.26z"/>
	<path class="st18" d="M1180.89,586.19c0,0-1.11-6.04,10.8-6.9c11.91-0.86,40.03,0,40.03,0s30.88,14.82,31.13,25.39
		c0.25,10.57-4.31,8.83-18.69,7.39s-58.38-1.44-58.38-1.44L1180.89,586.19z"/>
	<path class="st17" d="M1262.85,604.68c0,0-53.49,1.93-64.7-1.23c-11.22-3.16-17.25-17.25-17.25-17.25s-8.05,13.79-5.46,34.79
		c0,0,1.15,3.75,2.59,3.17s-2.01-4.89,4.89-6.9s78.22-0.58,78.22-0.58S1269.75,612.24,1262.85,604.68z"/>
	<path class="st24" d="M1417.22,605.46c0,0-31.86,3.31-48.25,5.46c-16.39,2.16-64.2,3.12-62.94,6.95
		c1.26,3.83,53.33,20.22,56.41,18.5c3.08-1.73,59.59-22.13,59.59-22.13L1417.22,605.46z"/>
	<path class="st25" d="M1260.84,618.69c0,0-2.48,17.69-35.82,25.02s-74.01,70.47-78.7,74.19s-45.63,12.77-44.79,17.25
		c0.84,4.48,12.27,11.42,17.11,11.22c4.84-0.21,141.05-25.88,142.2-25.88s98.21-50.47,99.5-51.33c1.29-0.86,69.88-54.91,69.88-54.91
		s-59.34,22.56-64.18,22.56S1260.84,618.69,1260.84,618.69z"/>
	<linearGradient id="SVGID_11_" gradientUnits="userSpaceOnUse" x1="1241.9597" y1="597.4745" x2="1298.2258" y2="698.5705">
		<stop  offset="0" style="stop-color:#FD6F70"/>
		<stop  offset="0.5" style="stop-color:#FE4352"/>
		<stop  offset="0.8309" style="stop-color:#FC4C64"/>
		<stop  offset="0.9719" style="stop-color:#F7535A"/>
	</linearGradient>
	<path class="st26" d="M1122.66,676.49c0,0,57.08-13.52,63.98-39.97c0,0,53.49,10.35,61.54,10.93c0,0-5.75,7.48,4.6,5.75
		c10.35-1.73,71.61-12.08,76.93-12.65c5.32-0.58-13.08-11.43-31.49-15.21c-18.4-3.77-37.38-6.65-37.38-6.65l4.31-2.3
		c0,0,32.21,0.86,62.98,2.59c30.77,1.73,54.35,5.18,63.84,2.3s24.61-13.8,25.25-15.82c0.64-2.01,19.9,0.58,21.34,0
		s-14.67,3.74-18.4,6.33c-3.74,2.59,26.68-1.92,31.6,4.65c4.92,6.57-90.82,43.29-105.35,40.32c-14.54-2.98-9.65-5.85-25.75,3.64
		c-16.1,9.49-72.76,42.27-80.81,42.85c-8.05,0.58-55.43,11.89-55.43,11.89l-69.38,10.54c0,0-8.63-12.65-8.91-14.67
		C1105.84,708.98,1122.66,676.49,1122.66,676.49z"/>
	<linearGradient id="SVGID_12_" gradientUnits="userSpaceOnUse" x1="1349.5719" y1="643.2157" x2="1420.3147" y2="770.3228">
		<stop  offset="0" style="stop-color:#DA0C0D"/>
		<stop  offset="0.5159" style="stop-color:#F96064"/>
		<stop  offset="1" style="stop-color:#B80600"/>
	</linearGradient>
	<path class="st27" d="M1479.39,688.52c0,0-2.19-31.24-19.55-27.27s-40.76,60.92-41.99,97.75l-45.22,45.46l-115.24-98.22
		c0,0,47.16-20.96,82.82-45.34s86.27-50.26,105.25-46.24c18.98,4.03,25.88,16.1,27.89,24.73c2.01,8.63,10.78,45.15,11.07,52.19
		l-2.59,1.44L1479.39,688.52z"/>
	<linearGradient id="SVGID_13_" gradientUnits="userSpaceOnUse" x1="1367.1276" y1="658.8516" x2="1440.2817" y2="779.4835">
		<stop  offset="0" style="stop-color:#FE6666;stop-opacity:0"/>
		<stop  offset="0.9548" style="stop-color:#F78084"/>
	</linearGradient>
	<path class="st28" d="M1334.3,751.48c0,0,47.6-22.36,60.11-36.17l19.41,23.72L1399.59,711c0,0,12.39-7.33,17.63-9.49
		c5.24-2.16,11.28,0,11.28,0s8.2-43.14,25.02-50.04s18.12,7.33,18.12,7.33s0-12.51-9.92-18.98c-9.92-6.47-17.25-9.06-20.71-12.51
		c-3.45-3.45-13.37-2.08-22,1.76c-3.64,1.62-30.8,37.33-54.78,54.75c-32.84,23.85-64.89,31.32-69.72,34.07
		C1294.5,717.89,1326.95,741.94,1334.3,751.48z"/>
	<linearGradient id="SVGID_14_" gradientUnits="userSpaceOnUse" x1="1231.7428" y1="811.1006" x2="1318.5897" y2="954.3116">
		<stop  offset="0" style="stop-color:#980E14"/>
		<stop  offset="0.3331" style="stop-color:#930403"/>
		<stop  offset="0.8016" style="stop-color:#BD0610"/>
		<stop  offset="0.9719" style="stop-color:#DA0B15"/>
	</linearGradient>
	<path class="st29" d="M1303.98,782.41c0,0,34.8,29.09,50.33,35.78c15.53,6.69,12.08,26.92,9.49,29.31s-144.07,99.7-144.07,99.7
		s-33.65-1.95-35.37-13.4c-1.73-11.44-9.36-86.3-9.36-86.3L1303.98,782.41z"/>
	<linearGradient id="SVGID_15_" gradientUnits="userSpaceOnUse" x1="1009.9266" y1="998.6565" x2="1442.1479" y2="768.311">
		<stop  offset="0" style="stop-color:#9B0400"/>
		<stop  offset="0.4377" style="stop-color:#610301"/>
		<stop  offset="0.6989" style="stop-color:#6D0200"/>
		<stop  offset="0.9719" style="stop-color:#8E0300"/>
	</linearGradient>
	<path class="st30" d="M1157.24,816.12c0,0,23.37,41.99,27.4,47.36c4.03,5.37,16.68,30.1,29.33,37s28.47,2.3,44.29-8.05
		s100.8-81.1,100.8-81.1l57.07-52.34c0,0,1.58-1.08,0.93,4.1c-0.65,5.18-5.54,67.77-6.69,94.24c-1.15,26.47,0.22,29.56-2.8,32.58
		c-3.02,3.02-28.04,17.69-39.47,20.71c-11.43,3.02-15.96-1.94-44.86,13.16c-28.9,15.1-162.19,91.23-162.19,91.23
		s-5.93,3.24-6.52,2.16c-0.6-1.08,9.54-92.38-3.61-198.35L1157.24,816.12z"/>
	<linearGradient id="SVGID_16_" gradientUnits="userSpaceOnUse" x1="1362.2328" y1="790.3133" x2="1447.501" y2="930.9212">
		<stop  offset="0" style="stop-color:#FE6666;stop-opacity:0"/>
		<stop  offset="0.9548" style="stop-color:#F78084"/>
	</linearGradient>
	<path class="st31" d="M1355.93,816.25l61.35-57.37l-8.2,127.25c0,0-0.96,8.06-22.48,8.78c-21.52,0.71-43.09-1.01-36.18-6.19
		c6.9-5.18,44.86-30.63,41.84-47.88C1389.24,823.58,1354.53,819.27,1355.93,816.25z"/>
	<polygon class="st32" points="1155.1,812.51 1157.24,817.3 1150.91,819.99 1149.78,814.23 	"/>
	<path class="st4" d="M1303.98,782.41c0,0,7.84,14.64,12.8,21.54s10.57,14.23,13.37,15.31c2.8,1.08,24.16-1.08,24.16-1.08
		l16.61-19.84c0,0-20.92-33.39-26.1-36.11c-5.18-2.72-31.7-8.11-35.37-8.32c-3.67-0.22-20.92,0.65-20.92,5.61
		c0,4.96,13.16,23.94,13.16,23.94L1303.98,782.41z"/>
	<linearGradient id="SVGID_17_" gradientUnits="userSpaceOnUse" x1="1279.1293" y1="838.3364" x2="1173.8778" y2="664.0675">
		<stop  offset="0" style="stop-color:#980E14"/>
		<stop  offset="0.4015" style="stop-color:#360101"/>
		<stop  offset="0.8309" style="stop-color:#540F0D"/>
		<stop  offset="0.9719" style="stop-color:#930403"/>
	</linearGradient>
	<path class="st33" d="M1154.53,811.74c0,0,20.9,43.71,30.1,52.91c0,0,76.21-37.38,102.66-61.54
		c26.46-24.16,16.68-18.98,16.68-20.71c0-1.73-5.67-17.33,1.77-20.17c7.44-2.84,39.07,0,39.07,0s-39.11-42.52-67.87-54.02
		c-28.76-11.5-158.31,30.9-158.31,30.9L1154.53,811.74z"/>
	<linearGradient id="SVGID_18_" gradientUnits="userSpaceOnUse" x1="694.7657" y1="673.935" x2="463.5575" y2="1175.1737">
		<stop  offset="0" style="stop-color:#222022"/>
		<stop  offset="0.5782" style="stop-color:#0D0D0D"/>
		<stop  offset="0.9976" style="stop-color:#111111"/>
	</linearGradient>
	<path class="st34" d="M443.51,688.57l17.88-4.31l3.45,2.16c0,0-5.61,4.74,0,6.47c5.61,1.73,38.39,7.76,134.58,9.49
		c96.19,1.73,336.46,3.87,336.46,3.87s-185.92,52.64-188.07,52.64s-121.68,5.57-126.56,3.77c-4.88-1.8-174.52-22.32-175.39-24.05
		c-0.86-1.73-25.02-23.72-24.16-27.61C422.57,707.11,443.51,688.57,443.51,688.57z"/>
	<linearGradient id="SVGID_19_" gradientUnits="userSpaceOnUse" x1="339.1594" y1="1171.9451" x2="384.4237" y2="1000.9468">
		<stop  offset="0" style="stop-color:#980E14"/>
		<stop  offset="0.5159" style="stop-color:#E60B15"/>
		<stop  offset="0.8309" style="stop-color:#540F0D"/>
		<stop  offset="0.9719" style="stop-color:#930403"/>
	</linearGradient>
	<path class="st35" d="M90.42,1088c0,0,71.61,28.47,151.84,38.82c80.23,10.35,360.47,7.45,360.47,7.45l59.91-19.53
		c0,0-8-13.8-25.25-20.71c-17.25-6.9-139.76-18.12-151.84-18.12c-12.08,0-268.31-22.51-283.83-29.37
		c-15.53-6.86-101.8-31.86-111.29-24.97c-9.49,6.89-28.47,32.77-28.47,32.77v23.16L90.42,1088z"/>
	<linearGradient id="SVGID_20_" gradientUnits="userSpaceOnUse" x1="350.1459" y1="1092.3295" x2="333.7542" y2="1157.896">
		<stop  offset="0" style="stop-color:#FE6666;stop-opacity:0"/>
		<stop  offset="0.9548" style="stop-color:#F78084"/>
	</linearGradient>
	<path class="st36" d="M75.28,1054.06c0,0-7.89,13.67,2.11,21.43c10.01,7.76,94.55,43.57,160.55,49.17s278.66,12.08,330.42,6.04
		c51.76-6.04,66.45-11.24,58.03-12.09c-8.42-0.85-312.1,10.36-346.17,0.44s-12.94-9.16-22-11.77c-9.06-2.61-22.86,0.56-28.47,2.28
		s-80.18-9.16-124.23-31.49C74.89,1062.55,73.16,1055.33,75.28,1054.06z"/>
	<linearGradient id="SVGID_21_" gradientUnits="userSpaceOnUse" x1="64.2502" y1="1090.6565" x2="94.6847" y2="975.6818">
		<stop  offset="0" style="stop-color:#222022"/>
		<stop  offset="0.5782" style="stop-color:#0D0D0D"/>
		<stop  offset="0.9976" style="stop-color:#111111"/>
	</linearGradient>
	<path class="st37" d="M67.41,1011.51c0,0-54.64,25.31-51.76,40.84S90.42,1088,90.42,1088s-23.58-13.8-23.58-20.71
		s7.62-16.1,20.49-17.54s45.95,4.67,45.95,4.67s7.18-27.37,7.76-32.84c0.58-5.47-22.29-22.08-22.29-22.08L67.41,1011.51z"/>
	<linearGradient id="SVGID_22_" gradientUnits="userSpaceOnUse" x1="722.929" y1="1194.458" x2="793.7358" y2="926.9657">
		<stop  offset="0" style="stop-color:#222022"/>
		<stop  offset="0.5782" style="stop-color:#0D0D0D"/>
		<stop  offset="0.9976" style="stop-color:#111111"/>
	</linearGradient>
	<path class="st38" d="M981.54,1062.79c0,0,12.37,1.19,12.94,12.12s-0.87,18.4-6.47,21.86c-5.61,3.45-184.48,55.79-417.41,35.08
		c0,0,45.44-9.2,55.79-13.23s10.93-6.33,4.03-8.63c-6.9-2.3-86.85-14.95-86.85-14.95l-3.45-126.56l178.72-12.05l226.18,51.19
		L981.54,1062.79z"/>
	<linearGradient id="SVGID_23_" gradientUnits="userSpaceOnUse" x1="284.225" y1="1137.364" x2="354.1051" y2="873.3726">
		<stop  offset="0" style="stop-color:#222022"/>
		<stop  offset="0.5782" style="stop-color:#18171C"/>
		<stop  offset="0.9976" style="stop-color:#1A1A1A"/>
	</linearGradient>
	<path class="st39" d="M546.79,972.89l4.32,95.27c0,0,1.15,27.32-16.68,36.52c-17.83,9.2-319.78-8.91-324.09-8.91
		c-4.31,0-80.23-43.14-80.23-43.14l-10.07-45.04c0,0-32.29-38.06-32.68-44.39s3.23-56.65,9.62-59.53s325.59,27.32,329.91,29.04
		C431.19,934.44,546.79,972.89,546.79,972.89z"/>
	<linearGradient id="SVGID_24_" gradientUnits="userSpaceOnUse" x1="1113.8276" y1="642.9267" x2="605.2558" y2="887.5071">
		<stop  offset="0" style="stop-color:#980E14"/>
		<stop  offset="0.3331" style="stop-color:#E60B15"/>
		<stop  offset="0.8016" style="stop-color:#BD0610"/>
		<stop  offset="0.9719" style="stop-color:#DA0B15"/>
	</linearGradient>
	<path class="st40" d="M891.45,708.98c1.29,0.29,42.7-2.75,42.7-2.75s88-3.87,107.41-8.18c19.41-4.31,81.1-21.57,81.1-21.57
		s5.61,5.18,0,13.8c-5.61,8.63-15.53,32.35-3.02,31.49c12.51-0.86,73.33-12.51,72.04-9.92s-77.21,26.31-80.23,27.61
		c-3.02,1.29-110.43-3.88-115.17-2.59c-4.74,1.29-165.64,52.49-173.41,58.17c-7.76,5.67-123.37,108.91-125.96,108.63
		c-2.59-0.29-178.91,9.82-180.9,9.51c-2-0.31-70.73-15.43-64.4-24.26s209.07-136.65,215.1-137.44
		C672.75,750.68,891.45,708.98,891.45,708.98z"/>
	<linearGradient id="SVGID_25_" gradientUnits="userSpaceOnUse" x1="195.1782" y1="673.8822" x2="236.0135" y2="849.3014">
		<stop  offset="0" style="stop-color:#980E14"/>
		<stop  offset="0.5159" style="stop-color:#E60B15"/>
		<stop  offset="0.8309" style="stop-color:#540F0D"/>
		<stop  offset="0.9719" style="stop-color:#930403"/>
	</linearGradient>
	<path class="st41" d="M317.86,690.28c0,0,20.73-3.44,42.87,31.06c22.14,34.51-223.28,148.19-226.53,150.01
		c-3.24,1.83-53.7-1.62-50.04-10.25c3.66-8.63,47.66-80.08,60.6-90.51c12.94-10.43,116.47-75.13,121.64-75.13
		c4.09,0,25.41-3.92,37.74-5.28C307.45,689.83,317.86,690.28,317.86,690.28z"/>
	<linearGradient id="SVGID_26_" gradientUnits="userSpaceOnUse" x1="985.5106" y1="680.95" x2="627.0516" y2="944.9415">
		<stop  offset="0" style="stop-color:#FD6F70"/>
		<stop  offset="0.5" style="stop-color:#FE4352"/>
		<stop  offset="0.8309" style="stop-color:#FC4C64"/>
		<stop  offset="0.9719" style="stop-color:#F7535A"/>
	</linearGradient>
	<path class="st42" d="M1154.53,812.51c-0.75-2.68-24.25-85.24-69.11-95.82s-126.53-4.83-136.88-3.1
		c-4.4,0.73-33.06,11.7-67.27,27.61c-46.37,21.56-102.92,52.21-123.1,78.79c-35.06,46.2-69.02,65.57-69.02,55.79
		s45.44-85.7,148.96-117.9l83.73-36.23c0,0-48.36,14.09-48.65,8.91c-0.29-5.18,98.64-24.16,96.91-24.16c-1.73,0-7.19-2.01-57.8,8.34
		c-50.61,10.35-418.13,155.66-422.16,156.63c-4.03,0.96,319.21-142.82,396.27-157.78l49.46-7.35c0,0-128.83,3.03-167.08,6.48
		s-64.31,14.61-64.31,14.61l-189.05,80.21c0,0-175.16,92.23-180,96.13c-4.84,3.89-63.66,65.22-63.66,65.22s80.05,0.81,88.39,0
		s453.21-23.24,456.38-23.24s155.56-3.45,155.56-3.45l32.23-29.33c0,0,9.92-53.78,22.43-79.08c12.51-25.31,33.65-60.68,45.72-70.6
		c12.08-9.92,30.63-28.04,47.88-5.61C1137.61,780.01,1154.53,812.51,1154.53,812.51z"/>
	<linearGradient id="SVGID_27_" gradientUnits="userSpaceOnUse" x1="392.1913" y1="682.7475" x2="195.2734" y2="827.77">
		<stop  offset="0" style="stop-color:#FD6F70"/>
		<stop  offset="0.5" style="stop-color:#FE4352"/>
		<stop  offset="0.8309" style="stop-color:#FC4C64"/>
		<stop  offset="0.9719" style="stop-color:#F7535A"/>
	</linearGradient>
	<path class="st43" d="M443.51,688.57c0,0-82.77,17.54-135.68,49.75s-188.91,94.06-191.37,93.9c-2.46-0.16-16.26,5.02-8.21-2.74
		S218.1,725.92,260.09,706.24s60.67-15.66,60.67-15.66s-59.52-6.42-91.72-2.06s-65.57,28.23-65.57,28.23S50.86,815.39,24.63,861.11
		l11.73,29.04l60.62,34.51l96.97,38.53c0,0,63.27-70.74,65.57-76.49c2.3-5.75,151.26-144.94,155.29-148.39
		c4.03-3.45,26.46-29.33,26.46-29.33l-5.18-12.65l9.78-7.81"/>
	<linearGradient id="SVGID_28_" gradientUnits="userSpaceOnUse" x1="31.5959" y1="1052.5883" x2="98.0251" y2="905.9263">
		<stop  offset="0" style="stop-color:#980E14"/>
		<stop  offset="0.5159" style="stop-color:#E60B15"/>
		<stop  offset="0.8309" style="stop-color:#540F0D"/>
		<stop  offset="0.9719" style="stop-color:#930403"/>
	</linearGradient>
	<path class="st44" d="M34.17,891.73l29.22,116.9c0,0,1.58,13.37,14.52,12.94c12.94-0.43,42.7-10.35,42.7-10.35l-12.37-77.21
		L34.17,891.73z"/>
	<linearGradient id="SVGID_29_" gradientUnits="userSpaceOnUse" x1="258.1977" y1="1164.2203" x2="276.6023" y2="917.4832">
		<stop  offset="0" style="stop-color:#980E14"/>
		<stop  offset="0.5159" style="stop-color:#E60B15"/>
		<stop  offset="0.8309" style="stop-color:#540F0D"/>
		<stop  offset="0.9719" style="stop-color:#930403"/>
	</linearGradient>
	<path class="st45" d="M223.95,974.39l14.86,126.9c0,0,5.46,3.97,12.37,3.39c6.9-0.58,43.71-15.53,43.71-15.53s1.44-2.59,1.73-9.49
		s0-80.52,0-80.52s11.22-20.42,22.43-23.58c11.22-3.16-36.23-5.18-37.67-4.89C279.93,970.96,223.95,974.39,223.95,974.39z"/>
	<linearGradient id="SVGID_30_" gradientUnits="userSpaceOnUse" x1="736.3851" y1="824.827" x2="533.6466" y2="888.668">
		<stop  offset="0" style="stop-color:#FE6666;stop-opacity:0"/>
		<stop  offset="0.9548" style="stop-color:#F78084"/>
	</linearGradient>
	<path class="st46" d="M475.63,888.42l217.54-12.64c0,0,30.54-94.9,156.47-119.92C849.64,755.86,614.08,814.35,475.63,888.42z"/>
	<linearGradient id="SVGID_31_" gradientUnits="userSpaceOnUse" x1="224.5162" y1="1158.8158" x2="242.0258" y2="924.0787">
		<stop  offset="0" style="stop-color:#980E14"/>
		<stop  offset="0.5159" style="stop-color:#E60B15"/>
		<stop  offset="0.8309" style="stop-color:#540F0D"/>
		<stop  offset="0.9719" style="stop-color:#930403"/>
	</linearGradient>
	<path class="st47" d="M249.12,976.13c-1.15-0.05-6.86,4.9-7.15,10.07c-0.29,5.18,9.2,115.09,9.2,115.09s0,3.39-2.01,3.39
		c-2.01,0-9.78-1.15-9.78-1.15s-13.23-121.36-15.24-124.23c-2.01-2.88-8.05-7.48-8.05-7.48L249.12,976.13z"/>
	<linearGradient id="SVGID_32_" gradientUnits="userSpaceOnUse" x1="576.6238" y1="699.7163" x2="606.3876" y2="1030.9998">
		<stop  offset="0" style="stop-color:#980E14"/>
		<stop  offset="0.5159" style="stop-color:#E60B15"/>
		<stop  offset="0.8309" style="stop-color:#540F0D"/>
		<stop  offset="0.9719" style="stop-color:#930403"/>
	</linearGradient>
	<path class="st48" d="M25.52,855.94c0.81-3.64-4.03,15.23,0,27.02s109.85,75.06,184.05,89.43c74.19,14.38,464.14-7.76,482.55,0
		c18.4,7.76,73.62,113.88,73.62,113.88s6.61,12.08,50.33,14.67s141.2-9.49,159.32-32.78c0,0,28.47-195.26,63.84-251.91
		c35.37-56.65,49.55-67.15,78.51-55.72c17.69,6.98,31.06,50.83,31.06,50.83s0.43,2.73,1.01,2.88c0.58,0.14,5.32-1.73,5.32-1.73
		s-17.97-70.36-56.36-64.8c-38.39,5.56-69.45,65.95-74.19,78.03c-4.74,12.08-23.29,74.63-23.29,74.63s-29.76,10.35-33.65,5.61
		c-3.88-4.74,16.82-40.98,13.8-44.86c-3.02-3.88-84.55,37.53-116.04,42.7c-31.49,5.18-140.62,31.06-210.5,34.51
		c-69.88,3.45-365.36,29.33-375.28,27.61c0,0-2.59-4.31,17.25-19.84c19.84-15.53,110.53-78.36,175.73-112.3
		c65.2-33.93,240.3-109.85,240.3-109.85s-13.2,3.02-15.11,2.05c-1.9-0.97-244.05-1.62-247.21-3.78s-7.75-5.52-7.75-5.52h7.75
		c0,0-15.24-22.52-7.05-28.12c0,0-8.2-1.29-10.35,9.49c-2.16,10.78-3.45,15.7-7.33,18.63S307.2,799.02,279.59,832.22
		c-27.61,33.2-61.25,74.18-83.68,125.94c0,0-4.74,0-15.1-4.31C170.46,949.54,15.6,900.38,25.52,855.94z"/>
	<linearGradient id="SVGID_33_" gradientUnits="userSpaceOnUse" x1="588.2387" y1="707.3596" x2="348.9785" y2="908.0851">
		<stop  offset="0" style="stop-color:#FD6261"/>
		<stop  offset="0.5159" style="stop-color:#FD5F5F"/>
		<stop  offset="1" style="stop-color:#FD393B"/>
	</linearGradient>
	<path class="st49" d="M443.86,716.69c0,0-8.63,11.27-20.71,21.05c-12.08,9.78-40.84,32.86-40.84,32.86s48.6-3.53,86.42-2.38
		s112.58,10.51,112.58,10.51s81.1-43.29,112.15-49.62l6.9-4.03C700.37,725.09,460.53,720.37,443.86,716.69z"/>
	<linearGradient id="SVGID_34_" gradientUnits="userSpaceOnUse" x1="562.3485" y1="676.499" x2="323.0883" y2="877.2246">
		<stop  offset="0" style="stop-color:#FD6261"/>
		<stop  offset="0.5159" style="stop-color:#FD5F5F"/>
		<stop  offset="1" style="stop-color:#FD393B"/>
	</linearGradient>
	<path class="st50" d="M311,848.26c5.18,1.63,61.24,13.88,84.55,7.68c0,0-138.61,110.71-138.32,112.43
		c0.29,1.73-47.45-1.15-50.33-4.03s42.56-55.79,58.09-74.19C280.51,871.75,311,848.26,311,848.26z"/>
	<linearGradient id="SVGID_35_" gradientUnits="userSpaceOnUse" x1="360.7377" y1="789.0715" x2="576.1295" y2="789.0715">
		<stop  offset="0" style="stop-color:#350609"/>
		<stop  offset="0.5159" style="stop-color:#C20610"/>
		<stop  offset="1" style="stop-color:#7D0910"/>
	</linearGradient>
	<path class="st51" d="M360.74,777.43c0,0,31.35-10.07,105.54-5.75s109.85,9.78,109.85,9.78l-52.89,26.08h-49.2l-106.69-4.52
		c0,0-4.6-4.45-5.18-7.98C361.6,791.52,360.74,777.43,360.74,777.43z"/>
	<linearGradient id="SVGID_36_" gradientUnits="userSpaceOnUse" x1="294.8949" y1="826.3126" x2="516.0092" y2="826.3126">
		<stop  offset="0" style="stop-color:#350609"/>
		<stop  offset="0.5159" style="stop-color:#C20610"/>
		<stop  offset="1" style="stop-color:#7D0910"/>
	</linearGradient>
	<path class="st52" d="M294.89,833.9c0,0,1.41-9.6,5.44-13.34c4.03-3.74,20.71-16.2,20.71-16.2l194.97,8.72l-62.69,30.63
		c0,0-90.59,5.32-95.47,4.46S294.89,833.9,294.89,833.9z"/>
	<path class="st53" d="M849.64,708.98c0,0-23.03,43.71-64.44,56.36C743.78,778,517.18,866,472.32,890.15"/>
	<path class="st53" d="M328.53,729.11c-1.15,1.73-88.57,53.06-143.21,136.38"/>
	<path class="st53" d="M108.25,839.06c2.3-0.67,79.95,33.84,97.2,36.14c17.25,2.3,32.21,8.63,36.81,14.95
		c4.6,6.33,2.37,4.6,2.37,4.6l110.64,8.91"/>
	<path class="st53" d="M375.69,890.15c0,0,119.05-1.44,186.06-4.31s131.42-10.07,131.42-10.07"/>
	<linearGradient id="SVGID_37_" gradientUnits="userSpaceOnUse" x1="293.4457" y1="843.7129" x2="451.6106" y2="843.7129">
		<stop  offset="0" style="stop-color:#080A10"/>
		<stop  offset="0.5098" style="stop-color:#14161D"/>
		<stop  offset="0.7021" style="stop-color:#20222A"/>
	</linearGradient>
	<path class="st54" d="M293.45,833.79c0,0,17.25,17.25,63.27,19.55c46.01,2.3,94.9-9.78,94.9-9.78L293.45,833.79z"/>
	<linearGradient id="SVGID_38_" gradientUnits="userSpaceOnUse" x1="328.5296" y1="795.0443" x2="525.2291" y2="795.0443">
		<stop  offset="0" style="stop-color:#080A10"/>
		<stop  offset="0.5098" style="stop-color:#14161D"/>
		<stop  offset="0.7021" style="stop-color:#20222A"/>
	</linearGradient>
	<path class="st55" d="M361.89,778.73l5.75,22.24l157.59,5.33l-8.05,5.07c0,0-167.37-6.41-188.65-10.39
		C328.53,800.97,350.39,781.18,361.89,778.73z"/>
	<linearGradient id="SVGID_39_" gradientUnits="userSpaceOnUse" x1="23.4022" y1="840.5953" x2="137.5659" y2="767.25">
		<stop  offset="0" style="stop-color:#303039"/>
		<stop  offset="0.7021" style="stop-color:#717C7C"/>
	</linearGradient>
	<path class="st56" d="M74.89,846.01c0,0,17.25-18.98,22.86-23.72c5.61-4.74,13.8-9.49,14.23-17.25s4.74-32.35,14.23-44
		c9.49-11.65,22-19.84,35.37-31.49c13.37-11.65,18.98-16.39,18.12-17.69c-0.86-1.29-13.8,0.43-24.16,5.61
		c-10.35,5.18-32.35,24.16-48.31,39.25c-15.96,15.1-47.88,59.96-50.9,65.57C53.32,827.89,56.77,842.13,74.89,846.01z"/>
	<path class="st57" d="M77.28,804.6c-4.03,2.52-10.99,14.67,0,13.37c10.99-1.29,25.82-15.71,17.02-17.01
		C85.5,799.67,83.55,800.68,77.28,804.6z"/>
	<path class="st58" d="M66.26,821.13c0,0,7.33,3.31,13.37,2.88c6.04-0.43,9.92-2.88,9.92-2.88s-5.18,11.51-9.49,11.08
		C75.75,831.78,66.26,821.13,66.26,821.13z"/>
	<path class="st58" d="M69.43,804.35c-0.21,0.84,59.24-64.6,66.43-68.63c7.19-4.03,28.47-20.13,27.61-18.98
		s-31.63,14.67-36.81,20.13C121.48,742.34,71.73,795.05,69.43,804.35z"/>
	<path class="st59" d="M96.97,781.31c-0.41,0.66,13.51-1.08,14.58-0.86c1.08,0.22,12.08-24.16,26.96-36.67
		c14.88-12.51,36.02-25.45,32.57-25.67S120.56,743.56,96.97,781.31z"/>
	<path class="st60" d="M95.16,820.99c-1.78,1.78,4.74-14.17,2.59-20.03c-2.16-5.86-3.45-5.86-8.63-3.27
		c-5.18,2.59-18.12,10.82-18.12,10.82s22.95-23.33,27.44-20.74C102.93,790.37,108.97,807.19,95.16,820.99z"/>
	<linearGradient id="SVGID_40_" gradientUnits="userSpaceOnUse" x1="676.0027" y1="935.8586" x2="881.9045" y2="803.5753">
		<stop  offset="0" style="stop-color:#303039"/>
		<stop  offset="0.7021" style="stop-color:#717C7C"/>
	</linearGradient>
	<path class="st61" d="M734.04,854.78c0,0,44.54-16.68,56.62-20.42c12.08-3.74,64.99-23.58,74.19-30.77
		c9.2-7.19,57.23-40.55,76.49-48.89c19.27-8.34,44-8.34,44-8.34s-37.92,34.64-57.51,49.75s-73.04,76.21-100.65,84.55
		c-27.61,8.34-88.28,12.94-98.92,12.94s-16.1-2.88-13.8-10.07C716.75,876.35,728.34,856.91,734.04,854.78z"/>
	<path class="st60" d="M854.5,834.08l-30.48,8.63c0,0-27.44,6.82-39.75,7.01c-12.3,0.18-39.91,6.23-39.91,6.23
		s71.89-26.47,85.12-26.47S852.49,830.63,854.5,834.08z"/>
	<path class="st62" d="M761.33,858.52c0.96-0.39-6.61,8.91,2.59,10.07c9.2,1.15,45.72,3.16,45.72,3.16s-60.97,10.64-65.28,8.34
		S753.56,861.68,761.33,858.52z"/>
	<path class="st63" d="M817.12,853.06c0,0-10.93,11.5-23.87,12.37c-12.94,0.86-18.12-6.12-15.24-9.78
		c2.88-3.65,27.61-8.52,30.48-8.14C811.36,847.88,817.12,853.06,817.12,853.06"/>
	<path class="st64" d="M778.01,855.65c-0.33,1.4,39.11-2.59,39.11-2.59s11.22-7.48,10.07-11.22c-1.15-3.74-15.24-3.16-20.71-1.44
		C801.01,842.13,779.44,849.61,778.01,855.65z"/>
	<path class="st59" d="M834.66,821.42c0,0,17.83-0.86,23.29,1.44c5.46,2.3,6.61,6.61,6.61,6.61s28.18-17.91,37.38-28.51
		s56.36-49.49,56.36-49.49s-31.35,11.57-39.4,18.18c-8.05,6.61-37.1,30.13-50.61,36.63C854.79,812.8,839.83,821.14,834.66,821.42z"
		/>
	<path class="st65" d="M847.45,861.11l12.51-19.84c0,0,21.71-13.91,40.98-34.08c23.08-24.16,65.14-55.21,67.72-55.65
		c2.59-0.43,5.61,1.29,3.02,3.88c-2.59,2.59-60.17,52.41-65.35,57.59C901.16,818.19,866,856.8,847.45,861.11z"/>
</g>
</svg>
