<?xml version="1.0" encoding="utf-8"?>
<!-- Generator: Adobe Illustrator 25.0.0, SVG Export Plug-In . SVG Version: 6.00 Build 0)  -->
<svg version="1.1" id="Слой_2" xmlns="http://www.w3.org/2000/svg" xmlns:xlink="http://www.w3.org/1999/xlink" x="0px" y="0px"
	 viewBox="0 0 1500 1500" style="enable-background:new 0 0 1500 1500;" xml:space="preserve">
<style type="text/css">
	.st0{fill:url(#SVGID_1_);}
	.st1{fill:url(#SVGID_2_);}
	.st2{fill:url(#SVGID_3_);}
	.st3{fill:#737379;}
	.st4{fill:url(#SVGID_4_);}
	.st5{fill:#3D3E40;}
	.st6{fill:#080909;}
	.st7{fill:url(#SVGID_5_);}
	.st8{fill:#161515;}
	.st9{fill:url(#SVGID_6_);}
	.st10{fill:url(#SVGID_7_);}
	.st11{fill:url(#SVGID_8_);}
	.st12{fill:url(#SVGID_9_);}
	.st13{fill:url(#SVGID_10_);}
	.st14{fill:url(#SVGID_11_);}
	.st15{fill:url(#SVGID_12_);}
	.st16{fill:url(#SVGID_13_);}
	.st17{fill:#030303;}
	.st18{fill:#FF7F3F;}
	.st19{fill:url(#SVGID_14_);}
	.st20{fill:url(#SVGID_15_);}
	.st21{fill:url(#SVGID_16_);}
	.st22{fill:url(#SVGID_17_);}
	.st23{fill:url(#SVGID_18_);}
	.st24{fill:url(#SVGID_19_);}
	.st25{fill:url(#SVGID_20_);}
	.st26{fill:url(#SVGID_21_);}
	.st27{fill:#FFFFFF;}
	.st28{fill:none;stroke:#FFFFFF;stroke-width:9;stroke-miterlimit:10;}
	.st29{fill:#292928;}
	.st30{fill:#191919;}
	.st31{fill:#494949;}
	.st32{fill:#080808;}
	.st33{fill:#070606;}
	.st34{fill:url(#SVGID_22_);}
	.st35{fill:url(#SVGID_23_);}
	.st36{fill:url(#SVGID_24_);}
	.st37{fill:url(#SVGID_25_);}
	.st38{fill:url(#SVGID_26_);}
	.st39{fill:url(#SVGID_27_);}
	.st40{fill:url(#SVGID_28_);}
	.st41{fill:url(#SVGID_29_);}
	.st42{fill:url(#SVGID_30_);}
	.st43{fill:#070706;}
	.st44{fill:url(#SVGID_31_);}
	.st45{fill:#181A1A;}
	.st46{fill:url(#SVGID_32_);}
	.st47{fill:url(#SVGID_33_);}
	.st48{fill:url(#SVGID_34_);}
	.st49{fill:url(#SVGID_35_);}
	.st50{fill:url(#SVGID_36_);}
	.st51{fill:url(#SVGID_37_);}
	.st52{fill:url(#SVGID_38_);}
	.st53{fill:url(#SVGID_39_);}
	.st54{fill:#FF937D;}
	.st55{fill:url(#SVGID_40_);}
	.st56{fill:url(#SVGID_41_);}
	.st57{fill:#171717;}
	.st58{fill:url(#SVGID_42_);}
	.st59{fill:#595A5D;}
	.st60{fill:url(#SVGID_43_);}
	.st61{fill:url(#SVGID_44_);}
	.st62{fill:url(#SVGID_45_);}
	.st63{fill:url(#SVGID_46_);}
	.st64{fill:url(#SVGID_47_);}
	.st65{fill:url(#SVGID_48_);}
	.st66{fill:url(#SVGID_49_);}
	.st67{fill:url(#SVGID_50_);}
	.st68{fill:url(#SVGID_51_);}
	.st69{fill:url(#SVGID_52_);}
	.st70{fill:url(#SVGID_53_);}
	.st71{fill:url(#SVGID_54_);}
	.st72{fill:url(#SVGID_55_);}
	.st73{fill:#313030;}
	.st74{fill:#020000;}
	.st75{fill:url(#SVGID_56_);}
	.st76{fill:url(#SVGID_57_);}
	.st77{fill:url(#SVGID_58_);}
	.st78{fill:url(#SVGID_59_);}
	.st79{fill:url(#SVGID_60_);}
	.st80{fill:url(#SVGID_61_);}
	.st81{fill:url(#SVGID_62_);}
	.st82{fill:url(#SVGID_63_);}
	.st83{fill:url(#SVGID_64_);}
	.st84{fill:url(#SVGID_65_);}
	.st85{fill:url(#SVGID_66_);}
	.st86{fill:url(#SVGID_67_);}
	.st87{fill:#4E0E00;}
	.st88{fill:url(#SVGID_68_);}
	.st89{fill:url(#SVGID_69_);}
	.st90{fill:url(#SVGID_70_);}
	.st91{fill:url(#SVGID_71_);}
	.st92{fill:url(#SVGID_72_);}
	.st93{fill:#F97735;}
	.st94{fill:url(#SVGID_73_);}
	.st95{fill:url(#SVGID_74_);}
	.st96{fill:url(#SVGID_75_);}
	.st97{fill:#363638;}
	.st98{fill:url(#SVGID_76_);}
	.st99{fill:url(#SVGID_77_);}
	.st100{fill:url(#SVGID_78_);}
	.st101{fill:url(#SVGID_79_);}
	.st102{fill:url(#SVGID_80_);}
	.st103{fill:none;stroke:#494949;stroke-width:5;stroke-miterlimit:10;}
	.st104{fill:url(#SVGID_81_);}
	.st105{fill:url(#SVGID_82_);}
	.st106{fill:url(#SVGID_83_);}
</style>
<g>
	<linearGradient id="SVGID_1_" gradientUnits="userSpaceOnUse" x1="692.6855" y1="584.3252" x2="684.9736" y2="685.0342">
		<stop  offset="0.1207" style="stop-color:#672B1E"/>
		<stop  offset="0.3875" style="stop-color:#F94E26"/>
		<stop  offset="0.6266" style="stop-color:#DC4322"/>
		<stop  offset="0.9176" style="stop-color:#D5401F"/>
	</linearGradient>
	<path class="st0" d="M610.28,654.49l62.25-29.27c0,0,2.72-3.72,6.79-5.46c4.07-1.75,73.45-21.43,83.64-22.39s3.55,8.51,1.89,8.42
		c-1.66-0.09-45.24,31.41-56.44,31.4c-11.19-0.01-83.39,20.33-83.39,20.33L610.28,654.49z"/>
	<linearGradient id="SVGID_2_" gradientUnits="userSpaceOnUse" x1="1240.0225" y1="430.3102" x2="1232.3298" y2="530.7672">
		<stop  offset="0" style="stop-color:#545559"/>
		<stop  offset="0.4169" style="stop-color:#1D1D1C"/>
		<stop  offset="0.8325" style="stop-color:#1B1B1A"/>
		<stop  offset="0.9719" style="stop-color:#444242"/>
	</linearGradient>
	<path class="st1" d="M1113.33,445.31c0,0,248.37-0.07,256.97,2.56s14.48,11.6,13.58,13.94c-0.91,2.35-10.35,38.24-14.24,43.81
		s-32.72,0.74-37.8,0c-5.08-0.74-11.37-6.22-13.6-5.52s-229.62-3.22-229.62-3.22l4.4-8.68l8.71-32.51L1113.33,445.31z"/>
	<linearGradient id="SVGID_3_" gradientUnits="userSpaceOnUse" x1="1405.7498" y1="394.0562" x2="1220.2212" y2="520.3061">
		<stop  offset="0" style="stop-color:#545559"/>
		<stop  offset="0.4169" style="stop-color:#515458"/>
		<stop  offset="0.8325" style="stop-color:#1B1B1A"/>
		<stop  offset="0.9719" style="stop-color:#444242"/>
	</linearGradient>
	<path class="st2" d="M1090.83,493.8c0,0,233.31,5.2,233.99,5.2c0.68,0,10.63,3.27,13.35,2.77c2.71-0.5-0.45-2.89,0-5.43
		c0.45-2.54,12.67-17.02,13.35-17.7c0.68-0.68,7.24-1.36,4.53,3.62s-11.31,14.48-7.01,16.74s11.31,4.07,17.2-4.3
		c5.88-8.37,4.75-14.71,3.17-18.55c-1.58-3.85,5.66-12.67,5.66-18.55c0-5.88-5.66-9.5-4.75-9.73s15.84,2.1,15.84,13.94
		c0,11.85-10.41,42.87-32.81,63.11c-22.4,20.24-45.83,40.63-52.72,47.98c-6.88,7.35-13.93,16.84-15.39,17.73
		c-1.46,0.89,0.91-13.74,3.62-17.73c2.72-3.99,46.16-48.56,46.16-48.56s-4.3-6.56-4.75-8.37c-0.45-1.81-2.69-10.41-3.5-11.09
		c-0.8-0.68-3.52-1.81-3.52-1.81l-228.56-1.31l-6.06-4.88L1090.83,493.8z"/>
	<path class="st3" d="M1087.22,494.69c0,0,6.89-15.2,9.01-22.34c2.11-7.14,6.03-23.28,12.67-25.69c6.64-2.41,4.22-1.21,2.87,1.06
		s-8.6,8.15-7.39,11.77c1.21,3.62,3.62,3.62,1.96,6.18s-6.03,4.37-7.09,10.41c-1.06,6.03-3.02,9.05-1.06,8.9
		c1.96-0.15,9.35-6.64,9.5-5.43c0.15,1.21-1.14,6.34-5.24,9.35c-4.11,3.02-10.96,4.27-12.21,6.58
		C1088.99,497.8,1087.22,494.69,1087.22,494.69z"/>
	<linearGradient id="SVGID_4_" gradientUnits="userSpaceOnUse" x1="1201.8584" y1="588.9019" x2="1350.4176" y2="588.9019">
		<stop  offset="0" style="stop-color:#020000"/>
		<stop  offset="0.4169" style="stop-color:#29292A"/>
		<stop  offset="0.8325" style="stop-color:#1B1B1A"/>
		<stop  offset="0.9719" style="stop-color:#444242"/>
	</linearGradient>
	<path class="st4" d="M1331.23,512.37c0,0,1.06,1.86,6.49,4.73c5.43,2.87,13.27,6.49,12.67,8.9c-0.6,2.41-46.61,37-54.45,50.55
		c-7.84,13.55-11.46,16.08-18.7,16.63c-7.24,0.55-23.79,2.02-23.79,2.02l-3.36,8.54l63.05,1.15l-7.08,51.83
		c0,0-58.37,3.62-60.2,2.26c-1.83-1.36-39.87,20.15-40.45-8.68c-0.58-28.83-5.17-47.27-2.94-55.11s29.35-18.75,36.67-20.37
		s60.12-21.21,60.12-21.21l30.47-28.69l3.92-6.76L1331.23,512.37z"/>
	<path class="st5" d="M1229.04,557.48c0,0-0.38-2.62-17.27-7.47c-16.89-4.85-22.63,0.47-24.44,2.49s-6.78,28.44-5.43,28.5
		c1.35,0.06,9.65,8.81,10.86,8.81c1.21,0,19.32-1.17,22.29-4.22C1218.02,582.53,1229.04,557.48,1229.04,557.48z"/>
	<path class="st6" d="M1223.69,599.91c0,0,13.11-8.3,24.57-7.99c11.46,0.3,27.15,0.59,30.47-0.01c3.32-0.6,9.35-15.07,14.18-23.37
		c4.83-8.3,41.63-42.09,43.74-47.22s-4.22-5.88-4.83-6.41c-0.6-0.53-0.6-7.17-3.62-9.28c-3.02-2.11,0.6-3.82-7.54-3.87
		c-8.15-0.05-227.66-1.66-227.66-1.66l3.21,3.12l222,1.21c0,0,8.08,0,7.83,4.22c-0.26,4.22-1.85,7.54,0,9.5s5.78,3.47-2.07,10.11
		c-7.84,6.64-15.69,11.77-25.64,22.93c-9.96,11.16-15.69,18.1-17.2,19.61c-1.51,1.51-54.38,10.57-54.04,11.62
		c0.34,1.05-8.43,17.49-8.43,17.49H1223.69z"/>
	<linearGradient id="SVGID_5_" gradientUnits="userSpaceOnUse" x1="1210.2579" y1="575.1011" x2="1299.2513" y2="575.1011">
		<stop  offset="0" style="stop-color:#020000"/>
		<stop  offset="0.4169" style="stop-color:#29292A"/>
		<stop  offset="0.8325" style="stop-color:#1B1B1A"/>
		<stop  offset="0.9719" style="stop-color:#444242"/>
	</linearGradient>
	<path class="st7" d="M1210.26,582.42c0,0,16.9-23.24,18.78-26.4l14.55-1.13c0,0,1.58-3.62,4.3-4.3c2.71-0.68,51.36,0,51.36,0
		s-13.12,22.85-15.39,29.19c-2.26,6.34-0.91,8.15-5.2,9.05s-28.28-1.13-35.75,1.13c-7.47,2.26-25.42,9.96-25.42,9.96l-7.23-16.52
		V582.42z"/>
	<path class="st8" d="M1191.3,570.41l15.95-23.47c0,0-38.48-1.17-42.23-1.78c-3.75-0.6-38.92-35.9-42.84-42.23l-27.5-1.16
		l24.78,50.73l68.78,20.41L1191.3,570.41z"/>
	<linearGradient id="SVGID_6_" gradientUnits="userSpaceOnUse" x1="1200.392" y1="536.8408" x2="1230.7214" y2="538.1662">
		<stop  offset="0" style="stop-color:#020000"/>
		<stop  offset="0.4169" style="stop-color:#29292A"/>
		<stop  offset="0.8325" style="stop-color:#1B1B1A"/>
		<stop  offset="0.9719" style="stop-color:#444242"/>
	</linearGradient>
	<path class="st9" d="M1202.46,589.97v-86.89c0,0,9.91-31.75,17.6-32.62s9.5,14.65,13.58,17.75c4.07,3.1,5.88,7.47,5.43,7.78
		s-9.65-0.6-14.55,5.28s-7.15,103.62-7.15,103.62L1202.46,589.97z"/>
	<linearGradient id="SVGID_7_" gradientUnits="userSpaceOnUse" x1="1161.4298" y1="516.4092" x2="1189.7367" y2="517.6462">
		<stop  offset="0" style="stop-color:#020000"/>
		<stop  offset="0.4169" style="stop-color:#29292A"/>
		<stop  offset="0.8325" style="stop-color:#1B1B1A"/>
		<stop  offset="0.9719" style="stop-color:#444242"/>
	</linearGradient>
	<path class="st10" d="M1196.98,491.95c0,0-2.26,4.19-7.69,4.94c-5.43,0.75-11.46-7.99-12.07-0.91c-0.6,7.09,0,71.81,0,71.81
		l-15.99-5.92c0,0-0.79-69.97,5.49-79.31c6.28-9.35,8.51-19.49,12.37-15.1S1196.08,487.62,1196.98,491.95z"/>
	<linearGradient id="SVGID_8_" gradientUnits="userSpaceOnUse" x1="1011.4113" y1="568.0062" x2="1187.4371" y2="575.6989">
		<stop  offset="0.1207" style="stop-color:#672B1E"/>
		<stop  offset="0.3875" style="stop-color:#C12A0A"/>
		<stop  offset="0.6266" style="stop-color:#BD3E24"/>
		<stop  offset="0.9176" style="stop-color:#D5401F"/>
	</linearGradient>
	<path class="st11" d="M1223.69,602.63c0,0,1.62-1.71,0-2.72s-52.39-24.21-56.97-26.7c-4.58-2.49-62.72-20.72-62.72-20.72
		s-59.97-25.21-60.65-25.21c-0.68,0-34.24-8.24-25.27,6.06c8.97,14.3,41.63,54.01,41.63,54.01s8.19,23.88,8.47,24.1
		s123.36,2.26,124.04,2.26c0.68,0,28.27,7.17,28.27,7.17s-3.6-12.83-4.96-14.18C1214.18,605.34,1223.69,602.63,1223.69,602.63z"/>
	<linearGradient id="SVGID_9_" gradientUnits="userSpaceOnUse" x1="1272.9086" y1="594.296" x2="1269.7411" y2="641.8094">
		<stop  offset="0" style="stop-color:#595A5E"/>
		<stop  offset="0.4169" style="stop-color:#414243"/>
		<stop  offset="0.8325" style="stop-color:#1B1B1A"/>
		<stop  offset="0.9719" style="stop-color:#444242"/>
	</linearGradient>
	<path class="st12" d="M1224.94,643.16l74.77,5.33v-43.6l18.51-1.15V658c0,0-33.53,13.34-37.08,12.96
		c-3.55-0.38-62.47-6.81-62.47-6.81L1224.94,643.16z"/>
	<linearGradient id="SVGID_10_" gradientUnits="userSpaceOnUse" x1="1200.3948" y1="608.2634" x2="1200.3948" y2="608.2634">
		<stop  offset="0" style="stop-color:#020000"/>
		<stop  offset="0.4169" style="stop-color:#29292A"/>
		<stop  offset="0.8325" style="stop-color:#1B1B1A"/>
		<stop  offset="0.9719" style="stop-color:#444242"/>
	</linearGradient>
	<path class="st13" d="M1200.39,608.26"/>
	<linearGradient id="SVGID_11_" gradientUnits="userSpaceOnUse" x1="1320.0747" y1="755.9963" x2="1268.187" y2="654.6343">
		<stop  offset="0" style="stop-color:#020000"/>
		<stop  offset="0.4169" style="stop-color:#29292A"/>
		<stop  offset="0.8325" style="stop-color:#545457"/>
		<stop  offset="0.9719" style="stop-color:#444242"/>
	</linearGradient>
	<path class="st14" d="M1282.96,656.43l35.27-4.4c0,0,9.36,63.32,8.46,67.62c-0.89,4.29-14.77,12.13-17.94,14.52
		c-3.17,2.4-43.44,15.2-43.44,15.2s-14.93-49.91-11.31-54.44C1257.62,690.42,1282.96,656.43,1282.96,656.43z"/>
	<linearGradient id="SVGID_12_" gradientUnits="userSpaceOnUse" x1="738.9612" y1="760.6282" x2="719.4534" y2="851.2678">
		<stop  offset="0" style="stop-color:#020000"/>
		<stop  offset="0.4169" style="stop-color:#29292A"/>
		<stop  offset="0.8325" style="stop-color:#1B1B1A"/>
		<stop  offset="0.9719" style="stop-color:#444242"/>
	</linearGradient>
	<path class="st15" d="M686.03,814.72c0,0-0.22,23.06,0,23.97c0.22,0.91-0.24,8.15,7.08,5.73c7.32-2.41,72.78-41.11,72.78-41.11
		s11.77-29.48,11.77-30.69c0-1.21-9.92-5.96-11.16-6.06C765.25,766.47,686.03,814.72,686.03,814.72z"/>
	<linearGradient id="SVGID_13_" gradientUnits="userSpaceOnUse" x1="671.0813" y1="811.5023" x2="664.7797" y2="840.7817">
		<stop  offset="0" style="stop-color:#020000"/>
		<stop  offset="0.4169" style="stop-color:#29292A"/>
		<stop  offset="0.8325" style="stop-color:#1B1B1A"/>
		<stop  offset="0.9719" style="stop-color:#444242"/>
	</linearGradient>
	<path class="st16" d="M649.9,826.17c0,0,0.45,14.48,6.34,12.22c5.88-2.26,29.71-12.22,29.71-12.22l0.08-11.45l-26.17-4.25
		L649.9,826.17z"/>
	<path class="st17" d="M782.08,976.44c0,0,24.39-6.81,22.16,6.86s-10.76,45.05-12.64,51.43c-1.88,6.37-1.83,30.97-11.83,30.36
		c-9.99-0.6-36.39,17.11-39.1-12.71c-2.72-29.82-7.28-74.1,5.96-82.51C759.86,961.47,782.08,976.44,782.08,976.44z"/>
	<path class="st18" d="M815.07,990.3c-0.91,4.68-4.6,79.04-27.79,83.93s-118.84,0.38-165.89-9.13
		c-47.05-9.51-288.69-33.45-356.57-37.5c0,0-32.92,6.75-47.68-0.73c-14.76-7.48-15.67-13.21-15.67-13.21s-95.93-49.98-137.56-62.85
		C22.27,937.94,13.22,926,14.13,913.87c0.91-12.13,41.46-129.89,133.86-154.73s15.47,53.7,13.66,61.04
		c-1.81,7.34-33.49,58.93-33.49,62.55s2.72,59.73,15.39,71.04c12.67,11.31,103.56,21.27,110.15,19.46
		c6.6-1.81,164.77-39.28,171.3-42.22c6.53-2.95,271.5,92.44,296.85,86.79c25.35-5.65,37.42,48.66,42.24,47.3
		c4.83-1.36,15.69,0,15.69,0s11.76-40.19,12.21-88.65c0.45-48.46,36.65-21.19,38.01-14.92C831.36,967.8,815.07,990.3,815.07,990.3z"
		/>
	<linearGradient id="SVGID_14_" gradientUnits="userSpaceOnUse" x1="235.8322" y1="895.7916" x2="3.5444" y2="1015.2538">
		<stop  offset="0.1207" style="stop-color:#67371E"/>
		<stop  offset="0.3875" style="stop-color:#C1480A"/>
		<stop  offset="0.6266" style="stop-color:#BD5724"/>
		<stop  offset="0.9176" style="stop-color:#D55E1F"/>
	</linearGradient>
	<path class="st19" d="M158.02,872.21c0,0-138.77,36.59-137.56,41.65s-7.84,11.76,30.77,24.7s95.33,37.41,124.89,51.72
		s29.56,14.31,29.56,14.31s-6.67-13.04,11.45-21.3s38.29-19.28,36.44-26.97c-1.85-7.69-75.04-57.31-75.04-57.31l-11.46-22.45
		L158.02,872.21z"/>
	<linearGradient id="SVGID_15_" gradientUnits="userSpaceOnUse" x1="752.4506" y1="920.9073" x2="215.3006" y2="1197.1559">
		<stop  offset="0.1207" style="stop-color:#67371E"/>
		<stop  offset="0.3875" style="stop-color:#C1480A"/>
		<stop  offset="0.6266" style="stop-color:#BD5724"/>
		<stop  offset="0.9176" style="stop-color:#D55E1F"/>
	</linearGradient>
	<path class="st20" d="M338.42,990.3c-1.76,0.17-22.32,13.49-41.63,16.31c-19.31,2.83-27.75,1.62-25.94,4.03
		s244.35,31.98,340.89,42.23c96.54,10.26,139.99,29.6,158.96,17.5s16.01-22.93,16.01-22.93s-64.54-34.39-76.92-36.8
		s-360.98-29.67-360.98-29.67L338.42,990.3z"/>
	<linearGradient id="SVGID_16_" gradientUnits="userSpaceOnUse" x1="20.361" y1="841.4138" x2="186.5609" y2="841.4138">
		<stop  offset="0.1207" style="stop-color:#67371E"/>
		<stop  offset="0.3875" style="stop-color:#C1480A"/>
		<stop  offset="0.6266" style="stop-color:#BD5724"/>
		<stop  offset="0.9176" style="stop-color:#D55E1F"/>
	</linearGradient>
	<path class="st21" d="M161.64,872.21c0,0-138.47,45.64-141.18,41.65S70.17,786.18,148.04,770.2
		C225.9,754.22,161.64,872.21,161.64,872.21z"/>
	<linearGradient id="SVGID_17_" gradientUnits="userSpaceOnUse" x1="764.0844" y1="1034.7356" x2="839.902" y2="1034.7356">
		<stop  offset="0.1207" style="stop-color:#672B1E"/>
		<stop  offset="0.3875" style="stop-color:#C12A0A"/>
		<stop  offset="0.6266" style="stop-color:#BD3E24"/>
		<stop  offset="0.9176" style="stop-color:#D5401F"/>
	</linearGradient>
	<path class="st22" d="M800.6,990.3c0,0,12.37,42-16.3,74.93c-4.82,5.54-12.96,8.99-20.21,13.89c0,0,33.49,3.02,55.21-35.9
		c0,0,18.24-13.54,20.13-24.12c1.89-10.58-2.03-12.94-7.76-16.74C825.93,998.57,800.6,990.3,800.6,990.3z"/>
	<linearGradient id="SVGID_18_" gradientUnits="userSpaceOnUse" x1="158.901" y1="799.8059" x2="109.4267" y2="1029.6803">
		<stop  offset="0" style="stop-color:#FE8166;stop-opacity:0"/>
		<stop  offset="0.9548" style="stop-color:#F79480"/>
	</linearGradient>
	<path class="st23" d="M226.81,967.31l-48.87-27.67c0,0-3.62,22.25-25.34,21.89s-25.94,3.38-28.96,0S27.1,929.19,27.1,929.19
		s0,5.21,15.69,10.45c7.09,2.37,35.45,9.99,68.78,24.54c40.47,17.67,86.75,42.82,91.71,46.46c0,0-4.02-6.64,4.33-16.29
		C215.95,984.7,226.81,967.31,226.81,967.31z"/>
	<linearGradient id="SVGID_19_" gradientUnits="userSpaceOnUse" x1="580.7357" y1="890.5945" x2="531.2615" y2="1120.4689">
		<stop  offset="0" style="stop-color:#FE8166;stop-opacity:0"/>
		<stop  offset="0.9548" style="stop-color:#F79480"/>
	</linearGradient>
	<path class="st24" d="M380.33,1013.66c-4.49-2.41-27.34-3.27-18.93-11.29c8.41-8.02,54.86-12.85,100.12-7.42
		s267.03,52.57,267.03,52.57s24.38,11.39,5.68,13.2c-18.7,1.81-353.89-38.01-353.89-38.01s26.88,3.89,26.28-1.98
		C406,1014.86,380.33,1013.66,380.33,1013.66z"/>
	<g>
		<linearGradient id="SVGID_20_" gradientUnits="userSpaceOnUse" x1="297.4485" y1="591.2999" x2="302.1679" y2="924.8064">
			<stop  offset="0" style="stop-color:#595A5E"/>
			<stop  offset="0.4169" style="stop-color:#414243"/>
			<stop  offset="0.8325" style="stop-color:#1B1B1A"/>
			<stop  offset="0.9719" style="stop-color:#444242"/>
		</linearGradient>
		<path class="st25" d="M315.9,926.17h-23.12c-153.19-6.61-144.79-167.03-144.79-167.03s19.56-149.17,144.79-153.35h23.12
			c135.8,7.3,135.8,144.41,135.8,144.41S438.27,926.17,315.9,926.17z"/>
		<linearGradient id="SVGID_21_" gradientUnits="userSpaceOnUse" x1="321.825" y1="582.6299" x2="383.2423" y2="979.4801">
			<stop  offset="0" style="stop-color:#595A5E"/>
			<stop  offset="0.4169" style="stop-color:#414243"/>
			<stop  offset="0.8325" style="stop-color:#1B1B1A"/>
			<stop  offset="0.9719" style="stop-color:#444242"/>
		</linearGradient>
		<path class="st26" d="M444.09,774.28c-7.44,84.41-55.21,151.02-106.7,148.77c-51.49-2.25-87.2-72.51-79.76-156.92
			c7.44-84.41,55.21-151.02,106.7-148.77C415.81,619.61,451.53,689.86,444.09,774.28z"/>
		<path class="st27" d="M340.26,913.87c-9.55-0.42-18.74-2.96-27.29-7.55l7.88-7.29c6.48,3.47,13.28,5.39,20.22,5.69L340.26,913.87z
			"/>
		<path class="st28" d="M365.17,631.29"/>
		<path class="st28" d="M286.75,692.25"/>
		
			<ellipse transform="matrix(0.119 -0.9929 0.9929 0.119 -450.832 1032.7948)" class="st29" cx="356.59" cy="770.45" rx="118.94" ry="76.61"/>
		
			<ellipse transform="matrix(0.119 -0.9929 0.9929 0.119 -450.832 1032.7948)" class="st30" cx="356.59" cy="770.45" rx="113.2" ry="72.91"/>
		<path class="st31" d="M349.07,881.67c-0.76,0-1.52-0.02-2.28-0.05c-20.28-0.89-38.07-13.54-50.08-35.62
			c-11.66-21.43-16.65-49.41-14.06-78.78c2.59-29.37,12.46-56.7,27.79-76.95c15.8-20.87,35.67-31.87,55.95-30.98
			c20.28,0.89,38.07,13.54,50.08,35.62c11.66,21.43,16.65,49.41,14.06,78.78c-2.59,29.37-12.46,56.7-27.79,76.95
			C387.54,870.72,368.56,881.67,349.07,881.67z M364.12,664.33c-16.69,0-33.42,10-47.31,28.34c-14.85,19.62-24.43,46.21-26.95,74.87
			c-2.52,28.66,2.3,55.88,13.6,76.64c10.94,20.11,26.49,31.61,43.78,32.36c17.29,0.77,34.74-9.29,49.13-28.3
			c14.85-19.62,24.43-46.21,26.95-74.87l3.61,0.16l-3.61-0.16c2.52-28.66-2.3-55.88-13.6-76.64
			c-10.94-20.11-26.49-31.61-43.78-32.36C365.33,664.34,364.72,664.33,364.12,664.33z"/>
		<path class="st31" d="M351.89,872.21c-0.65,0-1.31-0.01-1.96-0.04c-18.04-0.79-33.79-12.36-44.35-32.59
			c-10.2-19.55-14.52-45.08-12.16-71.89c5.02-56.98,37.67-100.35,74.43-98.76c36.71,1.61,61.54,47.5,56.51,104.48
			c-2.36,26.81-11.13,51.77-24.69,70.28C386.14,862.15,369.24,872.21,351.89,872.21z M365.87,673.98c-14.51,0-29.14,9.1-41.35,25.77
			c-13.11,17.9-21.6,42.14-23.9,68.26c-2.3,26.12,1.86,50.92,11.73,69.82c9.51,18.22,23.01,28.61,38.02,29.27
			c14.99,0.65,30.23-8.48,42.87-25.73c13.11-17.9,21.6-42.14,23.9-68.26l0,0c2.3-26.12-1.86-50.92-11.73-69.82
			c-9.51-18.22-23.01-28.62-38.02-29.27C366.88,673.99,366.38,673.98,365.87,673.98z"/>
		
			<ellipse transform="matrix(0.119 -0.9929 0.9929 0.119 -438.1427 1048.4213)" class="st32" cx="371.74" cy="771.11" rx="22.31" ry="14.37"/>
	</g>
	<path class="st33" d="M302.05,766.67c0.17,7.46-5.24,64.71,2.6,66.25c7.83,1.54,40.42-8.72,44.04-17.16
		c3.62-8.45,5.43-38.61,0-45.25c-5.43-6.64-28.96-12.08-31.37-10.57C314.89,761.46,302.05,766.67,302.05,766.67z"/>
	<linearGradient id="SVGID_22_" gradientUnits="userSpaceOnUse" x1="347.4572" y1="856.126" x2="375.326" y2="751.6177">
		<stop  offset="0" style="stop-color:#020000"/>
		<stop  offset="0.4169" style="stop-color:#29292A"/>
		<stop  offset="0.8325" style="stop-color:#1B1B1A"/>
		<stop  offset="0.9719" style="stop-color:#444242"/>
	</linearGradient>
	<path class="st34" d="M429.83,740.95c-3.24-0.79-55.81-1.51-74.21,2.41s-51.28,8.13-53.09,16.59s-2.41,7.25,14.18,12.98
		c16.59,5.73,22.93,4.66,18.4,15c-4.53,10.34-14.78,30.17-22.63,34.74c-7.84,4.56-11.73,2.15-10.84,6.37
		c0.89,4.22-3.26,4.22,8.77,3.62s116.71-29.35,116.71-29.35S459.7,748.19,429.83,740.95z"/>
	<linearGradient id="SVGID_23_" gradientUnits="userSpaceOnUse" x1="405.3007" y1="802.1157" x2="412.2005" y2="776.2414">
		<stop  offset="0" style="stop-color:#020000"/>
		<stop  offset="0.4169" style="stop-color:#29292A"/>
		<stop  offset="0.8325" style="stop-color:#1B1B1A"/>
		<stop  offset="0.9719" style="stop-color:#444242"/>
	</linearGradient>
	<path class="st35" d="M440.09,777.45c-2.47-1.02-36.8-2.41-37.71-1.96c-0.91,0.45-10.26,2.29-15.69,6.2
		c-5.43,3.91-7.54,8.67-5.73,10.81c1.81,2.15,41.93,7.95,41.93,7.95L440.09,777.45z"/>
	<linearGradient id="SVGID_24_" gradientUnits="userSpaceOnUse" x1="408.3885" y1="768.1298" x2="413.2152" y2="750.0295">
		<stop  offset="0" style="stop-color:#020000"/>
		<stop  offset="0.4169" style="stop-color:#29292A"/>
		<stop  offset="0.8325" style="stop-color:#1B1B1A"/>
		<stop  offset="0.9719" style="stop-color:#444242"/>
	</linearGradient>
	<path class="st36" d="M458.94,757.86l-89.14-8.48c0,0-11.31,1.38-7.69,4.24c3.62,2.86,96.84,16.89,96.84,16.89V757.86z"/>
	<linearGradient id="SVGID_25_" gradientUnits="userSpaceOnUse" x1="436.4716" y1="727.7889" x2="431.0415" y2="747.3976">
		<stop  offset="0" style="stop-color:#020000"/>
		<stop  offset="0.4169" style="stop-color:#29292A"/>
		<stop  offset="0.8325" style="stop-color:#1B1B1A"/>
		<stop  offset="0.9719" style="stop-color:#444242"/>
	</linearGradient>
	<path class="st37" d="M485.04,739.44c-0.9-0.3-66.34-12.28-66.34-12.28s-34.75-0.51-33.73,0s-6.72,7.75,8.37,10.16
		c15.08,2.41,80.55,15.99,80.55,15.99L485.04,739.44z"/>
	<linearGradient id="SVGID_26_" gradientUnits="userSpaceOnUse" x1="450.2854" y1="718.0184" x2="450.2854" y2="726.1636">
		<stop  offset="0" style="stop-color:#020000"/>
		<stop  offset="0.4169" style="stop-color:#29292A"/>
		<stop  offset="0.8325" style="stop-color:#1B1B1A"/>
		<stop  offset="0.9719" style="stop-color:#444242"/>
	</linearGradient>
	<path class="st38" d="M504.04,723.95c0,0-114.33,4.33-115.84,4.33s-6.14-2.02-5.49-4.33c0.66-2.31,135.2-5.93,135.2-5.93
		L504.04,723.95z"/>
	<linearGradient id="SVGID_27_" gradientUnits="userSpaceOnUse" x1="127.6656" y1="1029.8665" x2="946.2538" y2="501.7888">
		<stop  offset="0" style="stop-color:#020000"/>
		<stop  offset="0.4169" style="stop-color:#29292A"/>
		<stop  offset="0.8325" style="stop-color:#1B1B1A"/>
		<stop  offset="0.9719" style="stop-color:#444242"/>
	</linearGradient>
	<path class="st39" d="M777.66,595.2c0,0-153.85,40-234.1,96.5S416.35,795.95,413.54,798.53s-74.9,68.74-74.9,68.74L217.15,981.02
		c0,0-0.6,19.58,4.83,18.87c5.43-0.71,52.25-5.97,57.61-8.59c5.36-2.62,80.3-40.86,81.92-42.16
		c1.62-1.29,202.64-182.8,208.33-186.45s192.49-106.41,203.59-110.52c11.1-4.1,117.05-45.78,117.05-45.78s-12.67-10.8-20.82-13.24
		c-8.15-2.44-59.42,0.02-59.42,0.02L777.66,595.2z"/>
	<linearGradient id="SVGID_28_" gradientUnits="userSpaceOnUse" x1="549.7619" y1="885.1789" x2="573.2924" y2="576.5679">
		<stop  offset="0.1207" style="stop-color:#67371E"/>
		<stop  offset="0.3875" style="stop-color:#C1480A"/>
		<stop  offset="0.6266" style="stop-color:#BD5724"/>
		<stop  offset="0.9176" style="stop-color:#D55E1F"/>
	</linearGradient>
	<path class="st40" d="M772.13,770.99L477.16,920.81c0,0-124.57,55.69-135.42,62.5s-73.27,25.09-86.89,24.18s86.99-45,90.56-45.96
		s166.8-135.57,171.9-139.88s141.58-94,158.39-108.26c16.81-14.26,155.66-82.39,158.38-80.51c2.72,1.88,17.43,57.88,17.43,57.88
		L772.13,770.99z"/>
	<linearGradient id="SVGID_29_" gradientUnits="userSpaceOnUse" x1="465.7246" y1="856.7252" x2="714.3782" y2="771.201">
		<stop  offset="0" style="stop-color:#020000"/>
		<stop  offset="0.4169" style="stop-color:#29292A"/>
		<stop  offset="0.8325" style="stop-color:#1B1B1A"/>
		<stop  offset="0.9719" style="stop-color:#444242"/>
	</linearGradient>
	<path class="st41" d="M629.76,800.38c0,0-0.3,2.93-19.01,15.39c-12.52,8.33-9.19,7.42-21.49,5.88s-19.42-10.44-19.42-10.44
		s26.02-14.01,38.44-12.85C620.71,799.52,629.76,800.38,629.76,800.38z"/>
	<linearGradient id="SVGID_30_" gradientUnits="userSpaceOnUse" x1="69.4247" y1="902.012" x2="326.6593" y2="902.012">
		<stop  offset="0" style="stop-color:#020000"/>
		<stop  offset="0.4169" style="stop-color:#29292A"/>
		<stop  offset="0.8325" style="stop-color:#1B1B1A"/>
		<stop  offset="0.9719" style="stop-color:#444242"/>
	</linearGradient>
	<path class="st42" d="M76.26,913.5c0,0-9.64,0.6-6.02,3.92c3.62,3.32,10.23,5.32,15.08,6.06c4.85,0.73,78.44,0.58,87.34,6.01
		s54.98,24.15,58.19,26.55c3.2,2.41,3.86,4.48,6.87,5.47c3.01,1,88.95-80.6,88.95-80.6s-21.94-37.29-38.88-38.36
		s-78.76,11.16-87.07,18.42s-51.14,31.7-55.97,34.72C139.92,898.72,76.26,913.5,76.26,913.5z"/>
	<path class="st43" d="M220.12,981.02c0,0,239.58-214.76,251.05-231.64l5.13-8.43L285.63,915.92c0,0-0.91,3.92-5.13,1.81
		c-4.22-2.11-35.6-19.61-57.62-22.32c-22.02-2.72-21.12-5.43-21.12-5.43s22.02-5.13,41.93,2.72c19.91,7.84,8.75,0.91,4.22-0.6
		s-36.8-8.15-47.66-8.15c-10.86,0-22.63,0.3-11.16-3.02c11.46-3.32,57.32,4.83,57.32-2.11s-7.24-10.01,9.35-17.83
		s38.61-18.07,35.6-18.07s-29.26-4.83-52.19,3.32s-108.3,42.54-112.22,44.95s-3.02,4.83-2.41,5.73c0.6,0.91-34.39,15.99-40.42,16.29
		c-6.03,0.3-9.65,0.6-6.94,2.11c2.72,1.51,115.84-1.63,147.82,19.25c31.98,20.88,20.21,17.56,19.91,19.22
		C244.6,955.43,219.16,978.87,220.12,981.02z"/>
	<path class="st43" d="M76.26,921.35c-3.22-1.48,59.74,0,85.38,5.43s64.86,21.12,73.91,29.56c0,0,0.91,0-3.32,0
		c-4.22,0-55.81-24.44-80.24-26.25C127.56,928.28,83.49,924.66,76.26,921.35z"/>
	
		<linearGradient id="SVGID_31_" gradientUnits="userSpaceOnUse" x1="278.8621" y1="1221.4539" x2="798.2931" y2="857.4432" gradientTransform="matrix(0.9998 0.0198 -0.0198 0.9998 19.6242 -10.5666)">
		<stop  offset="0" style="stop-color:#020000"/>
		<stop  offset="0.4169" style="stop-color:#29292A"/>
		<stop  offset="0.8325" style="stop-color:#1B1B1A"/>
		<stop  offset="0.9719" style="stop-color:#444242"/>
	</linearGradient>
	<path class="st44" d="M780.13,1065.23c0,0-184.48-66.41-267.84-73.48s-172.59,1.42-172.59,1.42s-14.58-1.65-4.57-6.5
		c10.01-4.85,51.13-25.77,51.13-25.77s85.24-35.43,177.91-24.09s202.5,67.9,202.5,67.9s12.68,11.86,14.18,24.15
		C782.35,1041.13,780.13,1065.23,780.13,1065.23z"/>
	<path class="st45" d="M479.06,939.64c0,0-88.1,21.34-94.91,23.02c-6.82,1.68-23.77,14.47-35.33,18.31
		c-11.56,3.84-20.48,6.38-17.92,9.15c1.75,1.9,45.65-3.66,98.1-3.95c24.11-0.13,50.03,0.85,74.49,4.19
		c77.69,10.59,277.87,74.74,277.87,74.74s-186.43-68.41-254.7-75.64s-101.18-5.62-100.01-11.93c1.17-6.31-24.44-4.56-10.23-10.61
		C430.62,960.86,459.09,946.49,479.06,939.64z"/>
	<path class="st45" d="M710.42,983.59c-4.93-2.85,20.54,16.7,20.37,25.75c-0.18,9.05-18.44,8.69-18.05,15.48
		c0.39,6.8,66.14,33.33,66.14,33.33l3.2-30.11C782.08,1028.04,716.1,986.87,710.42,983.59z"/>
	<linearGradient id="SVGID_32_" gradientUnits="userSpaceOnUse" x1="357.2939" y1="1146.9606" x2="806.2521" y2="832.3362">
		<stop  offset="0" style="stop-color:#020000"/>
		<stop  offset="0.4169" style="stop-color:#29292A"/>
		<stop  offset="0.8325" style="stop-color:#1B1B1A"/>
		<stop  offset="0.9719" style="stop-color:#444242"/>
	</linearGradient>
	<path class="st46" d="M790.93,1013.66c0,0-161.09-62.75-233.49-68.18s-149.63,4.83-149.63,4.83s-12.67-1.36-4.07-6.41
		c8.6-5.05,43.89-26.77,43.89-26.77s73.31-37.11,153.85-27.6c80.55,9.5,176.74,63.88,176.74,63.88s11.2,11.6,12.71,23.86
		C792.44,989.52,790.93,1013.66,790.93,1013.66z"/>
	<path class="st45" d="M527.72,894.04c0,0-76.02,23.08-81.9,24.89c-5.88,1.81-20.36,14.93-30.32,19.01s-17.65,6.79-15.39,9.5
		c1.55,1.86,39.52-4.56,84.99-5.88c20.9-0.61,43.39-0.13,64.66,2.72c67.55,9.05,242.21,69.23,242.21,69.23
		s-162.82-64.71-222.14-70.59c-59.32-5.88-87.83-3.62-86.92-9.96c0.91-6.34-21.27-4.07-9.05-10.41
		C486.09,916.22,510.53,901.28,527.72,894.04z"/>
	<path class="st45" d="M729.09,933.41c-4.32-2.75,18.1,16.29,18.1,25.34s-15.84,9.05-15.39,15.84c0.45,6.79,57.92,32.02,57.92,32.02
		l2.26-30.16C791.99,976.44,734.07,936.58,729.09,933.41z"/>
	<linearGradient id="SVGID_33_" gradientUnits="userSpaceOnUse" x1="274.4311" y1="1095.7321" x2="1123.3268" y2="500.8367">
		<stop  offset="0" style="stop-color:#020000"/>
		<stop  offset="0.4169" style="stop-color:#29292A"/>
		<stop  offset="0.8325" style="stop-color:#1B1B1A"/>
		<stop  offset="0.9719" style="stop-color:#444242"/>
	</linearGradient>
	<path class="st47" d="M1194.07,601.78c0,0-6.74-9.15-34.49-8.6c-27.75,0.55-63.69,7.79-98.52,9.9
		c-34.82,2.11-204.3,16.83-216.1,22.14c-11.8,5.31-116.8,43.32-123.12,46.34c-6.33,3.02-178.88,105.01-179.49,110.13
		c-0.6,5.11-150.54,137.38-155.72,141.8s-68.52,55.43-76.23,61.81s-56.45,14.1-62.48,14.59c-6.03,0.49-35.99-10.88-35.99-10.88
		s-8.7,9.54-1.44,14.68c7.26,5.14,71.89,8.16,99.91-8.74c28.02-16.89,86.54-49.16,151.7-100.6s186.41-155.17,284.52-199.87
		c98.11-44.7,182.86-69.93,280.11-74.79S1194.07,601.78,1194.07,601.78z"/>
	<linearGradient id="SVGID_34_" gradientUnits="userSpaceOnUse" x1="82.7602" y1="1137.5326" x2="966.2007" y2="518.4286">
		<stop  offset="0.1207" style="stop-color:#672B1E"/>
		<stop  offset="0.3875" style="stop-color:#C12A0A"/>
		<stop  offset="0.6266" style="stop-color:#BD3E24"/>
		<stop  offset="0.9176" style="stop-color:#D5401F"/>
	</linearGradient>
	<path class="st48" d="M330.45,976.44c1.69-1,163.5-121.89,206.64-164.53c43.14-42.64,207.55-136.2,289.52-170.48
		c30.91-12.93-134.49,54.11-147.89,59.09c-36.95,13.73-145.41,97.02-155.06,106.13s-148.42,126.16-156.27,133.4
		C359.54,947.29,330.45,976.44,330.45,976.44z"/>
	<linearGradient id="SVGID_35_" gradientUnits="userSpaceOnUse" x1="468.3925" y1="816.062" x2="877.1768" y2="529.5911">
		<stop  offset="0.1207" style="stop-color:#672B1E"/>
		<stop  offset="0.3875" style="stop-color:#F94E26"/>
		<stop  offset="0.6266" style="stop-color:#DC4322"/>
		<stop  offset="0.9176" style="stop-color:#D5401F"/>
	</linearGradient>
	<path class="st49" d="M558.95,707.2h10.9c0,0,116.46-68.37,165.33-78.32c0,0,3.54,1.29,21.81-3.65S830,608.06,830,608.06
		s-15.39-3.21-18.55-4.32c-3.17-1.11-4.87-1.96-4.87-1.96l-82.46,19.85c0,0-15.6,5.43-2.27,6.34
		C721.84,627.97,634.97,657.46,558.95,707.2z"/>
	<linearGradient id="SVGID_36_" gradientUnits="userSpaceOnUse" x1="-120.0008" y1="1328.7423" x2="1259.2457" y2="362.1837">
		<stop  offset="0.1207" style="stop-color:#67371E"/>
		<stop  offset="0.3875" style="stop-color:#F9691B"/>
		<stop  offset="0.6266" style="stop-color:#DC6122"/>
		<stop  offset="0.9176" style="stop-color:#D55E1F"/>
	</linearGradient>
	<path class="st50" d="M220.12,981.02c0,0,3.02,9.05,10.86,9.65c7.84,0.6,48.27,2.41,70.59-9.65s101.36-79.64,168.94-142.39
		s193.37-161.43,251.89-180.57c58.51-19.14,150.54-50.82,154.77-52.63c4.22-1.81,75.58-14.68,78.21-15.94
		c2.64-1.26,41.84-24.02,44.35-21.4s39.62-15.61,39.62-15.61l40.39,45.42l-10.99,6.37c0,0-126.42,13.22-198.52,26.94
		c-72.1,13.73-194.13,74.06-239.91,100.61c-45.78,26.55-264.79,223.84-294.36,241.34c-29.56,17.5-66.97,41.01-115.84,31.06
		c0,0-11.77-2.86-9.28-12.13S220.12,981.02,220.12,981.02z"/>
	<linearGradient id="SVGID_37_" gradientUnits="userSpaceOnUse" x1="966.0369" y1="613.0274" x2="964.2268" y2="464.6045">
		<stop  offset="0.1207" style="stop-color:#672B1E"/>
		<stop  offset="0.3875" style="stop-color:#C12A0A"/>
		<stop  offset="0.6266" style="stop-color:#BD3E24"/>
		<stop  offset="0.9176" style="stop-color:#D5401F"/>
	</linearGradient>
	<path class="st51" d="M912.69,551.72c0.5-0.78,5.37-21.34,33.06-21.04c27.69,0.3,70.23,14.18,70.23,14.18l2.11,23.68l-24.45,2.43
		c0,0-4.81,5.6-9.04,5.58c-4.22-0.02-62.58-24.46-62.58-24.46L912.69,551.72z"/>
	<linearGradient id="SVGID_38_" gradientUnits="userSpaceOnUse" x1="816.8879" y1="622.5195" x2="991.5563" y2="427.0357">
		<stop  offset="0.2373" style="stop-color:#EB4C26"/>
		<stop  offset="0.3875" style="stop-color:#D45337"/>
		<stop  offset="0.6266" style="stop-color:#CA5137"/>
		<stop  offset="0.9176" style="stop-color:#DD6046"/>
	</linearGradient>
	<path class="st52" d="M865.55,597.86c0,0-16.4-1.49-30.73-2.66s-24.44-0.49-25.79,0c-1.36,0.49-2.72,1.02-2.41,0
		c0.3-1.02,14.63-5.72,18.4-13.7c3.77-7.98,2.11-27.59,16.59-35.88c14.48-8.3,28.03-12.86,41.24-10.43
		c13.21,2.43,35.99,11.75,35.99,11.75s-7.81,21.54-8.43,21.87c-0.62,0.33-32.3,19.03-33.5,20.24
		C875.7,590.26,865.55,597.86,865.55,597.86z"/>
	<linearGradient id="SVGID_39_" gradientUnits="userSpaceOnUse" x1="927.282" y1="619.0143" x2="914.6118" y2="390.4975">
		<stop  offset="0.1207" style="stop-color:#672B1E"/>
		<stop  offset="0.3875" style="stop-color:#C12A0A"/>
		<stop  offset="0.6266" style="stop-color:#BD3E24"/>
		<stop  offset="0.9176" style="stop-color:#D5401F"/>
	</linearGradient>
	<path class="st53" d="M863.03,597.37c0.95,0.13,17.2,3.3,17.8,5.71s92.58-2,102.55-9.9s7.59-51.04-13.84-56.77
		c-21.44-5.73-38.33-3.32-49.19,6.34c-10.86,9.65-7.84,15.07-15.69,14.63c-7.84-0.45-15.39-4.7-20.21,0.89s-11.46,24.71-16.59,30.69
		S859.8,596.92,863.03,597.37z"/>
	<g>
		<path class="st54" d="M910.67,556.02c4.55-5,9.77-9.45,15.59-13.02c2.91-1.79,6-3.32,9.27-4.46c3.27-1.12,6.76-1.79,10.29-1.64
			c3.55,0.27,6.83,1.07,10.13,2.08c3.26,1.05,6.45,2.34,9.47,3.95c3.02,1.6,5.89,3.48,8.56,5.61c1.3,1.1,2.59,2.22,3.76,3.46
			c1.18,1.22,2.3,2.53,3.1,4.03c-0.98-1.38-2.21-2.54-3.46-3.65c-1.25-1.11-2.61-2.1-3.98-3.06c-2.75-1.9-5.67-3.55-8.67-5
			c-3.02-1.41-6.13-2.62-9.32-3.53c-1.59-0.49-3.21-0.85-4.82-1.21c-1.64-0.28-3.27-0.62-4.86-0.68c-3.22-0.17-6.48,0.43-9.6,1.44
			c-3.15,0.98-6.16,2.42-9.08,4.01c-2.91,1.62-5.74,3.43-8.46,5.4C915.84,551.68,913.22,553.8,910.67,556.02z"/>
	</g>
	<g>
		<path class="st54" d="M890.49,556.02c-1.57-0.15-3.1-0.54-4.6-0.55c-1.49-0.05-2.96,0.22-4.03,1c-1.12,0.77-1.66,1.97-2.25,3.44
			c-0.58,1.41-1.15,2.86-1.69,4.3c-1.13,2.89-2.25,5.79-3.54,8.65c-0.63,1.43-1.31,2.84-2.05,4.23c-0.77,1.36-1.53,2.79-2.66,3.9
			c0.77-1.37,1.25-2.83,1.76-4.29l1.49-4.41c0.98-2.95,2.01-5.88,3.13-8.8c0.59-1.45,1.16-2.91,1.83-4.34
			c0.63-1.34,1.5-3.15,3.14-3.99c0.77-0.48,1.65-0.68,2.49-0.79c0.85-0.06,1.68-0.01,2.48,0.14
			C887.59,554.8,889.03,555.45,890.49,556.02z"/>
	</g>
	<linearGradient id="SVGID_40_" gradientUnits="userSpaceOnUse" x1="1268.1533" y1="598.5561" x2="1268.1533" y2="610.3561">
		<stop  offset="0" style="stop-color:#020000"/>
		<stop  offset="0.4169" style="stop-color:#29292A"/>
		<stop  offset="0.8325" style="stop-color:#1B1B1A"/>
		<stop  offset="0.9719" style="stop-color:#444242"/>
	</linearGradient>
	<polygon class="st55" points="1194.07,601.78 1342.24,599.91 1336.81,605.98 1201.96,609.87 	"/>
	<linearGradient id="SVGID_41_" gradientUnits="userSpaceOnUse" x1="1218.6848" y1="652.0347" x2="1331.8319" y2="652.0347">
		<stop  offset="0" style="stop-color:#020000"/>
		<stop  offset="0.4169" style="stop-color:#29292A"/>
		<stop  offset="0.8325" style="stop-color:#1B1B1A"/>
		<stop  offset="0.9719" style="stop-color:#444242"/>
	</linearGradient>
	<path class="st56" d="M1223.69,653.45c0.26,0.06,1.2,0.05,2.72,0c16.96-0.59,105.42-7.39,105.42-7.39l-5.78,10.36L1218.68,658
		l5.27-4.49"/>
	<path class="st57" d="M1154.55,770.02c0,0,7.37,12.03,10.08,13.16c2.71,1.13,0.45-3.17,3.85-4.07s38.46,25.79,36.88,30.54
		c-1.58,4.75,3.62,7.01-6.56,3.85c-10.18-3.17-65.27-18.78-70.42-18.55c-5.15,0.23-69.4-7.44-70.99-10.18s-9.03-19.28-7.33-23.3
		c1.69-4.03,17.29-9.05,31.31-7.01C1095.4,756.48,1154.55,770.02,1154.55,770.02z"/>
	<linearGradient id="SVGID_42_" gradientUnits="userSpaceOnUse" x1="1135.4996" y1="734.1741" x2="1326.0554" y2="734.1741">
		<stop  offset="0" style="stop-color:#595A5E"/>
		<stop  offset="0.4169" style="stop-color:#414243"/>
		<stop  offset="0.8325" style="stop-color:#1B1B1A"/>
		<stop  offset="0.9719" style="stop-color:#444242"/>
	</linearGradient>
	<path class="st58" d="M1325.8,723.94c1.7-2.97-5.28-8.85-14.78-10.56s-23.98,16.7-30.32,21.53c-6.34,4.83-9.5,9.7-9.5,4.55
		s-2.26,7.97,0-29.13c2.26-37.11,11.77-53.89,11.77-53.89l-54.37,1.57c0,0-19.38,23.52-21.19,25.93
		c-1.81,2.41-61.54,77.53-61.54,79.34c0,1.81-12.73,24.77-9.96,29.23c2.78,4.45,17.2,15.12,22.17,16.48
		c4.98,1.36,54.3,2.94,54.3,2.94S1284.47,795.93,1325.8,723.94z"/>
	<path class="st59" d="M1093.81,779.11c0,0,76.32,5.58,79.04,7.99c2.71,2.41,22.63,24.13,29.56,25.04s66.37-25.34,66.37-25.34
		s-84.17,43.21-92.61,47.1s-64.72,10.82-64.72,10.82s-25.78-58.52-25.78-59.73S1093.81,779.11,1093.81,779.11z"/>
	<linearGradient id="SVGID_43_" gradientUnits="userSpaceOnUse" x1="957.2278" y1="854.642" x2="1212.4427" y2="771.9837">
		<stop  offset="0" style="stop-color:#595A5E"/>
		<stop  offset="0.4169" style="stop-color:#414243"/>
		<stop  offset="0.8325" style="stop-color:#1B1B1A"/>
		<stop  offset="0.9719" style="stop-color:#444242"/>
	</linearGradient>
	<path class="st60" d="M1050.05,775.49c0.52,0.02,2.21,0.16,4.83,0.39c21.92,1.94,108.8,10.52,117.97,14.98v43.04l-122.8,27.21"/>
	<linearGradient id="SVGID_44_" gradientUnits="userSpaceOnUse" x1="1117.5724" y1="795.8234" x2="1135.0693" y2="672.741">
		<stop  offset="0.1207" style="stop-color:#672B1E"/>
		<stop  offset="0.3875" style="stop-color:#C12A0A"/>
		<stop  offset="0.6266" style="stop-color:#BD3E24"/>
		<stop  offset="0.9176" style="stop-color:#D5401F"/>
	</linearGradient>
	<path class="st61" d="M1053.51,766.67c0.14,0.78,115.72,12.28,136.84-5.82s39.65-45.94,33.35-87.37s-192.67,68.34-191.88,69.94
		C1032.59,745.03,1053.51,766.67,1053.51,766.67z"/>
	<linearGradient id="SVGID_45_" gradientUnits="userSpaceOnUse" x1="732.4764" y1="737.6011" x2="718.9011" y2="754.7964">
		<stop  offset="0" style="stop-color:#020000"/>
		<stop  offset="0.4169" style="stop-color:#29292A"/>
		<stop  offset="0.8325" style="stop-color:#1B1B1A"/>
		<stop  offset="0.9719" style="stop-color:#444242"/>
	</linearGradient>
	<path class="st62" d="M771.44,766.67c-2.07-3.4-83.53-44.58-88.5-46.39s-13.12,0.54-12.67,3.66s103.17,55.16,103.17,55.16
		L771.44,766.67z"/>
	<linearGradient id="SVGID_46_" gradientUnits="userSpaceOnUse" x1="581.6105" y1="822.3099" x2="582.0616" y2="794.7928">
		<stop  offset="0" style="stop-color:#020000"/>
		<stop  offset="0.4169" style="stop-color:#29292A"/>
		<stop  offset="0.8325" style="stop-color:#1B1B1A"/>
		<stop  offset="0.9719" style="stop-color:#444242"/>
	</linearGradient>
	<path class="st63" d="M542.2,815.76l47.06,5.88c0,0-14.71-3.17-9.05-9.05s17.2-15.39,49.55-12.22l-61.35-5.77
		c0,0-30.82,1.09-30.21,2.64c0.6,1.55-4.37,8.45-4.15,10.88S542.2,815.76,542.2,815.76z"/>
	<linearGradient id="SVGID_47_" gradientUnits="userSpaceOnUse" x1="693.4882" y1="774.7803" x2="693.7476" y2="758.9597">
		<stop  offset="0" style="stop-color:#020000"/>
		<stop  offset="0.4169" style="stop-color:#29292A"/>
		<stop  offset="0.8325" style="stop-color:#1B1B1A"/>
		<stop  offset="0.9719" style="stop-color:#444242"/>
	</linearGradient>
	<path class="st64" d="M764.39,775.49l-146.16-8.15c0,0-3.62-6.37,0-9.07c3.62-2.7,152.48,8.61,152.48,8.61L764.39,775.49z"/>
	<linearGradient id="SVGID_48_" gradientUnits="userSpaceOnUse" x1="692.9799" y1="802.7084" x2="693.309" y2="782.6367">
		<stop  offset="0" style="stop-color:#020000"/>
		<stop  offset="0.4169" style="stop-color:#29292A"/>
		<stop  offset="0.8325" style="stop-color:#1B1B1A"/>
		<stop  offset="0.9719" style="stop-color:#444242"/>
	</linearGradient>
	<path class="st65" d="M760.77,794.6l-123.53-12.78c0,0-16.29-1.36-15.84,4.53c0.45,5.88,143.45,16.96,143.45,16.96L760.77,794.6z"
		/>
	<linearGradient id="SVGID_49_" gradientUnits="userSpaceOnUse" x1="693.9166" y1="847.0474" x2="694.4191" y2="816.3928">
		<stop  offset="0" style="stop-color:#020000"/>
		<stop  offset="0.4169" style="stop-color:#29292A"/>
		<stop  offset="0.8325" style="stop-color:#1B1B1A"/>
		<stop  offset="0.9719" style="stop-color:#444242"/>
	</linearGradient>
	<path class="st66" d="M756.98,831.15c-2.1-0.45-103.46-15.39-103.46-15.39s-12.22,0.45-19.91,3.17c-7.69,2.72-7.24,7.69-3.85,8.6
		c3.39,0.91,131,19.73,131,19.73L756.98,831.15z"/>
	<linearGradient id="SVGID_50_" gradientUnits="userSpaceOnUse" x1="773.4362" y1="766.6718" x2="773.4362" y2="766.6718">
		<stop  offset="0" style="stop-color:#020000"/>
		<stop  offset="0.4169" style="stop-color:#29292A"/>
		<stop  offset="0.8325" style="stop-color:#1B1B1A"/>
		<stop  offset="0.9719" style="stop-color:#444242"/>
	</linearGradient>
	<path class="st67" d="M773.44,766.67"/>
	<linearGradient id="SVGID_51_" gradientUnits="userSpaceOnUse" x1="549.5229" y1="816.6268" x2="549.9479" y2="790.7019">
		<stop  offset="0.1207" style="stop-color:#672B1E"/>
		<stop  offset="0.3875" style="stop-color:#C12A0A"/>
		<stop  offset="0.6266" style="stop-color:#BD3E24"/>
		<stop  offset="0.9176" style="stop-color:#D5401F"/>
	</linearGradient>
	<path class="st68" d="M542.2,815.76l-9.05-1.36c0,0-5.66-4.07-2.49-9.73c3.17-5.66,14.93-13.58,24.89-13.8
		c9.96-0.23,14.29,2.04,14.29,2.04v1.58c0,0-18.82,1.13-24.7,6.79C539.26,806.94,539.94,812.82,542.2,815.76z"/>
	<linearGradient id="SVGID_52_" gradientUnits="userSpaceOnUse" x1="1038.4926" y1="762.9113" x2="1041.2075" y2="597.2932">
		<stop  offset="0.1207" style="stop-color:#672B1E"/>
		<stop  offset="0.3875" style="stop-color:#C12A0A"/>
		<stop  offset="0.6266" style="stop-color:#BD3E24"/>
		<stop  offset="0.9176" style="stop-color:#D5401F"/>
	</linearGradient>
	<path class="st69" d="M1046.45,758.27c6.87-3,105.29-1.04,135.46-23.36c30.17-22.32,45.85-56.73,47.06-81.46
		c1.21-24.73-11.47-44.91-40.42-53.54c0,0,1.18,5.03-68.18,9.96c-69.36,4.92-205.31,28.64-237.5,33.7
		c-32.19,5.06-33.66,13.27-29.91,19.12s48.99,14.88,60.46,16.4S1046.45,758.27,1046.45,758.27z"/>
	<linearGradient id="SVGID_53_" gradientUnits="userSpaceOnUse" x1="988.0656" y1="715.8943" x2="1245.6938" y2="503.5169">
		<stop  offset="0.1207" style="stop-color:#672B1E"/>
		<stop  offset="0.3875" style="stop-color:#C12A0A"/>
		<stop  offset="0.6266" style="stop-color:#BD3E24"/>
		<stop  offset="0.9176" style="stop-color:#D5401F"/>
	</linearGradient>
	<path class="st70" d="M966.35,661.87c4.32-0.31,122.03-14.44,133.49,13.31c11.46,27.75-31.68,45.69-75.67,42.84
		C980.18,715.16,966.35,661.87,966.35,661.87z"/>
	<linearGradient id="SVGID_54_" gradientUnits="userSpaceOnUse" x1="988.7708" y1="661.868" x2="1224.5151" y2="661.868">
		<stop  offset="0" style="stop-color:#FE8166;stop-opacity:0"/>
		<stop  offset="0.9548" style="stop-color:#F79480"/>
	</linearGradient>
	<path class="st71" d="M988.77,643.57c0,0,63.86-3.84,77.44-8.82c13.58-4.98,12.67-15.97,44.35-15c31.68,0.97,72.85,0.97,84.62,6.85
		s12.22,3.71,19.46,5.02s14.03,0.41,6.79,4.48s-11.77,3.91-17.2,17.34s-9.5,45.56-30.77,49.18c-21.27,3.62-52.04,0-58.37-8.15
		c-6.34-8.15-13.58-23.31-14.48-26.36c-0.91-3.05,48.87-24.55,48.87-24.55s-11.31,1.12-29.87,0S997.76,650.13,988.77,643.57z"/>
	<linearGradient id="SVGID_55_" gradientUnits="userSpaceOnUse" x1="1038.1652" y1="576.5559" x2="1166.7246" y2="576.5559">
		<stop  offset="0" style="stop-color:#FE8166;stop-opacity:0"/>
		<stop  offset="0.9548" style="stop-color:#F79480"/>
	</linearGradient>
	<path class="st72" d="M1038.41,538.09c-1.64-0.67,69.43,30.32,95.67,42.91c26.25,12.58,38.01,12.2,30.32,14.2
		s-48.63,13.77-74.09,16.48c-25.46,2.72-62.97,4.98-49.19,1.81c13.78-3.17,45.55-9.39,38.94-20.31
		C1073.45,582.27,1060.85,547.31,1038.41,538.09z"/>
	<path class="st73" d="M1049.01,668.39c0,0,29.41-1.95,37.11,4.83c7.69,6.79,4.26,22.99-5.94,28.06
		c-10.2,5.07-27.02,14.5-29.1,11.55c-2.07-2.95-19.72-24.22-19.27-26.93C1032.27,683.18,1049.01,668.39,1049.01,668.39z"/>
	<path class="st74" d="M989.98,668.39h59.04c0,0-1.81,2.57,0,8.91c1.81,6.34,9.96,29.9,9.96,29.9l21.21-5.92
		c0,0-20.26,11.77-39.06,13.12c-18.8,1.36-28.76,0-28.76,0L989.98,668.39z"/>
	<linearGradient id="SVGID_56_" gradientUnits="userSpaceOnUse" x1="909.287" y1="620.4539" x2="839.9024" y2="736.8994">
		<stop  offset="0.312" style="stop-color:#B2B6B5"/>
		<stop  offset="0.4338" style="stop-color:#4E4F54"/>
		<stop  offset="0.5457" style="stop-color:#26252B"/>
		<stop  offset="0.9176" style="stop-color:#040413"/>
	</linearGradient>
	<path class="st75" d="M793.95,723.95v-43.33c0,0,13.27-21.72,33.18-29.56c19.91-7.84,48.87-7.84,71.19-7.24
		c22.32,0.6,70.72,3.02,73.07,4.83s-7.15-3.02-16.58,2.41s-8.69,6.3-13.28,6.47c-4.6,0.17-72.17-3.79-79.41,0
		c-7.24,3.79-10.86,9.82-11.46,12.84c-0.6,3.02-21.12,48.27-21.12,48.27L793.95,723.95z"/>
	<linearGradient id="SVGID_57_" gradientUnits="userSpaceOnUse" x1="992.2126" y1="502.4743" x2="1242.9025" y2="563.563">
		<stop  offset="0.1207" style="stop-color:#672B1E"/>
		<stop  offset="0.3875" style="stop-color:#C12A0A"/>
		<stop  offset="0.6266" style="stop-color:#BD3E24"/>
		<stop  offset="0.9176" style="stop-color:#D5401F"/>
	</linearGradient>
	<path class="st76" d="M1057.62,472.45c0,0,52.04,34.25,61.99,49.63c9.96,15.39,23.53,29.83,40.73,36.18s27.15,8.64,28.96,9.53
		c1.81,0.89,6.79,13.33,15.39,19.56c8.6,6.23,19.01,12.56,19.01,12.56h-22.17c0,0-75.12-40.76-90.95-41.65s-24.44-0.89-24.44-0.89
		s-30.37-18.4-59.53-21.19c-29.16-2.79-68.29-12.46-68.63-12.48c-0.34-0.02,6.74-1.01,6.59-9.46c-0.15-8.45,28.03-34.7,32.04-36.51
		S1048.65,466.39,1057.62,472.45z"/>
	<linearGradient id="SVGID_58_" gradientUnits="userSpaceOnUse" x1="1092.9479" y1="567.4065" x2="1066.7024" y2="475.9997">
		<stop  offset="0" style="stop-color:#FE8166;stop-opacity:0"/>
		<stop  offset="0.9548" style="stop-color:#F79480"/>
	</linearGradient>
	<path class="st77" d="M1038.64,472.45c2.39,0.87,18.67,11.62,21.08,27.91c2.41,16.29,3.77,36.2,13.73,44.8
		c9.96,8.6,37.11,10.4,42.99,12.21c5.88,1.82-8.15-19.45-9.5-25.79c-1.36-6.34,1.81-10.84-4.07-20.13
		c-5.88-9.28-33.94-35.98-52.49-37.79S1038.64,472.45,1038.64,472.45z"/>
	<linearGradient id="SVGID_59_" gradientUnits="userSpaceOnUse" x1="995.494" y1="452.6586" x2="1000.0191" y2="561.2606">
		<stop  offset="0.1207" style="stop-color:#D25237"/>
		<stop  offset="0.3875" style="stop-color:#7C2713"/>
		<stop  offset="0.6266" style="stop-color:#320900"/>
		<stop  offset="0.9176" style="stop-color:#361A14"/>
	</linearGradient>
	<path class="st78" d="M966.35,514.48c0,0,8.63,1.51,28.98,1.82c20.35,0.3,33.55,5.43,38.86,3.17c5.31-2.26-23.65-29.72-20.93-36.81
		c2.72-7.09,37.11-12.22,46.46-8.9c0,0-42.08-14.78-69.76-11.46s-35.28,4.22-45.74,11.46c-10.45,7.24-11.51,9.35-10.45,11.46
		c1.06,2.11,9.8,24.1,10.99,25.36C945.96,511.85,966.35,514.48,966.35,514.48z"/>
	<linearGradient id="SVGID_60_" gradientUnits="userSpaceOnUse" x1="965.1331" y1="461.4226" x2="956.7617" y2="525.6789">
		<stop  offset="0.1207" style="stop-color:#D25237"/>
		<stop  offset="0.3875" style="stop-color:#7C2713"/>
		<stop  offset="0.6266" style="stop-color:#A41D00"/>
		<stop  offset="0.9176" style="stop-color:#8E331F"/>
	</linearGradient>
	<path class="st79" d="M961.23,467.46c0,0,30.77,4.39,30.32,17.97s-9.43,25.57-12.75,27.6c-3.32,2.04-27.75,1.58-31.15,0
		c-3.39-1.58-10.78-13.73-13.88-17.04c-3.09-3.32-1.66-12.14,0-15.08C935.43,477.96,953.76,467.46,961.23,467.46z"/>
	<g>
		<path class="st54" d="M949.46,658.99c0.37-0.17,0.75-0.33,1.14-0.44c0.39-0.13,0.78-0.24,1.18-0.34c0.79-0.22,1.58-0.41,2.38-0.6
			c1.59-0.37,3.19-0.7,4.8-1.01c3.21-0.63,6.43-1.15,9.66-1.66c6.46-0.95,12.95-1.74,19.46-2.32c6.5-0.63,13.03-0.99,19.56-1.29
			c6.53-0.24,13.07-0.29,19.62-0.24c13.08,0.26,26.18,1.13,39.12,3.26c3.24,0.51,6.46,1.13,9.67,1.78c3.19,0.75,6.39,1.46,9.54,2.36
			c6.3,1.79,12.52,3.9,18.43,6.69c-6.23-1.96-12.52-3.54-18.88-4.78c-6.35-1.29-12.76-2.22-19.19-2.96
			c-6.43-0.7-12.87-1.34-19.34-1.65c-6.46-0.38-12.93-0.66-19.41-0.71c-12.96-0.24-25.93,0.06-38.9,0.63
			c-6.48,0.31-12.97,0.67-19.45,1.16c-3.24,0.22-6.48,0.5-9.72,0.81c-1.62,0.15-3.24,0.32-4.85,0.51c-0.81,0.09-1.62,0.18-2.42,0.31
			c-0.4,0.05-0.8,0.12-1.2,0.2C950.24,658.76,949.85,658.86,949.46,658.99z"/>
	</g>
	<g>
		<path class="st54" d="M1149.47,643.57c-13.57,0.22-27.08,0.79-40.59,1.46c-6.74,0.4-13.54,0.69-20.32,0.94
			c-6.78,0.22-13.56,0.34-20.33,0.48l-20.33,0.17c-6.78-0.02-13.55,0.03-20.32-0.06l-20.32-0.21l-20.33-0.29
			c6.74-0.81,13.52-1.24,20.29-1.68c6.77-0.39,13.55-0.71,20.32-0.95c6.77-0.29,13.55-0.41,20.32-0.61l20.32-0.38l40.62-0.53
			C1122.36,641.84,1135.96,642.14,1149.47,643.57z"/>
	</g>
	<g>
		<path class="st54" d="M975.71,630.68c1.17-0.67,2.26-1.39,3.4-2.06c1.13-0.67,2.28-1.29,3.44-1.88c2.32-1.18,4.69-2.23,7.11-3.16
			c2.42-0.94,4.88-1.75,7.41-2.43c2.53-0.66,5.1-1.21,7.82-1.4c-2.1,1.74-4.36,3.09-6.67,4.33c-2.31,1.22-4.69,2.29-7.12,3.23
			c-2.43,0.94-4.91,1.73-7.46,2.37c-1.28,0.31-2.57,0.58-3.88,0.78C978.43,630.62,977.09,630.87,975.71,630.68z"/>
	</g>
	<g>
		<path class="st54" d="M999.17,616.21c11.69-2.09,23.42-3.69,35.1-5.52c5.83-0.94,11.67-1.81,17.46-2.89
			c5.77-1.06,11.61-2.12,17.06-3.81c1.34-0.42,2.69-0.89,3.79-1.46c0.27-0.14,0.51-0.29,0.72-0.43c0.07-0.07,0.19-0.14,0.24-0.19
			c0.05-0.06,0.08-0.06,0.22-0.23c0.44-0.54,0.9-1.08,1.28-1.63c0.8-1.1,1.48-2.21,1.83-3.35c0.37-1.14,0.45-2.32,0.34-3.58
			c-0.27-2.53-1.35-5.21-2.57-7.8c-1.24-2.6-2.64-5.19-4.05-7.76c-1.41-2.57-2.94-5.08-4.48-7.58c-1.54-2.51-3.16-4.96-4.84-7.38
			c-1.66-2.44-3.4-4.81-5.19-7.16c-1.8-2.34-3.66-4.64-5.7-6.79c2.35,1.83,4.48,3.92,6.54,6.07c2.06,2.15,4.01,4.4,5.92,6.7
			c3.77,4.62,7.27,9.47,10.43,14.55c1.59,2.54,3.13,5.09,4.51,7.8c1.36,2.71,2.7,5.54,3.19,8.91c0.23,1.68,0.11,3.51-0.43,5.19
			c-0.52,1.7-1.41,3.15-2.33,4.45c-0.46,0.67-0.95,1.26-1.44,1.88c-0.09,0.12-0.32,0.37-0.54,0.58c-0.21,0.21-0.41,0.34-0.62,0.51
			c-0.4,0.28-0.79,0.53-1.17,0.73c-1.52,0.81-2.99,1.32-4.46,1.79c-2.95,0.9-5.88,1.55-8.82,2.15c-2.94,0.59-5.87,1.13-8.82,1.57
			c-5.89,0.88-11.78,1.66-17.69,2.25C1022.87,615.03,1011.03,615.77,999.17,616.21z"/>
	</g>
	<g>
		<path class="st54" d="M1012.19,597.37c0.61,0.6,0.89,1.46,1.05,2.29c0.17,0.84,0.1,1.73-0.13,2.56c-0.47,1.69-1.76,3.07-3.25,3.95
			c-1.5,0.89-3.16,1.46-4.85,1.8l-1.27,0.26l-1.28,0.16l-1.28,0.15c-0.43,0.03-0.86,0.04-1.28,0.06c-3.43,0.19-6.83-0.01-10.23-0.17
			l-10.15-0.62c-13.51-0.94-27.01-1.38-40.47-0.69c-6.73,0.29-13.43,0.98-20.11,1.76l-4.99,0.73c-1.66,0.25-3.33,0.46-4.98,0.79
			c-3.31,0.63-6.61,1.17-9.93,1.88c-13.26,2.71-26.51,5.52-39.72,8.5c-13.22,2.91-26.41,5.97-39.57,9.17
			c-13.17,3.13-26.27,6.54-39.34,10.04c-13.04,3.59-26.06,7.32-38.86,11.66c-6.41,2.15-12.77,4.44-19,7.08
			c-3.11,1.33-6.18,2.73-9.17,4.31l-2.24,1.19c-0.74,0.4-1.45,0.87-2.18,1.3c-1.48,0.83-2.8,1.88-4.19,2.86
			c5.16-4.43,11.23-7.68,17.34-10.62c6.14-2.93,12.43-5.51,18.77-7.96c12.72-4.81,25.66-8.96,38.67-12.82
			c13.02-3.87,26.14-7.36,39.29-10.71c13.16-3.31,26.37-6.42,39.61-9.39c13.25-2.91,26.53-5.71,39.85-8.3
			c3.32-0.67,6.71-1.18,10.07-1.77c1.68-0.31,3.38-0.51,5.07-0.73l5.08-0.67l5.1-0.5c1.7-0.15,3.39-0.36,5.1-0.43
			c3.41-0.19,6.81-0.43,10.22-0.47c13.64-0.43,27.26,0.45,40.75,1.85l10.11,1.07c3.36,0.31,6.73,0.66,10.08,0.62
			c0.42,0,0.84,0.01,1.26-0.01l1.25-0.1l1.25-0.1l1.23-0.2c1.65-0.25,3.25-0.74,4.71-1.5c1.45-0.75,2.71-1.95,3.26-3.52
			c0.27-0.78,0.38-1.62,0.27-2.45C1012.98,598.86,1012.75,598.01,1012.19,597.37z"/>
	</g>
	<g>
		<path class="st54" d="M1210.26,609.87c0.75,0.54,1.46,1.08,2.22,1.59c0.75,0.52,1.47,1.09,2.21,1.64c1.45,1.14,2.82,2.4,4.09,3.77
			c0.68,0.65,1.21,1.42,1.8,2.15c0.58,0.74,1.18,1.47,1.65,2.28c0.51,0.79,0.99,1.6,1.48,2.41c0.44,0.83,0.81,1.7,1.21,2.55
			c0.88,1.69,1.4,3.5,1.97,5.29l0.43,1.35l0.29,1.38l0.57,2.76l0.28,1.38c0.08,0.46,0.09,0.93,0.14,1.39l0.24,2.79
			c0.07,0.93,0.19,1.86,0.21,2.79l-0.02,2.79l-0.06,2.79l-0.03,1.39l-0.14,1.38c-0.2,1.84-0.38,3.68-0.6,5.52l-0.17,1.37l-0.27,1.36
			l-0.54,2.71c-0.36,1.8-0.71,3.61-1.16,5.39c-1.02,3.53-2.02,7.05-3.2,10.51c-1.33,3.41-2.65,6.82-4.14,10.15
			c0.64-3.61,1.45-7.15,2.25-10.68c0.41-1.76,0.67-3.56,1.01-5.33c0.32-1.78,0.69-3.54,1.03-5.3c1.01-7.11,2.13-14.2,2.04-21.29
			l0.06-2.66c0-0.88-0.11-1.76-0.16-2.64l-0.18-2.64c-0.04-0.44-0.04-0.88-0.11-1.32l-0.21-1.3c-0.45-3.48-1.23-6.91-2.41-10.19
			c-0.31-0.82-0.58-1.65-0.92-2.46c-0.39-0.78-0.78-1.56-1.15-2.36c-0.34-0.82-0.82-1.55-1.28-2.3c-0.46-0.75-0.89-1.53-1.44-2.22
			c-0.53-0.71-1.01-1.47-1.58-2.14c-0.58-0.67-1.14-1.38-1.74-2.05C1212.74,612.56,1211.42,611.29,1210.26,609.87z"/>
	</g>
	<linearGradient id="SVGID_61_" gradientUnits="userSpaceOnUse" x1="1042.4608" y1="457.6094" x2="1032.5056" y2="542.681">
		<stop  offset="0" style="stop-color:#020000"/>
		<stop  offset="0.4169" style="stop-color:#29292A"/>
		<stop  offset="0.8325" style="stop-color:#1B1B1A"/>
		<stop  offset="0.9719" style="stop-color:#444242"/>
	</linearGradient>
	<path class="st80" d="M1039.54,483.99c0,0,12.19,2.02,13.39,4.22c1.21,2.2-12.97,8.71-17.8,8.68c-4.83-0.03-11.01-2.79-10.86-4.94
		s4.37-6.37,6.34-6.98C1032.57,484.37,1039.54,483.99,1039.54,483.99z"/>
	<linearGradient id="SVGID_62_" gradientUnits="userSpaceOnUse" x1="922.656" y1="480.697" x2="922.0042" y2="499.2456">
		<stop  offset="0" style="stop-color:#020000"/>
		<stop  offset="0.4169" style="stop-color:#29292A"/>
		<stop  offset="0.8325" style="stop-color:#1B1B1A"/>
		<stop  offset="0.9719" style="stop-color:#444242"/>
	</linearGradient>
	<path class="st81" d="M933.78,480.9c0,0-2.11,4.07-1.66,8.3s1.66,6.79,1.66,6.79l-18.25-0.75c0,0-4.53-0.91-4.83-4.22
		c-0.3-3.32,1.66-9.05,5.88-10.11S933.78,480.9,933.78,480.9z"/>
	<linearGradient id="SVGID_63_" gradientUnits="userSpaceOnUse" x1="1022.727" y1="482.895" x2="1022.1211" y2="500.1364">
		<stop  offset="0" style="stop-color:#020000"/>
		<stop  offset="0.4169" style="stop-color:#29292A"/>
		<stop  offset="0.8325" style="stop-color:#1B1B1A"/>
		<stop  offset="0.9719" style="stop-color:#444242"/>
	</linearGradient>
	<path class="st82" d="M1011,483.02c0,0-5.43,1.96-5.88,5.88c-0.45,3.92,2.41,6.18,6.49,7.09s22.93,0.91,22.93,0.91
		s-6.64-3.62-4.37-6.94c2.26-3.32,9.96-6.18,9.96-6.18S1021.41,481.66,1011,483.02z"/>
	<linearGradient id="SVGID_64_" gradientUnits="userSpaceOnUse" x1="954.2587" y1="473.1504" x2="952.5995" y2="520.3621">
		<stop  offset="0" style="stop-color:#020000"/>
		<stop  offset="0.4169" style="stop-color:#29292A"/>
		<stop  offset="0.8325" style="stop-color:#1B1B1A"/>
		<stop  offset="0.9719" style="stop-color:#444242"/>
	</linearGradient>
	<path class="st83" d="M971.4,474.2c0,0-13.79-3.56-21.94-0.54c-8.15,3.02-11.92,8.3-12.82,13.42c-0.91,5.13,6.03,18.85,9.5,20.66
		s15.99,3.71,19.16,3.7c3.17,0,2.11-6.27,1.81-9.28C966.81,499.16,971.4,474.2,971.4,474.2z"/>
	<path d="M969.82,473.66c0,0-16.59,0.9-18.7,10.56s5.13,23.23,9.35,25.64c4.22,2.41,14.18,1.81,17.2,0
		c3.02-1.81,11.77-15.69,10.56-21.72S978.27,476.38,969.82,473.66z"/>
	<linearGradient id="SVGID_65_" gradientUnits="userSpaceOnUse" x1="683.35" y1="562.9604" x2="782.6002" y2="608.8146">
		<stop  offset="0.1207" style="stop-color:#FFFFFF"/>
		<stop  offset="0.3875" style="stop-color:#7C2713"/>
		<stop  offset="0.6266" style="stop-color:#A41D00"/>
		<stop  offset="0.9176" style="stop-color:#8E331F"/>
	</linearGradient>
	<path class="st84" d="M728.88,581.97c0.21,0.9,5.04,16.44,10.62,21.12l12.97-3.92c0,0-8.6-9.05-8.15-17.19
		c0.45-8.15-7.24-7.09-7.24-7.09l-8.21,4.83V581.97z"/>
	<linearGradient id="SVGID_66_" gradientUnits="userSpaceOnUse" x1="660.1051" y1="548.2573" x2="747.5902" y2="571.8538">
		<stop  offset="0.2373" style="stop-color:#EB4C26"/>
		<stop  offset="0.3875" style="stop-color:#D45337"/>
		<stop  offset="0.6266" style="stop-color:#CA5137"/>
		<stop  offset="0.9176" style="stop-color:#DD6046"/>
	</linearGradient>
	<path class="st85" d="M705.56,569.56c0,0,0.75-11.43,6.34-12.03s30.77,0.74,30.77,0.74s-1.81,11.16-2.72,12.3
		c-0.91,1.14-13.58,7.32-15.84,7.17C721.85,577.59,705.56,569.56,705.56,569.56z"/>
	<linearGradient id="SVGID_67_" gradientUnits="userSpaceOnUse" x1="642.85" y1="547.2845" x2="761.4073" y2="579.2618">
		<stop  offset="0.1207" style="stop-color:#FFFFFF"/>
		<stop  offset="0.3875" style="stop-color:#7C2713"/>
		<stop  offset="0.6266" style="stop-color:#A41D00"/>
		<stop  offset="0.9176" style="stop-color:#8E331F"/>
	</linearGradient>
	<path class="st86" d="M750.21,560.55c0,0-10.26-5.13-16.89,0c-6.64,5.13-9.65,11.16-9.65,11.16s-18.1-3.68-18.1-2.14
		s-3.02,9.56,2.72,11.43c5.73,1.87,20.82,1.87,20.82,1.87s-1.21-2.44,2.11-1.37c3.32,1.07,5.13,1.37,10.86,1.37
		c5.73,0,8.15-1.37,8.15-1.37V560.55z"/>
	<path class="st87" d="M936.94,593.18c0,0-0.3,11.41-5.73,14.73c-5.43,3.32-16.91,9.35-17.81,8.15s11.77-17.99,12.98-22.87
		c1.21-4.88,2.41-6.09,5.13-5.79C934.23,587.7,936.94,593.18,936.94,593.18z"/>
	<linearGradient id="SVGID_68_" gradientUnits="userSpaceOnUse" x1="983.9408" y1="550.9957" x2="980.1024" y2="593.2173">
		<stop  offset="0.2373" style="stop-color:#EB4C26"/>
		<stop  offset="0.3875" style="stop-color:#D45337"/>
		<stop  offset="0.6266" style="stop-color:#CA5137"/>
		<stop  offset="0.9176" style="stop-color:#DD6046"/>
	</linearGradient>
	<path class="st88" d="M987.37,568.96c1.4,0,4.78-0.96,6.27,2.02s2.8,17.81,0.21,18.98s-16.04,3.62-16.79,3.17
		c-0.75-0.45-10.56-3.02-10.71-7.54c-0.15-4.53,8.75-14.03,9.96-14.18C977.52,571.25,987.37,568.96,987.37,568.96z"/>
	<linearGradient id="SVGID_69_" gradientUnits="userSpaceOnUse" x1="961.5705" y1="546.1375" x2="957.0454" y2="595.9134">
		<stop  offset="0.1207" style="stop-color:#FFFFFF"/>
		<stop  offset="0.3875" style="stop-color:#7C2713"/>
		<stop  offset="0.6266" style="stop-color:#A41D00"/>
		<stop  offset="0.9176" style="stop-color:#8E331F"/>
	</linearGradient>
	<path class="st89" d="M993.86,589.96c0.83-0.46-11.81,4.07-15.89,0c-4.07-4.07-3.29-21.63,10.8-21l-56.05-0.02
		c0,0-7.69-4.33-9.5,3.82c-1.81,8.15-1.36,19.01,0,19.01c1.36,0,9.12,0,10.9,1.81C935.89,595.39,980.78,597.2,993.86,589.96z"/>
	<linearGradient id="SVGID_70_" gradientUnits="userSpaceOnUse" x1="848.9543" y1="435.7065" x2="920.7523" y2="668.5977">
		<stop  offset="0.1207" style="stop-color:#FFFFFF"/>
		<stop  offset="0.3875" style="stop-color:#7C2713"/>
		<stop  offset="0.6266" style="stop-color:#A41D00"/>
		<stop  offset="0.9176" style="stop-color:#8E331F"/>
	</linearGradient>
	<path class="st90" d="M752.02,619.76l21.12-9.89c0,0,45.85-65.75,90.5-73.46c44.65-7.71,155.15-0.6,159.63,4.22
		c4.48,4.83-12.26,2.26-12.26,2.26s7.86,13.58,2.57,14.93c-5.29,1.36-17.41,5.88-20.62,8.6c-3.22,2.72,16.4,29.41,20.62,32.13
		c4.22,2.72,8.55,6.79,10.46-5.88c1.91-12.67,10.48-27.6,13.21-30.77c2.73-3.17,5.85-11.76,2.28-17.65
		c-3.57-5.88-25.86-13.16-31.21-14.12s-93.9-4.02-98.8-5.79c-4.9-1.77-129.36-4.98-129.36-4.98s-3.55,2.26-2.64,4.98
		c0.9,2.72,21.34-0.91,25.83,13.12s-39.56,54.04-39.26,56.96c0.3,2.92-16,24.71-16,24.71L752.02,619.76z"/>
	<linearGradient id="SVGID_71_" gradientUnits="userSpaceOnUse" x1="824.2238" y1="590.613" x2="1075.2152" y2="511.5748">
		<stop  offset="0.2373" style="stop-color:#EB4C26"/>
		<stop  offset="0.3875" style="stop-color:#D45337"/>
		<stop  offset="0.6266" style="stop-color:#CA5137"/>
		<stop  offset="0.9176" style="stop-color:#DD6046"/>
	</linearGradient>
	<path class="st91" d="M746.67,619.37c-0.68,1.74,8.26-2.72,10.69-6.34s58.54-74.21,97-80.55c38.46-6.34,128.96-4.07,153.4,0
		s31.74,13.12,31.03,19.46s-2.07,30.32,2.46,37.56c4.53,7.24,20.82,7.24,25.79,7.24c4.98,0,13.58-0.45,13.12-3.17
		c-0.45-2.72-22.08-52.04-55.61-60.18c-33.53-8.15-81.95-12.22-117.7-10.86c-35.75,1.36-90.05-3.17-90.05-3.17s-31.22-2.72-35.75,0
		c-4.53,2.72,8.15,3.62,20.36,8.6c12.22,4.98-27.15,55.66-27.15,55.66S749.83,611.23,746.67,619.37z"/>
	<linearGradient id="SVGID_72_" gradientUnits="userSpaceOnUse" x1="567.3504" y1="708.8497" x2="573.233" y2="587.5773">
		<stop  offset="0.2373" style="stop-color:#912710"/>
		<stop  offset="0.61" style="stop-color:#CF2500"/>
		<stop  offset="0.6266" style="stop-color:#A82806"/>
		<stop  offset="0.9176" style="stop-color:#D15820"/>
	</linearGradient>
	<polygon class="st92" points="564.19,705.35 564.19,615.75 570.98,609.87 575.5,609.87 575.5,699.01 569.85,707.2 	"/>
	<polygon class="st93" points="569.85,615.3 569.85,707.2 564.19,705.35 564.19,615.75 	"/>
	<linearGradient id="SVGID_73_" gradientUnits="userSpaceOnUse" x1="311.0512" y1="561.9567" x2="309.2412" y2="754.7255">
		<stop  offset="0.312" style="stop-color:#B2B6B5"/>
		<stop  offset="0.4338" style="stop-color:#4E4F54"/>
		<stop  offset="0.5457" style="stop-color:#26252B"/>
		<stop  offset="0.9176" style="stop-color:#040413"/>
	</linearGradient>
	<path class="st94" d="M325.75,711.38c0,0,1.21-69.38-4.22-77.83s-24.74-19.31-42.84-22.32s-34.99-3.62-34.99-3.62
		s-10.26-3.62-3.02-5.43c7.24-1.81,15.08-3.02,28.36-3.02c13.27,0,89.3,8.45,101.36,20.51s10.86,12.67,12.07,28.36
		c1.21,15.69-2.41,63.35-2.41,63.35s-2.41,3.62-7.84,4.22c-5.43,0.6-41.03,0-41.03,0L325.75,711.38z"/>
	<g>
		<linearGradient id="SVGID_74_" gradientUnits="userSpaceOnUse" x1="1398.3286" y1="538.5931" x2="1401.4312" y2="757.8375">
			<stop  offset="0" style="stop-color:#595A5E"/>
			<stop  offset="0.4169" style="stop-color:#414243"/>
			<stop  offset="0.8325" style="stop-color:#1B1B1A"/>
			<stop  offset="0.9719" style="stop-color:#444242"/>
		</linearGradient>
		<path class="st95" d="M1443.68,758.27l-85.08-1.05c-42.69-4.3-40.35-108.75-40.35-108.75s5.45-97.12,40.35-99.84l85.08,1.05
			c37.85,4.75,37.85,94.02,37.85,94.02S1477.79,758.27,1443.68,758.27z"/>
		<linearGradient id="SVGID_75_" gradientUnits="userSpaceOnUse" x1="1434.478" y1="534.2879" x2="1474.5685" y2="793.3341">
			<stop  offset="0" style="stop-color:#595A5E"/>
			<stop  offset="0.4169" style="stop-color:#414243"/>
			<stop  offset="0.8325" style="stop-color:#1B1B1A"/>
			<stop  offset="0.9719" style="stop-color:#444242"/>
		</linearGradient>
		<path class="st96" d="M1479.41,659.38c-2.07,54.96-15.39,98.32-29.74,96.86c-14.35-1.47-24.3-47.21-22.23-102.16
			c2.07-54.96,15.39-98.32,29.74-96.86C1471.53,558.68,1481.48,604.42,1479.41,659.38z"/>
		<path class="st27" d="M1442.34,746.49c-10.6-13.28-16.66-50.43-15.08-92.44c0.67-17.74,2.66-34.87,5.77-49.53l5.07,2.91
			c-2.94,13.91-4.84,30.22-5.48,47.17c-1.46,38.57,3.88,73.47,12.97,84.86L1442.34,746.49z"/>
		<path class="st27" d="M1450.42,751.69c-2.84-0.29-5.56-2.04-8.08-5.2l3.25-7.03c1.67,2.09,3.4,3.24,5.16,3.42L1450.42,751.69z"/>
		<path class="st27" d="M1478.95,683.93l-5.28-1.59c0.84-7.54,1.42-15.4,1.72-23.37c0.89-23.58-0.7-45.92-4.48-62.92
			c-3.46-15.58-8.44-24.82-13.66-25.35l0.33-8.82c7.56,0.77,14.08,11.83,18.37,31.14c4.02,18.12,5.73,41.74,4.79,66.5
			C1480.43,667.84,1479.82,676.05,1478.95,683.93z"/>
		<path class="st28" d="M1457.42,566.28"/>
		<path class="st28" d="M1435.56,605.98"/>
		
			<ellipse transform="matrix(0.0323 -0.9995 0.9995 0.0323 751.4348 2089.9146)" class="st29" cx="1455.02" cy="656.89" rx="77.15" ry="21.43"/>
		
			<ellipse transform="matrix(0.0323 -0.9995 0.9995 0.0323 751.4348 2089.9146)" class="st97" cx="1455.02" cy="656.89" rx="73.43" ry="20.39"/>
		<path class="st31" d="M1452.93,730.1c-0.22,0-0.44-0.01-0.66-0.03c-11.83-1.21-19.88-34.3-18.33-75.33
			c0.73-19.23,3.5-37.14,7.8-50.42c4.5-13.88,10.2-21.2,16.05-20.59c5.85,0.6,10.96,9.02,14.38,23.7
			c3.27,14.06,4.68,32.39,3.95,51.63C1474.6,699.3,1464.48,730.1,1452.93,730.1z M1457.15,588.59c-4.42,0-9.05,6.52-12.78,18.03
			c-4.11,12.68-6.76,29.87-7.45,48.42c-1.4,37.01,5.72,69.12,15.54,70.12c9.81,1,19.29-29.42,20.69-66.42
			c0.7-18.55-0.64-36.15-3.76-49.56c-2.93-12.6-7.23-20.09-11.78-20.56C1457.45,588.6,1457.3,588.59,1457.15,588.59z"/>
		<path class="st31" d="M1453.71,723.94c-0.19,0-0.38-0.01-0.57-0.03c-10.5-1.07-17.62-31.33-16.2-68.87
			c1.42-37.54,10.73-66.13,21.26-65.04c5.23,0.53,9.77,8.26,12.79,21.74c2.87,12.83,4.08,29.57,3.42,47.13
			C1473,695.73,1463.98,723.94,1453.71,723.94z M1457.61,594.88c-8.4,0-16.45,27.34-17.7,60.47c-1.27,33.64,4.87,62.79,13.41,63.67
			c0.13,0.01,0.26,0.02,0.39,0.02c8.4,0,16.45-27.35,17.7-60.47l0,0c0.64-16.9-0.51-32.93-3.24-45.13
			c-2.54-11.38-6.25-18.14-10.17-18.54C1457.87,594.88,1457.74,594.88,1457.61,594.88z"/>
		<path class="st31" d="M1439.39,686.58l13.8-23.55c0,0,1.97-2.57,0-4.45s-13.8-9.07-13.8-9.07l0.7-6.33l9.46,4.96
			c0,0,3.21,2.27,4.52,0.71s-1.29-10.97-1.29-10.97l-7.48-25.14l1.62-5.13c0,0,8.52,27.2,8.75,27.71s2.6,5.64,2.24,0
			c-0.35-5.64-2-42.59-2-42.59l2.04,0.68l2.11,40.2c0,0,0.25,6.16,1.16,1.54c0.91-4.62,4.86-31.99,4.86-31.99s2.05,3.81,2.17,4.21
			c0.12,0.41-4.56,27.6-4.66,29.82c-0.1,2.22-0.52,6.16,0.42,5.82c0.94-0.34,7.38-13.85,7.38-13.85l1.21,5.57
			c0,0-6.09,12.56-6.3,13.07c-0.21,0.51-2.39,2.57-1.77,4.62c0.62,2.05,8.27,8.88,8.25,9.38c-0.03,0.51-0.37,5.92-0.37,5.92
			l-7.05-2.65c0,0-1.56,0-1.56,3.25c0,3.25,4.41,27.87,4.41,27.87l-1.01,3.98l-4.44-23.64c0,0-1.35-3.25-1.97-0.34
			c-0.62,2.91-1.53,42.02-1.53,42.02l-1.97,1.91l0.63-41.88c0,0-0.87-1.03-1.29,0.34c-0.42,1.37-8.54,39.26-8.54,39.26
			s-1.75-3.34-1.75-4.54s8.11-37.8,8.21-39.68c0.1-1.88-1.04-1.88-2.29-0.17c-1.25,1.71-11.75,17.96-11.85,16.93
			C1440.3,689.37,1439.39,686.58,1439.39,686.58z"/>
		
			<ellipse transform="matrix(0.0323 -0.9995 0.9995 0.0323 755.0895 2094.5522)" class="st32" cx="1459.25" cy="657.32" rx="14.47" ry="4.02"/>
		<linearGradient id="SVGID_76_" gradientUnits="userSpaceOnUse" x1="1456.467" y1="695.3279" x2="1459.2864" y2="636.893">
			<stop  offset="0.2373" style="stop-color:#571002"/>
			<stop  offset="0.6266" style="stop-color:#9B9498"/>
			<stop  offset="0.9176" style="stop-color:#FAFDFF"/>
		</linearGradient>
		<path class="st98" d="M1461.19,657.62c-0.22,5.75-1.69,10.28-3.28,10.12c-1.59-0.16-2.71-4.96-2.49-10.71
			c0.22-5.75,1.69-10.28,3.28-10.12C1460.29,647.07,1461.4,651.86,1461.19,657.62z"/>
		<linearGradient id="SVGID_77_" gradientUnits="userSpaceOnUse" x1="1457.4136" y1="695.3279" x2="1460.2328" y2="636.893">
			<stop  offset="0.2373" style="stop-color:#571002"/>
			<stop  offset="0.6266" style="stop-color:#A82806"/>
			<stop  offset="0.9176" style="stop-color:#D15820"/>
		</linearGradient>
		<path class="st99" d="M1462.13,657.62c-0.22,5.75-1.69,10.28-3.28,10.12c-1.59-0.16-2.71-4.96-2.49-10.71
			c0.22-5.75,1.69-10.28,3.28-10.12C1461.23,647.07,1462.35,651.86,1462.13,657.62z"/>
		<linearGradient id="SVGID_78_" gradientUnits="userSpaceOnUse" x1="1459.8748" y1="684.8186" x2="1461.9651" y2="641.4915">
			<stop  offset="0.2373" style="stop-color:#571002"/>
			<stop  offset="0.6266" style="stop-color:#9B9498"/>
			<stop  offset="0.9176" style="stop-color:#FAFDFF"/>
		</linearGradient>
		<path class="st100" d="M1459.84,649.35c0,0-3.64,5.99-0.94,14.88c0,0,1.56,0.34,1.77-0.68c0,0,3.95-5.25,3.85-6.73
			c-0.1-1.48-1.93-5.42-3.3-6.44C1461.21,650.38,1460.56,647.81,1459.84,649.35z"/>
	</g>
	<g>
		<linearGradient id="SVGID_79_" gradientUnits="userSpaceOnUse" x1="907.7051" y1="641.9183" x2="913.1351" y2="1025.6458">
			<stop  offset="0" style="stop-color:#595A5E"/>
			<stop  offset="0.4169" style="stop-color:#414243"/>
			<stop  offset="0.8325" style="stop-color:#1B1B1A"/>
			<stop  offset="0.9719" style="stop-color:#444242"/>
		</linearGradient>
		<path class="st101" d="M954,1026.87h-79.84c-123.91-7.59-117.12-191.79-117.12-191.79s15.82-171.28,117.12-176.09H954
			c109.84,8.38,109.84,165.82,109.84,165.82S1052.99,1026.87,954,1026.87z"/>
		<linearGradient id="SVGID_80_" gradientUnits="userSpaceOnUse" x1="948.9143" y1="632.1858" x2="1019.5056" y2="1088.3146">
			<stop  offset="0" style="stop-color:#595A5E"/>
			<stop  offset="0.4169" style="stop-color:#414243"/>
			<stop  offset="0.8325" style="stop-color:#1B1B1A"/>
			<stop  offset="0.9719" style="stop-color:#444242"/>
		</linearGradient>
		<path class="st102" d="M1057.69,852.46c-6.02,96.93-44.66,173.41-86.31,170.82c-41.65-2.59-70.54-83.26-64.52-180.19
			c6.02-96.93,44.66-173.41,86.31-170.82C1034.82,674.86,1063.71,755.53,1057.69,852.46z"/>
		<path class="st28" d="M954.82,999.89c-27.82-21.17-45.21-83.76-40.71-156.35c1.96-31.65,7.83-60.89,16.32-85.27"/>
		<path class="st28" d="M974.04,1007.49c-6.81-0.42-13.25-3.06-19.22-7.6"/>
		<path class="st28" d="M993.86,688.27c38.57,2.39,65.4,75.8,59.93,163.95c-0.91,14.64-2.65,28.77-5.1,42.14"/>
		<path class="st28" d="M993.86,688.27"/>
		<path class="st28" d="M930.43,758.27"/>
		
			<ellipse transform="matrix(0.062 -0.9981 0.9981 0.062 79.3365 1780.5398)" class="st29" cx="986.92" cy="848.06" rx="136.21" ry="62.13"/>
		
			<ellipse transform="matrix(0.062 -0.9981 0.9981 0.062 79.3365 1780.5398)" class="st97" cx="986.92" cy="848.06" rx="129.63" ry="59.13"/>
		
			<ellipse transform="matrix(0.062 -0.9981 0.9981 0.062 79.3365 1780.5398)" class="st103" cx="986.92" cy="848.06" rx="124.97" ry="57"/>
		
			<ellipse transform="matrix(0.062 -0.9981 0.9981 0.062 80.9601 1782.4974)" class="st103" cx="988.77" cy="848.18" rx="113.99" ry="50.14"/>
		<path class="st31" d="M941.54,900.43l40.05-41.53c0,0,5.73-4.53,0-7.84c-5.73-3.32-40.05-15.99-40.05-15.99l2.04-11.16l27.45,8.75
			c0,0,9.32,4,13.11,1.24c3.79-2.75-3.75-19.34-3.75-19.34l-21.72-44.35l4.71-9.05c0,0,24.74,47.97,25.4,48.87s7.54,9.96,6.51,0
			c-1.02-9.96-5.81-75.12-5.81-75.12l5.92,1.21l6.11,70.89c0,0,0.73,10.86,3.38,2.72c2.65-8.15,14.12-56.41,14.12-56.41
			s5.96,6.72,6.3,7.43s-13.24,48.68-13.54,52.6c-0.3,3.92-1.51,10.86,1.21,10.26c2.72-0.6,21.42-24.44,21.42-24.44l3.51,9.83
			c0,0-17.68,22.15-18.29,23.05c-0.6,0.91-6.93,4.53-5.12,8.15s24.01,15.66,23.94,16.55s-1.08,10.44-1.08,10.44l-20.45-4.67
			c0,0-4.53,0-4.53,5.73c0,5.73,12.8,49.16,12.8,49.16l-2.93,7.02l-12.89-41.7c0,0-3.92-5.73-5.73-0.6
			c-1.81,5.13-4.44,74.1-4.44,74.1l-5.71,3.38l1.83-73.86c0,0-2.53-1.81-3.74,0.6c-1.21,2.41-24.77,69.25-24.77,69.25
			s-5.09-5.9-5.09-8.01c0-2.11,23.53-66.67,23.83-69.99c0.3-3.32-3.02-3.32-6.64-0.3c-3.62,3.02-34.09,31.68-34.39,29.87
			C944.18,905.36,941.54,900.43,941.54,900.43z"/>
		
			<ellipse transform="matrix(0.062 -0.9981 0.9981 0.062 90.0727 1793.4846)" class="st32" cx="999.17" cy="848.82" rx="25.55" ry="11.65"/>
		<linearGradient id="SVGID_81_" gradientUnits="userSpaceOnUse" x1="993.1876" y1="915.9288" x2="998.1652" y2="812.7568">
			<stop  offset="0.2373" style="stop-color:#571002"/>
			<stop  offset="0.6266" style="stop-color:#9B9498"/>
			<stop  offset="0.9176" style="stop-color:#FAFDFF"/>
		</linearGradient>
		<path class="st104" d="M1004.8,849.34c-0.63,10.14-4.89,18.13-9.52,17.85c-4.63-0.29-7.87-8.74-7.24-18.89s4.89-18.13,9.52-17.85
			C1002.19,830.74,1005.43,839.2,1004.8,849.34z"/>
		<linearGradient id="SVGID_82_" gradientUnits="userSpaceOnUse" x1="995.9347" y1="915.9288" x2="1000.9123" y2="812.7568">
			<stop  offset="0.2373" style="stop-color:#571002"/>
			<stop  offset="0.6266" style="stop-color:#A82806"/>
			<stop  offset="0.9176" style="stop-color:#D15820"/>
		</linearGradient>
		<path class="st105" d="M1007.55,849.34c-0.63,10.14-4.89,18.13-9.52,17.85c-4.63-0.29-7.87-8.74-7.24-18.89s4.89-18.13,9.52-17.85
			C1004.94,830.74,1008.18,839.2,1007.55,849.34z"/>
		<linearGradient id="SVGID_83_" gradientUnits="userSpaceOnUse" x1="1002.5175" y1="897.5037" x2="1006.212" y2="820.9269">
			<stop  offset="0.2373" style="stop-color:#571002"/>
			<stop  offset="0.6266" style="stop-color:#9B9498"/>
			<stop  offset="0.9176" style="stop-color:#FAFDFF"/>
		</linearGradient>
		<path class="st106" d="M1000.9,834.77c0,0-10.56,10.56-2.72,26.25c0,0,4.53,0.6,5.13-1.21c0,0,11.46-9.26,11.16-11.87
			c-0.3-2.61-5.61-9.55-9.59-11.36C1004.88,836.58,1002.97,832.05,1000.9,834.77z"/>
	</g>
</g>
</svg>
