<svg width="22" height="22" viewBox="0 0 22 22" fill="none" xmlns="http://www.w3.org/2000/svg">
<g clip-path="url(#clip0_352:20925)">
<path d="M0.12039 12.763C0.253209 12.763 0.378904 12.9335 0.401139 13.1439C0.423335 13.3543 0.665321 13.5247 0.941899 13.5247H1.44279H1.71638C2.1183 14.2187 2.86716 14.6868 3.72669 14.6868C4.58657 14.6868 5.33543 14.2186 5.73735 13.5247H13.8354C14.2373 14.2187 14.9861 14.6868 15.8461 14.6868C16.6924 14.6868 17.4308 14.2329 17.8375 13.5571C18.1713 13.63 18.4457 13.8201 18.6098 13.9673C18.7106 14.0576 18.8585 14.1261 19.0745 14.1261C19.4196 14.1261 20.0771 14.1261 20.6118 14.1261C21.0683 14.1261 21.3942 13.9736 21.3388 13.7855C21.2835 13.5973 21.5228 13.3509 21.7611 13.0942C21.8939 12.9512 22 12.7623 22 12.5229C22 11.998 15.9518 9.77921 13.7628 8.99382C13.3326 8.83952 12.6819 8.93137 12.2853 9.15789C11.6124 9.54285 10.5332 10.0569 9.40795 10.183C9.42487 10.1002 9.44144 10.0129 9.45537 9.92182C9.45573 9.91954 9.45463 9.91769 9.45498 9.91541C9.63526 8.93664 9.0557 8.25397 8.93905 8.12828C8.92362 8.09026 8.89313 8.05343 8.84197 8.02143C8.68128 7.91982 8.44835 7.83061 8.12581 7.83061C7.55191 7.83061 7.15078 8.27125 7.06758 8.72964C7.02693 8.95431 7.12929 9.31971 7.20946 9.53348C7.2516 9.64564 7.29977 9.74875 7.3566 9.84091C6.90427 9.56394 6.75787 9.10256 6.73154 8.69462C6.70219 8.2389 6.46508 8.00408 6.03762 8.16405L4.58125 8.70745C4.15336 8.86738 3.74393 8.87116 3.6664 8.71646C3.58887 8.56145 3.70555 8.43575 3.9268 8.43575C4.14809 8.43575 4.34564 8.31005 4.36749 8.155C4.38968 8.0003 4.04234 7.81479 3.59151 7.741L1.05587 7.32672C0.605425 7.25293 0.410466 7.48929 0.620851 7.8543C0.831197 8.2193 1.1718 8.52449 1.38215 8.53543C1.59253 8.54633 1.96018 8.74393 2.20366 8.97612C2.44675 9.20866 2.2571 9.45777 1.90827 9.7528C1.71331 9.91761 1.52441 10.1566 1.40588 10.5017C1.25759 10.9333 1.04874 11.3157 0.760872 11.3157C0.472999 11.3157 0.159114 11.6393 0.0593914 12.039C-0.0391897 12.439 -0.0124685 12.763 0.12039 12.763ZM8.73473 8.39848C8.78026 8.38455 8.81792 8.36464 8.85027 8.34201C8.99478 8.52115 9.28454 8.95845 9.28041 9.55524C9.22319 9.51652 9.15924 9.48638 9.08624 9.47736C8.61922 9.42128 8.13942 9.28776 8.09912 8.97875C8.06036 8.68183 8.387 8.50348 8.73473 8.39848Z" fill="#E8E13F"/>
</g>
<defs>
<clipPath id="clip0_352:20925">
<rect width="22" height="22" fill="white"/>
</clipPath>
</defs>
</svg>
