<svg width="22" height="22" viewBox="0 0 22 22" fill="none" xmlns="http://www.w3.org/2000/svg">
<path d="M11 1.375C5.68477 1.375 1.375 5.68477 1.375 11C1.375 16.3152 5.68477 20.625 11 20.625C16.3152 20.625 20.625 16.3152 20.625 11C20.625 5.68477 16.3152 1.375 11 1.375ZM14.792 13.9584L14.1775 14.7963C14.1642 14.8145 14.1473 14.83 14.128 14.8417C14.1086 14.8534 14.0872 14.8612 14.0648 14.8646C14.0425 14.868 14.0196 14.8669 13.9977 14.8615C13.9757 14.856 13.9551 14.8463 13.9369 14.8328L10.3834 12.2418C10.3613 12.2259 10.3433 12.2049 10.3309 12.1806C10.3186 12.1563 10.3123 12.1294 10.3125 12.1021V6.1875C10.3125 6.09297 10.3898 6.01562 10.4844 6.01562H11.5178C11.6123 6.01562 11.6896 6.09297 11.6896 6.1875V11.5049L14.7533 13.7199C14.8307 13.7736 14.8479 13.8811 14.792 13.9584Z" fill="#E8E13F"/>
</svg>
