<svg width="21" height="24" viewBox="0 0 21 24" fill="none" xmlns="http://www.w3.org/2000/svg">
<path d="M18.9308 12.045C18.6956 11.3239 17.9101 10.9406 17.1853 11.1759L15.4626 11.749L14.3128 8.33323L16.0356 7.76015C16.7603 7.52484 17.1398 6.74301 16.9083 6.01812C16.673 5.29702 15.8876 4.9137 15.1628 5.149L13.4401 5.72209L12.8443 3.93831C12.609 3.21721 11.8236 2.83389 11.0988 3.0692C10.374 3.3045 9.99458 4.08633 10.226 4.81122L10.8218 6.595L7.27766 7.77912L6.68191 5.99535C6.44665 5.27425 5.66117 4.89092 4.9364 5.12623C4.21164 5.36154 3.83218 6.14336 4.06365 6.86826L4.6594 8.65203L2.94046 9.22132C2.21569 9.45663 1.83623 10.2385 2.0677 10.9634C2.25743 11.5137 2.79247 11.8742 3.34268 11.897C3.60071 11.9349 3.79803 11.8363 5.53215 11.2594L6.68191 14.6751L4.95917 15.2482C4.2382 15.4835 3.85495 16.2691 4.08642 16.9902C4.27615 17.5405 4.81118 17.9011 5.3614 17.9239C5.61943 17.9618 5.81675 17.8631 7.55087 17.2863L8.14662 19.07C8.3705 19.7114 9.08388 20.1707 9.89213 19.9392C10.6169 19.7038 10.9963 18.922 10.7649 18.1971L10.1691 16.4134L13.7209 15.2254L14.3166 17.0092C14.5405 17.6506 15.2539 18.1098 16.0621 17.8783C16.7869 17.643 17.1663 16.8612 16.9349 16.1363L16.3391 14.3525L18.0619 13.7794C18.7828 13.5517 19.1661 12.7661 18.9308 12.045ZM9.28879 13.8364L8.13903 10.413L11.687 9.22512L12.8367 12.6484L9.28879 13.8364Z" fill="#E8E13F"/>
</svg>
