<svg width="20" height="20" viewBox="0 0 20 20" fill="none" xmlns="http://www.w3.org/2000/svg">
<path d="M10.0001 1.66667C5.40008 1.66667 1.66675 5.40001 1.66675 10C1.66675 14.6 5.40008 18.3333 10.0001 18.3333C14.6001 18.3333 18.3334 14.6 18.3334 10C18.3334 5.40001 14.6001 1.66667 10.0001 1.66667ZM13.0084 6.95001C13.9001 6.95001 14.6167 7.66667 14.6167 8.55834C14.6167 9.45001 13.9001 10.1667 13.0084 10.1667C12.1167 10.1667 11.4001 9.45001 11.4001 8.55834C11.3917 7.66667 12.1167 6.95001 13.0084 6.95001ZM8.00841 5.63334C9.09175 5.63334 9.97508 6.51667 9.97508 7.60001C9.97508 8.68334 9.09175 9.56667 8.00841 9.56667C6.92508 9.56667 6.04175 8.68334 6.04175 7.60001C6.04175 6.50834 6.91675 5.63334 8.00841 5.63334ZM8.00841 13.2417V16.3667C6.00841 15.7417 4.42508 14.2 3.72508 12.2333C4.60008 11.3 6.78341 10.825 8.00841 10.825C8.45008 10.825 9.00841 10.8917 9.59175 11.0083C8.22508 11.7333 8.00841 12.6917 8.00841 13.2417ZM10.0001 16.6667C9.77508 16.6667 9.55841 16.6583 9.34175 16.6333V13.2417C9.34175 12.0583 11.7917 11.4667 13.0084 11.4667C13.9001 11.4667 15.4417 11.7917 16.2084 12.425C15.2334 14.9 12.8251 16.6667 10.0001 16.6667Z" fill="#E8E13F"/>
</svg>
