<svg width="24" height="24" viewBox="0 0 24 24" fill="none" xmlns="http://www.w3.org/2000/svg">
<g clip-path="url(#clip0_811_11244)">
<path d="M22.1769 10.0786C21.6982 9.58026 21.0859 9.21249 20.397 9.02735H21.3029C21.9201 9.02735 22.7194 8.68806 22.7194 8.08151C22.7194 7.34661 21.487 6.89518 20.5358 7.26741C20.4653 7.29097 20.4182 7.36153 20.4182 7.43681V7.98735C20.4182 8.08147 20.343 8.15675 20.2442 8.15675H20.0956L19.1606 5.37201C18.7424 4.45355 17.8391 3.85183 16.8312 3.81849C13.3745 3.70536 9.91509 3.70536 6.45843 3.81849C5.45055 3.85183 4.54724 4.45351 4.12893 5.37201L3.19383 8.15725H3.04331C2.9486 8.15725 2.87182 8.08047 2.87182 7.98576V7.43622C2.87182 7.36057 2.82542 7.29261 2.75482 7.26536C1.78096 6.88949 0.5682 7.35821 0.5682 8.08192C0.5682 8.5989 1.20212 9.01789 1.98844 9.02876H2.88737C1.24243 9.47232 0.0443115 10.9681 0.0443115 12.7394V15.5776C0.0443115 16.9194 1.12229 18.0111 2.45951 18.0246C2.49081 18.0246 20.7937 18.0246 20.826 18.0246C22.1678 18.0111 23.2458 16.9194 23.2458 15.5776V12.7349C23.2458 11.707 22.8409 10.77 22.1769 10.0786ZM4.78583 5.63265C5.09929 4.97116 5.74595 4.54908 6.48149 4.52197C9.42318 4.42235 13.2396 4.40411 16.8086 4.52197C17.1566 4.5368 17.4849 4.64042 17.7663 4.81323C18.0822 5.00328 18.3414 5.28712 18.5043 5.6327L19.6026 8.89817C19.5903 8.89817 19.578 8.89571 19.5656 8.89571C12.5143 8.60545 4.17565 8.80091 3.68988 8.89817L4.78583 5.63265ZM5.25154 17.0149H1.86976C1.55693 17.0149 1.33331 16.7127 1.4237 16.413L1.67234 15.5886C1.7544 15.3187 2.00422 15.1331 2.28611 15.1331H4.85069C5.15046 15.1331 5.40979 15.3412 5.47639 15.6327L5.67026 16.4915C5.73094 16.7591 5.52629 17.0149 5.25154 17.0149ZM5.624 12.7644C4.68384 13.5941 3.28876 13.818 1.5305 13.5568C1.38986 13.5352 1.28792 13.4147 1.28792 13.2726V11.9708C1.28792 11.8057 1.42716 11.6736 1.59078 11.6837C3.1079 11.7727 4.51881 11.9191 5.5307 12.2765C5.73735 12.3497 5.78903 12.6195 5.624 12.7644ZM16.4158 13.0975L15.4153 15.8566C15.3378 16.1781 15.0493 16.4049 14.7178 16.4049H8.57177C8.24025 16.4049 7.95177 16.1781 7.87426 15.8566L6.87383 13.0975C6.76475 12.6454 7.10632 12.2104 7.57135 12.2104H15.7182C16.1832 12.2104 16.5249 12.6454 16.4158 13.0975ZM21.4188 17.0149H18.0371C17.7623 17.0149 17.5577 16.7591 17.6184 16.4915L17.8123 15.6327C17.8789 15.3412 18.1382 15.1331 18.438 15.1331H21.0025C21.2844 15.1331 21.5343 15.3186 21.6163 15.5886L21.865 16.413C21.9553 16.7127 21.7317 17.0149 21.4188 17.0149ZM22.0017 13.2726C22.0017 13.4147 21.8998 13.5352 21.7591 13.5568C20.0009 13.818 18.6058 13.5941 17.6657 12.7644C17.5006 12.6195 17.5523 12.3497 17.759 12.2764C18.7708 11.919 20.1817 11.7727 21.6989 11.6836C21.8625 11.6736 22.0017 11.8056 22.0017 11.9707V13.2726Z" fill="white" fill-opacity="0.4"/>
<path d="M0.175049 17.384V18.8354C0.175049 19.2352 0.49838 19.5561 0.895765 19.5561H3.19866C3.59604 19.5561 3.91937 19.2352 3.91937 18.8354V18.5194H2.46065C1.5326 18.5096 0.708217 18.0653 0.175049 17.384ZM20.8317 18.5194H19.3706V18.8354C19.3706 19.2352 19.6939 19.5561 20.0913 19.5561H22.3942C22.7915 19.5561 23.1149 19.2352 23.1149 18.8354V17.3816C22.5842 18.0653 21.7573 18.5096 20.8317 18.5194Z" fill="white" fill-opacity="0.4"/>
<path d="M8.58423 15.6431L8.58955 15.6645H14.6999L14.7052 15.6431L15.6811 12.9512H7.60828L8.58423 15.6431Z" fill="white" fill-opacity="0.4"/>
<path d="M20.7124 11.9111C20.2919 11.9111 19.9517 12.2512 19.9517 12.6718C19.9517 13.0923 20.2919 13.4325 20.7124 13.4325C21.133 13.4325 21.4732 13.0923 21.4732 12.6718C21.4732 12.2512 21.133 11.9111 20.7124 11.9111ZM19.0927 12.154C18.8065 12.154 18.575 12.3855 18.575 12.6718C18.575 12.958 18.8065 13.1895 19.0927 13.1895C19.379 13.1895 19.6105 12.958 19.6105 12.6718C19.6105 12.3855 19.379 12.154 19.0927 12.154ZM2.5765 11.9106C2.15596 11.9106 1.8158 12.2508 1.8158 12.6713C1.8158 13.0919 2.15596 13.432 2.5765 13.432C2.99708 13.432 3.3372 13.0919 3.3372 12.6713C3.3372 12.2508 2.99708 11.9106 2.5765 11.9106ZM4.19624 12.1536C3.91003 12.1536 3.6785 12.3851 3.6785 12.6713C3.6785 12.9576 3.91003 13.1891 4.19624 13.1891C4.4825 13.1891 4.71399 12.9576 4.71399 12.6713C4.71404 12.3851 4.4825 12.1536 4.19624 12.1536Z" fill="white" fill-opacity="0.4"/>
</g>
<defs>
<clipPath id="clip0_811_11244">
<rect width="23.29" height="23.29" fill="white"/>
</clipPath>
</defs>
</svg>
