<svg width="24" height="24" viewBox="0 0 24 24" fill="none" xmlns="http://www.w3.org/2000/svg">
<g clip-path="url(#clip0_293:7248)">
<path d="M3.8786 14.5543C3.97488 14.7709 4.10486 14.9779 4.26611 15.1753C3.67882 15.1368 3.27204 15.1729 3.27204 15.1729C3.27204 15.1729 3.59936 14.9202 3.8786 14.5543ZM4.53325 11.2736C4.49477 11.2183 4.46107 11.1629 4.42736 11.1076C3.57771 11.6997 2.68952 11.8706 2.68952 11.8706C2.68952 11.8706 3.3153 12.1522 3.78471 12.6216C3.92674 12.169 4.17705 11.7117 4.53325 11.2736ZM6.87527 6.54395C7.21703 6.54395 7.54441 6.62335 7.84769 6.77982C7.98729 6.38509 8.20389 5.95665 8.51444 5.57152C7.03896 5.56431 5.48168 4.09365 5.42871 4.04795C6.01225 4.80676 5.83099 5.75359 4.67772 5.06129C4.70421 5.0926 5.32521 5.82188 5.69107 6.84727C6.08336 6.64745 6.48293 6.54395 6.87527 6.54395ZM7.76585 16.3331C7.70566 16.3475 7.64308 16.362 7.57329 16.374C8.77671 17.4871 8.85518 19.3027 8.21355 20.7041C8.31944 20.5718 9.38093 19.2455 10.7505 18.4681C9.05594 18.1431 8.14371 16.9613 7.76585 16.3331ZM14.8904 17.2357C14.6112 17.4908 14.1948 17.8157 13.6533 18.0781C15.4392 18.6847 16.5464 20.603 16.585 20.6704C16.5681 20.6006 16.1517 18.8916 16.727 17.6184C16.2111 17.8118 15.5005 17.7381 14.8904 17.2357ZM13.9012 6.67393C15.0852 5.98327 16.1452 6.34693 16.1132 7.65357C17.1271 7.29024 18.2951 7.56535 19.2254 8.26974C19.6418 7.48749 20.3157 7.06867 20.4313 6.99887C20.205 7.07349 18.0315 7.77873 17.1048 7.06627C16.1396 6.32495 17.3383 4.36084 17.372 4.31031C17.3095 4.34401 14.6498 5.84837 13.4944 4.97945C12.3222 4.09609 11.8938 2.12959 11.8938 2.12959C11.8938 2.12959 11.4581 3.37159 10.5917 4.38249C12.2186 4.14156 13.4921 4.94063 13.9012 6.67393ZM19.8945 12.9392C20.9079 13.5664 20.7797 16.3537 18.2987 15.9094C18.2674 16.049 18.2193 16.1911 18.1543 16.333C19.6105 15.7698 21.1389 16.3715 21.1389 16.3715C21.1389 16.3715 20.4361 15.5219 20.7153 14.5494C20.9825 13.6179 22.4435 13.5867 22.5542 13.5842C22.4724 13.5601 21.1533 13.1654 20.1232 12.2171C20.0485 12.494 19.9667 12.7395 19.8945 12.9392ZM19.9483 14.616C20.2246 13.2057 19.2573 13.2331 19.2573 13.2331C19.2573 13.2331 20.5846 10.3021 19.3675 9.03024C17.9778 7.64054 16.1448 7.69491 15.3863 8.7797C15.4095 8.71913 15.9795 7.19851 15.3025 6.87329C14.6115 6.54146 13.533 7.53695 13.533 7.53695C13.533 7.53695 13.533 4.74371 11.016 4.82668C8.49982 4.90965 8.14061 7.59174 8.14061 7.59174C7.243 6.67524 6.0873 6.95621 5.15407 7.81323C4.05429 8.82259 4.2633 10.2253 5.15407 11.2975C4.14072 12.3696 3.70132 13.7542 4.6563 14.8922C6.09396 16.607 8.00205 15.75 8.00205 15.75C8.00205 15.75 8.85902 17.7958 11.1819 18.0447C13.491 18.2923 14.8791 16.5572 14.8877 16.5514C14.896 16.5579 15.5214 17.4377 16.4913 17.1877C17.4595 16.9388 18.0129 15.8877 17.8187 15.2796C17.8188 15.2797 19.672 16.0263 19.9483 14.616ZM22.8586 2.68046C22.9386 2.36068 22.5753 1.76734 21.9835 1.76734C21.0984 1.76734 20.769 2.94737 21.5445 3.40046C20.7713 3.85224 21.0953 5.03359 21.9835 5.03359C22.405 5.03359 22.7561 4.73799 22.841 4.34579C23.3884 4.5466 24 4.12913 24 3.52046C24 2.9506 23.461 2.50843 22.8586 2.68046ZM1.74982 4.89554C1.82988 4.57576 1.4665 3.98241 0.874708 3.98241C-0.0106674 3.98241 -0.339496 5.16259 0.435676 5.61554C-0.33748 6.06727 -0.0134799 7.24866 0.874708 7.24866C1.29616 7.24866 1.64739 6.95307 1.73224 6.56087C2.27964 6.76168 2.89122 6.34426 2.89122 5.73554C2.89122 5.16568 2.35225 4.72356 1.74982 4.89554ZM4.64144 18.2649C4.7215 17.9451 4.35813 17.3517 3.76633 17.3517C2.88124 17.3517 2.55185 18.5318 3.3273 18.9849C2.5541 19.4366 2.8781 20.618 3.76633 20.618C4.18779 20.618 4.53897 20.3224 4.62386 19.9302C5.17127 20.131 5.78285 19.7135 5.78285 19.1049C5.78285 18.535 5.24388 18.0928 4.64144 18.2649ZM21.2687 19.4417C21.3488 19.1219 20.9854 18.5286 20.3936 18.5286C19.5084 18.5286 19.1792 19.7086 19.9546 20.1617C19.1814 20.6134 19.5054 21.7948 20.3936 21.7948C20.815 21.7948 21.1663 21.4992 21.2511 21.107C21.7985 21.3078 22.4101 20.8904 22.4101 20.2817C22.4101 19.7118 21.8711 19.2697 21.2687 19.4417ZM12.3078 20.7543C12.3724 20.4963 12.0792 20.0176 11.6018 20.0176C10.8877 20.0176 10.622 20.9697 11.2476 21.3352C10.6238 21.6996 10.8852 22.6527 11.6018 22.6527C11.9418 22.6527 12.2252 22.4142 12.2936 22.0978C12.7353 22.2598 13.2287 21.923 13.2287 21.432C13.2287 20.9723 12.7939 20.6155 12.3078 20.7543ZM7.89789 2.66485C7.27408 3.02931 7.5355 3.98241 8.25208 3.98241C8.59211 3.98241 8.87547 3.74391 8.94396 3.42751C9.38557 3.58951 9.87902 3.25271 9.87902 2.76165C9.87902 2.3019 9.44416 1.94518 8.95811 2.08398C9.02271 1.82598 8.72955 1.34729 8.25208 1.34729C7.53799 1.34724 7.27235 2.29927 7.89789 2.66485Z" fill="white"/>
</g>
<defs>
<clipPath id="clip0_293:7248">
<rect width="24" height="24" fill="white"/>
</clipPath>
</defs>
</svg>
