<svg width="24" height="24" viewBox="0 0 24 24" fill="none" xmlns="http://www.w3.org/2000/svg">
<path d="M4.45411 6.04874C4.354 5.65354 3.95235 5.41444 3.55715 5.51444C3.16179 5.61466 2.92264 6.01626 3.0228 6.41156L6.54859 20.4429C6.63333 20.7774 6.93387 21.0001 7.26373 21.0001C7.32384 21.0001 7.38485 20.9926 7.44576 20.9772C7.84091 20.8771 8.08016 20.4754 7.98 20.0802L4.45411 6.04874Z" fill="white"/>
<path d="M20.5093 11.409C19.7232 8.50648 18.9364 5.60413 18.1501 2.70157C18.0649 2.38739 17.9155 2.05037 17.3539 2.01667C12.9332 1.69651 10.0305 6.0989 5.60975 5.77869C5.2609 5.7357 5.03669 5.91736 5.12186 6.23154C5.90815 9.13405 6.68837 12.0383 7.48095 14.9391C7.60815 15.4046 7.92831 15.5809 8.27727 15.624C12.6979 15.9442 15.6007 11.5418 20.0215 11.862C20.3703 11.9049 20.5944 11.7233 20.5093 11.409ZM17.0402 3.1124C17.257 3.9132 17.4742 4.71395 17.691 5.51474C16.7611 5.54536 15.9404 5.73298 15.0707 6.0589C14.8539 5.2581 14.6367 4.45731 14.4199 3.65656C15.2895 3.33075 16.1102 3.14296 17.0402 3.1124ZM7.93061 12.0905C7.68383 11.1807 7.43749 10.2707 7.19098 9.36082C8.16847 9.3325 9.03583 9.12066 9.94309 8.76205C9.72602 7.96125 9.50906 7.16045 9.29221 6.35965C10.1791 5.96322 11.0156 5.48861 11.8534 4.99843C12.0702 5.79917 12.2874 6.59997 12.5043 7.40077C11.6665 7.8909 10.8299 8.36568 9.94309 8.76205C10.1896 9.67192 10.4361 10.5819 10.6826 11.4918C9.7753 11.8503 8.90805 12.0622 7.93061 12.0905ZM11.3431 13.9293C11.1229 13.1168 10.9028 12.3042 10.6826 11.4916C11.5633 11.0982 12.3939 10.6276 13.2257 10.1409C13.4459 10.9535 13.666 11.766 13.8861 12.5786C13.0544 13.0654 12.2237 13.5359 11.3431 13.9293ZM13.2437 10.1304C12.9973 9.2205 12.7508 8.31058 12.5043 7.40066C13.342 6.9116 14.1791 6.4436 15.0707 6.05896C15.3173 6.96882 15.5638 7.87874 15.8102 8.78861C14.9189 9.17336 14.0814 9.6413 13.2437 10.1304ZM16.4861 11.2201C16.2659 10.4076 16.0458 9.59501 15.8255 8.78242C16.6901 8.46002 17.5067 8.27464 18.4305 8.2445C18.6507 9.05709 18.8709 9.86962 19.0911 10.6821C18.1672 10.7123 17.3506 10.8976 16.4861 11.2201Z" fill="white"/>
</svg>
