<svg width="24" height="24" viewBox="0 0 24 24" fill="none" xmlns="http://www.w3.org/2000/svg">
<path d="M17.58 22.928H16.6891L15.8855 21.4516C15.6528 21.5389 15.42 21.6153 15.1837 21.6844L15.86 22.928H15.3691C15.1691 22.928 15.0055 23.0916 15.0055 23.2916C15.0055 23.4916 15.1691 23.6553 15.3691 23.6553H17.58C17.78 23.6553 17.9437 23.4916 17.9437 23.2916C17.9437 23.0916 17.78 22.928 17.58 22.928ZM8.63094 22.928H8.15457C8.28693 22.6949 8.76839 21.8545 8.86003 21.6989C8.62003 21.6298 8.3873 21.5535 8.15457 21.4662C7.62912 22.3855 7.46875 22.6615 7.31821 22.928H6.42366C6.22366 22.928 6.06003 23.0916 6.06003 23.2916C6.06003 23.4916 6.22366 23.6553 6.42366 23.6553H8.63094C8.83457 23.6553 8.99457 23.4916 8.99457 23.2916C8.99457 23.0916 8.83457 22.928 8.63094 22.928ZM11.6371 3.368V0.344727C10.4688 0.384363 9.34803 0.613818 8.30512 1.00545L9.46257 3.79927C10.1477 3.55273 10.8771 3.40436 11.6371 3.368ZM8.7913 4.07818L7.63457 1.28582C6.59239 1.76218 5.64112 2.40291 4.81384 3.176L6.94984 5.312C7.49675 4.81491 8.11566 4.39818 8.7913 4.07818ZM6.4353 5.82618L4.2993 3.69018C3.52693 4.51782 2.88657 5.46909 2.41021 6.51127L5.20148 7.66727C5.52184 6.992 5.93821 6.37309 6.4353 5.82618ZM15.696 1.00654C14.6535 0.614545 13.5331 0.38509 12.3648 0.344727V3.368C13.1248 3.40473 13.8542 3.55309 14.5389 3.79964L15.696 1.00654ZM17.0513 5.31236L19.1869 3.17673C18.3597 2.404 17.4088 1.76364 16.3669 1.28691L15.2106 4.07854C15.8855 4.39891 16.5044 4.81527 17.0513 5.31236ZM4.92257 8.33891L2.12984 7.18218C1.73857 8.22509 1.50912 9.34545 1.46912 10.5138H4.49093C4.52766 9.75345 4.67603 9.024 4.92257 8.33891Z" fill="white"/>
<path d="M11.9993 12.1498C12.7946 12.1498 13.4393 11.5051 13.4393 10.7098C13.4393 9.91455 12.7946 9.26984 11.9993 9.26984C11.204 9.26984 10.5593 9.91455 10.5593 10.7098C10.5593 11.5051 11.204 12.1498 11.9993 12.1498Z" fill="white"/>
<path d="M18.7989 7.66801L21.5898 6.51201C21.1138 5.47019 20.4735 4.51856 19.7011 3.69128L17.5655 5.82692C18.0626 6.37383 18.4789 6.99274 18.7989 7.66801ZM18.8004 10.8771C18.8004 7.12728 15.7498 4.0771 12.0004 4.0771C8.25093 4.0771 5.20039 7.12765 5.20039 10.8771C5.20039 14.6266 8.25093 17.6771 12.0004 17.6771C15.7498 17.6771 18.8004 14.6266 18.8004 10.8771ZM15.0462 11.0735H14.1331C13.9793 11.9771 13.2662 12.6906 12.3626 12.844V13.7571C12.3626 13.9578 12.2 14.1207 11.9989 14.1207C11.7978 14.1207 11.6353 13.9578 11.6353 13.7571V12.844C10.7317 12.6902 10.0182 11.9771 9.86475 11.0735H8.95166C8.75057 11.0735 8.58802 10.9106 8.58802 10.7098C8.58802 10.5091 8.75057 10.3462 8.95166 10.3462H9.86475C10.0186 9.44256 10.7317 8.7291 11.6353 8.57565V7.66256C11.6353 7.46183 11.7978 7.29892 11.9989 7.29892C12.2 7.29892 12.3626 7.46183 12.3626 7.66256V8.57565C13.2662 8.72947 13.9797 9.44256 14.1331 10.3462H15.0462C15.2473 10.3462 15.4098 10.5091 15.4098 10.7098C15.4098 10.9106 15.2473 11.0735 15.0462 11.0735ZM22.1317 11.2873H19.5051C19.4648 12.0302 19.3193 12.744 19.0778 13.4149L21.8702 14.5716C22.2618 13.5291 22.4909 12.4087 22.5309 11.2411H22.2997C22.2488 11.268 22.1931 11.2873 22.1317 11.2873ZM4.4953 11.2873H1.82184C1.76003 11.2873 1.70475 11.268 1.65384 11.2411H1.46912C1.50912 12.4091 1.73821 13.5298 2.12984 14.5724L4.92257 13.4156C4.68148 12.7447 4.53566 12.0306 4.4953 11.2873ZM15.2106 17.6753L16.3669 20.4673C17.4088 19.9909 18.3597 19.3502 19.1869 18.5775L17.0509 16.4418C16.504 16.9389 15.8855 17.3553 15.2106 17.6753ZM14.5389 17.9542C13.8538 18.2007 13.1244 18.3491 12.3644 18.3858V21.4098C13.5328 21.3698 14.6535 21.14 15.696 20.748L14.5389 17.9542ZM19.5091 10.5138H22.5309C22.4909 9.34583 22.2618 8.22547 21.8702 7.18292L19.0778 8.33965C19.3244 9.02437 19.4728 9.75383 19.5091 10.5138ZM17.5651 15.9276L19.7008 18.0633C20.4731 17.236 21.1131 16.2844 21.5895 15.2426L18.7986 14.0866C18.4786 14.7618 18.0622 15.3807 17.5651 15.9276ZM8.30512 20.7491C9.34802 21.1407 10.4688 21.3702 11.6371 21.4098V18.3858C10.8771 18.3495 10.1477 18.2011 9.46257 17.9546L8.30512 20.7491ZM8.79093 17.6756C8.11566 17.3556 7.49675 16.9393 6.94984 16.4422L4.81348 18.5786C5.64075 19.3513 6.59202 19.992 7.63421 20.4684L8.79093 17.6756ZM5.20184 14.0873L2.41057 15.2433C2.88693 16.2855 3.52693 17.2367 4.29966 18.0644L6.43566 15.9284C5.93857 15.3811 5.52221 14.7626 5.20184 14.0873Z" fill="white"/>
</svg>
