<svg width="32" height="32" viewBox="0 0 32 32" fill="none" xmlns="http://www.w3.org/2000/svg">
<g clip-path="url(#clip0_293:7235)">
<path d="M0.175112 18.5644C0.368303 18.5644 0.551134 18.8124 0.583475 19.1184C0.61576 19.4244 0.96774 19.6723 1.37004 19.6723H2.09861H2.49655C3.08116 20.6817 4.17042 21.3626 5.42064 21.3626C6.67137 21.3626 7.76062 20.6817 8.34524 19.6723H20.1242C20.7088 20.6817 21.798 21.3626 23.0488 21.3626C24.2799 21.3626 25.3538 20.7025 25.9455 19.7194C26.431 19.8255 26.83 20.102 27.0687 20.3161C27.2154 20.4474 27.4305 20.547 27.7448 20.547C28.2467 20.547 29.203 20.547 29.9808 20.547C30.6448 20.547 31.1188 20.3253 31.0383 20.0517C30.9579 19.778 31.306 19.4195 31.6524 19.0461C31.8456 18.8381 32 18.5634 32 18.2152C32 17.4516 23.2026 14.2243 20.0186 13.0819C19.3928 12.8575 18.4465 12.9911 17.8695 13.3206C16.8908 13.8805 15.321 14.6283 13.6843 14.8117C13.7089 14.6912 13.733 14.5643 13.7533 14.4318C13.7538 14.4284 13.7522 14.4258 13.7527 14.4224C14.0149 12.9988 13.1719 12.0058 13.0023 11.823C12.9798 11.7677 12.9355 11.7141 12.861 11.6676C12.6273 11.5198 12.2885 11.39 11.8194 11.39C10.9846 11.39 10.4011 12.0309 10.2801 12.6977C10.221 13.0245 10.3699 13.556 10.4865 13.8669C10.5478 14.03 10.6178 14.18 10.7005 14.3141C10.0426 13.9112 9.82963 13.2401 9.79134 12.6467C9.74863 11.9839 9.40375 11.6423 8.78199 11.875L6.66364 12.6654C6.04125 12.898 5.44571 12.9035 5.33294 12.6785C5.22018 12.453 5.3899 12.2702 5.71171 12.2702C6.03358 12.2702 6.32094 12.0874 6.35271 11.8618C6.38499 11.6368 5.87977 11.367 5.22401 11.2597L1.53581 10.6571C0.880618 10.5497 0.597042 10.8935 0.903056 11.4245C1.20901 11.9554 1.70444 12.3993 2.0104 12.4152C2.31641 12.4311 2.85117 12.7185 3.20532 13.0562C3.5589 13.3944 3.28306 13.7568 2.77567 14.1859C2.49209 14.4256 2.21733 14.7733 2.04492 15.2752C1.82923 15.9031 1.52545 16.4592 1.10672 16.4592C0.687999 16.4592 0.231438 16.93 0.0863875 17.5113C-0.0570032 18.0931 -0.018136 18.5644 0.175112 18.5644ZM12.7051 12.216C12.7713 12.1957 12.8261 12.1668 12.8731 12.1339C13.0833 12.3944 13.5048 13.0305 13.4988 13.8986C13.4155 13.8422 13.3225 13.7984 13.2163 13.7853C12.5371 13.7037 11.8392 13.5095 11.7805 13.06C11.7242 12.6281 12.1993 12.3687 12.7051 12.216Z" fill="#E8E13F"/>
</g>
<defs>
<clipPath id="clip0_293:7235">
<rect width="32" height="32" fill="white"/>
</clipPath>
</defs>
</svg>
