<svg width="208" height="81" viewBox="0 0 208 81" fill="none" xmlns="http://www.w3.org/2000/svg">
<path d="M115.437 20.4541H93.1152V60.5458H115.437V20.4541Z" fill="#FF5F00"/>
<path d="M94.534 40.5C94.534 32.3542 98.3606 25.1292 104.242 20.4542C99.9196 17.0542 94.4632 15 88.5107 15C74.4089 15 63 26.4042 63 40.5C63 54.5958 74.4089 66 88.5107 66C94.4632 66 99.9196 63.9458 104.242 60.5458C98.3606 55.9417 94.534 48.6458 94.534 40.5Z" fill="#EB001B"/>
<path d="M145.555 40.5C145.555 54.5958 134.146 66 120.044 66C114.092 66 108.635 63.9458 104.312 60.5458C110.265 55.8708 114.021 48.6458 114.021 40.5C114.021 32.3542 110.194 25.1292 104.312 20.4542C108.635 17.0542 114.092 15 120.044 15C134.146 15 145.555 26.475 145.555 40.5Z" fill="#F79E1B"/>
</svg>
