<svg width="208" height="81" viewBox="0 0 208 81" fill="none" xmlns="http://www.w3.org/2000/svg">
<path d="M181.827 32.6367L177.956 42.162C177.845 42.2728 177.845 42.4943 177.845 42.6051L177.734 42.8266L177.623 42.6051C177.623 42.4943 177.513 42.2728 177.513 42.162L173.641 32.6367H168.664L175.19 48.9183L172.425 55.1209H177.402L186.583 32.6367H181.827Z" fill="white"/>
<path d="M145.102 33.5223C144.217 32.8578 143.111 32.4148 141.784 32.304C139.571 32.0825 137.469 32.8578 136.031 34.2977V32.5255H131.496V48.8072H136.031V40.2787C136.031 38.3958 136.364 37.8419 136.695 37.3989C137.248 36.5128 138.244 36.0698 139.46 36.0698C140.677 36.0698 141.784 36.6236 142.336 37.5097C142.668 38.1742 142.779 39.0603 142.779 39.5033C142.779 40.9432 142.779 48.8072 142.779 48.8072H147.314V38.9495C147.314 36.4021 146.65 34.6299 145.102 33.5223Z" fill="white"/>
<path d="M122.981 32.7471C120.768 31.9718 118.335 32.0825 116.123 33.0794C114.685 33.7439 113.357 34.8515 112.583 36.2914C111.809 37.5098 111.477 39.0604 111.477 40.7218C111.477 42.3831 111.809 43.9338 112.583 45.1521C113.357 46.3705 114.353 47.4781 115.68 48.1426C117.008 48.8072 118.556 49.2503 119.994 49.2503C120.768 49.2503 121.543 49.1395 122.317 48.918C122.981 48.6964 123.644 48.4749 124.308 48.1426C125.635 47.3673 126.741 46.3705 127.405 45.1521C128.179 43.9338 128.511 42.3831 128.511 40.7218C128.511 37.0667 126.409 33.9654 122.981 32.7471ZM124.197 40.9433C124.086 42.3831 123.644 43.6015 122.759 44.3768C122.096 44.9306 121.1 45.2629 119.883 45.3736C118.666 45.3736 117.782 45.0414 117.008 44.3768C116.123 43.6015 115.68 42.3831 115.569 40.9433C115.459 39.2819 116.123 37.9528 117.339 37.0667C118.003 36.6236 118.888 36.2914 119.773 36.2914C120.768 36.2914 121.543 36.6236 122.317 37.0667C123.644 37.842 124.308 39.2819 124.197 40.9433Z" fill="white"/>
<path d="M106.167 33.5221C105.282 32.8575 104.176 32.4145 102.849 32.3037C102.628 32.3037 102.296 32.3037 102.074 32.3037C100.305 32.3037 98.7561 33.079 97.429 34.6297L97.2076 34.9619H96.7649C96.4331 34.4082 95.9909 33.9651 95.5482 33.6328C94.6632 32.9683 93.5575 32.5253 92.2298 32.4145C90.1282 32.193 88.4693 32.8575 87.0312 34.4082V32.7468H82.4961V49.0284H87.0312V40.4999V40.2784C87.0312 38.5063 87.2525 38.0632 87.5843 37.5094C88.1375 36.6233 89.1328 36.0695 90.2391 36.1803C91.3449 36.1803 92.3408 36.7341 92.8939 37.6202C93.3361 38.2847 93.3361 39.06 93.3361 39.8354V48.9177H97.8712V40.1677C97.8712 38.5063 98.0926 37.9524 98.4243 37.3987C98.9775 36.5126 99.9728 36.0695 101.079 36.0695C102.185 36.0695 103.07 36.6233 103.623 37.5094C103.955 38.0632 104.066 38.7278 104.066 39.1708C104.066 39.3923 104.066 39.6138 104.066 39.7246V48.8069H108.601V38.8385C108.601 37.9524 108.49 37.0664 108.269 36.291C107.826 35.1835 107.163 34.1867 106.167 33.5221Z" fill="white"/>
<path d="M164.349 43.9334C163.685 44.598 162.137 45.8163 160.035 45.9271C158.265 46.0378 156.938 45.484 155.942 44.4872C155.5 44.0442 155.168 43.3796 154.947 42.715H167.446V42.6043C167.557 41.9398 167.667 41.3859 167.667 40.7214C167.667 40.1676 167.557 39.3923 167.335 38.3954C166.782 36.5125 165.676 35.0727 164.238 33.965C162.579 32.7467 161.03 32.4144 160.588 32.4144C157.38 31.8607 153.73 33.3005 151.85 36.291C150.522 38.3954 150.633 40.4999 150.633 41.1644C150.633 41.9398 150.744 44.3764 152.735 46.5917C155.058 49.1391 158.265 49.2499 159.261 49.3607C163.685 49.4714 166.672 46.7024 167.335 46.1486L164.349 43.9334ZM156.606 37.0663C157.27 36.6233 158.044 36.291 159.04 36.291C160.035 36.291 160.81 36.6233 161.584 37.0663C162.247 37.6201 162.8 38.2847 163.132 39.06H155.168C155.39 38.2847 155.832 37.5094 156.606 37.0663Z" fill="white"/>
<path d="M51.7463 23C42.0124 23 34.2695 30.8639 34.2695 40.5C34.2695 50.2468 42.123 58 51.7463 58C61.3696 58 69.223 50.1361 69.223 40.5C69.223 30.8639 61.3696 23 51.7463 23ZM51.7463 46.9241C48.2067 46.9241 45.2202 43.9336 45.2202 40.3892C45.2202 36.8449 48.2067 33.8544 51.7463 33.8544C55.2859 33.8544 58.2724 36.8449 58.2724 40.3892C58.1618 44.0443 55.2859 46.9241 51.7463 46.9241Z" fill="#8B3FFD"/>
<path d="M34.1584 27.9844V53.4591H27.9641L20 27.9844H34.1584Z" fill="#8B3FFD"/>
</svg>
