<svg width="16" height="16" viewBox="0 0 16 16" fill="none" xmlns="http://www.w3.org/2000/svg">
<path d="M8.05315 5.29309C7.51771 5.29309 6.99431 5.45186 6.54911 5.74934C6.10391 6.04681 5.75692 6.46961 5.55202 6.96429C5.34712 7.45897 5.29351 8.00329 5.39797 8.52844C5.50242 9.05358 5.76026 9.53596 6.13887 9.91457C6.51748 10.2932 6.99985 10.551 7.525 10.6555C8.05014 10.7599 8.59447 10.7063 9.08915 10.5014C9.58383 10.2965 10.0066 9.94953 10.3041 9.50433C10.6016 9.05913 10.7603 8.53572 10.7603 8.00029C10.7597 7.28248 10.4743 6.59425 9.96675 6.08669C9.45919 5.57912 8.77096 5.2937 8.05315 5.29309Z" fill="white"/>
<path d="M11.83 1.28003H4.27623C3.49592 1.28083 2.74779 1.59116 2.19602 2.14292C1.64426 2.69469 1.33393 3.44282 1.33313 4.22313V11.7769C1.33393 12.5572 1.64426 13.3054 2.19602 13.8571C2.74779 14.4089 3.49592 14.7192 4.27623 14.72H11.83C12.6103 14.7192 13.3585 14.4089 13.9102 13.8571C14.462 13.3054 14.7723 12.5572 14.7731 11.7769V4.22313C14.7723 3.44282 14.462 2.69469 13.9102 2.14292C13.3585 1.59116 12.6103 1.28083 11.83 1.28003ZM11.84 4.80003C11.7134 4.80003 11.5897 4.76249 11.4844 4.69217C11.3792 4.62185 11.2972 4.52189 11.2487 4.40495C11.2003 4.288 11.1876 4.15932 11.2123 4.03517C11.237 3.91102 11.298 3.79699 11.3875 3.70748C11.477 3.61798 11.591 3.55702 11.7152 3.53233C11.8393 3.50763 11.968 3.52031 12.0849 3.56875C12.2019 3.61719 12.3018 3.69922 12.3722 3.80446C12.4425 3.90971 12.48 4.03345 12.48 4.16003C12.48 4.32977 12.4126 4.49255 12.2926 4.61258C12.1725 4.7326 12.0097 4.80003 11.84 4.80003ZM8.05313 11.3472C7.39112 11.3472 6.74397 11.1509 6.19352 10.7831C5.64308 10.4153 5.21406 9.89257 4.96072 9.28095C4.70738 8.66933 4.64109 7.99632 4.77025 7.34702C4.8994 6.69773 5.21819 6.10132 5.6863 5.6332C6.15442 5.16509 6.75083 4.8463 7.40012 4.71714C8.04942 4.58799 8.72243 4.65428 9.33405 4.90762C9.94567 5.16096 10.4684 5.58998 10.8362 6.14043C11.204 6.69087 11.4003 7.33802 11.4003 8.00003C11.3995 8.88751 11.0466 9.7384 10.419 10.3659C9.7915 10.9935 8.94061 11.3464 8.05313 11.3472Z" fill="white"/>
</svg>
