<svg width="16" height="16" viewBox="0 0 16 16" fill="none" xmlns="http://www.w3.org/2000/svg">
<path d="M15.6373 3.85596C15.4573 4.42196 15.2147 4.91463 14.9107 5.36196L14.9233 5.34196C14.6247 5.83974 14.268 6.41485 13.8533 7.06729C13.4978 7.58241 13.3096 7.84907 13.2887 7.86729C13.1967 7.98263 13.1327 8.12396 13.1107 8.27929L13.11 8.28396C13.128 8.42529 13.1933 8.54863 13.2887 8.64063L13.5553 8.93796C14.982 10.4042 15.7845 11.4148 15.9627 11.97C15.986 12.0313 15.9993 12.102 15.9993 12.176C15.9993 12.3053 15.958 12.4246 15.888 12.5226L15.8893 12.5206C15.772 12.6413 15.608 12.716 15.4267 12.716C15.4067 12.716 15.386 12.7153 15.3667 12.7133H15.3693H13.6153C13.6147 12.7133 13.6133 12.7133 13.612 12.7133C13.3873 12.7133 13.1807 12.6346 13.0187 12.504L13.0207 12.5053C12.7847 12.3113 12.5747 12.1013 12.3867 11.8733L12.3807 11.8653C12.0736 11.5182 11.8011 11.226 11.5633 10.9886C10.7713 10.2357 10.1869 9.85929 9.81001 9.85929C9.79601 9.85796 9.78001 9.85729 9.76335 9.85729C9.65335 9.85729 9.55068 9.89129 9.46601 9.94929L9.46801 9.94796C9.39868 10.0346 9.35668 10.1466 9.35668 10.2673C9.35668 10.2913 9.35801 10.314 9.36135 10.3373V10.3346C9.34335 10.544 9.33268 10.7873 9.33268 11.0333C9.33268 11.1126 9.33401 11.1913 9.33601 11.27V11.2586V12.0313C9.34268 12.0626 9.34668 12.0986 9.34668 12.1353C9.34668 12.2966 9.27335 12.4406 9.15868 12.536L9.15801 12.5366C8.90001 12.6546 8.59868 12.724 8.28068 12.724C8.21268 12.724 8.14601 12.7206 8.08001 12.7146L8.08868 12.7153C7.03935 12.6953 6.06601 12.388 5.23868 11.87L5.26201 11.8833C4.25468 11.2713 3.42001 10.4746 2.78401 9.53329L2.76601 9.50529C2.16201 8.70396 1.59868 7.79863 1.11868 6.84396L1.07201 6.74129C0.791348 6.20663 0.500681 5.54929 0.250014 4.87329L0.210014 4.74996C0.108014 4.44596 0.0340142 4.09263 0.00334749 3.72663L0.00201416 3.70996C0.00201416 3.37307 0.200236 3.20463 0.596681 3.20463H2.35001C2.36601 3.20329 2.38468 3.20263 2.40401 3.20263C2.56935 3.20263 2.72201 3.25929 2.84268 3.35463L2.84135 3.35329C2.97468 3.49929 3.07335 3.67863 3.12201 3.87863L3.12401 3.88663C3.44668 4.79796 3.78868 5.56329 4.18201 6.29663L4.13735 6.20529C4.45868 6.85196 4.81401 7.40863 5.21935 7.92263L5.20401 7.90196C5.55957 8.33841 5.8369 8.55663 6.03601 8.55663C6.04201 8.55729 6.04935 8.55729 6.05735 8.55729C6.15601 8.55729 6.24201 8.50396 6.28868 8.42396L6.28935 8.42263C6.33868 8.29596 6.36735 8.14863 6.36735 7.99529C6.36735 7.96263 6.36601 7.92996 6.36335 7.89796V7.90196V5.31596C6.34935 5.01129 6.27468 4.72663 6.15001 4.47129L6.15535 4.48396C6.07268 4.30796 5.97335 4.15596 5.85535 4.02063L5.85735 4.02329C5.74801 3.91396 5.67335 3.77063 5.65001 3.61063L5.64935 3.60663C5.64935 3.49329 5.70135 3.39129 5.78268 3.32463L5.78335 3.32396C5.86401 3.24996 5.97201 3.20529 6.09001 3.20529H6.09535H8.85935C8.87401 3.20329 8.89068 3.20263 8.90801 3.20263C9.03801 3.20263 9.15468 3.26129 9.23201 3.35329L9.23268 3.35396C9.30135 3.47929 9.34201 3.62929 9.34201 3.78796C9.34201 3.81329 9.34068 3.83796 9.33868 3.86263V3.85929V7.30796C9.33735 7.32396 9.33668 7.34263 9.33668 7.36129C9.33668 7.48396 9.37068 7.59929 9.42935 7.69729L9.42801 7.69463C9.47668 7.76663 9.55801 7.81329 9.65001 7.81329H9.65068C9.76801 7.80529 9.87468 7.76663 9.96468 7.70529L9.96268 7.70663C10.144 7.58196 10.3 7.43996 10.4353 7.27929L10.438 7.27596C10.8427 6.81863 11.216 6.31329 11.5413 5.77596L11.5673 5.72929C11.7967 5.34929 12.0447 4.88129 12.2693 4.40063L12.3107 4.30263L12.608 3.70796C12.7113 3.41063 12.9887 3.20129 13.3147 3.20129C13.3273 3.20129 13.34 3.20129 13.3527 3.20196H13.3507H15.1047C15.5785 3.20196 15.7562 3.41996 15.638 3.85596H15.6373Z" fill="white"/>
</svg>
