<svg width="36" height="36" viewBox="0 0 36 36" fill="none" xmlns="http://www.w3.org/2000/svg">
<circle cx="18" cy="18" r="18" fill="#7DFFC1" fill-opacity="0.21"/>
<path fill-rule="evenodd" clip-rule="evenodd" d="M9 18C9 25.4115 10.5885 27 18 27C25.4115 27 27 25.4115 27 18C27 10.5885 25.4115 9 18 9C10.5885 9 9 10.5885 9 18ZM21.5303 15.2197C21.8232 15.5126 21.8232 15.9874 21.5303 16.2803L17.7803 20.0303C17.4874 20.3232 17.0126 20.3232 16.7197 20.0303L14.8447 18.1553C14.5518 17.8624 14.5518 17.3876 14.8447 17.0947C15.1376 16.8018 15.6124 16.8018 15.9053 17.0947L17.25 18.4393L20.4697 15.2197C20.7626 14.9268 21.2374 14.9268 21.5303 15.2197Z" fill="#7DFFC1"/>
</svg>
