<svg width="36" height="36" viewBox="0 0 36 36" fill="none" xmlns="http://www.w3.org/2000/svg">
<circle cx="18" cy="18" r="18" fill="#F26060" fill-opacity="0.17"/>
<path fill-rule="evenodd" clip-rule="evenodd" d="M9 18C9 25.4115 10.5885 27 18 27C25.4115 27 27 25.4115 27 18C27 10.5885 25.4115 9 18 9C10.5885 9 9 10.5885 9 18ZM18 14.25C18.4142 14.25 18.75 14.5858 18.75 15V19.5C18.75 19.9142 18.4142 20.25 18 20.25C17.5858 20.25 17.25 19.9142 17.25 19.5V15C17.25 14.5858 17.5858 14.25 18 14.25ZM18 21C17.5858 21 17.25 21.3358 17.25 21.75C17.25 22.1642 17.5858 22.5 18 22.5C18.4142 22.5 18.75 22.1642 18.75 21.75C18.75 21.3358 18.4142 21 18 21Z" fill="#F26060"/>
</svg>
