<svg width="24" height="24" viewBox="0 0 24 24" fill="none" xmlns="http://www.w3.org/2000/svg">
<path d="M22.3365 10.4309C22.312 10.3523 22.2591 10.2855 22.1883 10.2437L21.6512 9.92519L21.9412 8.68593C22.1502 7.79319 21.5939 6.89671 20.7011 6.68772L20.367 6.6096L20.3496 5.21946C20.3476 5.06614 20.2415 4.93398 20.0922 4.89898L19.5457 4.77105C19.4319 4.74436 19.3133 4.77903 19.2317 4.8622L18.0493 6.06712L6.54284 3.37408C6.56162 2.75685 6.14702 2.1805 5.50874 2.03115L5.18013 1.95432C4.84323 1.87487 4.50564 2.08449 4.42688 2.42177L4.32539 2.85504L4.01639 2.78277C3.54736 2.67309 3.04534 2.87076 2.79235 3.33095L2.31897 3.20953C2.02138 3.13951 1.72248 3.32409 1.65262 3.62311L1.42639 4.58958C1.35682 4.88622 1.53964 5.18333 1.83589 5.2551L2.27657 5.36822C2.24593 5.58193 2.28633 5.79758 2.40165 5.98346C2.51485 6.16575 2.68587 6.29612 2.88619 6.3648L2.69104 7.19863C2.55057 7.79938 2.92492 8.4024 3.52551 8.54287L7.97135 9.58356C8.06726 10.0525 8.22367 11.2911 7.59017 12.587C7.33463 12.9703 7.51639 13.8945 8.3035 14.067L13.6035 15.2704C13.8102 15.3104 14.0268 15.2937 14.2235 15.2203C14.2849 15.1973 14.3597 15.1745 14.4391 15.1547C14.3356 15.3729 14.3033 15.5849 14.351 15.7873C14.4497 16.2073 14.8335 16.3834 14.852 16.39C15.0281 16.4838 14.9357 16.8124 14.906 16.9032C14.6569 17.2916 14.5901 17.636 14.708 17.9279C14.8128 18.1877 15.0293 18.3157 15.1713 18.374C15.2205 18.4518 15.2504 18.548 15.2607 18.6609C15.268 18.742 15.2355 18.8205 15.1735 18.8712C15.1092 18.9239 15.0525 18.9769 15.0024 19.0298C14.4252 19.6405 14.7565 20.6428 15.5639 20.8318L20.7763 22.0517C21.0221 22.1092 21.5279 21.9354 21.8048 21.5557C22.2986 20.8793 22.1626 19.6754 21.9615 18.7844C21.879 18.4193 21.7439 18.0473 21.5597 17.6788C20.7168 15.9908 20.5268 13.0517 20.5252 13.0248C20.5148 12.8296 20.483 12.2357 21.2423 12.039C21.3457 12.0123 21.4555 12.0191 21.5594 12.0585C21.8336 12.1627 22.1359 12.1024 22.3492 11.9014C22.5625 11.7006 22.6404 11.4021 22.553 11.1226L22.3365 10.4309ZM8.83182 5.28147L8.98417 4.63043L12.3564 5.41949V6.39736L9.04292 5.6218C8.89162 5.58665 8.79593 5.43487 8.83182 5.28147ZM14.4698 13.4187C14.3255 13.5149 14.1445 13.5554 13.9635 13.5137L9.81351 12.5437C9.56351 12.4836 9.41015 12.2336 9.46683 11.9836L9.92342 10.0404L12.8579 10.7271C12.7109 11.1438 12.3473 11.6146 11.4735 11.8004C11.2935 11.8404 11.1801 12.017 11.2168 12.197C11.2505 12.3552 11.3981 12.4852 11.6135 12.4537C12.7668 12.206 13.2986 11.5251 13.5063 10.879L13.722 10.9294C14.256 11.0546 14.6212 11.5606 14.5717 12.1067C14.4878 13.1113 14.475 13.0222 14.4698 13.4187ZM21.892 11.4162C21.8728 11.4345 21.8406 11.4522 21.7962 11.4354C21.562 11.3464 21.3129 11.3323 21.075 11.3938C20.2573 11.6057 19.8142 12.2131 19.8597 13.063C19.8673 13.1889 20.0592 16.1666 20.9633 17.9767C21.1235 18.2973 21.2405 18.6185 21.3112 18.9312C21.5489 19.9846 21.5325 20.798 21.2664 21.1627C21.1722 21.2918 21.046 21.3646 20.8722 21.3895L15.7159 20.1828C15.3987 20.1085 15.2697 19.7174 15.4866 19.488C15.5183 19.4544 15.5545 19.4208 15.5955 19.3874C15.8287 19.1967 15.9518 18.9028 15.9248 18.6011C15.8987 18.3148 15.7946 18.0618 15.623 17.8694C15.5792 17.8203 15.5149 17.7835 15.4513 17.7668C15.4298 17.7613 15.3455 17.7296 15.3255 17.6768C15.3019 17.615 15.3312 17.467 15.4842 17.2375C15.4964 17.219 15.5068 17.1993 15.5153 17.1788C15.6534 16.8404 15.7583 16.1171 15.1451 15.7917C15.1438 15.7911 15.0206 15.7305 14.9993 15.6322C14.9778 15.5331 15.0515 15.3747 15.2016 15.1975C15.2612 15.1272 15.2889 15.0354 15.2783 14.9439L15.1556 13.8814C15.0908 13.3234 15.1739 13.0091 15.2358 12.1669C15.3151 11.2917 14.7296 10.4807 13.874 10.2803L3.67753 7.89378C3.43469 7.83714 3.28332 7.59332 3.34012 7.35048L3.53324 6.52561L21.1399 10.6465C21.1655 10.6526 21.191 10.6555 21.2163 10.6555C21.298 10.6555 21.3739 10.6233 21.4336 10.5712L21.7384 10.7519L21.9168 11.3218C21.9309 11.3672 21.9111 11.3983 21.892 11.4162Z" fill="#E8E13F"/>
<path d="M17.5716 14.5213C18.1009 14.5213 18.5299 14.0922 18.5299 13.5629C18.5299 13.0337 18.1009 12.6046 17.5716 12.6046C17.0423 12.6046 16.6133 13.0337 16.6133 13.5629C16.6133 14.0922 17.0423 14.5213 17.5716 14.5213Z" fill="#E8E13F"/>
<path d="M17.9334 19.1463C18.4627 19.1463 18.8918 18.7172 18.8918 18.1879C18.8918 17.6587 18.4627 17.2296 17.9334 17.2296C17.4042 17.2296 16.9751 17.6587 16.9751 18.1879C16.9751 18.7172 17.4042 19.1463 17.9334 19.1463Z" fill="#E8E13F"/>
</svg>
