<svg width="24" height="24" viewBox="0 0 24 24" fill="none" xmlns="http://www.w3.org/2000/svg">
<path d="M11.9531 8.81897L11.4061 11.009C12.0251 11.163 13.9351 11.793 14.2441 10.553C14.5661 9.26197 12.5711 8.97397 11.9531 8.81897ZM11.1311 12.115L10.5281 14.53C11.2711 14.715 13.5651 15.451 13.9041 14.089C14.2591 12.667 11.8751 12.3 11.1311 12.115Z" fill="#1B1F2A"/>
<path d="M14.421 2.29905C9.06404 0.964047 3.64104 4.22405 2.30604 9.58105C0.970042 14.936 4.23004 20.361 9.58304 21.697C14.94 23.032 20.366 19.773 21.7 14.416C23.036 9.06005 19.776 3.63505 14.421 2.29905ZM16.412 10.574C16.267 11.548 15.726 12.019 15.01 12.185C15.995 12.697 16.495 13.483 16.019 14.846C15.427 16.537 14.021 16.68 12.149 16.326L11.695 18.146L10.599 17.873L11.046 16.079C10.7536 16.006 10.4619 15.93 10.171 15.851L9.72204 17.655L8.62704 17.38L9.08104 15.557C8.82404 15.491 8.56404 15.421 8.29904 15.355L6.87004 15L7.41604 13.744C7.41604 13.744 8.22404 13.959 8.21304 13.943C8.52404 14.02 8.66104 13.818 8.71504 13.682L9.43404 10.807L9.54904 10.836C9.51194 10.8211 9.47385 10.8087 9.43504 10.799L9.94704 8.74605C9.96004 8.51205 9.88104 8.21805 9.43604 8.10705C9.45404 8.09605 8.63904 7.90905 8.63904 7.90905L8.93004 6.73705L10.444 7.11505L10.443 7.12005C10.67 7.17705 10.904 7.23105 11.143 7.28505L11.592 5.48305L12.689 5.75605L12.249 7.52205C12.543 7.58905 12.84 7.65705 13.128 7.72905L13.566 5.97405L14.663 6.24705L14.214 8.04905C15.598 8.52805 16.61 9.24405 16.412 10.574Z" fill="#1B1F2A"/>
</svg>
