<svg width="16" height="16" viewBox="0 0 16 16" fill="none" xmlns="http://www.w3.org/2000/svg">
<path d="M5.3335 2.66659V10.6666C5.3335 11.0202 5.47397 11.3593 5.72402 11.6094C5.97407 11.8594 6.31321 11.9999 6.66683 11.9999H12.0002C12.3538 11.9999 12.6929 11.8594 12.943 11.6094C13.193 11.3593 13.3335 11.0202 13.3335 10.6666V4.82792C13.3335 4.65029 13.298 4.47446 13.229 4.31075C13.1601 4.14704 13.0592 3.99875 12.9322 3.87459L10.7222 1.71325C10.4731 1.46969 10.1385 1.3333 9.79016 1.33325H6.66683C6.31321 1.33325 5.97407 1.47373 5.72402 1.72378C5.47397 1.97382 5.3335 2.31296 5.3335 2.66659V2.66659Z" stroke="#E8E13F" stroke-width="1.33333" stroke-linecap="round" stroke-linejoin="round"/>
<path d="M10.667 12V13.3333C10.667 13.6869 10.5265 14.0261 10.2765 14.2761C10.0264 14.5262 9.68728 14.6666 9.33366 14.6666H4.00033C3.6467 14.6666 3.30756 14.5262 3.05752 14.2761C2.80747 14.0261 2.66699 13.6869 2.66699 13.3333V5.99996C2.66699 5.64634 2.80747 5.3072 3.05752 5.05715C3.30756 4.8071 3.6467 4.66663 4.00033 4.66663H5.33366" stroke="#E8E13F" stroke-width="1.33333" stroke-linecap="round" stroke-linejoin="round"/>
</svg>
