<svg width="20" height="20" viewBox="0 0 20 20" fill="none" xmlns="http://www.w3.org/2000/svg">
<path d="M17.9167 5C17.9166 5.20411 17.8417 5.40111 17.7061 5.55364C17.5704 5.70617 17.3836 5.80362 17.1808 5.8275L17.0833 5.83333H16.3792L15.3533 16.2667C15.2975 16.8328 15.0331 17.3579 14.6115 17.7399C14.1899 18.1219 13.6414 18.3334 13.0725 18.3333H6.92751C6.35863 18.3334 5.81007 18.1219 5.38851 17.7399C4.96695 17.3579 4.70253 16.8328 4.64668 16.2667L3.62084 5.83333H2.91668C2.69566 5.83333 2.4837 5.74554 2.32742 5.58926C2.17114 5.43298 2.08334 5.22101 2.08334 5C2.08334 4.77899 2.17114 4.56702 2.32742 4.41074C2.4837 4.25446 2.69566 4.16667 2.91668 4.16667H7.08334C7.08334 3.78364 7.15878 3.40437 7.30536 3.05051C7.45194 2.69664 7.66678 2.37511 7.93762 2.10427C8.20845 1.83343 8.52998 1.61859 8.88385 1.47202C9.23772 1.32544 9.61699 1.25 10 1.25C10.383 1.25 10.7623 1.32544 11.1162 1.47202C11.47 1.61859 11.7916 1.83343 12.0624 2.10427C12.3332 2.37511 12.5481 2.69664 12.6947 3.05051C12.8412 3.40437 12.9167 3.78364 12.9167 4.16667H17.0833C17.3044 4.16667 17.5163 4.25446 17.6726 4.41074C17.8289 4.56702 17.9167 4.77899 17.9167 5ZM11.875 7.70833C11.724 7.70834 11.5781 7.76304 11.4642 7.86231C11.3504 7.96158 11.2764 8.09871 11.2558 8.24833L11.25 8.33333V14.1667L11.2558 14.2517C11.2764 14.4013 11.3505 14.5383 11.4643 14.6376C11.5781 14.7368 11.724 14.7915 11.875 14.7915C12.026 14.7915 12.1719 14.7368 12.2857 14.6376C12.3995 14.5383 12.4736 14.4013 12.4942 14.2517L12.5 14.1667V8.33333L12.4942 8.24833C12.4736 8.09871 12.3996 7.96158 12.2858 7.86231C12.172 7.76304 12.026 7.70834 11.875 7.70833ZM8.12501 7.70833C7.97398 7.70834 7.82806 7.76304 7.71423 7.86231C7.60041 7.96158 7.52638 8.09871 7.50584 8.24833L7.50001 8.33333V14.1667L7.50584 14.2517C7.52643 14.4013 7.60047 14.5383 7.71429 14.6376C7.82811 14.7368 7.97401 14.7915 8.12501 14.7915C8.27601 14.7915 8.42191 14.7368 8.53573 14.6376C8.64955 14.5383 8.72359 14.4013 8.74418 14.2517L8.75001 14.1667V8.33333L8.74418 8.24833C8.72364 8.09871 8.64961 7.96158 8.53579 7.86231C8.42196 7.76304 8.27604 7.70834 8.12501 7.70833ZM10 2.91667C9.66849 2.91667 9.35055 3.04836 9.11613 3.28278C8.88171 3.5172 8.75001 3.83515 8.75001 4.16667H11.25C11.25 3.83515 11.1183 3.5172 10.8839 3.28278C10.6495 3.04836 10.3315 2.91667 10 2.91667Z" fill="#494C55"/>
</svg>
