<svg width="24" height="24" viewBox="0 0 24 24" fill="none" xmlns="http://www.w3.org/2000/svg">
<g clip-path="url(#clip0_273:6245)">
<path d="M16.5 18.375C16.692 18.375 16.884 18.3019 17.0303 18.1553C17.3231 17.8624 17.3231 17.3877 17.0303 17.0948L5.78026 5.84478C5.48776 5.5519 5.01226 5.5519 4.71976 5.84478C4.42688 6.13765 4.42688 6.6124 4.71976 6.90528L15.9698 18.1553C16.116 18.3019 16.308 18.375 16.5 18.375Z" fill="#4B68FF" fill-opacity="0.1"/>
<path d="M5.99996 10.4999L7.15712 9.34265L6.032 8.21758L4.87484 9.37478L5.99996 10.4999Z" fill="#4B68FF" fill-opacity="0.1"/>
<path d="M6.0324 8.21801L4.90733 7.0929L3.75013 8.25006L4.8752 9.37517L6.0324 8.21801Z" fill="#E8E13F"/>
<path d="M3.74991 10.4998L4.87498 11.6249L6.0001 10.4998L4.87502 9.37469L3.74991 10.4998Z" fill="#E8E13F"/>
<path d="M2.62491 11.6248L3.74998 12.7499L4.8751 11.6248L3.75002 10.4997L2.62491 11.6248Z" fill="#4B68FF" fill-opacity="0.1"/>
<path d="M4.87509 9.37524L3.75002 8.25012L2.6249 9.3752L3.74998 10.5003L4.87509 9.37524Z" fill="#4B68FF" fill-opacity="0.1"/>
<path d="M7.12496 11.6249L8.28212 10.4677L7.157 9.34258L5.99984 10.4998L7.12496 11.6249Z" fill="#E8E13F"/>
<path d="M3.74991 12.7498L4.87498 13.8749L6.0001 12.7498L4.87502 11.6247L3.74991 12.7498Z" fill="#E8E13F"/>
<path d="M6.00024 10.4999L4.87517 11.625L6.00028 12.7501L7.12536 11.625L6.00024 10.4999Z" fill="#4B68FF" fill-opacity="0.1"/>
<path d="M2.62491 13.8748L3.74998 14.9999L4.8751 13.8748L3.75002 12.7497L2.62491 13.8748Z" fill="#4B68FF" fill-opacity="0.1"/>
<path d="M1.49998 10.4996L0.374901 11.6248L1.50028 12.7501L2.62536 11.625L1.49998 10.4996Z" fill="#4B68FF" fill-opacity="0.1"/>
<path d="M3.75009 10.5002L2.62502 9.37512L1.50017 10.4999L2.62524 11.625L3.75009 10.5002Z" fill="#E8E13F"/>
<path d="M2.62513 11.6244L1.50048 12.7494L2.62549 13.874L3.75014 12.749L2.62513 11.6244Z" fill="#E8E13F"/>
<path d="M7.50001 18.375C7.30801 18.375 7.11601 18.3019 6.96976 18.1553C6.67688 17.8624 6.67688 17.3877 6.96976 17.0948L18.2198 5.84478C18.5123 5.5519 18.9878 5.5519 19.2803 5.84478C19.5731 6.13765 19.5731 6.6124 19.2803 6.90528L8.03026 18.1553C7.88401 18.3019 7.69201 18.375 7.50001 18.375Z" fill="#4B68FF" fill-opacity="0.1"/>
<path d="M19.125 9.37485L17.9678 8.21765L16.8427 9.34273L17.9999 10.4999L19.125 9.37485Z" fill="#4B68FF" fill-opacity="0.1"/>
<path d="M19.1248 9.37511L20.2499 8.25L19.0927 7.09284L17.9676 8.21795L19.1248 9.37511Z" fill="#E8E13F"/>
<path d="M19.1252 9.37489L18.0002 10.5L19.1253 11.6251L20.2504 10.5L19.1252 9.37489Z" fill="#E8E13F"/>
<path d="M20.2502 10.4999L19.1252 11.625L20.2503 12.7501L21.3754 11.625L20.2502 10.4999Z" fill="#4B68FF" fill-opacity="0.1"/>
<path d="M20.2498 10.5001L21.3748 9.375L20.2497 8.24992L19.1246 9.37504L20.2498 10.5001Z" fill="#4B68FF" fill-opacity="0.1"/>
<path d="M18 10.4999L16.8428 9.34265L15.7177 10.4677L16.8749 11.6249L18 10.4999Z" fill="#E8E13F"/>
<path d="M19.1252 11.6249L18.0002 12.75L19.1253 13.8751L20.2504 12.75L19.1252 11.6249Z" fill="#E8E13F"/>
<path d="M16.8749 11.6248L18 12.7499L19.1251 11.6248L18 10.4997L16.8749 11.6248Z" fill="#4B68FF" fill-opacity="0.1"/>
<path d="M20.2502 12.7499L19.1252 13.875L20.2503 15.0001L21.3754 13.875L20.2502 12.7499Z" fill="#4B68FF" fill-opacity="0.1"/>
<path d="M21.3749 11.6253L22.5 12.7504L23.6254 11.625L22.5003 10.4999L21.3749 11.6253Z" fill="#4B68FF" fill-opacity="0.1"/>
<path d="M21.3748 11.6251L22.4998 10.5L21.375 9.37519L20.2499 10.5003L21.3748 11.6251Z" fill="#E8E13F"/>
<path d="M20.2517 12.7497L21.3764 13.8748L22.5014 12.7501L21.3767 11.6251L20.2517 12.7497Z" fill="#E8E13F"/>
<path d="M23.8901 11.3595L19.6151 7.08527C19.9774 6.64352 19.9575 5.99177 19.5454 5.57964C19.1205 5.15477 18.3787 5.15477 17.9542 5.57964L12 11.5343L6.04574 5.57964C5.62087 5.15477 4.87912 5.15477 4.45462 5.57964C4.01587 6.01839 4.01587 6.73164 4.45462 7.17039L5.50199 8.21777L4.87499 8.84477L4.28024 8.25002L4.39012 8.14014C4.53674 7.99352 4.53674 7.75652 4.39012 7.60989C4.24349 7.46327 4.00649 7.46327 3.85987 7.60989L0.10987 11.3595C-0.0367554 11.5061 -0.0367554 11.7431 0.10987 11.8898L1.23449 13.0144C1.23449 13.0144 1.23487 13.0148 1.23487 13.0151C1.23487 13.0155 1.23524 13.0155 1.23524 13.0155L2.35949 14.1398V14.1401L3.48449 15.2651C3.55499 15.3356 3.65062 15.375 3.74999 15.375C3.84937 15.375 3.94499 15.3356 4.01512 15.2651L8.28224 10.998L10.4092 13.125L6.70462 16.8296C6.26587 17.2684 6.26587 17.9816 6.70462 18.4204C6.91687 18.633 7.19924 18.75 7.49999 18.75C7.80074 18.75 8.08312 18.6326 8.29537 18.4204L11.4697 15.246C11.6164 15.0994 11.6164 14.8624 11.4697 14.7158C11.3231 14.5691 11.0861 14.5691 10.9395 14.7158L7.76512 17.8901C7.62374 18.0323 7.37662 18.0323 7.23487 17.8901C7.16399 17.8193 7.12499 17.7251 7.12499 17.625C7.12499 17.5249 7.16399 17.4308 7.23487 17.3599L10.9395 13.6553L15.7046 18.4204C15.9169 18.633 16.1992 18.75 16.5 18.75C16.8007 18.75 17.0831 18.6326 17.2954 18.4204C17.7341 17.9816 17.7341 17.2684 17.2954 16.8296C17.1487 16.683 16.9117 16.683 16.7651 16.8296C16.6185 16.9763 16.6185 17.2133 16.7651 17.3599C16.9114 17.5061 16.9114 17.7439 16.7651 17.8901C16.6237 18.0323 16.3766 18.0323 16.2349 17.8901L4.98487 6.64014C4.83862 6.49389 4.83862 6.25614 4.98487 6.10989C5.12624 5.96777 5.37337 5.96777 5.51512 6.10989L15.8587 16.4539C16.0054 16.6005 16.2424 16.6005 16.389 16.4539C16.5356 16.3073 16.5356 16.0703 16.389 15.9236L12.5302 12.0645L18.4849 6.10989C18.6262 5.96777 18.8734 5.96777 19.0151 6.10989C19.1614 6.25614 19.1614 6.49389 19.0151 6.64014L13.5776 12.0776C13.431 12.2243 13.431 12.4613 13.5776 12.6079C13.6507 12.681 13.7467 12.7178 13.8427 12.7178C13.9387 12.7178 14.0347 12.681 14.1079 12.6079L16.8427 9.87302L17.4697 10.5L16.875 11.0948L16.7651 10.9849C16.6185 10.8383 16.3815 10.8383 16.2349 10.9849C16.0882 11.1315 16.0882 11.3685 16.2349 11.5151L19.9849 15.2651C20.055 15.3356 20.1506 15.375 20.25 15.375C20.3494 15.375 20.445 15.3356 20.5151 15.2651L21.6397 14.1405C21.6397 14.1401 21.6397 14.1401 21.6397 14.1401C21.6401 14.1401 21.6401 14.1398 21.6401 14.1398L22.7644 13.0155H22.7647C22.7651 13.0148 22.7651 13.0148 22.7655 13.0144L23.8901 11.8898C24.0367 11.7431 24.0367 11.5061 23.8901 11.3595ZM6.03224 8.74802L6.627 9.34277L5.99999 9.96977L5.40524 9.37502L6.03224 8.74802ZM5.99999 12.2198L5.40524 11.625L5.99999 11.0303L6.59474 11.625L5.99999 12.2198ZM4.87499 13.3448L4.28024 12.75L4.87499 12.1553L5.46974 12.75L4.87499 13.3448ZM2.03062 12.75L2.62499 12.1553L3.21974 12.75L2.62499 13.3448L2.03062 12.75ZM3.15524 11.625L3.74999 11.0303L4.34474 11.625L3.74999 12.2198L3.15524 11.625ZM2.62499 9.90527L3.21974 10.5L2.62499 11.0948L2.03024 10.5L2.62499 9.90527ZM4.87499 11.0948L4.28024 10.5L4.87499 9.90527L5.46974 10.5L4.87499 11.0948ZM4.34474 9.37502L3.74999 9.96977L3.15524 9.37502L3.74999 8.78027L4.34474 9.37502ZM1.49999 11.0303L2.09474 11.625L1.49999 12.2198L0.905245 11.6246L1.49999 11.0303ZM3.74999 14.4698L3.15524 13.875L3.74999 13.2803L4.34474 13.875L3.74999 14.4698ZM7.12499 11.0948L6.53024 10.5L7.15724 9.87302L7.752 10.4678L7.12499 11.0948ZM21.375 13.3448L20.7802 12.75L21.375 12.1553L21.9694 12.75L21.375 13.3448ZM20.25 12.2198L19.6552 11.625L20.25 11.0303L20.8447 11.625L20.25 12.2198ZM18.5302 12.75L19.125 12.1553L19.7197 12.75L19.125 13.3448L18.5302 12.75ZM19.0927 7.62302L19.7197 8.25002L19.125 8.84477L18.498 8.21777L19.0927 7.62302ZM20.25 8.78027L20.8447 9.37502L20.25 9.96977L19.6552 9.37502L20.25 8.78027ZM19.7197 10.5L19.125 11.0948L18.5302 10.5L19.125 9.90527L19.7197 10.5ZM20.7802 10.5L21.375 9.90527L21.9697 10.5L21.375 11.0948L20.7802 10.5ZM17.373 9.34277L17.9677 8.74802L18.5947 9.37502L18 9.96977L17.373 9.34277ZM18 11.0303L18.5947 11.625L18 12.2198L17.4052 11.625L18 11.0303ZM20.25 14.4698L19.6552 13.875L20.25 13.2803L20.8447 13.875L20.25 14.4698ZM22.5 12.2198L21.9052 11.625L22.5 11.0303L23.0944 11.6246L22.5 12.2198Z" fill="white"/>
</g>
<defs>
<clipPath id="clip0_273:6245">
<rect width="24" height="24" fill="white"/>
</clipPath>
</defs>
</svg>
