<svg width="510" height="225" viewBox="0 0 510 225" fill="none" xmlns="http://www.w3.org/2000/svg">
<path fill-rule="evenodd" clip-rule="evenodd" d="M276.819 170.582C293.044 198.811 306.825 222.683 307.443 223.63L307.444 223.632C308.184 224.767 309.135 225.203 310.232 224.913C311.147 224.67 313.044 224.272 314.448 224.028C315.852 223.784 317 223.361 317 223.087C317 222.479 289.52 174.592 260.133 123.69L262.682 119.255L269.204 116.605C280.974 111.821 294.839 109.605 304.929 110.895C320.121 112.837 333.069 120.479 355.742 140.886C372.302 155.791 381.331 161.946 391.958 165.576C400.067 168.346 400.33 168.381 412.415 168.356C425.919 168.328 431.058 167.348 442.02 162.709L447.675 160.316L478.835 106.057C495.973 76.214 509.997 51.3535 510 50.8104C510.003 50.1335 508.257 50.5018 504.438 51.9834C491.15 57.1393 477.479 59.3699 467.72 57.9748C452.571 55.8091 440.659 48.8313 418.65 29.2321C403.875 16.074 394.749 9.22143 387.352 5.7297C372.047 -1.49433 353.417 -1.90021 334.836 4.58548C327.846 7.02528 327.65 7.05472 327.65 5.66113C327.65 4.79699 323.208 3.51395 319.912 3.42586C319.538 3.41583 287.021 59.3703 255 114.801C222.979 59.3703 190.462 3.41583 190.088 3.42586C186.792 3.51395 182.35 4.79699 182.35 5.66113C182.35 7.05472 182.154 7.02528 175.164 4.58548C156.583 -1.90021 137.953 -1.49433 122.648 5.7297C115.251 9.22143 106.125 16.074 91.3497 29.2321C69.3409 48.8313 57.4294 55.8091 42.28 57.9748C32.5207 59.3699 18.8503 57.1393 5.56153 51.9834C1.74266 50.5018 -0.00308809 50.1335 8.43107e-06 50.8104C0.00291414 51.3535 14.0268 76.214 31.1647 106.057L62.3245 160.316L67.9799 162.709C78.9422 167.348 84.0814 168.328 97.5852 168.356C109.67 168.381 109.933 168.346 118.042 165.576C128.669 161.946 137.698 155.791 154.258 140.886C176.931 120.479 189.879 112.837 205.071 110.895C215.161 109.605 229.026 111.821 240.796 116.605L247.318 119.255L249.867 123.69C220.48 174.592 193 222.479 193 223.087C193 223.361 194.148 223.784 195.552 224.028C196.956 224.272 198.853 224.67 199.768 224.913C200.865 225.203 201.816 224.767 202.556 223.632L202.557 223.63C203.175 222.683 216.956 198.811 233.182 170.582L255 132.621L276.819 170.582ZM124.525 161.101C120.732 162.973 115.251 165.129 112.344 165.893L112.344 165.893C107.906 167.059 105.54 167.71 103.684 167.01C101.49 166.184 100.007 163.472 96.6596 157.498C93.6445 152.118 91.1776 147.334 91.1776 146.867C91.1776 146.4 92.114 146.018 93.2582 146.018C97.27 146.018 106.61 143.056 112.863 139.801L119.175 136.515L123.522 144.016C125.913 148.142 128.668 152.908 129.644 154.608L131.419 157.699L124.525 161.101ZM84.2859 135.956C87.493 141.483 90.1171 146.173 90.1171 146.378L90.1157 146.378C90.1157 147.129 79.8846 146.626 74.2128 145.595C71.0058 145.013 64.8109 143.302 60.4465 141.794L52.5114 139.052L46.3988 128.455C43.0369 122.626 40.2863 117.755 40.2863 117.63C40.2863 117.505 43.6262 118.566 47.7083 119.988C51.7909 121.41 57.8547 123.064 61.1841 123.663C66.9684 124.705 77.394 125.166 77.394 124.38C77.394 124.175 74.77 119.485 71.5629 113.958C68.3557 108.431 65.7317 103.686 65.7317 103.414C65.7317 103.142 67.2823 102.715 69.1774 102.465C74.4619 101.767 83.6876 98.5724 88.8258 95.6607C91.3802 94.2129 93.8363 93.3265 94.3094 93.6815C94.7808 94.0356 97.693 98.8673 100.781 104.419L106.396 114.514L109.533 112.485C111.258 111.37 116.481 107.157 121.139 103.124C125.797 99.0913 129.733 95.6918 129.886 95.5698C130.038 95.4482 132.878 100.15 136.196 106.019C139.514 111.887 142.392 116.689 142.59 116.689C142.789 116.689 146.045 113.967 149.827 110.64C153.609 107.313 158.88 103.131 161.54 101.347C165.876 98.4393 166.453 98.2495 167.109 99.5138C167.511 100.289 170.172 105.006 173.021 109.995L178.203 119.067L172.018 123.56C168.616 126.032 163.559 130.117 160.78 132.637C158 135.158 155.354 137.22 154.901 137.22C154.447 137.22 151.534 132.765 148.428 127.321C145.322 121.877 142.68 117.422 142.557 117.422C142.433 117.422 139.448 119.979 135.923 123.105C125.743 132.131 120.118 136.212 118.997 135.387C118.449 134.983 115.492 130.281 112.426 124.938C109.359 119.594 106.613 115.223 106.323 115.223C106.033 115.223 104.057 116.153 101.932 117.29C95.6255 120.666 91.0074 122.353 84.5509 123.642C81.198 124.311 78.4547 125.095 78.4547 125.383C78.4547 125.671 81.0787 130.429 84.2859 135.956ZM231.887 95.5516C232.527 96.0869 235.499 100.773 238.492 105.965C241.485 111.156 243.794 115.497 243.623 115.61C243.453 115.724 241.166 115.032 238.542 114.073C230.84 111.259 220.819 109.357 213.698 109.357H207.102L201.506 99.6414C198.429 94.2982 195.671 89.5138 195.379 89.0097C194.509 87.5115 205.571 87.8923 213.781 89.6431C221.843 91.3624 230.102 94.0576 231.887 95.5516ZM58.9558 91.756C62.1144 97.1986 64.4692 102.065 64.1885 102.571L64.1887 102.571C62.6991 105.256 36.0413 100.173 29.0771 95.8754C26.9628 94.5707 15.9027 76.8436 15.9027 74.76C15.9027 74.4169 18.3966 75.0104 21.4448 76.0787C29.6796 78.9647 37.0988 80.5643 44.9433 81.1453C50.6049 81.5646 51.9497 81.4667 51.9497 80.6358C51.9497 80.0702 49.3729 75.1669 46.2234 69.7399L40.4971 59.8729L46.4885 58.725C53.7672 57.3305 56.1494 56.4889 63.4278 52.7405C66.5339 51.1409 69.1995 49.9444 69.3516 50.0816C69.5037 50.2187 72.1688 54.7856 75.274 60.2299C78.3793 65.6738 81.088 70.2706 81.2935 70.4447C82.0005 71.0436 89.2106 65.716 96.78 59.0019C100.951 55.3023 104.648 52.3969 104.996 52.5456C105.343 52.6943 108.18 57.2885 111.298 62.755C114.417 68.2214 117.308 72.6941 117.723 72.6941C118.138 72.6941 121.356 70.1369 124.875 67.0115C131.381 61.2317 140.644 54.5601 141.354 55.1425C141.569 55.3192 144.322 59.9977 147.472 65.5395C150.622 71.0818 153.492 75.6187 153.849 75.6219C154.206 75.6252 156.353 74.6051 158.62 73.3552C163.998 70.3896 169.97 68.3012 176.475 67.1108C179.363 66.5823 181.823 66.2201 181.942 66.3061C182.061 66.3921 184.895 71.198 188.241 76.9858C194.55 87.9028 194.647 88.7838 189.542 88.8153C186.462 88.8342 176.801 92.1236 171.384 94.9982C168.557 96.4983 166.072 97.6072 165.863 97.4624C165.654 97.3183 163.268 93.2536 160.561 88.4305C157.853 83.6076 155.194 78.8711 154.652 77.905L153.665 76.1485L150.931 77.905C149.428 78.8711 144.361 82.1866 139.673 86.9942C134.984 91.8017 130.802 94.4227 130.379 94.5403C129.956 94.6581 127.088 90.2725 124.005 84.7949C120.922 79.3172 118.055 74.6882 117.633 74.508C117.212 74.3277 113.987 76.7334 110.468 79.8538C102.262 87.1289 94.7122 92.9617 94.1084 92.4929C93.7239 92.1946 86.5141 79.8995 82.6009 72.8696C81.6889 71.2312 81.5978 71.251 75.2682 74.4736C69.328 77.4979 59.1633 80.7611 55.6828 80.7611C54.8645 80.7611 53.9739 81.0085 53.7038 81.311C53.4338 81.6132 55.7971 86.3135 58.9558 91.756ZM207.269 51.7983L213.387 62.354L213.386 62.3542C216.751 68.1602 219.375 72.9949 219.217 73.0982C219.06 73.2016 216.307 72.3367 213.1 71.1764C205.525 68.4359 197.69 66.8178 189.076 66.2152L182.143 65.7301L176.417 55.8576C173.268 50.4278 170.692 45.561 170.692 45.0423C170.692 42.6532 189.873 45.4357 200.699 49.3952L207.269 51.7983ZM162.741 45.6092C160.408 46.0977 156.783 47.0939 154.684 47.8231L154.685 47.8225C152.586 48.5517 148.64 50.3249 145.916 51.7631C140.968 54.3754 140.962 54.3763 140.041 52.721C136.687 46.6975 128.941 33.4122 128.63 33.1505C127.943 32.5733 121.418 37.3943 113.413 44.3934C109.068 48.1924 105.238 51.1833 104.903 51.0399C104.567 50.8966 101.728 46.2843 98.5937 40.7902C93.3417 31.5839 93.0146 30.666 94.4218 29.0808C97.7692 25.3094 114.688 11.7575 115.744 12.001C116.364 12.1443 119.488 16.7836 122.686 22.3112L128.5 32.3611L131.675 30.7144C141.582 25.5771 154.68 21.7002 156.854 23.262C157.37 23.6324 160.425 28.4904 163.644 34.058C167.526 40.7712 169.073 44.272 168.239 44.451C167.548 44.5995 165.073 45.1207 162.741 45.6092ZM188.666 19.3647C191.609 24.513 194.016 28.8849 194.016 29.0799V29.0808C194.016 29.7705 192.337 29.4204 189.837 28.2096C184.942 25.8379 170.447 22.8563 163.763 22.8461L157.364 22.8363L151.287 12.0954C147.944 6.18764 145.461 1.1797 145.77 0.966312C146.994 0.119526 162.775 2.42576 169.961 4.50143C181.411 7.80877 182.6 8.75317 188.666 19.3647ZM385.475 161.101C389.268 162.973 394.749 165.129 397.656 165.893L397.656 165.893C402.094 167.059 404.46 167.71 406.316 167.01C408.51 166.184 409.993 163.472 413.34 157.498C416.355 152.118 418.822 147.334 418.822 146.867C418.822 146.4 417.886 146.018 416.742 146.018C412.73 146.018 403.39 143.056 397.137 139.801L390.825 136.515L386.478 144.016C384.087 148.142 381.332 152.908 380.356 154.608L378.581 157.699L385.475 161.101ZM425.714 135.956C422.507 141.483 419.883 146.173 419.883 146.378L419.884 146.378C419.884 147.129 430.115 146.626 435.787 145.595C438.994 145.013 445.189 143.302 449.554 141.794L457.489 139.052L463.601 128.455C466.963 122.626 469.714 117.755 469.714 117.63C469.714 117.505 466.374 118.566 462.292 119.988C458.209 121.41 452.145 123.064 448.816 123.663C443.032 124.705 432.606 125.166 432.606 124.38C432.606 124.175 435.23 119.485 438.437 113.958C441.644 108.431 444.268 103.686 444.268 103.414C444.268 103.142 442.718 102.715 440.823 102.465C435.538 101.767 426.312 98.5724 421.174 95.6607C418.62 94.2129 416.164 93.3265 415.691 93.6815C415.219 94.0356 412.307 98.8673 409.219 104.419L403.604 114.514L400.467 112.485C398.742 111.37 393.519 107.157 388.861 103.124C384.203 99.0913 380.267 95.6918 380.114 95.5698C379.962 95.4482 377.122 100.15 373.804 106.019C370.486 111.887 367.608 116.689 367.41 116.689C367.211 116.689 363.955 113.967 360.173 110.64C356.391 107.313 351.12 103.131 348.46 101.347C344.124 98.4393 343.547 98.2495 342.891 99.5138C342.489 100.289 339.828 105.006 336.979 109.995L331.797 119.067L337.982 123.56C341.384 126.032 346.441 130.117 349.22 132.637C352 135.158 354.646 137.22 355.099 137.22C355.553 137.22 358.466 132.765 361.572 127.321C364.678 121.877 367.32 117.422 367.443 117.422C367.567 117.422 370.552 119.979 374.077 123.105C384.258 132.131 389.882 136.212 391.003 135.387C391.551 134.983 394.508 130.281 397.574 124.938C400.641 119.594 403.387 115.223 403.677 115.223C403.967 115.223 405.943 116.153 408.068 117.29C414.374 120.666 418.993 122.353 425.449 123.642C428.802 124.311 431.545 125.095 431.545 125.383C431.545 125.671 428.921 130.429 425.714 135.956ZM278.113 95.5516C277.473 96.0869 274.501 100.773 271.508 105.965C268.515 111.156 266.206 115.497 266.376 115.61C266.547 115.724 268.834 115.032 271.458 114.073C279.16 111.259 289.181 109.357 296.302 109.357H302.898L308.494 99.6414C311.571 94.2982 314.329 89.5138 314.621 89.0097C315.491 87.5115 304.429 87.8923 296.219 89.6431C288.157 91.3624 279.898 94.0576 278.113 95.5516ZM451.044 91.756C447.886 97.1986 445.531 102.065 445.812 102.571L445.811 102.571C447.301 105.256 473.959 100.173 480.923 95.8754C483.037 94.5707 494.097 76.8436 494.097 74.76C494.097 74.4169 491.603 75.0104 488.555 76.0787C480.32 78.9647 472.901 80.5643 465.057 81.1453C459.395 81.5646 458.05 81.4667 458.05 80.6358C458.05 80.0702 460.627 75.1669 463.777 69.7399L469.503 59.8729L463.511 58.725C456.233 57.3305 453.851 56.4889 446.572 52.7405C443.466 51.1409 440.8 49.9444 440.648 50.0816C440.496 50.2187 437.831 54.7856 434.726 60.2299C431.621 65.6738 428.912 70.2706 428.707 70.4447C427.999 71.0436 420.789 65.716 413.22 59.0019C409.049 55.3023 405.352 52.3969 405.004 52.5456C404.657 52.6943 401.82 57.2885 398.702 62.755C395.583 68.2214 392.692 72.6941 392.277 72.6941C391.862 72.6941 388.644 70.1369 385.125 67.0115C378.619 61.2317 369.356 54.5601 368.646 55.1425C368.431 55.3192 365.678 59.9977 362.528 65.5395C359.378 71.0818 356.508 75.6187 356.151 75.6219C355.794 75.6252 353.647 74.6051 351.38 73.3552C346.003 70.3896 340.03 68.3012 333.525 67.1108C330.637 66.5823 328.177 66.2201 328.058 66.3061C327.939 66.3921 325.105 71.198 321.759 76.9858C315.45 87.9028 315.353 88.7838 320.458 88.8153C323.538 88.8342 333.199 92.1236 338.616 94.9982C341.443 96.4983 343.928 97.6072 344.137 97.4624C344.346 97.3183 346.732 93.2536 349.439 88.4305C352.147 83.6076 354.806 78.8711 355.348 77.905L356.335 76.1485L359.069 77.905C360.572 78.8711 365.639 82.1866 370.327 86.9942C375.016 91.8017 379.198 94.4227 379.621 94.5403C380.044 94.6581 382.912 90.2725 385.995 84.7949C389.078 79.3172 391.945 74.6882 392.367 74.508C392.788 74.3277 396.013 76.7334 399.532 79.8538C407.738 87.1289 415.288 92.9617 415.892 92.4929C416.276 92.1946 423.486 79.8995 427.399 72.8696C428.311 71.2312 428.402 71.251 434.732 74.4736C440.672 77.4979 450.837 80.7611 454.317 80.7611C455.135 80.7611 456.026 81.0085 456.296 81.311C456.566 81.6132 454.203 86.3135 451.044 91.756ZM302.731 51.7983L296.613 62.354L296.614 62.3542C293.249 68.1602 290.625 72.9949 290.783 73.0982C290.94 73.2016 293.693 72.3367 296.9 71.1764C304.475 68.4359 312.31 66.8178 320.924 66.2152L327.857 65.7301L333.583 55.8576C336.732 50.4278 339.308 45.561 339.308 45.0423C339.308 42.6532 320.127 45.4357 309.301 49.3952L302.731 51.7983ZM347.259 45.6092C349.592 46.0977 353.217 47.0939 355.316 47.8231L355.315 47.8225C357.414 48.5517 361.36 50.3249 364.084 51.7631C369.032 54.3754 369.038 54.3763 369.959 52.721C373.313 46.6975 381.059 33.4122 381.37 33.1505C382.057 32.5733 388.582 37.3943 396.587 44.3934C400.932 48.1924 404.762 51.1833 405.097 51.0399C405.433 50.8966 408.272 46.2843 411.406 40.7902C416.658 31.5839 416.985 30.666 415.578 29.0808C412.231 25.3094 395.312 11.7575 394.256 12.001C393.636 12.1443 390.512 16.7836 387.314 22.3112L381.5 32.3611L378.325 30.7144C368.418 25.5771 355.32 21.7002 353.146 23.262C352.63 23.6324 349.575 28.4904 346.356 34.058C342.474 40.7712 340.927 44.272 341.761 44.451C342.452 44.5995 344.927 45.1207 347.259 45.6092ZM321.334 19.3647C318.391 24.513 315.984 28.8849 315.984 29.0799V29.0808C315.984 29.7705 317.663 29.4204 320.163 28.2096C325.058 25.8379 339.553 22.8563 346.237 22.8461L352.636 22.8363L358.713 12.0954C362.056 6.18764 364.539 1.1797 364.23 0.966312C363.006 0.119526 347.225 2.42576 340.039 4.50143C328.589 7.80877 327.4 8.75317 321.334 19.3647Z" fill="white" fill-opacity="0.1"/>
</svg>
