<svg width="14" height="14" viewBox="0 0 14 14" fill="none" xmlns="http://www.w3.org/2000/svg">
<path d="M7.00017 0.333374C5.68162 0.333374 4.39269 0.724367 3.29636 1.45691C2.20004 2.18945 1.34555 3.23064 0.840969 4.44882C0.336385 5.66699 0.204362 7.00744 0.461597 8.30064C0.718832 9.59385 1.35377 10.7817 2.28612 11.7141C3.21847 12.6464 4.40636 13.2814 5.69956 13.5386C6.99277 13.7958 8.33322 13.6638 9.55139 13.1592C10.7696 12.6547 11.8108 11.8002 12.5433 10.7038C13.2758 9.60751 13.6668 8.31858 13.6668 7.00004C13.6668 6.12456 13.4944 5.25765 13.1594 4.44882C12.8243 3.63998 12.3333 2.90505 11.7142 2.286C11.0952 1.66694 10.3602 1.17588 9.55139 0.840844C8.74255 0.505812 7.87565 0.333374 7.00017 0.333374ZM7.66683 9.66671C7.66683 9.84352 7.59659 10.0131 7.47157 10.1381C7.34655 10.2631 7.17698 10.3334 7.00017 10.3334C6.82336 10.3334 6.65379 10.2631 6.52876 10.1381C6.40374 10.0131 6.3335 9.84352 6.3335 9.66671V6.33337C6.3335 6.15656 6.40374 5.98699 6.52876 5.86197C6.65379 5.73695 6.82336 5.66671 7.00017 5.66671C7.17698 5.66671 7.34655 5.73695 7.47157 5.86197C7.59659 5.98699 7.66683 6.15656 7.66683 6.33337V9.66671ZM7.00017 5.00004C6.86831 5.00004 6.73942 4.96094 6.62979 4.88769C6.52015 4.81443 6.4347 4.71031 6.38425 4.5885C6.33379 4.46668 6.32059 4.33263 6.34631 4.20331C6.37203 4.07399 6.43553 3.9552 6.52876 3.86197C6.622 3.76873 6.74079 3.70524 6.87011 3.67952C6.99943 3.65379 7.13347 3.667 7.25529 3.71745C7.37711 3.76791 7.48123 3.85336 7.55448 3.96299C7.62773 4.07263 7.66683 4.20152 7.66683 4.33337C7.66683 4.51018 7.59659 4.67975 7.47157 4.80478C7.34655 4.9298 7.17698 5.00004 7.00017 5.00004Z" fill="white" fill-opacity="0.6"/>
</svg>
