<svg width="15" height="14" viewBox="0 0 15 14" fill="none" xmlns="http://www.w3.org/2000/svg">
<path opacity="0.5" d="M7.38933 0.333374C6.07078 0.333374 4.78185 0.724367 3.68552 1.45691C2.5892 2.18945 1.73471 3.23064 1.23013 4.44882C0.725545 5.66699 0.593523 7.00744 0.850757 8.30064C1.10799 9.59385 1.74293 10.7817 2.67528 11.7141C3.60763 12.6464 4.79552 13.2814 6.08872 13.5386C7.38193 13.7958 8.72238 13.6638 9.94055 13.1592C11.1587 12.6547 12.1999 11.8002 12.9325 10.7038C13.665 9.60751 14.056 8.31858 14.056 7.00004C14.056 6.12456 13.8836 5.25765 13.5485 4.44882C13.2135 3.63998 12.7224 2.90505 12.1034 2.286C11.4843 1.66694 10.7494 1.17588 9.94055 0.840844C9.13171 0.505812 8.26481 0.333374 7.38933 0.333374ZM8.05599 9.66671C8.05599 9.84352 7.98575 10.0131 7.86073 10.1381C7.73571 10.2631 7.56614 10.3334 7.38933 10.3334C7.21252 10.3334 7.04295 10.2631 6.91792 10.1381C6.7929 10.0131 6.72266 9.84352 6.72266 9.66671V6.33337C6.72266 6.15656 6.7929 5.98699 6.91792 5.86197C7.04295 5.73695 7.21252 5.66671 7.38933 5.66671C7.56614 5.66671 7.73571 5.73695 7.86073 5.86197C7.98575 5.98699 8.05599 6.15656 8.05599 6.33337V9.66671ZM7.38933 5.00004C7.25747 5.00004 7.12858 4.96094 7.01895 4.88769C6.90931 4.81443 6.82386 4.71031 6.77341 4.5885C6.72295 4.46668 6.70975 4.33263 6.73547 4.20331C6.76119 4.07399 6.82469 3.9552 6.91792 3.86197C7.01116 3.76873 7.12995 3.70524 7.25927 3.67952C7.38859 3.65379 7.52263 3.667 7.64445 3.71745C7.76627 3.76791 7.87039 3.85336 7.94364 3.96299C8.01689 4.07263 8.05599 4.20152 8.05599 4.33337C8.05599 4.51018 7.98575 4.67975 7.86073 4.80478C7.73571 4.9298 7.56614 5.00004 7.38933 5.00004Z" fill="white"/>
</svg>
