<svg width="131" height="158" viewBox="0 0 131 158" fill="none" xmlns="http://www.w3.org/2000/svg">
<path d="M-20.3487 32.6457L-0.217821 12.851L129.73 156.863L122.908 163.571L-20.3487 32.6457Z" fill="url(#paint0_linear_638_16701)" fill-opacity="0.1"/>
<path d="M8.69413 4.23193L41.8192 0.0805924L136.876 155.02L129.73 156.863L8.69413 4.23193Z" fill="url(#paint1_linear_638_16701)" fill-opacity="0.1"/>
<path d="M-31.2286 78.2546L-26.52 45.2041L122.294 162.641L120.876 172.448L-31.2286 78.2546Z" fill="url(#paint2_linear_638_16701)" fill-opacity="0.1"/>
<path d="M-17.5746 138.069L-28.8562 95.7493L120.876 172.448L124.699 186.79L-17.5746 138.069Z" fill="url(#paint3_linear_638_16701)" fill-opacity="0.1"/>
<path d="M59.6674 3.15141L101.791 15.1441L151.151 159.084L136.876 155.02L59.6674 3.15141Z" fill="url(#paint4_linear_638_16701)" fill-opacity="0.1"/>
<defs>
<linearGradient id="paint0_linear_638_16701" x1="176.176" y1="208.831" x2="28.5246" y2="68.5416" gradientUnits="userSpaceOnUse">
<stop stop-color="white"/>
<stop offset="1" stop-color="white" stop-opacity="0"/>
</linearGradient>
<linearGradient id="paint1_linear_638_16701" x1="176.176" y1="208.831" x2="28.5246" y2="68.5416" gradientUnits="userSpaceOnUse">
<stop stop-color="white"/>
<stop offset="1" stop-color="white" stop-opacity="0"/>
</linearGradient>
<linearGradient id="paint2_linear_638_16701" x1="176.176" y1="208.831" x2="28.5246" y2="68.5416" gradientUnits="userSpaceOnUse">
<stop stop-color="white"/>
<stop offset="1" stop-color="white" stop-opacity="0"/>
</linearGradient>
<linearGradient id="paint3_linear_638_16701" x1="176.176" y1="208.831" x2="28.5246" y2="68.5416" gradientUnits="userSpaceOnUse">
<stop stop-color="white"/>
<stop offset="1" stop-color="white" stop-opacity="0"/>
</linearGradient>
<linearGradient id="paint4_linear_638_16701" x1="176.176" y1="208.831" x2="28.5246" y2="68.5416" gradientUnits="userSpaceOnUse">
<stop stop-color="white"/>
<stop offset="1" stop-color="white" stop-opacity="0"/>
</linearGradient>
</defs>
</svg>
