<svg width="38" height="44" viewBox="0 0 38 44" fill="none" xmlns="http://www.w3.org/2000/svg">
<g filter="url(#filter0_d_640_15184)">
<path d="M27.8899 19.66C27.0899 19.66 26.4299 19 26.4299 18.2V11.34C26.4299 7.26 23.1099 3.92 19.0099 3.92C14.9099 3.92 11.5899 7.26 11.5899 11.34V18.2C11.5899 19 10.9299 19.66 10.1299 19.66C9.32992 19.66 8.66992 19 8.66992 18.2V11.34C8.66992 5.64 13.3099 1 19.0099 1C24.7099 1 29.3499 5.64 29.3499 11.34V18.2C29.3499 19.02 28.6899 19.66 27.8899 19.66Z" fill="white"/>
</g>
<g filter="url(#filter1_d_640_15184)">
<path d="M30.0684 16.7402H7.94844C5.58844 16.7402 3.64844 18.6602 3.64844 21.0402V34.7002C3.64844 37.0602 5.56844 39.0002 7.94844 39.0002H30.0684C32.4284 39.0002 34.3684 37.0802 34.3684 34.7002V21.0402C34.3684 18.6602 32.4284 16.7402 30.0684 16.7402ZM20.4684 29.0602C20.4684 29.8602 19.8084 30.5202 19.0084 30.5202C18.2084 30.5202 17.5484 29.8602 17.5484 29.0602V26.6802C17.5484 25.8802 18.2084 25.2202 19.0084 25.2202C19.8084 25.2202 20.4684 25.8802 20.4684 26.6802V29.0602Z" fill="url(#paint0_linear_640_15184)"/>
</g>
<defs>
<filter id="filter0_d_640_15184" x="5.66992" y="0" width="26.6797" height="24.66" filterUnits="userSpaceOnUse" color-interpolation-filters="sRGB">
<feFlood flood-opacity="0" result="BackgroundImageFix"/>
<feColorMatrix in="SourceAlpha" type="matrix" values="0 0 0 0 0 0 0 0 0 0 0 0 0 0 0 0 0 0 127 0" result="hardAlpha"/>
<feOffset dy="2"/>
<feGaussianBlur stdDeviation="1.5"/>
<feComposite in2="hardAlpha" operator="out"/>
<feColorMatrix type="matrix" values="0 0 0 0 0 0 0 0 0 0 0 0 0 0 0 0 0 0 0.3 0"/>
<feBlend mode="normal" in2="BackgroundImageFix" result="effect1_dropShadow_640_15184"/>
<feBlend mode="normal" in="SourceGraphic" in2="effect1_dropShadow_640_15184" result="shape"/>
</filter>
<filter id="filter1_d_640_15184" x="0.648438" y="15.7402" width="36.7207" height="28.26" filterUnits="userSpaceOnUse" color-interpolation-filters="sRGB">
<feFlood flood-opacity="0" result="BackgroundImageFix"/>
<feColorMatrix in="SourceAlpha" type="matrix" values="0 0 0 0 0 0 0 0 0 0 0 0 0 0 0 0 0 0 127 0" result="hardAlpha"/>
<feOffset dy="2"/>
<feGaussianBlur stdDeviation="1.5"/>
<feComposite in2="hardAlpha" operator="out"/>
<feColorMatrix type="matrix" values="0 0 0 0 0 0 0 0 0 0 0 0 0 0 0 0 0 0 0.3 0"/>
<feBlend mode="normal" in2="BackgroundImageFix" result="effect1_dropShadow_640_15184"/>
<feBlend mode="normal" in="SourceGraphic" in2="effect1_dropShadow_640_15184" result="shape"/>
</filter>
<linearGradient id="paint0_linear_640_15184" x1="3.65644" y1="27.8722" x2="34.3604" y2="27.8722" gradientUnits="userSpaceOnUse">
<stop stop-color="#86EC27"/>
<stop offset="1" stop-color="#EFFF37"/>
</linearGradient>
</defs>
</svg>
