<svg width="160" height="56" viewBox="0 0 160 56" fill="none" xmlns="http://www.w3.org/2000/svg">
<path fill-rule="evenodd" clip-rule="evenodd" d="M31.1676 30.9297C28.9386 30.9297 27.0906 30.1861 25.6273 28.7066C24.164 27.2234 23.4286 25.3796 23.4286 23.1791C23.4286 20.9749 24.164 19.1311 25.6273 17.6516C27.0906 16.1721 28.9386 15.4286 31.1676 15.4286C33.0533 15.4286 34.7014 16.0181 36.1006 17.1972C37.5036 18.3726 38.3182 19.8671 38.5445 21.6733H34.1696C34.0112 21.0537 33.6567 20.5468 33.0985 20.16C32.5441 19.7732 31.8992 19.578 31.1676 19.578C30.1229 19.578 29.2743 19.9197 28.6294 20.5956C27.9807 21.2715 27.6564 22.1352 27.6564 23.1791C27.6564 24.223 27.9807 25.0867 28.6294 25.7626C29.2743 26.4385 30.1229 26.7765 31.1676 26.7765C31.9143 26.7765 32.563 26.5812 33.1098 26.1982C33.6605 25.8077 34.0112 25.297 34.1696 24.6624H38.5671C38.3257 26.4836 37.5036 27.9819 36.1006 29.161C34.7014 30.3401 33.0533 30.9297 31.1676 30.9297ZM45.4914 30.9297C43.7415 30.9297 42.3385 30.5053 41.2825 29.6566C40.2265 28.8118 39.6985 27.5125 39.6985 25.7626H43.9263C43.9263 26.5812 44.4618 26.9905 45.5329 26.9905C45.9289 26.9905 46.2344 26.9117 46.4532 26.7577C46.6719 26.6 46.7813 26.3972 46.7813 26.1419C46.7813 25.7476 46.0798 25.3571 44.6881 24.959C44.658 24.9478 44.6353 24.9365 44.6127 24.9365C44.5938 24.9365 44.5712 24.929 44.5486 24.914C44.5297 24.9027 44.5033 24.8952 44.4769 24.8952C41.3881 23.9489 39.8456 22.3455 39.8456 20.0886C39.8456 18.6054 40.3434 17.4564 41.3353 16.6452C42.331 15.8341 43.6095 15.4286 45.1746 15.4286C46.7662 15.4286 48.0749 15.8417 49.0969 16.6678C50.119 17.4939 50.6281 18.7331 50.6281 20.3853H46.4004C46.4004 19.7057 45.993 19.3677 45.1746 19.3677C44.4392 19.3677 44.0734 19.6155 44.0734 20.1074C44.0734 20.1938 44.0885 20.2689 44.1149 20.3402C44.145 20.4116 44.1865 20.4792 44.2431 20.543C44.2997 20.6069 44.3638 20.6669 44.4354 20.7233C44.5033 20.7796 44.5976 20.8322 44.7108 20.881C44.8201 20.9298 44.9257 20.9749 45.0162 21.0086C45.1068 21.0425 45.2312 21.0875 45.3858 21.1364C45.5405 21.1852 45.6762 21.2265 45.7856 21.264C45.8988 21.2978 46.0534 21.3429 46.242 21.3992C46.4305 21.4555 46.5852 21.4931 46.6945 21.5269C49.5721 22.383 51.009 23.9677 51.009 26.2696C51.009 27.7528 50.4961 28.9019 49.4778 29.7092C48.4558 30.5204 47.1245 30.9297 45.4914 30.9297ZM60.196 22.3755H67.3846V25.7626V30.5917H63.7903V29.4238C62.7909 30.4265 61.3806 30.9297 59.5629 30.9297C57.4469 30.9297 55.7007 30.1861 54.3204 28.7066C52.94 27.2234 52.2461 25.3796 52.2461 23.1791C52.2461 20.9749 52.9815 19.1349 54.4448 17.6516C55.9119 16.1684 57.76 15.4286 59.9852 15.4286C61.788 15.4286 63.3754 15.9581 64.7406 17.017C66.1097 18.076 66.9697 19.394 67.3206 20.9749H62.8817C62.2892 20.0436 61.3389 19.578 60.0263 19.578C58.9703 19.578 58.1143 19.9197 57.4583 20.5956C56.802 21.2715 56.4776 22.1352 56.4776 23.1791C56.4776 24.3094 56.802 25.2257 57.4469 25.9316C58.0954 26.6376 58.944 26.9905 59.9852 26.9905C61.2977 26.9905 62.2177 26.5812 62.7532 25.7626H60.196V22.3755ZM82.776 28.6954C81.2634 30.1824 79.404 30.9297 77.2052 30.9297C75.0069 30.9297 73.1509 30.1824 71.6349 28.6954C70.1229 27.2046 69.3646 25.3684 69.3646 23.1791C69.3646 20.9899 70.1229 19.1537 71.6349 17.6629C73.0154 16.3073 74.6783 15.5675 76.6246 15.4474L82.1269 22.8449L80.8223 23.1416C80.8149 22.1277 80.4714 21.2828 79.7966 20.6069C79.1137 19.9197 78.2503 19.578 77.2052 19.578C76.1646 19.578 75.3006 19.9197 74.6183 20.6069C73.932 21.2903 73.5926 22.1465 73.5926 23.1791C73.5926 24.208 73.932 25.068 74.6183 25.7514C75.3006 26.4348 76.1646 26.7765 77.2052 26.7765C78.2503 26.7765 79.1137 26.4348 79.7966 25.7514C80.2337 25.312 80.532 24.8051 80.6863 24.2268L83.7337 27.5688C83.4583 27.9631 83.1377 28.3386 82.776 28.6954Z" fill="#4B68FF"/>
<path fill-rule="evenodd" clip-rule="evenodd" d="M90.956 30.5692L87.8486 25.9091H87.068V30.2462L84.9937 27.0657L86.936 26.6L84.5371 22.6008L86.2983 22.2253H87.068H88.2371H88.5463C88.9834 22.2404 89.3194 22.1389 89.5606 21.9174C89.8023 21.6996 89.9188 21.3804 89.9188 20.9561C89.9188 20.5318 89.8023 20.2088 89.5606 19.9798C89.3194 19.7545 88.9834 19.6418 88.5463 19.6418H88.2371H87.068H84.952L82.9229 15.7478H87.068H88.5463C90.168 15.7478 91.5068 16.2209 92.5628 17.1747C93.6188 18.1285 94.1468 19.3865 94.1468 20.9561C94.1468 22.7623 93.3737 24.1366 91.8234 25.0829L95.6291 30.5692H90.956ZM105.427 30.5917L104.922 28.6841H100.653L100.143 30.5917H95.5988L100.419 15.7665H105.155L109.975 30.5917H105.427ZM101.561 25.297H104.013L102.787 20.7421L101.561 25.297ZM117.891 30.9297C115.666 30.9297 113.818 30.1861 112.355 28.7066C110.888 27.2234 110.157 25.3796 110.157 23.1791C110.157 20.9749 110.888 19.1349 112.355 17.6516C113.818 16.1721 115.666 15.4286 117.891 15.4286C119.781 15.4286 121.426 16.0181 122.829 17.1972C124.231 18.3764 125.046 19.8671 125.273 21.6733H120.894C120.739 21.0537 120.385 20.5468 119.826 20.16C119.272 19.7732 118.627 19.578 117.891 19.578C116.851 19.578 116.002 19.9197 115.357 20.5956C114.709 21.2715 114.384 22.1352 114.384 23.1791C114.384 24.223 114.709 25.0867 115.357 25.7626C116.002 26.4385 116.851 26.7765 117.891 26.7765C118.638 26.7765 119.287 26.585 119.838 26.1982C120.389 25.8077 120.739 25.297 120.894 24.6624H125.291C125.054 26.4836 124.231 27.9819 122.829 29.161C121.426 30.3401 119.781 30.9297 117.891 30.9297ZM131.499 26.6939H136.571V30.5917H128.538H127.271V15.7665H131.499H136.466V19.6644H131.499V21.3166H135.938V24.914H131.499V26.6939Z" fill="white"/>
<path d="M23.5605 33.6632H38.3031L38.3068 33.6745V33.682C38.5595 34.3279 39.7023 34.4631 40.928 34.602C41.3428 34.6471 41.6973 34.5982 41.9727 34.5607L41.9538 34.91H23.5605V33.6632ZM60.4303 33.6632H101.584L101.478 34.3317L101.474 34.3392L101.388 34.91H60.6223L60.5394 34.3392L60.5354 34.3317L60.4303 33.6632ZM123.711 33.6632H136.5V34.91H120.057L120.041 34.5607C120.313 34.5982 120.667 34.6471 121.082 34.602C122.311 34.4631 123.451 34.3279 123.707 33.682V33.6745L123.711 33.6632Z" fill="#4B68FF"/>
<path d="M136.5 41.1097H123.756C123.745 41.0608 123.726 41.0083 123.707 40.9557V40.9482C123.451 40.3061 122.311 40.1709 121.082 40.032C120.667 39.9831 120.313 40.0357 120.041 40.0733L120.049 39.863H136.5V41.1097ZM101.618 41.1097H60.3925L60.4074 41.0984L60.5354 40.3023L60.5394 40.2948L60.6034 39.863H101.41L101.474 40.2948L101.478 40.3023L101.603 41.0984L101.618 41.1097ZM38.254 41.1097H23.5605V39.863H41.9613L41.9727 40.0733C41.6973 40.0357 41.3428 39.9831 40.928 40.032C39.7023 40.1709 38.5633 40.3061 38.3068 40.9482V40.9557C38.288 41.0083 38.2691 41.0608 38.254 41.1097Z" fill="#4B68FF"/>
<path d="M129.142 38.0116V36.7611H132.781V38.0116H129.142ZM27.2794 38.0116V36.7611H30.9188V38.0116H27.2794ZM65.48 38.0116V36.7611H69.116V38.0116H65.48ZM78.2126 38.0116V36.7611H81.848V38.0116H78.2126Z" fill="white"/>
<path fill-rule="evenodd" clip-rule="evenodd" d="M45.9628 37.3172C45.9704 36.4385 46.0194 35.5898 46.1212 35.0604C46.2985 35.0491 47.3658 35.2481 47.4752 35.3157C47.4412 35.6274 47.4488 36.123 47.445 36.4535C47.4412 36.7426 47.4412 37.028 47.4412 37.3172C47.4412 37.6025 47.4412 37.8917 47.445 38.1771C47.4488 38.5113 47.4412 39.0069 47.4752 39.3186C47.3658 39.3862 46.2985 39.5852 46.1212 39.5702C46.0194 39.0445 45.9704 38.1958 45.9628 37.3172ZM52.3818 37.3172C52.378 36.9304 52.3554 36.5398 52.3177 36.1456L52.1593 34.8764C52.1895 34.8088 52.1631 34.8501 52.2045 34.805C52.2347 34.7749 53.1549 34.268 53.253 34.2755C53.4152 34.5497 53.5887 35.3157 53.6603 35.7513C53.7395 36.2206 53.781 36.7614 53.7923 37.3172C53.781 37.8729 53.7395 38.4137 53.6603 38.883C53.5887 39.3186 53.4152 40.0846 53.253 40.355C53.1549 40.3625 52.2347 39.8556 52.2045 39.8293C52.1631 39.7842 52.1895 39.8256 52.1593 39.758L52.3177 38.485C52.3554 38.0907 52.378 37.704 52.3818 37.3172ZM59.9057 37.3172C59.8531 36.7389 59.7777 36.1155 59.6908 35.5072C59.6645 35.3044 59.6343 35.0979 59.608 34.8989C59.5628 34.6135 59.5211 34.3394 59.4794 34.0765C59.3743 33.9939 58.9365 33.8512 58.7931 33.7949C58.5103 33.6897 58.2805 33.6935 57.9937 33.6297C57.8543 33.5996 57.82 33.3931 57.6805 33.3818L56.3003 33.3705C55.6931 33.3668 55.9986 33.4156 55.5121 33.6109C55.3763 33.6672 53.3737 33.6259 53.1097 33.6259C52.8909 33.6221 52.8381 33.3029 52.7175 33.1415C52.6496 33.0438 52.2423 32.965 52.1329 32.92L52.1744 33.6109C51.1372 33.5921 50.1001 33.5808 49.0629 33.5733C48.7311 33.5696 48.2709 33.3705 47.9692 33.2429C47.7693 33.1565 46.306 33.2091 46.0156 33.2091C45.7516 33.2128 39.5175 33.1828 39.2761 33.2804C38.7783 33.4757 43.6698 33.7498 43.304 34.0314C43.1984 34.1103 43.1758 34.1441 43.0928 34.2455C42.9796 34.3882 42.9834 34.3469 42.9721 34.6135C42.9646 34.8012 42.957 34.9815 42.9495 35.1655C42.9419 35.312 42.9382 35.4621 42.9306 35.6161C42.9231 35.9616 42.9117 36.6 42.9117 37.3172C42.9117 38.0344 42.9231 38.6728 42.9306 39.0182C42.9419 39.3562 42.957 39.6829 42.9721 40.0171C42.9834 40.2874 42.9796 40.2461 43.0928 40.3851C43.1758 40.4902 43.1984 40.5202 43.304 40.6029C43.6698 40.8845 38.7783 41.1586 39.2761 41.3539C39.5175 41.4478 45.7516 41.4215 46.0156 41.4215C46.306 41.4252 47.7693 41.4741 47.9692 41.3914C48.2709 41.2638 48.7311 41.0648 49.0629 41.061C50.1001 41.0535 51.1372 41.0422 52.1744 41.0234L52.1329 41.7144C52.2423 41.6656 52.6496 41.5867 52.7175 41.4928C52.8381 41.3314 52.8909 41.0084 53.1097 41.0084C53.3737 41.0046 55.3763 40.9671 55.5121 41.0197C55.9986 41.2187 55.6931 41.2675 56.3003 41.26L57.6805 41.2525C57.82 41.2412 57.8543 41.0347 57.9937 41.0046C58.2805 40.9408 58.5103 40.9408 58.7931 40.8394C58.9365 40.7831 59.3743 40.6404 59.4794 40.5578C59.5211 40.2949 59.5628 40.0171 59.608 39.7354C59.6343 39.5364 59.6645 39.3299 59.6908 39.1271C59.7777 38.515 59.8531 37.8954 59.9057 37.3172Z" fill="#4B68FF"/>
<path fill-rule="evenodd" clip-rule="evenodd" d="M59.7663 36.0591H53.7057C53.7434 36.3558 53.7698 36.6712 53.7811 36.9941H59.876C59.8417 36.69 59.804 36.3745 59.7663 36.0591ZM52.3065 36.0591H47.4489L47.4451 36.4534L47.4413 36.9941H52.3744C52.3668 36.7163 52.348 36.4309 52.3178 36.1455L52.3065 36.0591ZM46.0082 36.0591H37.2396C37.2359 36.322 42.9156 36.6449 42.9119 36.9941H45.9667C45.9743 36.6675 45.9893 36.352 46.0082 36.0591ZM59.868 37.7076H53.7811C53.7623 38.0343 53.7359 38.3497 53.6944 38.6427H59.7548C59.7965 38.3272 59.8343 38.0155 59.868 37.7076ZM52.3744 37.7076H47.4413L47.4451 38.177L47.4489 38.6427H52.2989L52.3178 38.4849C52.3442 38.2258 52.3631 37.9667 52.3744 37.7076ZM45.9705 37.7076H42.9119C42.9156 38.0606 37.2585 38.3835 37.2623 38.6427H46.012C45.9893 38.3535 45.978 38.0343 45.9705 37.7076Z" fill="white"/>
<path fill-rule="evenodd" clip-rule="evenodd" d="M116.047 37.3172C116.043 36.4385 115.994 35.5898 115.889 35.0604C115.715 35.0491 114.648 35.2481 114.539 35.3157C114.569 35.6274 114.565 36.123 114.565 36.4535C114.569 36.7426 114.573 37.028 114.573 37.3172C114.573 37.6025 114.569 37.8917 114.565 38.1771C114.565 38.5113 114.569 39.0069 114.539 39.3186C114.648 39.3862 115.715 39.5852 115.889 39.5702C115.994 39.0445 116.043 38.1958 116.047 37.3172ZM109.629 37.3172C109.636 36.9304 109.655 36.5398 109.696 36.1456L109.855 34.8764C109.825 34.8088 109.851 34.8501 109.806 34.805C109.775 34.7749 108.855 34.268 108.757 34.2755C108.599 34.5497 108.425 35.3157 108.354 35.7513C108.274 36.2206 108.229 36.7614 108.222 37.3172C108.229 37.8729 108.274 38.4137 108.354 38.883C108.425 39.3186 108.599 40.0846 108.757 40.355C108.855 40.3625 109.775 39.8556 109.806 39.8293C109.851 39.7842 109.825 39.8256 109.855 39.758L109.696 38.485C109.655 38.0907 109.636 37.704 109.629 37.3172ZM102.105 37.3172C102.161 36.7389 102.237 36.1155 102.319 35.5072C102.35 35.3044 102.376 35.0979 102.406 34.8989C102.447 34.6135 102.493 34.3394 102.534 34.0765C102.64 33.9939 103.074 33.8512 103.221 33.7949C103.503 33.6897 103.734 33.6935 104.02 33.6297C104.156 33.5996 104.194 33.3931 104.333 33.3818L105.714 33.3705C106.321 33.3668 106.011 33.4156 106.502 33.6109C106.638 33.6672 108.64 33.6259 108.901 33.6259C109.119 33.6221 109.176 33.3029 109.293 33.1415C109.365 33.0438 109.768 32.965 109.877 32.92L109.836 33.6109C110.873 33.5921 111.91 33.5808 112.947 33.5733C113.279 33.5696 113.739 33.3705 114.041 33.2429C114.245 33.1565 115.708 33.2091 115.998 33.2091C116.262 33.2128 122.497 33.1828 122.734 33.2804C123.235 33.4757 118.344 33.7498 118.71 34.0314C118.812 34.1103 118.838 34.1441 118.921 34.2455C119.034 34.3882 119.027 34.3469 119.038 34.6135C119.046 34.8012 119.057 34.9815 119.065 35.1655C119.072 35.312 119.076 35.4621 119.079 35.6161C119.091 35.9616 119.098 36.6 119.102 37.3172C119.098 38.0344 119.091 38.6728 119.079 39.0182C119.072 39.3562 119.053 39.6829 119.038 40.0171C119.027 40.2874 119.034 40.2461 118.921 40.3851C118.838 40.4902 118.812 40.5202 118.71 40.6029C118.344 40.8845 123.235 41.1586 122.734 41.3539C122.497 41.4478 116.262 41.4215 115.998 41.4215C115.708 41.4252 114.245 41.4741 114.041 41.3914C113.739 41.2638 113.279 41.0648 112.947 41.061C111.91 41.0535 110.873 41.0422 109.836 41.0234L109.877 41.7144C109.768 41.6656 109.365 41.5867 109.293 41.4928C109.176 41.3314 109.119 41.0084 108.901 41.0084C108.64 41.0046 106.638 40.9671 106.502 41.0197C106.011 41.2187 106.321 41.2675 105.714 41.26L104.333 41.2525C104.194 41.2412 104.156 41.0347 104.02 41.0046C103.734 40.9408 103.503 40.9408 103.221 40.8394C103.074 40.7831 102.64 40.6404 102.534 40.5578C102.493 40.2949 102.447 40.0171 102.406 39.7354C102.376 39.5364 102.35 39.3299 102.319 39.1271C102.237 38.515 102.161 37.8954 102.105 37.3172Z" fill="#E8E13F"/>
<path fill-rule="evenodd" clip-rule="evenodd" d="M102.248 36.0591H108.309C108.271 36.3558 108.245 36.6712 108.229 36.9941H102.138C102.169 36.69 102.206 36.3745 102.248 36.0591ZM109.704 36.0591H114.565L114.569 36.4534V36.9941H109.636C109.647 36.7163 109.666 36.4309 109.697 36.1455L109.704 36.0591ZM116.006 36.0591H124.774C124.778 36.322 119.098 36.6449 119.102 36.9941H116.043C116.036 36.6675 116.025 36.352 116.006 36.0591ZM102.146 37.7076H108.233C108.248 38.0343 108.278 38.3497 108.316 38.6427H102.255C102.218 38.3272 102.18 38.0155 102.146 37.7076ZM109.64 37.7076H114.569V38.177L114.565 38.6427H109.715L109.697 38.4849C109.67 38.2258 109.651 37.9667 109.64 37.7076ZM116.043 37.7076H119.098C119.098 38.0606 124.755 38.3835 124.748 38.6427H116.002C116.021 38.3535 116.036 38.0343 116.043 37.7076Z" fill="white"/>
<path d="M30.9188 38.0116V36.7611H27.2794V38.0116H30.9188ZM132.781 38.0116V36.7611H129.142V38.0116H132.781ZM94.584 38.0116V36.7611H90.9446V38.0116H94.584ZM81.848 38.0116V36.7611H78.2126V38.0116H81.848Z" fill="white"/>
<path fill-rule="evenodd" clip-rule="evenodd" d="M45.9628 37.3172C45.9704 36.4385 46.0194 35.5898 46.1212 35.0604C46.2985 35.0491 47.3658 35.2481 47.4752 35.3157C47.4412 35.6274 47.4488 36.123 47.445 36.4535C47.4412 36.7426 47.4412 37.028 47.4412 37.3172C47.4412 37.6025 47.4412 37.8917 47.445 38.1771C47.4488 38.5113 47.4412 39.0069 47.4752 39.3186C47.3658 39.3862 46.2985 39.5852 46.1212 39.5702C46.0194 39.0445 45.9704 38.1958 45.9628 37.3172ZM52.3818 37.3172C52.378 36.9304 52.3554 36.5398 52.3177 36.1456L52.1593 34.8764C52.1895 34.8088 52.1631 34.8501 52.2045 34.805C52.2347 34.7749 53.1549 34.268 53.253 34.2755C53.4152 34.5497 53.5887 35.3157 53.6603 35.7513C53.7395 36.2206 53.781 36.7614 53.7923 37.3172C53.781 37.8729 53.7395 38.4137 53.6603 38.883C53.5887 39.3186 53.4152 40.0846 53.253 40.355C53.1549 40.3625 52.2347 39.8556 52.2045 39.8293C52.1631 39.7842 52.1895 39.8256 52.1593 39.758L52.3177 38.485C52.3554 38.0907 52.378 37.704 52.3818 37.3172ZM59.9057 37.3172C59.8531 36.7389 59.7777 36.1155 59.6908 35.5072C59.6645 35.3044 59.6343 35.0979 59.608 34.8989C59.5628 34.6135 59.5211 34.3394 59.4794 34.0765C59.3743 33.9939 58.9365 33.8512 58.7931 33.7949C58.5103 33.6897 58.2805 33.6935 57.9937 33.6297C57.8543 33.5996 57.82 33.3931 57.6805 33.3818L56.3003 33.3705C55.6931 33.3668 55.9986 33.4156 55.5121 33.6109C55.3763 33.6672 53.3737 33.6259 53.1097 33.6259C52.8909 33.6221 52.8381 33.3029 52.7175 33.1415C52.6496 33.0438 52.2423 32.965 52.1329 32.92L52.1744 33.6109C51.1372 33.5921 50.1001 33.5808 49.0629 33.5733C48.7311 33.5696 48.2709 33.3705 47.9692 33.2429C47.7693 33.1565 46.306 33.2091 46.0156 33.2091C45.7516 33.2128 39.5175 33.1828 39.2761 33.2804C38.7783 33.4757 43.6698 33.7498 43.304 34.0314C43.1984 34.1103 43.1758 34.1441 43.0928 34.2455C42.9796 34.3882 42.9834 34.3469 42.9721 34.6135C42.9646 34.8012 42.957 34.9815 42.9495 35.1655C42.9419 35.312 42.9382 35.4621 42.9306 35.6161C42.9231 35.9616 42.9117 36.6 42.9117 37.3172C42.9117 38.0344 42.9231 38.6728 42.9306 39.0182C42.9419 39.3562 42.957 39.6829 42.9721 40.0171C42.9834 40.2874 42.9796 40.2461 43.0928 40.3851C43.1758 40.4902 43.1984 40.5202 43.304 40.6029C43.6698 40.8845 38.7783 41.1586 39.2761 41.3539C39.5175 41.4478 45.7516 41.4215 46.0156 41.4215C46.306 41.4252 47.7693 41.4741 47.9692 41.3914C48.2709 41.2638 48.7311 41.0648 49.0629 41.061C50.1001 41.0535 51.1372 41.0422 52.1744 41.0234L52.1329 41.7144C52.2423 41.6656 52.6496 41.5867 52.7175 41.4928C52.8381 41.3314 52.8909 41.0084 53.1097 41.0084C53.3737 41.0046 55.3763 40.9671 55.5121 41.0197C55.9986 41.2187 55.6931 41.2675 56.3003 41.26L57.6805 41.2525C57.82 41.2412 57.8543 41.0347 57.9937 41.0046C58.2805 40.9408 58.5103 40.9408 58.7931 40.8394C58.9365 40.7831 59.3743 40.6404 59.4794 40.5578C59.5211 40.2949 59.5628 40.0171 59.608 39.7354C59.6343 39.5364 59.6645 39.3299 59.6908 39.1271C59.7777 38.515 59.8531 37.8954 59.9057 37.3172Z" fill="white"/>
<path fill-rule="evenodd" clip-rule="evenodd" d="M59.7663 36.0591H53.7057C53.7434 36.3558 53.7698 36.6712 53.7811 36.9941H59.876C59.8417 36.69 59.804 36.3745 59.7663 36.0591ZM52.3065 36.0591H47.4489L47.4451 36.4534L47.4413 36.9941H52.3744C52.3668 36.7163 52.348 36.4309 52.3178 36.1455L52.3065 36.0591ZM46.0082 36.0591H37.2396C37.2359 36.322 42.9156 36.6449 42.9119 36.9941H45.9667C45.9743 36.6675 45.9893 36.352 46.0082 36.0591ZM59.868 37.7076H53.7811C53.7623 38.0343 53.7359 38.3497 53.6944 38.6427H59.7548C59.7965 38.3272 59.8343 38.0155 59.868 37.7076ZM52.3744 37.7076H47.4413L47.4451 38.177L47.4489 38.6427H52.2989L52.3178 38.4849C52.3442 38.2258 52.3631 37.9667 52.3744 37.7076ZM45.9705 37.7076H42.9119C42.9156 38.0606 37.2585 38.3835 37.2623 38.6427H46.012C45.9893 38.3535 45.978 38.0343 45.9705 37.7076Z" fill="white"/>
<path fill-rule="evenodd" clip-rule="evenodd" d="M102.248 36.0591H108.309C108.271 36.3558 108.245 36.6712 108.229 36.9941H102.138C102.169 36.69 102.206 36.3745 102.248 36.0591ZM109.704 36.0591H114.565L114.569 36.4534V36.9941H109.636C109.647 36.7163 109.666 36.4309 109.697 36.1455L109.704 36.0591ZM116.006 36.0591H124.774C124.778 36.322 119.098 36.6449 119.102 36.9941H116.043C116.036 36.6675 116.025 36.352 116.006 36.0591ZM102.146 37.7076H108.233C108.248 38.0343 108.278 38.3497 108.316 38.6427H102.255C102.218 38.3272 102.18 38.0155 102.146 37.7076ZM109.64 37.7076H114.569V38.177L114.565 38.6427H109.715L109.697 38.4849C109.67 38.2258 109.651 37.9667 109.64 37.7076ZM116.043 37.7076H119.098C119.098 38.0606 124.755 38.3835 124.748 38.6427H116.002C116.021 38.3535 116.036 38.0343 116.043 37.7076Z" fill="white"/>
</svg>
