<svg width="87" height="34" viewBox="0 0 87 34" fill="none" xmlns="http://www.w3.org/2000/svg">
<path fill-rule="evenodd" clip-rule="evenodd" d="M8.61946 18.7787C7.26341 18.7787 6.1391 18.3273 5.24883 17.429C4.35856 16.5285 3.91113 15.409 3.91113 14.073C3.91113 12.7347 4.35856 11.6153 5.24883 10.7171C6.1391 9.81876 7.26341 9.36736 8.61946 9.36736C9.76671 9.36736 10.7694 9.72529 11.6207 10.4412C12.4742 11.1548 12.9698 12.0622 13.1075 13.1588H10.4459C10.3495 12.7826 10.1338 12.4748 9.79424 12.24C9.45695 12.0052 9.06459 11.8866 8.61946 11.8866C7.98388 11.8866 7.46762 12.0941 7.07525 12.5045C6.6806 12.9148 6.48327 13.4392 6.48327 14.073C6.48327 14.7068 6.6806 15.2312 7.07525 15.6416C7.46762 16.052 7.98388 16.2572 8.61946 16.2572C9.07377 16.2572 9.46842 16.1386 9.80113 15.9061C10.1361 15.6689 10.3495 15.3589 10.4459 14.9736H13.1213C12.9744 16.0793 12.4742 16.989 11.6207 17.7049C10.7694 18.4208 9.76671 18.7787 8.61946 18.7787ZM17.334 18.7787C16.2693 18.7787 15.4158 18.5211 14.7733 18.0058C14.1309 17.4929 13.8096 16.704 13.8096 15.6416H16.3818C16.3818 16.1386 16.7076 16.3871 17.3592 16.3871C17.6002 16.3871 17.786 16.3392 17.9191 16.2458C18.0522 16.15 18.1187 16.0269 18.1187 15.8719C18.1187 15.6325 17.6919 15.3954 16.8453 15.1537C16.8269 15.1469 16.8131 15.14 16.7994 15.14C16.7879 15.14 16.7741 15.1355 16.7604 15.1263C16.7489 15.1195 16.7328 15.1149 16.7168 15.1149C14.8376 14.5404 13.8991 13.5669 13.8991 12.1967C13.8991 11.2961 14.202 10.5985 14.8054 10.106C15.4112 9.61358 16.189 9.36736 17.1413 9.36736C18.1095 9.36736 18.9057 9.61816 19.5275 10.1197C20.1493 10.6213 20.4591 11.3737 20.4591 12.3768H17.887C17.887 11.9642 17.6392 11.7589 17.1413 11.7589C16.6938 11.7589 16.4713 11.9094 16.4713 12.2081C16.4713 12.2605 16.4804 12.3061 16.4965 12.3494C16.5148 12.3928 16.5401 12.4338 16.5745 12.4726C16.6089 12.5113 16.6479 12.5478 16.6915 12.582C16.7328 12.6162 16.7902 12.6481 16.859 12.6777C16.9256 12.7074 16.9898 12.7347 17.0449 12.7552C17.0999 12.7758 17.1757 12.8031 17.2697 12.8328C17.3638 12.8624 17.4464 12.8875 17.513 12.9103C17.5818 12.9308 17.6759 12.9582 17.7906 12.9924C17.9053 13.0266 17.9994 13.0494 18.0659 13.0699C19.8166 13.5897 20.6908 14.5518 20.6908 15.9494C20.6908 16.8499 20.3788 17.5476 19.7593 18.0377C19.1375 18.5302 18.3275 18.7787 17.334 18.7787ZM26.2801 13.5851H30.6536V15.6416V18.5735H28.4669V17.8645C27.8588 18.4732 27.0008 18.7787 25.8949 18.7787C24.6076 18.7787 23.5452 18.3273 22.7054 17.429C21.8656 16.5285 21.4434 15.409 21.4434 14.073C21.4434 12.7347 21.8909 11.6176 22.7811 10.7171C23.6737 9.8165 24.7981 9.36736 26.1518 9.36736C27.2487 9.36736 28.2145 9.68883 29.045 10.3317C29.878 10.9747 30.4012 11.7749 30.6147 12.7347H27.9141C27.5536 12.1693 26.9754 11.8866 26.1769 11.8866C25.5344 11.8866 25.0136 12.0941 24.6145 12.5045C24.2152 12.9148 24.0179 13.4392 24.0179 14.073C24.0179 14.7593 24.2152 15.3156 24.6076 15.7442C25.0022 16.1728 25.5184 16.3871 26.1518 16.3871C26.9504 16.3871 27.5101 16.1386 27.8359 15.6416H26.2801V13.5851ZM40.0176 17.4222C39.0974 18.325 37.9661 18.7787 36.6283 18.7787C35.2909 18.7787 34.1617 18.325 33.2394 17.4222C32.3195 16.5171 31.8582 15.4022 31.8582 14.073C31.8582 12.7439 32.3195 11.629 33.2394 10.7239C34.0794 9.90084 35.091 9.4517 36.2751 9.37877L39.6227 13.8701L38.829 14.0502C38.8245 13.4347 38.6155 12.9217 38.2049 12.5113C37.7895 12.0941 37.2642 11.8866 36.6283 11.8866C35.9953 11.8866 35.4696 12.0941 35.0545 12.5113C34.637 12.9263 34.4305 13.4461 34.4305 14.073C34.4305 14.6977 34.637 15.2198 35.0545 15.6348C35.4696 16.0497 35.9953 16.2572 36.6283 16.2572C37.2642 16.2572 37.7895 16.0497 38.2049 15.6348C38.4709 15.368 38.6524 15.0602 38.7462 14.7091L40.6003 16.7382C40.4327 16.9776 40.2377 17.2056 40.0176 17.4222Z" fill="#141720"/>
<path fill-rule="evenodd" clip-rule="evenodd" d="M44.9942 18.5598L43.1037 15.7305H42.6288V18.3638L41.3668 16.4327L42.5485 16.15L41.0891 13.7219L42.1605 13.4939H42.6288H43.3401H43.5282C43.7941 13.5031 43.9986 13.4415 44.1453 13.307C44.2923 13.1748 44.3632 12.981 44.3632 12.7233C44.3632 12.4657 44.2923 12.2696 44.1453 12.1306C43.9986 11.9938 43.7941 11.9254 43.5282 11.9254H43.3401H42.6288H41.3414L40.1069 9.56116H42.6288H43.5282C44.5148 9.56116 45.3294 9.84842 45.9718 10.4275C46.6143 11.0066 46.9355 11.7704 46.9355 12.7233C46.9355 13.82 46.4651 14.6544 45.522 15.2289L47.8373 18.5598H44.9942ZM53.7982 18.5735L53.4909 17.4153H50.8935L50.5838 18.5735H47.8189L50.7514 9.57253H53.633L56.5655 18.5735H53.7982ZM51.4463 15.3589H52.9377L52.192 12.5934L51.4463 15.3589ZM61.3815 18.7787C60.0278 18.7787 58.9034 18.3273 58.0135 17.429C57.1207 16.5285 56.6757 15.409 56.6757 14.073C56.6757 12.7347 57.1207 11.6176 58.0135 10.7171C58.9034 9.81876 60.0278 9.36736 61.3815 9.36736C62.5312 9.36736 63.5317 9.72529 64.3852 10.4412C65.2387 11.1571 65.7345 12.0622 65.8721 13.1588H63.2081C63.1139 12.7826 62.8983 12.4748 62.5587 12.24C62.2214 12.0052 61.8289 11.8866 61.3815 11.8866C60.7484 11.8866 60.2322 12.0941 59.8397 12.5045C59.4451 12.9148 59.2476 13.4392 59.2476 14.073C59.2476 14.7068 59.4451 15.2312 59.8397 15.6416C60.2322 16.052 60.7484 16.2572 61.3815 16.2572C61.8359 16.2572 62.2305 16.1409 62.5656 15.9061C62.9008 15.6689 63.1139 15.3589 63.2081 14.9736H65.8836C65.739 16.0793 65.2387 16.989 64.3852 17.7049C63.5317 18.4208 62.5312 18.7787 61.3815 18.7787ZM69.6602 16.207H72.7463V18.5735H67.859H67.0882V9.57253H69.6602H72.682V11.9391H69.6602V12.9422H72.3607V15.1263H69.6602V16.207Z" fill="#F05F31"/>
<path d="M3.99121 20.4384H12.9604L12.9627 20.4452V20.4498C13.1165 20.8419 13.8117 20.924 14.5574 21.0084C14.8098 21.0357 15.0255 21.0061 15.193 20.9833L15.1815 21.1953H3.99121V20.4384ZM26.4224 20.4384H51.46L51.3957 20.8442L51.3933 20.8488L51.3408 21.1953H26.5392L26.4888 20.8488L26.4864 20.8442L26.4224 20.4384ZM64.9218 20.4384H72.7026V21.1953H62.6986L62.6892 20.9833C62.8543 21.0061 63.0702 21.0357 63.3226 21.0084C64.0704 20.924 64.7636 20.8419 64.9194 20.4498V20.4452L64.9218 20.4384Z" fill="#141720"/>
<path d="M72.7026 24.9595H64.9493C64.9423 24.9298 64.9308 24.8979 64.9194 24.866V24.8614C64.7636 24.4716 64.0704 24.3895 63.3226 24.3051C63.0702 24.2755 62.8543 24.3074 62.6892 24.3302L62.6937 24.2025H72.7026V24.9595ZM51.4805 24.9595H26.3995L26.4085 24.9526L26.4864 24.4693L26.4888 24.4647L26.5278 24.2025H51.3543L51.3933 24.4647L51.3957 24.4693L51.4715 24.9526L51.4805 24.9595ZM12.9306 24.9595H3.99121V24.2025H15.1861L15.193 24.3302C15.0255 24.3074 14.8098 24.2755 14.5574 24.3051C13.8117 24.3895 13.1188 24.4716 12.9627 24.8614V24.866C12.9513 24.8979 12.9398 24.9298 12.9306 24.9595Z" fill="#141720"/>
<path d="M68.2261 23.0785V22.3193H70.4403V23.0785H68.2261ZM6.25391 23.0785V22.3193H8.4681V23.0785H6.25391ZM29.4949 23.0785V22.3193H31.707V23.0785H29.4949ZM37.2413 23.0785V22.3193H39.453V23.0785H37.2413Z" fill="#F05F31"/>
<path fill-rule="evenodd" clip-rule="evenodd" d="M17.6206 22.6568C17.6252 22.1234 17.655 21.6081 17.717 21.2866C17.8248 21.2798 18.4741 21.4006 18.5407 21.4417C18.52 21.6309 18.5246 21.9318 18.5223 22.1325C18.52 22.308 18.52 22.4813 18.52 22.6568C18.52 22.8301 18.52 23.0057 18.5223 23.179C18.5246 23.3818 18.52 23.6828 18.5407 23.872C18.4741 23.9131 17.8248 24.0339 17.717 24.0248C17.655 23.7056 17.6252 23.1903 17.6206 22.6568ZM21.5258 22.6568C21.5235 22.422 21.5098 22.1849 21.4868 21.9455L21.3905 21.1749C21.4088 21.1339 21.3928 21.159 21.418 21.1316C21.4363 21.1133 21.9962 20.8056 22.0559 20.8101C22.1545 20.9766 22.2601 21.4417 22.3037 21.7061C22.3519 21.9911 22.3771 22.3194 22.384 22.6568C22.3771 22.9943 22.3519 23.3226 22.3037 23.6076C22.2601 23.872 22.1545 24.3371 22.0559 24.5013C21.9962 24.5058 21.4363 24.1981 21.418 24.1821C21.3928 24.1547 21.4088 24.1798 21.3905 24.1388L21.4868 23.3659C21.5098 23.1265 21.5235 22.8917 21.5258 22.6568ZM26.1033 22.6568C26.0713 22.3057 26.0254 21.9273 25.9726 21.5579C25.9566 21.4348 25.9382 21.3094 25.9222 21.1886C25.8947 21.0153 25.8693 20.8489 25.844 20.6893C25.78 20.6392 25.5137 20.5525 25.4264 20.5183C25.2543 20.4545 25.1146 20.4568 24.9401 20.418C24.8552 20.3998 24.8344 20.2744 24.7495 20.2675L23.9098 20.2607C23.5404 20.2584 23.7263 20.288 23.4303 20.4066C23.3477 20.4408 22.1293 20.4157 21.9687 20.4157C21.8356 20.4134 21.8035 20.2196 21.73 20.1216C21.6887 20.0623 21.4409 20.0145 21.3744 19.9871L21.3996 20.4066C20.7686 20.3952 20.1377 20.3883 19.5067 20.3838C19.3048 20.3815 19.0248 20.2607 18.8413 20.1832C18.7197 20.1307 17.8294 20.1627 17.6527 20.1627C17.4921 20.1649 13.6993 20.1467 13.5524 20.206C13.2496 20.3245 16.2255 20.4909 16.003 20.6619C15.9387 20.7098 15.9249 20.7303 15.8745 20.7919C15.8056 20.8785 15.8079 20.8535 15.801 21.0153C15.7965 21.1293 15.7919 21.2388 15.7873 21.3505C15.7827 21.4394 15.7804 21.5306 15.7758 21.624C15.7712 21.8338 15.7643 22.2214 15.7643 22.6568C15.7643 23.0923 15.7712 23.4799 15.7758 23.6896C15.7827 23.8948 15.7919 24.0932 15.801 24.2961C15.8079 24.4602 15.8056 24.4351 15.8745 24.5195C15.9249 24.5834 15.9387 24.6016 16.003 24.6517C16.2255 24.8227 13.2496 24.9892 13.5524 25.1077C13.6993 25.1647 17.4921 25.1488 17.6527 25.1488C17.8294 25.151 18.7197 25.1807 18.8413 25.1305C19.0248 25.053 19.3048 24.9322 19.5067 24.9299C20.1377 24.9253 20.7686 24.9185 21.3996 24.9071L21.3744 25.3266C21.4409 25.2969 21.6887 25.2491 21.73 25.1921C21.8035 25.0941 21.8356 24.898 21.9687 24.898C22.1293 24.8957 23.3477 24.8729 23.4303 24.9048C23.7263 25.0256 23.5404 25.0553 23.9098 25.0507L24.7495 25.0462C24.8344 25.0393 24.8552 24.9139 24.9401 24.8957C25.1146 24.8569 25.2543 24.8569 25.4264 24.7954C25.5137 24.7612 25.78 24.6745 25.844 24.6244C25.8693 24.4648 25.8947 24.2961 25.9222 24.1251C25.9382 24.0043 25.9566 23.8789 25.9726 23.7557C26.0254 23.3841 26.0713 23.0079 26.1033 22.6568Z" fill="#141720"/>
<path fill-rule="evenodd" clip-rule="evenodd" d="M26.0185 21.893H22.3313C22.3542 22.0732 22.3703 22.2647 22.3772 22.4607H26.0852C26.0644 22.2761 26.0414 22.0845 26.0185 21.893ZM21.48 21.893H18.5247L18.5224 22.1324L18.5201 22.4607H21.5213C21.5167 22.292 21.5053 22.1188 21.4869 21.9455L21.48 21.893ZM17.6482 21.893H12.3135C12.3112 22.0526 15.7667 22.2487 15.7644 22.4607H17.623C17.6276 22.2624 17.6367 22.0709 17.6482 21.893ZM26.0804 22.8939H22.3772C22.3657 23.0923 22.3496 23.2838 22.3244 23.4616H26.0115C26.0369 23.2701 26.0599 23.0809 26.0804 22.8939ZM21.5213 22.8939H18.5201L18.5224 23.1789L18.5247 23.4616H21.4754L21.4869 23.3659C21.503 23.2085 21.5144 23.0512 21.5213 22.8939ZM17.6253 22.8939H15.7644C15.7667 23.1082 12.3249 23.3043 12.3272 23.4616H17.6505C17.6367 23.2861 17.6298 23.0923 17.6253 22.8939Z" fill="#F05F31"/>
<path fill-rule="evenodd" clip-rule="evenodd" d="M60.2596 22.6568C60.2571 22.1234 60.2272 21.6081 60.1633 21.2866C60.0576 21.2798 59.4082 21.4006 59.3418 21.4417C59.3602 21.6309 59.3578 21.9318 59.3578 22.1325C59.3602 22.308 59.3623 22.4813 59.3623 22.6568C59.3623 22.8301 59.3602 23.0057 59.3578 23.179C59.3578 23.3818 59.3602 23.6828 59.3418 23.872C59.4082 23.9131 60.0576 24.0339 60.1633 24.0248C60.2272 23.7056 60.2571 23.1903 60.2596 22.6568ZM56.3544 22.6568C56.3589 22.422 56.3704 22.1849 56.3954 21.9455L56.4921 21.1749C56.4736 21.1339 56.4896 21.159 56.4622 21.1316C56.4437 21.1133 55.884 20.8056 55.8242 20.8101C55.7279 20.9766 55.6222 21.4417 55.5788 21.7061C55.5305 21.9911 55.503 22.3194 55.4985 22.6568C55.503 22.9943 55.5305 23.3226 55.5788 23.6076C55.6222 23.872 55.7279 24.3371 55.8242 24.5013C55.884 24.5058 56.4437 24.1981 56.4622 24.1821C56.4896 24.1547 56.4736 24.1798 56.4921 24.1388L56.3954 23.3659C56.3704 23.1265 56.3589 22.8917 56.3544 22.6568ZM51.7769 22.6568C51.8113 22.3057 51.8572 21.9273 51.9076 21.5579C51.926 21.4348 51.942 21.3094 51.9604 21.1886C51.9854 21.0153 52.0129 20.8489 52.0383 20.6893C52.1026 20.6392 52.3665 20.5525 52.4558 20.5183C52.6279 20.4545 52.768 20.4568 52.9422 20.418C53.0249 20.3998 53.0479 20.2744 53.1327 20.2675L53.9726 20.2607C54.3418 20.2584 54.1538 20.288 54.452 20.4066C54.5348 20.4408 55.753 20.4157 55.9115 20.4157C56.0446 20.4134 56.0791 20.2196 56.15 20.1216C56.1938 20.0623 56.4392 20.0145 56.5056 19.9871L56.4806 20.4066C57.1116 20.3952 57.7426 20.3883 58.3736 20.3838C58.5752 20.3815 58.8554 20.2607 59.039 20.1832C59.1627 20.1307 60.0531 20.1627 60.2297 20.1627C60.3903 20.1649 64.1832 20.1467 64.3278 20.206C64.6327 20.3245 61.6568 20.4909 61.8793 20.6619C61.9415 20.7098 61.9575 20.7303 62.0079 20.7919C62.0768 20.8785 62.0722 20.8535 62.0792 21.0153C62.0837 21.1293 62.0907 21.2388 62.0952 21.3505C62.0997 21.4394 62.1021 21.5306 62.1042 21.624C62.1112 21.8338 62.1157 22.2214 62.1181 22.6568C62.1157 23.0923 62.1112 23.4799 62.1042 23.6896C62.0997 23.8948 62.0882 24.0932 62.0792 24.2961C62.0722 24.4602 62.0768 24.4351 62.0079 24.5195C61.9575 24.5834 61.9415 24.6016 61.8793 24.6517C61.6568 24.8227 64.6327 24.9892 64.3278 25.1077C64.1832 25.1647 60.3903 25.1488 60.2297 25.1488C60.0531 25.151 59.1627 25.1807 59.039 25.1305C58.8554 25.053 58.5752 24.9322 58.3736 24.9299C57.7426 24.9253 57.1116 24.9185 56.4806 24.9071L56.5056 25.3266C56.4392 25.2969 56.1938 25.2491 56.15 25.1921C56.0791 25.0941 56.0446 24.898 55.9115 24.898C55.753 24.8957 54.5348 24.8729 54.452 24.9048C54.1538 25.0256 54.3418 25.0553 53.9726 25.0507L53.1327 25.0462C53.0479 25.0393 53.0249 24.9139 52.9422 24.8957C52.768 24.8569 52.6279 24.8569 52.4558 24.7954C52.3665 24.7612 52.1026 24.6745 52.0383 24.6244C52.0129 24.4648 51.9854 24.2961 51.9604 24.1251C51.942 24.0043 51.926 23.8789 51.9076 23.7557C51.8572 23.3841 51.8113 23.0079 51.7769 22.6568Z" fill="#F05F31"/>
<path fill-rule="evenodd" clip-rule="evenodd" d="M51.8641 21.893H55.5513C55.5284 22.0732 55.5124 22.2647 55.503 22.4607H51.7974C51.8158 22.2761 51.8387 22.0845 51.8641 21.893ZM56.4003 21.893H59.3578L59.3602 22.1324V22.4607H56.3589C56.3659 22.292 56.3773 22.1188 56.3958 21.9455L56.4003 21.893ZM60.2342 21.893H65.5689C65.5713 22.0526 62.1157 22.2487 62.1181 22.4607H60.2571C60.2526 22.2624 60.2457 22.0709 60.2342 21.893ZM51.8019 22.8939H55.5054C55.5145 23.0923 55.5329 23.2838 55.5558 23.4616H51.8686C51.8457 23.2701 51.8227 23.0809 51.8019 22.8939ZM56.3613 22.8939H59.3602V23.1789L59.3578 23.4616H56.4072L56.3958 23.3659C56.3794 23.2085 56.3679 23.0512 56.3613 22.8939ZM60.2571 22.8939H62.1157C62.1157 23.1082 65.5574 23.3043 65.5529 23.4616H60.2321C60.2436 23.2861 60.2526 23.0923 60.2571 22.8939Z" fill="#F05F31"/>
<path d="M8.4681 23.0785V22.3193H6.25391V23.0785H8.4681ZM70.4403 23.0785V22.3193H68.2261V23.0785H70.4403ZM47.2015 23.0785V22.3193H44.9873V23.0785H47.2015ZM39.453 23.0785V22.3193H37.2413V23.0785H39.453Z" fill="#F05F31"/>
<path fill-rule="evenodd" clip-rule="evenodd" d="M17.6206 22.6568C17.6252 22.1234 17.655 21.6081 17.717 21.2866C17.8248 21.2798 18.4741 21.4006 18.5407 21.4417C18.52 21.6309 18.5246 21.9318 18.5223 22.1325C18.52 22.308 18.52 22.4813 18.52 22.6568C18.52 22.8301 18.52 23.0057 18.5223 23.179C18.5246 23.3818 18.52 23.6828 18.5407 23.872C18.4741 23.9131 17.8248 24.0339 17.717 24.0248C17.655 23.7056 17.6252 23.1903 17.6206 22.6568ZM21.5258 22.6568C21.5235 22.422 21.5098 22.1849 21.4868 21.9455L21.3905 21.1749C21.4088 21.1339 21.3928 21.159 21.418 21.1316C21.4363 21.1133 21.9962 20.8056 22.0559 20.8101C22.1545 20.9766 22.2601 21.4417 22.3037 21.7061C22.3519 21.9911 22.3771 22.3194 22.384 22.6568C22.3771 22.9943 22.3519 23.3226 22.3037 23.6076C22.2601 23.872 22.1545 24.3371 22.0559 24.5013C21.9962 24.5058 21.4363 24.1981 21.418 24.1821C21.3928 24.1547 21.4088 24.1798 21.3905 24.1388L21.4868 23.3659C21.5098 23.1265 21.5235 22.8917 21.5258 22.6568ZM26.1033 22.6568C26.0713 22.3057 26.0254 21.9273 25.9726 21.5579C25.9566 21.4348 25.9382 21.3094 25.9222 21.1886C25.8947 21.0153 25.8693 20.8489 25.844 20.6893C25.78 20.6392 25.5137 20.5525 25.4264 20.5183C25.2543 20.4545 25.1146 20.4568 24.9401 20.418C24.8552 20.3998 24.8344 20.2744 24.7495 20.2675L23.9098 20.2607C23.5404 20.2584 23.7263 20.288 23.4303 20.4066C23.3477 20.4408 22.1293 20.4157 21.9687 20.4157C21.8356 20.4134 21.8035 20.2196 21.73 20.1216C21.6887 20.0623 21.4409 20.0145 21.3744 19.9871L21.3996 20.4066C20.7686 20.3952 20.1377 20.3883 19.5067 20.3838C19.3048 20.3815 19.0248 20.2607 18.8413 20.1832C18.7197 20.1307 17.8294 20.1627 17.6527 20.1627C17.4921 20.1649 13.6993 20.1467 13.5524 20.206C13.2496 20.3245 16.2255 20.4909 16.003 20.6619C15.9387 20.7098 15.9249 20.7303 15.8745 20.7919C15.8056 20.8785 15.8079 20.8535 15.801 21.0153C15.7965 21.1293 15.7919 21.2388 15.7873 21.3505C15.7827 21.4394 15.7804 21.5306 15.7758 21.624C15.7712 21.8338 15.7643 22.2214 15.7643 22.6568C15.7643 23.0923 15.7712 23.4799 15.7758 23.6896C15.7827 23.8948 15.7919 24.0932 15.801 24.2961C15.8079 24.4602 15.8056 24.4351 15.8745 24.5195C15.9249 24.5834 15.9387 24.6016 16.003 24.6517C16.2255 24.8227 13.2496 24.9892 13.5524 25.1077C13.6993 25.1647 17.4921 25.1488 17.6527 25.1488C17.8294 25.151 18.7197 25.1807 18.8413 25.1305C19.0248 25.053 19.3048 24.9322 19.5067 24.9299C20.1377 24.9253 20.7686 24.9185 21.3996 24.9071L21.3744 25.3266C21.4409 25.2969 21.6887 25.2491 21.73 25.1921C21.8035 25.0941 21.8356 24.898 21.9687 24.898C22.1293 24.8957 23.3477 24.8729 23.4303 24.9048C23.7263 25.0256 23.5404 25.0553 23.9098 25.0507L24.7495 25.0462C24.8344 25.0393 24.8552 24.9139 24.9401 24.8957C25.1146 24.8569 25.2543 24.8569 25.4264 24.7954C25.5137 24.7612 25.78 24.6745 25.844 24.6244C25.8693 24.4648 25.8947 24.2961 25.9222 24.1251C25.9382 24.0043 25.9566 23.8789 25.9726 23.7557C26.0254 23.3841 26.0713 23.0079 26.1033 22.6568Z" fill="#F05F31"/>
<path fill-rule="evenodd" clip-rule="evenodd" d="M26.0185 21.893H22.3313C22.3542 22.0732 22.3703 22.2647 22.3772 22.4607H26.0852C26.0644 22.2761 26.0414 22.0845 26.0185 21.893ZM21.48 21.893H18.5247L18.5224 22.1324L18.5201 22.4607H21.5213C21.5167 22.292 21.5053 22.1188 21.4869 21.9455L21.48 21.893ZM17.6482 21.893H12.3135C12.3112 22.0526 15.7667 22.2487 15.7644 22.4607H17.623C17.6276 22.2624 17.6367 22.0709 17.6482 21.893ZM26.0804 22.8939H22.3772C22.3657 23.0923 22.3496 23.2838 22.3244 23.4616H26.0115C26.0369 23.2701 26.0599 23.0809 26.0804 22.8939ZM21.5213 22.8939H18.5201L18.5224 23.1789L18.5247 23.4616H21.4754L21.4869 23.3659C21.503 23.2085 21.5144 23.0512 21.5213 22.8939ZM17.6253 22.8939H15.7644C15.7667 23.1082 12.3249 23.3043 12.3272 23.4616H17.6505C17.6367 23.2861 17.6298 23.0923 17.6253 22.8939Z" fill="#F05F31"/>
<path fill-rule="evenodd" clip-rule="evenodd" d="M51.8641 21.893H55.5513C55.5284 22.0732 55.5124 22.2647 55.503 22.4607H51.7974C51.8158 22.2761 51.8387 22.0845 51.8641 21.893ZM56.4003 21.893H59.3578L59.3602 22.1324V22.4607H56.3589C56.3659 22.292 56.3773 22.1188 56.3958 21.9455L56.4003 21.893ZM60.2342 21.893H65.5689C65.5713 22.0526 62.1157 22.2487 62.1181 22.4607H60.2571C60.2526 22.2624 60.2457 22.0709 60.2342 21.893ZM51.8019 22.8939H55.5054C55.5145 23.0923 55.5329 23.2838 55.5558 23.4616H51.8686C51.8457 23.2701 51.8227 23.0809 51.8019 22.8939ZM56.3613 22.8939H59.3602V23.1789L59.3578 23.4616H56.4072L56.3958 23.3659C56.3794 23.2085 56.3679 23.0512 56.3613 22.8939ZM60.2571 22.8939H62.1157C62.1157 23.1082 65.5574 23.3043 65.5529 23.4616H60.2321C60.2436 23.2861 60.2526 23.0923 60.2571 22.8939Z" fill="#F05F31"/>
</svg>
