<svg width="22" height="22" viewBox="0 0 22 22" fill="none" xmlns="http://www.w3.org/2000/svg">
<path d="M10.4363 12.0794V17.1944C10.4363 17.3311 10.382 17.4623 10.2853 17.559C10.1886 17.6557 10.0574 17.71 9.92066 17.71H4.80566C4.66891 17.71 4.53776 17.6557 4.44106 17.559C4.34436 17.4623 4.29004 17.3311 4.29004 17.1944V12.0794C4.29004 11.9426 4.34436 11.8115 4.44106 11.7148C4.53776 11.6181 4.66891 11.5637 4.80566 11.5637H9.92066C10.0574 11.5637 10.1886 11.6181 10.2853 11.7148C10.382 11.8115 10.4363 11.9426 10.4363 12.0794ZM17.1944 11.5637H12.0794C11.9427 11.5637 11.8115 11.6181 11.7148 11.7148C11.6181 11.8115 11.5638 11.9426 11.5638 12.0794V17.1944C11.5638 17.3311 11.6181 17.4623 11.7148 17.559C11.8115 17.6557 11.9427 17.71 12.0794 17.71H17.1944C17.3312 17.71 17.4623 17.6557 17.559 17.559C17.6557 17.4623 17.71 17.3311 17.71 17.1944V12.0794C17.71 11.9426 17.6557 11.8115 17.559 11.7148C17.4623 11.6181 17.3312 11.5637 17.1944 11.5637ZM9.92066 4.28999H4.80566C4.66891 4.28999 4.53776 4.34432 4.44106 4.44102C4.34436 4.53772 4.29004 4.66887 4.29004 4.80562V9.92062C4.29004 10.0574 4.34436 10.1885 4.44106 10.2852C4.53776 10.3819 4.66891 10.4362 4.80566 10.4362H9.92066C10.0574 10.4362 10.1886 10.3819 10.2853 10.2852C10.382 10.1885 10.4363 10.0574 10.4363 9.92062V4.80562C10.4363 4.66887 10.382 4.53772 10.2853 4.44102C10.1886 4.34432 10.0574 4.28999 9.92066 4.28999ZM14.6369 10.4362C15.2447 10.4362 15.8389 10.256 16.3443 9.91833C16.8496 9.58065 17.2435 9.10069 17.4761 8.53915C17.7087 7.97761 17.7696 7.35971 17.651 6.76358C17.5324 6.16745 17.2397 5.61988 16.8099 5.19009C16.3802 4.76031 15.8326 4.46762 15.2365 4.34904C14.6403 4.23047 14.0224 4.29132 13.4609 4.52392C12.8993 4.75652 12.4194 5.15041 12.0817 5.65578C11.744 6.16116 11.5638 6.75531 11.5638 7.36312C11.5647 8.17788 11.8888 8.95902 12.4649 9.53514C13.041 10.1113 13.8222 10.4353 14.6369 10.4362Z" fill="#E8E13F"/>
</svg>
