<svg width="14" height="14" viewBox="0 0 14 14" fill="none" xmlns="http://www.w3.org/2000/svg">
<path d="M7.00008 1.16675C3.78008 1.16675 1.16675 3.78008 1.16675 7.00008C1.16675 10.2201 3.78008 12.8334 7.00008 12.8334C10.2201 12.8334 12.8334 10.2201 12.8334 7.00008C12.8334 3.78008 10.2201 1.16675 7.00008 1.16675ZM9.10592 4.86508C9.73008 4.86508 10.2317 5.36675 10.2317 5.99092C10.2317 6.61508 9.73008 7.11675 9.10592 7.11675C8.48175 7.11675 7.98008 6.61508 7.98008 5.99092C7.97425 5.36675 8.48175 4.86508 9.10592 4.86508ZM5.60591 3.94341C6.36425 3.94341 6.98258 4.56175 6.98258 5.32008C6.98258 6.07841 6.36425 6.69675 5.60591 6.69675C4.84758 6.69675 4.22925 6.07841 4.22925 5.32008C4.22925 4.55591 4.84175 3.94341 5.60591 3.94341ZM5.60591 9.26925V11.4567C4.20591 11.0192 3.09758 9.94008 2.60758 8.56342C3.22008 7.91008 4.74841 7.57758 5.60591 7.57758C5.91508 7.57758 6.30592 7.62425 6.71425 7.70591C5.75758 8.21342 5.60591 8.88425 5.60591 9.26925ZM7.00008 11.6667C6.84258 11.6667 6.69092 11.6609 6.53925 11.6434V9.26925C6.53925 8.44092 8.25425 8.02675 9.10592 8.02675C9.73008 8.02675 10.8092 8.25425 11.3459 8.69758C10.6634 10.4301 8.97758 11.6667 7.00008 11.6667Z" fill="#141720"/>
</svg>
