<svg width="12" height="10" viewBox="0 0 12 10" fill="none" xmlns="http://www.w3.org/2000/svg">
<path d="M4.188 8.772C4.004 9.076 3.776 9.228 3.504 9.228C3.336 9.228 3.188 9.164 3.06 9.036C2.94 8.916 2.88 8.764 2.88 8.58C2.88 8.428 2.928 8.268 3.024 8.1L7.272 0.767999C7.44 0.464 7.664 0.312 7.944 0.312C8.12 0.312 8.268 0.376 8.388 0.504C8.516 0.624 8.58 0.776 8.58 0.96C8.58 1.112 8.532 1.272 8.436 1.44L4.188 8.772ZM2.628 5.58C1.94 5.58 1.4 5.36 1.008 4.92C0.624 4.472 0.432 3.824 0.432 2.976C0.432 2.152 0.628 1.52 1.02 1.08C1.412 0.632 1.948 0.408 2.628 0.408C3.316 0.408 3.852 0.632 4.236 1.08C4.628 1.52 4.824 2.156 4.824 2.988C4.824 3.836 4.628 4.48 4.236 4.92C3.852 5.36 3.316 5.58 2.628 5.58ZM2.628 4.452C2.876 4.452 3.056 4.34 3.168 4.116C3.28 3.892 3.336 3.516 3.336 2.988C3.336 2.484 3.276 2.12 3.156 1.896C3.044 1.664 2.868 1.548 2.628 1.548C2.388 1.548 2.212 1.66 2.1 1.884C1.988 2.108 1.932 2.476 1.932 2.988C1.932 3.508 1.988 3.884 2.1 4.116C2.212 4.34 2.388 4.452 2.628 4.452ZM8.82 9.084C8.132 9.084 7.592 8.864 7.2 8.424C6.816 7.976 6.624 7.328 6.624 6.48C6.624 5.648 6.816 5.012 7.2 4.572C7.592 4.132 8.132 3.912 8.82 3.912C9.5 3.912 10.036 4.136 10.428 4.584C10.82 5.024 11.016 5.66 11.016 6.492C11.016 7.332 10.82 7.976 10.428 8.424C10.044 8.864 9.508 9.084 8.82 9.084ZM8.82 7.956C9.068 7.956 9.248 7.844 9.36 7.62C9.472 7.396 9.528 7.02 9.528 6.492C9.528 5.98 9.468 5.612 9.348 5.388C9.236 5.156 9.06 5.04 8.82 5.04C8.58 5.04 8.4 5.156 8.28 5.388C8.168 5.612 8.112 5.98 8.112 6.492C8.112 7.02 8.168 7.396 8.28 7.62C8.392 7.844 8.572 7.956 8.82 7.956Z" fill="#46BE60"/>
</svg>
