<svg width="16" height="16" viewBox="0 0 16 16" fill="none" xmlns="http://www.w3.org/2000/svg">
<path d="M6.66673 1.66675C7.59871 1.66671 8.51216 1.92716 9.30398 2.4187C10.0958 2.91024 10.7345 3.6133 11.148 4.44855C11.5614 5.2838 11.7332 6.21799 11.6439 7.14569C11.5547 8.07339 11.2079 8.95767 10.6427 9.69875L13.8047 12.8621C13.9243 12.9821 13.9937 13.143 13.9989 13.3123C14.0041 13.4816 13.9446 13.6466 13.8326 13.7736C13.7205 13.9006 13.5644 13.9803 13.3957 13.9963C13.2271 14.0124 13.0587 13.9637 12.9247 13.8601L12.8621 13.8047L9.69873 10.6427C9.0674 11.1241 8.3305 11.4483 7.54902 11.5883C6.76754 11.7284 5.96395 11.6803 5.20473 11.4481C4.44551 11.216 3.7525 10.8063 3.18303 10.2531C2.61357 9.69991 2.18402 9.01905 1.92995 8.26687C1.67587 7.5147 1.60456 6.71283 1.72193 5.92762C1.83929 5.14241 2.14195 4.39644 2.60486 3.75143C3.06777 3.10642 3.67762 2.58092 4.38396 2.21841C5.09029 1.85589 5.8728 1.66679 6.66673 1.66675ZM6.66673 3.00008C5.69427 3.00008 4.76164 3.38639 4.074 4.07402C3.38637 4.76166 3.00006 5.69429 3.00006 6.66675C3.00006 7.63921 3.38637 8.57184 4.074 9.25947C4.76164 9.94711 5.69427 10.3334 6.66673 10.3334C7.63919 10.3334 8.57182 9.94711 9.25945 9.25947C9.94709 8.57184 10.3334 7.63921 10.3334 6.66675C10.3334 5.69429 9.94709 4.76166 9.25945 4.07402C8.57182 3.38639 7.63919 3.00008 6.66673 3.00008Z" fill="#E8E13F"/>
</svg>
