<svg width="25" height="24" viewBox="0 0 25 24" fill="none" xmlns="http://www.w3.org/2000/svg">
<path d="M15.2635 3.75H19.0133C19.2122 3.75 19.403 3.82902 19.5436 3.96967C19.6843 4.11032 19.7633 4.30109 19.7633 4.5V20.25C19.7633 20.4489 19.6843 20.6397 19.5436 20.7803C19.403 20.921 19.2122 21 19.0133 21H5.51331C5.31439 21 5.12363 20.921 4.98298 20.7803C4.84232 20.6397 4.76331 20.4489 4.76331 20.25V4.5C4.76331 4.30109 4.84232 4.11032 4.98298 3.96967C5.12363 3.82902 5.31439 3.75 5.51331 3.75H9.2631" stroke="#71747C" stroke-width="1.64575" stroke-linecap="round" stroke-linejoin="round"/>
<path d="M8.5144 6.75V6C8.5144 5.00544 8.90949 4.05161 9.61275 3.34835C10.316 2.64509 11.2698 2.25 12.2644 2.25C13.259 2.25 14.2128 2.64509 14.9161 3.34835C15.6193 4.05161 16.0144 5.00544 16.0144 6V6.75H8.5144Z" stroke="#71747C" stroke-width="1.64575" stroke-linecap="round" stroke-linejoin="round"/>
<line x1="7.76233" y1="9.67712" x2="14.5123" y2="9.67712" stroke="#71747C" stroke-width="1.64575"/>
<line x1="7.76233" y1="12.6771" x2="12.2623" y2="12.6771" stroke="#71747C" stroke-width="1.64575"/>
</svg>
