<svg width="35" height="35" viewBox="0 0 35 35" fill="none" xmlns="http://www.w3.org/2000/svg">
<path d="M11.9729 25.2583L10.2083 24.4999C10.4722 25.0405 10.8873 25.4928 11.4032 25.802C11.9192 26.1112 12.5139 26.2639 13.115 26.2416C13.7161 26.2193 14.2978 26.023 14.7894 25.6764C15.2811 25.3299 15.6615 24.8481 15.8846 24.2894C16.1077 23.7308 16.1638 23.1194 16.046 22.5296C15.9283 21.9397 15.6418 21.3967 15.2214 20.9665C14.801 20.5363 14.2647 20.2374 13.6777 20.1061C13.0907 19.9749 12.4782 20.0168 11.9146 20.227L13.7812 20.9999C14.3459 21.2359 14.7938 21.6864 15.0262 22.2526C15.2587 22.8187 15.2568 23.454 15.0208 24.0187C14.7849 24.5834 14.3343 25.0312 13.7682 25.2637C13.2021 25.4961 12.5668 25.4942 12.0021 25.2583H11.9729Z" fill="#141720"/>
<path d="M17.5 2.91678C13.7934 2.9087 10.2228 4.31234 7.51394 6.8424C4.80509 9.37247 3.1613 12.8391 2.91667 16.5376L10.7625 19.7605C10.9769 19.6181 11.2068 19.5006 11.4479 19.4105C11.9768 19.1834 12.55 19.0788 13.125 19.1043L16.6833 13.9126C16.6833 12.8166 17.0084 11.7452 17.6173 10.8338C18.2262 9.92251 19.0917 9.21222 20.1043 8.79278C21.1169 8.37335 22.2312 8.2636 23.3061 8.47743C24.3811 8.69126 25.3685 9.21905 26.1436 9.99407C26.9186 10.7691 27.4464 11.7565 27.6602 12.8315C27.874 13.9065 27.7643 15.0207 27.3448 16.0333C26.9254 17.0459 26.2151 17.9114 25.3038 18.5203C24.3925 19.1293 23.321 19.4543 22.225 19.4543H22.1083L16.9896 23.1001C17.0129 24.1011 16.6636 25.0751 16.0095 25.8332C15.3554 26.5912 14.4431 27.0794 13.4494 27.2029C12.4558 27.3264 11.4517 27.0765 10.6319 26.5017C9.81211 25.9268 9.23499 25.068 9.01251 24.0918L3.51459 21.7584C4.30269 24.3398 5.79166 26.6517 7.81576 28.437C9.83987 30.2223 12.3197 31.4109 14.9792 31.8704C17.6388 32.33 20.3736 32.0425 22.8795 31.0399C25.3853 30.0374 27.5638 28.3591 29.1724 26.192C30.781 24.0248 31.7566 21.4537 31.9907 18.7649C32.2248 16.0762 31.7082 13.3752 30.4983 10.9626C29.2884 8.55006 27.4327 6.52058 25.1379 5.10007C22.843 3.67956 20.1989 2.92375 17.5 2.91678Z" fill="#141720"/>
<path d="M25.9438 13.8542C25.9524 13.1227 25.7434 12.4051 25.3433 11.7926C24.9432 11.1801 24.3701 10.7004 23.6967 10.4144C23.0233 10.1284 22.2801 10.0491 21.5616 10.1865C20.843 10.3239 20.1815 10.6718 19.6611 11.186C19.1407 11.7002 18.785 12.3575 18.639 13.0744C18.4931 13.7913 18.5635 14.5353 18.8415 15.2121C19.1194 15.8888 19.5922 16.4677 20.1999 16.875C20.8075 17.2824 21.5226 17.5 22.2542 17.5C23.224 17.4963 24.1537 17.1124 24.8436 16.4307C25.5335 15.749 25.9285 14.8239 25.9438 13.8542ZM19.4979 13.8542C19.5008 13.3068 19.6658 12.7725 19.972 12.3188C20.2782 11.865 20.7119 11.5122 21.2185 11.3047C21.725 11.0972 22.2817 11.0444 22.8182 11.153C23.3547 11.2615 23.8471 11.5266 24.2331 11.9146C24.6192 12.3027 24.8816 12.7965 24.9874 13.3335C25.0931 13.8706 25.0374 14.427 24.8273 14.9325C24.6171 15.4379 24.262 15.8698 23.8066 16.1736C23.3513 16.4774 22.8162 16.6396 22.2688 16.6396C21.9024 16.6396 21.5397 16.567 21.2016 16.4259C20.8635 16.2849 20.5568 16.0782 20.2991 15.8178C20.0414 15.5574 19.8379 15.2485 19.7004 14.9089C19.5629 14.5694 19.4941 14.2059 19.4979 13.8396V13.8542Z" fill="#141720"/>
</svg>
