<svg width="20" height="20" viewBox="0 0 20 20" fill="none" xmlns="http://www.w3.org/2000/svg">
<path fill-rule="evenodd" clip-rule="evenodd" d="M5.40792 3.54163C2.61309 3.54163 0.466226 6.01698 0.861474 8.78372L1.05389 10.1306L2.26745 14.3781C2.61925 15.6094 3.74467 16.4583 5.02525 16.4583C6.00118 16.4583 6.91014 15.962 7.43788 15.1411L7.74985 14.6558C8.80278 13.0179 11.197 13.0179 12.2499 14.6558L12.4408 14.9527C13.044 15.8911 14.083 16.4583 15.1986 16.4583C16.8301 16.4583 18.2133 15.2586 18.4441 13.6435L19.1383 8.78372C19.5336 6.01698 17.3867 3.54163 14.5919 3.54163C13.9493 3.54163 13.3139 3.67648 12.7267 3.93746L12.2842 4.13412C11.4297 4.51386 11.0838 4.66413 10.7353 4.7381C10.2505 4.84104 9.74935 4.84104 9.26445 4.7381C8.91598 4.66413 8.57007 4.51386 7.71564 4.13412L7.27315 3.93746C6.68595 3.67648 6.05051 3.54163 5.40792 3.54163ZM5.83322 6.87496C6.1784 6.87496 6.45822 7.15478 6.45822 7.49996V8.54163H7.49989C7.84507 8.54163 8.12489 8.82145 8.12489 9.16663C8.12489 9.51181 7.84507 9.79163 7.49989 9.79163H6.45822V10.8333C6.45822 11.1785 6.1784 11.4583 5.83322 11.4583C5.48804 11.4583 5.20822 11.1785 5.20822 10.8333V9.79163H4.16655C3.82138 9.79163 3.54155 9.51181 3.54155 9.16663C3.54155 8.82145 3.82138 8.54163 4.16655 8.54163H5.20822V7.49996C5.20822 7.15478 5.48804 6.87496 5.83322 6.87496ZM14.1666 8.33329C14.6268 8.33329 14.9999 7.9602 14.9999 7.49996C14.9999 7.03972 14.6268 6.66663 14.1666 6.66663C13.7064 6.66663 13.3333 7.03972 13.3333 7.49996C13.3333 7.9602 13.7064 8.33329 14.1666 8.33329ZM12.4999 9.99996C12.9602 9.99996 13.3333 9.62686 13.3333 9.16663C13.3333 8.70639 12.9602 8.33329 12.4999 8.33329C12.0397 8.33329 11.6666 8.70639 11.6666 9.16663C11.6666 9.62686 12.0397 9.99996 12.4999 9.99996ZM16.6666 9.16663C16.6666 9.62686 16.2935 9.99996 15.8333 9.99996C15.373 9.99996 14.9999 9.62686 14.9999 9.16663C14.9999 8.70639 15.373 8.33329 15.8333 8.33329C16.2935 8.33329 16.6666 8.70639 16.6666 9.16663ZM14.1666 11.6666C14.6268 11.6666 14.9999 11.2935 14.9999 10.8333C14.9999 10.3731 14.6268 9.99996 14.1666 9.99996C13.7064 9.99996 13.3333 10.3731 13.3333 10.8333C13.3333 11.2935 13.7064 11.6666 14.1666 11.6666Z" fill="#4B68FF"/>
</svg>
