<svg width="24" height="24" viewBox="0 0 24 24" fill="none" xmlns="http://www.w3.org/2000/svg">
<path d="M4.26013 18.1275H8.56421V5.87249H4.26013C3.5625 5.87249 3 6.4425 3 7.13999V9.28503C3 9.89252 3.42755 10.4175 4.02759 10.5225C4.73254 10.6575 5.25 11.28 5.25 12C5.25 12.72 4.73254 13.3425 4.02759 13.4775C3.42755 13.5825 3 14.1075 3 14.715V16.86C3 17.5575 3.5625 18.1275 4.26013 18.1275ZM19.7325 5.87249H10.0642V18.1275H19.7325C20.43 18.1275 21 17.5575 21 16.86V14.715C21 14.1075 20.5649 13.5825 19.9651 13.4775C19.2601 13.3425 18.75 12.72 18.75 12C18.75 11.28 19.2601 10.6575 19.9726 10.5225C20.5649 10.4175 21 9.89252 21 9.28503V7.13999C21 6.4425 20.43 5.87249 19.7325 5.87249Z" fill="#E8E13F"/>
</svg>
