<svg width="24" height="24" viewBox="0 0 24 24" fill="none" xmlns="http://www.w3.org/2000/svg">
<path d="M16 21C19.527 19.453 21.999 16.091 21.999 12C21.999 7.909 19.527 4.547 16 3V5C18.387 6.386 19.999 9.047 19.999 12C19.999 14.953 18.387 17.614 16 19V21Z" fill="#E8E13F"/>
<path d="M16 7.00008V17.0001C17.225 15.9001 18 13.7711 18 12.0001C18 10.2291 17.225 8.10008 16 7.00008ZM4 17.0001H6.697L14 21.8681V2.13208L6.697 7.00008H4C2.897 7.00008 2 7.89708 2 9.00008V15.0001C2 16.1031 2.897 17.0001 4 17.0001Z" fill="#E8E13F"/>
</svg>
