<svg width="24" height="24" viewBox="0 0 24 24" fill="none" xmlns="http://www.w3.org/2000/svg">
<path d="M7.727 6.31308L3.707 2.29308L2.293 3.70708L20.293 21.7071L21.707 20.2931L19.687 18.2731C21.1861 16.5276 22.0068 14.3009 21.999 12.0001C21.999 7.90908 19.527 4.54708 16 3.00008V5.00008C18.387 6.38608 19.999 9.04708 19.999 12.0001C19.9939 13.7767 19.4069 15.5027 18.328 16.9141L17.042 15.6281C17.644 14.5361 18 13.1901 18 12.0001C18 10.2291 17.225 8.10008 16 7.00008V14.5861L14 12.5861V2.13208L7.727 6.31308ZM4 17.0001H6.697L14 21.8681V18.1211L3.102 7.22308C2.77189 7.38832 2.4941 7.64191 2.29954 7.95564C2.10499 8.26937 2.00129 8.63092 2 9.00008V15.0001C2 16.1031 2.897 17.0001 4 17.0001Z" fill="white" fill-opacity="0.4"/>
</svg>
