<svg width="24" height="25" viewBox="0 0 24 25" fill="none" xmlns="http://www.w3.org/2000/svg">
<path d="M12 22.5C17.5228 22.5 22 18.0228 22 12.5C22 6.97715 17.5228 2.5 12 2.5C6.47715 2.5 2 6.97715 2 12.5C2 18.0228 6.47715 22.5 12 22.5Z" fill="#494C55"/>
<path d="M16.1663 13.3332C16.1663 9.58316 11.9997 6.66647 11.9997 6.66647C11.9997 6.66647 7.83301 9.58316 7.83301 13.3332C7.83301 14.4382 8.27201 15.498 9.05338 16.2794C9.83478 17.0608 10.8946 17.4998 11.9997 17.4998C13.1047 17.4998 14.1645 17.0608 14.9459 16.2794C15.7273 15.498 16.1663 14.4382 16.1663 13.3332Z" stroke="#1B1F2A" stroke-width="1.5" stroke-linecap="round" stroke-linejoin="round"/>
<path d="M11.999 15.1453C12.5086 15.0587 12.9788 14.816 13.3446 14.4506C13.7103 14.0853 13.9537 13.6155 14.0409 13.1059" stroke="#1B1F2A" stroke-width="1.24878" stroke-linecap="round" stroke-linejoin="round"/>
</svg>
