<svg width="24" height="24" viewBox="0 0 24 24" fill="none" xmlns="http://www.w3.org/2000/svg">
<path d="M18 21H6C5.20435 21 4.44129 20.6839 3.87868 20.1213C3.31607 19.5587 3 18.7956 3 18V17C3 16.7348 3.10536 16.4804 3.29289 16.2929C3.48043 16.1054 3.73478 16 4 16C4.26522 16 4.51957 16.1054 4.70711 16.2929C4.89464 16.4804 5 16.7348 5 17V18C5 18.2652 5.10536 18.5196 5.29289 18.7071C5.48043 18.8946 5.73478 19 6 19H18C18.2652 19 18.5196 18.8946 18.7071 18.7071C18.8946 18.5196 19 18.2652 19 18V6C19 5.73478 18.8946 5.48043 18.7071 5.29289C18.5196 5.10536 18.2652 5 18 5H6C5.73478 5 5.48043 5.10536 5.29289 5.29289C5.10536 5.48043 5 5.73478 5 6V7C5 7.26522 4.89464 7.51957 4.70711 7.70711C4.51957 7.89464 4.26522 8 4 8C3.73478 8 3.48043 7.89464 3.29289 7.70711C3.10536 7.51957 3 7.26522 3 7V6C3 5.20435 3.31607 4.44129 3.87868 3.87868C4.44129 3.31607 5.20435 3 6 3H18C18.7956 3 19.5587 3.31607 20.1213 3.87868C20.6839 4.44129 21 5.20435 21 6V18C21 18.7956 20.6839 19.5587 20.1213 20.1213C19.5587 20.6839 18.7956 21 18 21Z" fill="white" fill-opacity="0.2"/>
<path d="M15 13H5C4.73478 13 4.48043 12.8946 4.29289 12.7071C4.10536 12.5196 4 12.2652 4 12C4 11.7348 4.10536 11.4804 4.29289 11.2929C4.48043 11.1054 4.73478 11 5 11H15C15.2652 11 15.5196 11.1054 15.7071 11.2929C15.8946 11.4804 16 11.7348 16 12C16 12.2652 15.8946 12.5196 15.7071 12.7071C15.5196 12.8946 15.2652 13 15 13Z" fill="white" fill-opacity="0.2"/>
<path d="M7.99998 17C7.75384 17 7.51635 16.9092 7.33298 16.745L3.65898 13.452C3.45264 13.271 3.28731 13.048 3.17405 12.7979C3.06079 12.5479 3.0022 12.2765 3.0022 12.002C3.0022 11.7275 3.06079 11.4561 3.17405 11.2061C3.28731 10.956 3.45264 10.733 3.65898 10.552L7.33198 7.255C7.52956 7.07797 7.78938 6.98668 8.05428 7.00121C8.31917 7.01575 8.56745 7.13492 8.74448 7.3325C8.92151 7.53009 9.0128 7.78991 8.99827 8.0548C8.98373 8.3197 8.86456 8.56797 8.66698 8.745L4.99398 12.038L8.66698 15.255C8.81782 15.3901 8.92411 15.5677 8.97179 15.7645C9.01947 15.9613 9.00629 16.1679 8.934 16.357C8.86171 16.5462 8.73371 16.7089 8.56693 16.8237C8.40015 16.9385 8.20245 17 7.99998 17Z" fill="white" fill-opacity="0.2"/>
</svg>
