<svg width="24" height="24" viewBox="0 0 24 24" fill="none" xmlns="http://www.w3.org/2000/svg">
<path d="M20.4942 9.98694C20.3886 5.56546 16.6411 2 12.0497 2C7.48707 2 3.75823 5.52089 3.6079 9.90383C2.67806 10.6645 2 11.7699 2 13.0044C2 14.2056 2.64207 15.2841 3.53317 16.0422C3.79336 18.8827 5.98225 20.8882 8.95037 20.8882H9.30161C9.79622 21.5605 10.6056 22 11.5192 22H12.1322C13.6346 22 14.857 20.8127 14.857 19.3531C14.857 18.4472 14.3843 17.3674 12.1322 17.3674H11.5192C9.90369 17.3674 9.20388 17.9231 8.93729 18.5716C7.72273 18.5679 6.78954 18.0476 6.28758 17.1637C6.29703 17.1638 6.30667 17.1646 6.31622 17.1646C7.29818 17.1646 7.92927 16.703 8.22363 15.7926C8.45519 15.0764 8.43848 14.1663 8.43848 13.1125V12.896C8.43848 11.8421 8.45509 10.932 8.22363 10.216C7.95218 9.37645 7.38809 8.91958 6.53069 8.85342C7.14565 6.46363 9.38666 4.68693 12.0457 4.68693C14.7027 4.68693 16.9405 6.46085 17.5573 8.84805C16.6476 8.88733 16.0287 9.34643 15.7474 10.2162C15.5159 10.9322 15.5017 11.8423 15.5017 12.8962V13.1127C15.5017 14.1665 15.5168 15.0766 15.7484 15.7927C16.0428 16.703 16.6977 17.1647 17.6797 17.1647C19.6346 17.1647 22 15.309 22 13.0045C22 11.8139 21.3731 10.7439 20.4942 9.98694Z" fill="white" fill-opacity="0.2"/>
</svg>
