<svg width="24" height="24" viewBox="0 0 24 24" fill="none" xmlns="http://www.w3.org/2000/svg">
<path d="M17.9185 14.3201C17.6595 14.5711 17.5405 14.9341 17.5995 15.2901L18.4885 20.2101C18.5635 20.6271 18.3875 21.0491 18.0385 21.2901C17.6965 21.5401 17.2415 21.5701 16.8685 21.3701L12.4395 19.0601C12.2855 18.9781 12.1145 18.9341 11.9395 18.9291H11.6685C11.5745 18.9431 11.4825 18.9731 11.3985 19.0191L6.96851 21.3401C6.74951 21.4501 6.50151 21.4891 6.25851 21.4501C5.66651 21.3381 5.27151 20.7741 5.36851 20.1791L6.25851 15.2591C6.31751 14.9001 6.19851 14.5351 5.93951 14.2801L2.32851 10.7801C2.02651 10.4871 1.92151 10.0471 2.05951 9.6501C2.19351 9.2541 2.53551 8.9651 2.94851 8.9001L7.91851 8.1791C8.29651 8.1401 8.62851 7.9101 8.79851 7.5701L10.9885 3.0801C11.0405 2.9801 11.1075 2.8881 11.1885 2.8101L11.2785 2.7401C11.3255 2.6881 11.3795 2.6451 11.4395 2.6101L11.5485 2.5701L11.7185 2.5001H12.1395C12.5155 2.5391 12.8465 2.7641 13.0195 3.1001L15.2385 7.5701C15.3985 7.8971 15.7095 8.1241 16.0685 8.1791L21.0385 8.9001C21.4585 8.9601 21.8095 9.2501 21.9485 9.6501C22.0795 10.0511 21.9665 10.4911 21.6585 10.7801L17.9185 14.3201Z" fill="white" fill-opacity="0.2"/>
</svg>
